<svg width="359" height="395" viewBox="0 0 359 395" fill="none" xmlns="http://www.w3.org/2000/svg">
<path d="M337.5 198.5C337.5 200.778 336.403 203.052 334.208 205.306C332.012 207.561 328.746 209.76 324.497 211.87C316 216.09 303.672 219.904 288.398 223.113C257.858 229.528 215.644 233.5 169 233.5C122.356 233.5 80.1418 229.528 49.6017 223.113C34.3276 219.904 22.0001 216.09 13.5033 211.87C9.25393 209.76 5.98843 207.561 3.79163 205.306C1.5966 203.052 0.5 200.778 0.5 198.5C0.5 196.222 1.5966 193.948 3.79163 191.694C5.98843 189.439 9.25393 187.24 13.5033 185.13C22.0001 180.91 34.3276 177.096 49.6017 173.887C80.1418 167.472 122.356 163.5 169 163.5C215.644 163.5 257.858 167.472 288.398 173.887C303.672 177.096 316 180.91 324.497 185.13C328.746 187.24 332.012 189.439 334.208 191.694C336.403 193.948 337.5 196.222 337.5 198.5Z" stroke="black"/>
<path d="M337.5 223.5C337.5 225.778 336.403 228.052 334.208 230.306C332.012 232.561 328.746 234.76 324.497 236.87C316 241.09 303.672 244.904 288.398 248.113C257.858 254.528 215.644 258.5 169 258.5C122.356 258.5 80.1418 254.528 49.6017 248.113C34.3276 244.904 22.0001 241.09 13.5033 236.87C9.25393 234.76 5.98843 232.561 3.79163 230.306C1.5966 228.052 0.5 225.778 0.5 223.5C0.5 221.222 1.5966 218.948 3.79163 216.694C5.98843 214.439 9.25393 212.24 13.5033 210.13C22.0001 205.91 34.3276 202.096 49.6017 198.887C80.1418 192.472 122.356 188.5 169 188.5C215.644 188.5 257.858 192.472 288.398 198.887C303.672 202.096 316 205.91 324.497 210.13C328.746 212.24 332.012 214.439 334.208 216.694C336.403 218.948 337.5 221.222 337.5 223.5Z" stroke="black"/>
<path d="M337.5 248.5C337.5 250.778 336.403 253.052 334.208 255.306C332.012 257.561 328.746 259.76 324.497 261.87C316 266.09 303.672 269.904 288.398 273.113C257.858 279.528 215.644 283.5 169 283.5C122.356 283.5 80.1418 279.528 49.6017 273.113C34.3276 269.904 22.0001 266.09 13.5033 261.87C9.25393 259.76 5.98843 257.561 3.79163 255.306C1.5966 253.052 0.5 250.778 0.5 248.5C0.5 246.222 1.5966 243.948 3.79163 241.694C5.98843 239.439 9.25393 237.24 13.5033 235.13C22.0001 230.91 34.3276 227.096 49.6017 223.887C80.1418 217.472 122.356 213.5 169 213.5C215.644 213.5 257.858 217.472 288.398 223.887C303.672 227.096 316 230.91 324.497 235.13C328.746 237.24 332.012 239.439 334.208 241.694C336.403 243.948 337.5 246.222 337.5 248.5Z" stroke="black"/>
<path d="M252.343 66.6293L252.511 67.5347L253.179 66.9008L300.311 22.177L272.341 80.823L271.945 81.6542L272.858 81.534L337.276 73.0554L280.177 104.061L279.368 104.5L280.177 104.939L337.276 135.945L272.858 127.466L271.945 127.346L272.341 128.177L300.311 186.823L253.179 142.099L252.511 141.465L252.343 142.371L240.5 206.257L228.657 142.371L228.489 141.465L227.821 142.099L180.689 186.823L208.659 128.177L209.055 127.346L208.142 127.466L143.724 135.945L200.823 104.939L201.632 104.5L200.823 104.061L143.724 73.0554L208.142 81.534L209.055 81.6542L208.659 80.823L180.689 22.177L227.821 66.9008L228.489 67.5347L228.657 66.6293L240.5 2.74317L252.343 66.6293Z" stroke="#191A23"/>
<path d="M277 177L294.789 222.06L341.11 207.874L316.972 249.877L356.944 277.247L309.055 284.563L312.578 332.879L277 300L241.422 332.879L244.945 284.563L197.056 277.247L237.028 249.877L212.89 207.874L259.211 222.06L277 177Z" fill="#191A23"/>
<path d="M112.194 306.102L135.134 264L158.258 306.102L200.269 329.134L158.258 352.166L135.134 394.269L112.194 352.166L70 329.134L112.194 306.102Z" fill="#B9FF66"/>
<circle cx="152.5" cy="186.5" r="62" fill="black" stroke="black"/>
<ellipse cx="132" cy="173" rx="10" ry="20" fill="white"/>
<ellipse cx="173" cy="173" rx="10" ry="20" fill="white"/>
<g clip-path="url(#clip0_45_6831)">
<path d="M215 186.5C215 151.982 187.018 124 152.5 124C117.982 124 90 151.982 90 186.5C90 221.018 117.982 249 152.5 249C187.018 249 215 221.018 215 186.5Z" fill="#191A23"/>
<path d="M110.625 177.125C110.625 175.399 109.226 174 107.5 174C105.774 174 104.375 175.399 104.375 177.125V195.875C104.375 197.601 105.774 199 107.5 199C109.226 199 110.625 197.601 110.625 195.875V177.125Z" fill="#B9FF66"/>
<path d="M121.875 180.25C121.875 178.524 120.476 177.125 118.75 177.125C117.024 177.125 115.625 178.524 115.625 180.25V192.75C115.625 194.476 117.024 195.875 118.75 195.875C120.476 195.875 121.875 194.476 121.875 192.75V180.25Z" fill="#B9FF66"/>
<path d="M200.625 180.25C200.625 178.524 199.226 177.125 197.5 177.125C195.774 177.125 194.375 178.524 194.375 180.25V192.75C194.375 194.476 195.774 195.875 197.5 195.875C199.226 195.875 200.625 194.476 200.625 192.75V180.25Z" fill="#B9FF66"/>
<path d="M133.125 167.75C133.125 166.024 131.726 164.625 130 164.625C128.274 164.625 126.875 166.024 126.875 167.75V205.25C126.875 206.976 128.274 208.375 130 208.375C131.726 208.375 133.125 206.976 133.125 205.25V167.75Z" fill="#B9FF66"/>
<path d="M144.375 145.875C144.375 144.149 142.976 142.75 141.25 142.75C139.524 142.75 138.125 144.149 138.125 145.875V227.125C138.125 228.851 139.524 230.25 141.25 230.25C142.976 230.25 144.375 228.851 144.375 227.125V145.875Z" fill="#B9FF66"/>
<path d="M155.625 158.375C155.625 156.649 154.226 155.25 152.5 155.25C150.774 155.25 149.375 156.649 149.375 158.375V214.625C149.375 216.351 150.774 217.75 152.5 217.75C154.226 217.75 155.625 216.351 155.625 214.625V158.375Z" fill="#B9FF66"/>
<path d="M166.875 167.75C166.875 166.024 165.476 164.625 163.75 164.625C162.024 164.625 160.625 166.024 160.625 167.75V205.25C160.625 206.976 162.024 208.375 163.75 208.375C165.476 208.375 166.875 206.976 166.875 205.25V167.75Z" fill="#B9FF66"/>
<path d="M178.125 177.125C178.125 175.399 176.726 174 175 174C173.274 174 171.875 175.399 171.875 177.125V195.875C171.875 197.601 173.274 199 175 199C176.726 199 178.125 197.601 178.125 195.875V177.125Z" fill="#B9FF66"/>
<path d="M189.375 161.5C189.375 159.774 187.976 158.375 186.25 158.375C184.524 158.375 183.125 159.774 183.125 161.5V211.5C183.125 213.226 184.524 214.625 186.25 214.625C187.976 214.625 189.375 213.226 189.375 211.5V161.5Z" fill="#B9FF66"/>
</g>
<defs>
<clipPath id="clip0_45_6831">
<rect width="125" height="125" fill="white" transform="translate(90 124)"/>
</clipPath>
</defs>
</svg>
