<svg width="359" height="395" viewBox="0 0 359 395" fill="none" xmlns="http://www.w3.org/2000/svg">
<path d="M337.5 198.875C337.5 201.153 336.403 203.428 334.208 205.681C332.012 207.936 328.746 210.136 324.497 212.246C316 216.466 303.672 220.28 288.398 223.488C257.858 229.904 215.644 233.875 169 233.875C122.356 233.875 80.1418 229.904 49.6017 223.488C34.3276 220.28 22.0001 216.466 13.5033 212.246C9.25393 210.136 5.98843 207.936 3.79163 205.681C1.5966 203.428 0.5 201.153 0.5 198.875C0.5 196.598 1.5966 194.323 3.79163 192.07C5.98843 189.815 9.25393 187.615 13.5033 185.505C22.0001 181.285 34.3276 177.471 49.6017 174.263C80.1418 167.847 122.356 163.875 169 163.875C215.644 163.875 257.858 167.847 288.398 174.263C303.672 177.471 316 181.285 324.497 185.505C328.746 187.615 332.012 189.815 334.208 192.07C336.403 194.323 337.5 196.598 337.5 198.875Z" stroke="black"/>
<path d="M337.5 223.875C337.5 226.153 336.403 228.428 334.208 230.681C332.012 232.936 328.746 235.136 324.497 237.246C316 241.466 303.672 245.28 288.398 248.488C257.858 254.904 215.644 258.875 169 258.875C122.356 258.875 80.1418 254.904 49.6017 248.488C34.3276 245.28 22.0001 241.466 13.5033 237.246C9.25393 235.136 5.98843 232.936 3.79163 230.681C1.5966 228.428 0.5 226.153 0.5 223.875C0.5 221.598 1.5966 219.323 3.79163 217.07C5.98843 214.815 9.25393 212.615 13.5033 210.505C22.0001 206.285 34.3276 202.471 49.6017 199.263C80.1418 192.847 122.356 188.875 169 188.875C215.644 188.875 257.858 192.847 288.398 199.263C303.672 202.471 316 206.285 324.497 210.505C328.746 212.615 332.012 214.815 334.208 217.07C336.403 219.323 337.5 221.598 337.5 223.875Z" stroke="black"/>
<path d="M337.5 248.875C337.5 251.153 336.403 253.428 334.208 255.681C332.012 257.936 328.746 260.136 324.497 262.246C316 266.466 303.672 270.28 288.398 273.488C257.858 279.904 215.644 283.875 169 283.875C122.356 283.875 80.1418 279.904 49.6017 273.488C34.3276 270.28 22.0001 266.466 13.5033 262.246C9.25393 260.136 5.98843 257.936 3.79163 255.681C1.5966 253.428 0.5 251.153 0.5 248.875C0.5 246.598 1.5966 244.323 3.79163 242.07C5.98843 239.815 9.25393 237.615 13.5033 235.505C22.0001 231.285 34.3276 227.471 49.6017 224.263C80.1418 217.847 122.356 213.875 169 213.875C215.644 213.875 257.858 217.847 288.398 224.263C303.672 227.471 316 231.285 324.497 235.505C328.746 237.615 332.012 239.815 334.208 242.07C336.403 244.323 337.5 246.598 337.5 248.875Z" stroke="black"/>
<path d="M252.343 67.0048L252.511 67.9102L253.179 67.2763L300.311 22.5525L272.341 81.1985L271.945 82.0297L272.858 81.9095L337.276 73.4309L280.177 104.436L279.368 104.875L280.177 105.315L337.276 136.32L272.858 127.841L271.945 127.721L272.341 128.552L300.311 187.198L253.179 142.475L252.511 141.841L252.343 142.746L240.5 206.632L228.657 142.746L228.489 141.841L227.821 142.475L180.689 187.198L208.659 128.552L209.055 127.721L208.142 127.841L143.724 136.32L200.823 105.315L201.632 104.875L200.823 104.436L143.724 73.4309L208.142 81.9095L209.055 82.0297L208.659 81.1985L180.689 22.5525L227.821 67.2763L228.489 67.9102L228.657 67.0048L240.5 3.11866L252.343 67.0048Z" stroke="#191A23"/>
<path d="M277 177.375L294.789 222.436L341.11 208.249L316.972 250.252L356.944 277.622L309.055 284.939L312.578 333.255L277 300.375L241.422 333.255L244.945 284.939L197.056 277.622L237.028 250.252L212.89 208.249L259.211 222.436L277 177.375Z" fill="#191A23"/>
<path d="M112.194 306.478L135.134 264.375L158.258 306.478L200.269 329.51L158.258 352.542L135.134 394.644L112.194 352.542L70 329.51L112.194 306.478Z" fill="#B9FF66"/>
<path d="M44.4091 205.628C44.4091 205.628 35.9671 118.604 38.3611 118.142C40.7551 117.68 184.689 114.362 185.529 118.142C186.369 121.922 180.405 203.822 177.717 205.628C175.029 207.434 44.5771 207.56 44.4091 205.628Z" fill="white"/>
<path d="M45.4171 205.922L45.0391 202.268C44.7451 199.076 44.4511 195.842 44.1151 192.65C43.6951 188.114 43.2751 183.536 42.8551 179C42.3931 173.75 41.9311 168.5 41.5111 163.25C41.0491 157.958 40.6291 152.666 40.2511 147.374C39.9151 142.712 39.5791 138.008 39.3271 133.304C39.1171 129.902 38.9491 126.5 38.9071 123.056C38.9071 122.006 38.9071 120.956 38.9491 119.948C38.9911 119.57 38.9491 118.814 39.2431 118.52C39.3271 118.436 39.6631 118.436 39.8731 118.436C40.4611 118.394 41.0491 118.394 41.5951 118.352C43.7371 118.268 45.9211 118.184 48.0631 118.142C51.3391 118.058 54.6571 117.974 57.9331 117.89C62.1331 117.806 66.3331 117.68 70.4911 117.596C75.3211 117.512 80.1931 117.386 85.0231 117.302C90.2731 117.218 95.5231 117.134 100.815 117.05C106.233 116.966 111.651 116.882 117.027 116.84C122.445 116.798 127.821 116.756 133.155 116.714C138.237 116.672 143.319 116.672 148.359 116.672C152.895 116.672 157.431 116.714 161.967 116.756C165.705 116.798 169.485 116.882 173.223 117.008C175.953 117.092 178.683 117.218 181.371 117.428C182.295 117.512 183.177 117.596 184.101 117.722L184.353 117.764H184.479L184.941 117.848C184.731 117.764 185.151 117.89 184.941 117.848C185.151 117.932 185.151 117.89 184.899 117.848L184.815 117.806L184.479 117.68C184.647 117.722 184.269 117.596 184.395 117.638C184.269 117.596 184.353 117.596 184.353 117.638C184.353 117.68 184.311 117.554 184.395 117.68C184.437 117.806 184.437 117.932 184.437 118.016C184.479 118.772 184.521 119.528 184.479 120.284C184.437 123.35 184.269 126.458 184.101 129.524C183.849 134.102 183.555 138.722 183.261 143.3C182.883 148.676 182.505 154.094 182.043 159.47C181.623 164.93 181.161 170.39 180.657 175.85C180.195 180.722 179.733 185.552 179.187 190.382C178.767 193.91 178.389 197.396 177.801 200.882C177.633 201.932 177.423 202.94 177.171 203.948C177.087 204.326 176.961 204.956 176.625 205.208C176.289 205.334 175.953 205.376 175.617 205.418C174.861 205.502 174.105 205.586 173.349 205.628C170.829 205.796 168.267 205.88 165.705 205.964C162.009 206.09 158.313 206.174 154.617 206.216C150.039 206.3 145.503 206.384 140.925 206.426C135.801 206.468 130.719 206.51 125.595 206.552C120.177 206.594 114.759 206.594 109.383 206.594C103.965 206.594 98.5891 206.594 93.2131 206.594C88.1311 206.552 83.0071 206.552 77.9251 206.468C73.4311 206.426 68.9371 206.342 64.4431 206.258C60.8311 206.216 57.2191 206.09 53.6071 206.006C51.2131 205.922 48.7771 205.838 46.3831 205.67C45.7111 205.628 45.0811 205.544 44.4091 205.46C44.1991 205.418 44.4931 205.418 44.2411 205.418C44.0731 205.418 44.1991 205.418 44.1991 205.418C44.1991 205.418 44.3251 205.46 44.2411 205.418L44.4091 205.46C44.6191 205.502 45.1231 205.754 45.3331 205.796C45.4171 205.922 45.4171 205.964 45.4171 205.922C45.3751 205.712 44.6191 205.544 44.4511 205.502C44.1151 205.418 43.7791 205.334 43.4011 205.292C43.4431 205.502 43.8631 205.586 43.9891 205.67C44.4931 205.88 45.0391 206.006 45.5431 206.132C46.1731 206.258 46.7611 206.342 47.3911 206.384C49.6591 206.594 51.9691 206.678 54.2371 206.762C57.7231 206.888 61.2511 206.972 64.7371 207.056C69.1891 207.14 73.5991 207.224 78.0511 207.266C83.1331 207.308 88.2151 207.35 93.2971 207.392C98.7571 207.434 104.217 207.434 109.635 207.434C115.053 207.434 120.555 207.434 126.057 207.392C131.265 207.35 136.473 207.35 141.681 207.266C146.343 207.224 151.005 207.14 155.625 207.056C159.405 206.972 163.227 206.888 167.007 206.804C169.653 206.72 172.299 206.636 174.945 206.468C175.743 206.426 176.541 206.384 177.297 206.258C177.717 206.258 178.095 206.174 178.473 206.048C178.809 205.838 178.935 205.334 179.019 204.956C179.271 203.99 179.481 203.024 179.649 202.016C180.279 198.572 180.657 195.044 181.077 191.558C181.623 186.686 182.127 181.814 182.547 176.942C183.051 171.44 183.513 165.896 183.975 160.352C184.395 154.892 184.815 149.474 185.193 144.014C185.529 139.394 185.823 134.732 186.075 130.112C186.243 127.004 186.411 123.938 186.453 120.83C186.495 120.116 186.495 119.36 186.411 118.646C186.369 118.184 186.075 118.1 185.655 117.932C184.017 117.26 182.211 117.05 180.447 116.882C177.843 116.63 175.239 116.504 172.635 116.42C168.981 116.294 165.285 116.21 161.631 116.126C157.137 116.042 152.685 116 148.191 116C143.109 116 138.069 116 132.987 116C127.569 116 122.193 116.042 116.775 116.126C111.273 116.168 105.813 116.252 100.311 116.336C94.9771 116.42 89.6011 116.504 84.2251 116.588C79.3111 116.672 74.3551 116.756 69.4411 116.882C65.1571 116.966 60.8731 117.05 56.6311 117.176C53.2291 117.26 49.8271 117.344 46.4671 117.428C44.2411 117.512 42.0151 117.554 39.7891 117.638C39.2011 117.68 38.5711 117.68 37.9411 117.722C37.7311 117.722 37.3531 117.68 37.1851 117.806C36.8911 118.016 36.8911 118.772 36.8911 119.108C36.8071 120.116 36.8071 121.124 36.8071 122.132C36.8071 125.534 37.0171 128.936 37.2271 132.338C37.4791 137.084 37.8151 141.788 38.1931 146.534C38.5711 151.868 38.9911 157.202 39.4531 162.536C39.9151 167.87 40.3771 173.162 40.8391 178.412C41.2591 182.99 41.6791 187.568 42.0991 192.188C42.3931 195.422 42.6871 198.614 43.0231 201.848C43.1491 202.982 43.2331 204.158 43.3591 205.292C43.4431 205.712 45.3751 205.838 45.4171 205.922Z" fill="#000005"/>
<path d="M46.8032 126.836H177.255L173.307 198.026L51.2132 199.622L46.8032 126.836Z" fill="white"/>
<path d="M47.3913 127.718H172.551C174.231 127.718 175.953 127.802 177.633 127.718H177.843L176.667 126.038L176.457 129.44L175.953 138.344L175.239 150.818L174.441 164.804L173.685 178.328L173.055 189.416L172.677 196.094C172.677 196.262 172.761 197.018 172.635 197.186C172.677 197.144 172.257 197.144 172.215 197.144L168.393 197.186L161.169 197.27L151.173 197.396L139.203 197.564L125.847 197.732L111.819 197.9L97.7913 198.068L84.4353 198.236L72.4233 198.404L62.4273 198.53L55.0773 198.614L51.1293 198.656H50.6253L51.8013 200.336L51.3813 193.07L50.3313 175.64L49.0713 154.64L47.9793 136.622L47.6013 130.616C47.5593 129.692 47.5593 128.684 47.4333 127.76C47.4333 127.718 47.4333 127.676 47.4333 127.634C47.4333 127.256 47.0133 126.794 46.8033 126.5C46.7193 126.416 46.2573 125.87 46.2573 125.996L46.6773 133.262L47.7273 150.692L48.9873 171.692L50.0793 189.836L50.4153 195.842C50.4573 196.766 50.4573 197.774 50.5833 198.698C50.5833 198.74 50.5833 198.782 50.5833 198.824C50.5833 199.16 50.9613 199.58 51.1293 199.832C51.2553 200 51.5073 200.504 51.7593 200.504L55.0353 200.462L63.9393 200.336L77.0433 200.168L93.1293 199.958L110.685 199.748L128.409 199.538L144.915 199.328L158.859 199.118L168.939 198.992L172.047 198.95C172.593 198.992 173.139 198.992 173.685 198.95C173.769 198.95 173.811 198.95 173.895 198.95V198.908L174.273 191.852L175.239 174.758L176.373 154.178L177.381 136.412L177.717 130.532C177.801 129.608 177.885 128.684 177.885 127.76C177.885 127.718 177.885 127.676 177.885 127.634C177.885 127.34 177.045 125.954 176.709 125.954H48.1893C47.6013 125.912 47.0133 125.912 46.4253 125.954C46.3413 125.954 46.2573 125.954 46.2153 125.954C46.3413 126.29 46.5093 126.584 46.7193 126.878C46.8453 127.088 47.1393 127.718 47.3913 127.718Z" fill="#000005"/>
<path d="M113.709 120.872C113.709 120.872 111.693 120.956 112.701 123.056C113.709 125.156 115.305 124.442 115.683 123.056C116.061 121.67 114.465 120.662 113.709 120.872Z" fill="#000005"/>
<path d="M46.8031 212.642C46.8031 212.642 28.4071 237.674 30.0451 238.01C31.6831 238.346 192.963 238.01 193.635 236.036C194.307 234.062 178.221 214.154 177.255 212.684C176.289 211.214 46.8031 212.642 46.8031 212.642Z" fill="white"/>
<path d="M46.0051 211.97C42.5191 216.758 39.0751 221.588 35.6731 226.46C33.6991 229.316 31.7251 232.13 30.0031 235.154C29.6671 235.742 29.0791 236.582 29.0791 237.296C29.0791 238.01 30.0451 238.682 30.7591 238.766C32.9431 238.976 35.2111 238.85 37.3951 238.85C42.3511 238.892 47.3071 238.892 52.2631 238.892C59.1511 238.892 66.0811 238.892 72.9691 238.85C81.0751 238.808 89.2231 238.808 97.3291 238.766C105.897 238.724 114.507 238.64 123.075 238.598C131.307 238.514 139.581 238.43 147.813 238.346C154.995 238.262 162.177 238.136 169.317 238.01C174.693 237.884 180.027 237.8 185.361 237.59C188.133 237.506 190.989 237.506 193.719 237.044C193.929 237.044 194.139 237.002 194.307 236.876C194.769 236.54 194.307 235.7 194.139 235.28C193.509 234.02 192.795 232.844 191.997 231.71C190.863 230.03 189.687 228.35 188.469 226.712C185.949 223.268 183.345 219.908 180.741 216.548C179.943 215.498 179.103 214.448 178.305 213.398L178.011 212.978C177.759 212.642 178.221 213.188 177.843 212.768C177.549 212.39 177.129 212.096 176.709 211.97C175.869 211.76 174.987 211.676 174.147 211.676C172.383 211.592 170.661 211.55 168.897 211.508C163.185 211.382 157.473 211.34 151.761 211.34C144.033 211.298 136.305 211.298 128.619 211.34C120.177 211.382 111.693 211.424 103.209 211.466C95.0611 211.508 86.9551 211.592 78.8071 211.676C72.2551 211.718 65.6611 211.802 59.1091 211.844C55.3291 211.886 51.5491 211.928 47.7271 211.97H46.2991C45.5431 211.97 46.8871 213.44 47.4331 213.44L53.4811 213.356C58.7311 213.314 63.9391 213.272 69.1891 213.188C76.5811 213.104 83.9311 213.062 91.3231 212.978C99.6391 212.894 107.997 212.852 116.313 212.81C124.461 212.768 132.651 212.726 140.799 212.726C147.687 212.726 154.533 212.726 161.421 212.768C165.873 212.81 170.283 212.852 174.735 213.02C175.701 213.02 176.667 213.104 177.591 213.23C177.759 213.272 177.423 213.146 177.549 213.23C177.675 213.314 177.171 213.02 177.213 213.062C176.961 212.894 176.709 212.642 176.541 212.39C176.583 212.474 176.667 212.6 176.751 212.684L177.045 213.104C177.801 214.154 178.599 215.162 179.397 216.17C181.917 219.446 184.479 222.722 186.915 226.082C188.091 227.72 189.267 229.316 190.401 230.996C191.199 232.13 191.955 233.306 192.543 234.566C192.627 234.734 192.753 235.28 192.795 235.364C192.585 235.406 192.375 235.49 192.123 235.532C191.073 235.7 190.023 235.742 188.973 235.826C184.983 236.078 180.699 236.204 176.625 236.288C170.325 236.456 163.983 236.582 157.683 236.666C149.955 236.792 142.269 236.876 134.541 236.96C126.141 237.044 117.741 237.128 109.383 237.17C101.025 237.212 92.7091 237.254 84.3931 237.296C76.8331 237.338 69.2731 237.338 61.7551 237.38C55.7071 237.38 49.6591 237.38 43.6111 237.38C39.8311 237.38 36.0511 237.38 32.2711 237.338C31.4311 237.338 30.6331 237.296 29.7931 237.296C29.7091 237.296 29.6251 237.296 29.5411 237.296H29.4991C29.6671 237.254 30.8851 238.346 30.8011 238.43C30.8011 238.388 30.8011 238.346 30.8011 238.304C31.1371 237.59 31.4731 236.75 31.9351 235.994C33.7411 232.928 35.7571 230.03 37.7731 227.132C39.9991 223.94 42.2251 220.79 44.4931 217.64C45.5431 216.212 46.5511 214.784 47.6011 213.356C47.9791 212.852 46.3411 211.55 46.0051 211.97Z" fill="#000005"/>
<path d="M32.1034 240.908L30.0874 237.968L193.677 235.994C193.677 235.994 193.089 239.816 189.855 240.908C186.621 242 36.4294 243.092 32.1034 240.908Z" fill="#000005"/>
<path d="M32.9853 240.446L30.9693 237.506L30.0033 238.85L34.4133 238.808L46.2993 238.682L63.9813 238.472L85.4013 238.22L109.005 237.926L132.651 237.632L154.869 237.38L173.517 237.17L186.999 237.002C189.099 236.96 191.241 237.086 193.341 236.918H193.635L192.627 236.12V236.204C192.711 236.12 192.627 236.12 192.585 236.33C192.501 236.666 192.375 237.002 192.249 237.338C191.913 238.262 191.325 239.06 190.569 239.648C190.233 239.858 189.855 240.068 189.477 240.194C189.729 240.068 189.729 240.152 189.477 240.194C188.679 240.278 187.839 240.32 187.041 240.362C183.597 240.53 180.153 240.614 176.709 240.656C171.291 240.782 165.915 240.866 160.497 240.95C153.777 241.034 147.015 241.118 140.295 241.16C132.777 241.244 125.301 241.286 117.783 241.328C110.097 241.37 102.369 241.37 94.6833 241.37C87.4173 241.37 80.1093 241.37 72.8433 241.328C66.5853 241.286 60.3693 241.244 54.1113 241.118C49.4493 241.034 44.8293 240.95 40.1673 240.782C39.3273 240.74 38.4453 240.698 37.6053 240.656C37.5213 240.656 37.2273 240.656 37.5213 240.656H37.2693L36.7233 240.614L35.7573 240.572C34.8333 240.53 33.9093 240.446 33.0273 240.278L32.6493 240.194C31.6413 239.732 30.3393 241.202 31.5573 241.748C32.1873 241.958 32.8593 242.084 33.5313 242.126C34.8333 242.252 36.1773 242.336 37.4793 242.378C41.6793 242.588 45.8793 242.672 50.1213 242.756C56.0853 242.882 62.0913 242.924 68.0553 242.966C75.1953 243.008 82.3353 243.05 89.5173 243.05C97.2453 243.05 105.015 243.05 112.743 243.008C120.429 242.966 128.115 242.924 135.843 242.882C142.857 242.798 149.829 242.756 156.843 242.63C162.597 242.546 168.351 242.462 174.147 242.378C178.011 242.294 181.875 242.21 185.739 242.084C186.789 242.042 187.839 242 188.889 241.916C190.527 241.79 192.039 241.034 193.089 239.732C193.971 238.64 194.559 237.338 194.769 235.952C194.853 235.406 194.181 235.154 193.761 235.154L189.351 235.196L177.465 235.322L159.783 235.532L138.363 235.784L114.759 236.078L91.1133 236.372L68.8953 236.624L50.2473 236.834L36.7233 237.002C34.6233 237.044 32.4813 237.002 30.3813 237.086H30.0873C29.4573 237.086 28.7013 237.8 29.1213 238.43L31.1373 241.37C31.8093 242.336 33.6573 241.412 32.9853 240.446Z" fill="#000005"/>
<path d="M60.1172 218.69H62.9732L70.6172 218.648L82.0412 218.564L95.8592 218.438L111.105 218.354L126.393 218.27L140.757 218.186L152.811 218.102L161.547 218.06C162.891 218.06 164.277 218.06 165.663 218.018H165.831C166.293 218.018 165.663 217.64 165.579 217.598C165.159 217.388 164.655 217.262 164.193 217.262H161.337L153.693 217.304L142.269 217.388L128.451 217.472L113.205 217.556L97.9172 217.64L83.5532 217.724L71.4992 217.808L62.7632 217.85C61.4192 217.85 60.0332 217.85 58.6472 217.892H58.4792C58.0172 217.892 58.6472 218.27 58.7312 218.312C59.1512 218.522 59.6132 218.648 60.1172 218.69Z" fill="#000005"/>
<path d="M56.3374 225.2H59.3614L67.4674 225.158L79.5634 225.074L94.2214 224.99L110.391 224.906L126.603 224.822L141.807 224.738L154.575 224.654L163.815 224.612C165.285 224.612 166.713 224.612 168.183 224.57H168.393C168.939 224.57 169.401 224.234 169.527 223.688C169.569 223.142 169.065 222.848 168.561 222.848H165.537L157.389 222.89L145.293 222.974L130.635 223.058L114.465 223.142L98.2534 223.226L83.0494 223.31L70.2814 223.394L61.0414 223.436C59.6134 223.436 58.1434 223.436 56.6734 223.478H56.5054C55.9594 223.478 55.4974 223.814 55.3714 224.36C55.3294 224.864 55.8754 225.2 56.3374 225.2Z" fill="#000005"/>
<path d="M52.5993 231.374H55.8333L64.4853 231.332L77.3793 231.248L93.0033 231.164L110.265 231.08L127.569 230.996L143.781 230.912L157.389 230.828L167.259 230.786C168.813 230.786 170.367 230.786 171.879 230.744H172.089C172.635 230.786 173.097 230.408 173.223 229.862C173.223 229.358 172.845 228.98 172.341 228.98C172.299 228.98 172.299 228.98 172.257 228.98H169.023L160.371 229.022L147.477 229.106L131.853 229.19L114.633 229.274L97.3293 229.358L81.1173 229.442L67.5093 229.526L57.6393 229.568C56.0853 229.568 54.5313 229.568 53.0193 229.61H52.8093C52.2633 229.568 51.8013 229.946 51.6753 230.492C51.6753 230.996 52.0533 231.374 52.5573 231.374H52.5993Z" fill="#000005"/>
<path d="M93.5912 214.112L90.9872 220.874L86.8292 231.668L85.8632 234.188C85.7372 234.524 87.7112 235.154 87.9212 234.692L90.5252 227.93L94.6832 217.136L95.6492 214.616C95.7332 214.28 93.7592 213.65 93.5912 214.112Z" fill="#000005"/>
<path d="M111.693 213.566V233.348C111.735 233.852 112.029 234.314 112.449 234.566C112.743 234.734 113.289 234.86 113.289 234.356V214.574C113.247 214.07 112.953 213.608 112.533 213.356C112.239 213.188 111.693 213.062 111.693 213.566Z" fill="#000005"/>
<path d="M129.207 213.944L131.727 220.538L135.759 231.038L136.683 233.474C137.019 234.272 139.035 234.272 138.615 233.18L136.095 226.586L132.063 216.086L131.139 213.65C130.845 212.852 128.787 212.894 129.207 213.944Z" fill="#000005"/>
<path d="M67.6355 214.994L63.6875 221.336L57.4295 231.416L55.9595 233.726C55.7495 234.062 57.7235 234.44 57.9755 234.02L61.9655 227.678L68.2235 217.598L69.6515 215.288C69.9035 214.91 67.9295 214.574 67.6355 214.994Z" fill="#000005"/>
<path d="M151.299 214.994C151.509 215.162 151.677 215.372 151.803 215.582C152.139 216.044 152.433 216.506 152.769 216.968C153.735 218.396 154.659 219.866 155.625 221.294C157.641 224.444 159.657 227.594 161.631 230.744C162.093 231.458 162.555 232.172 162.975 232.886C163.059 233.054 163.857 232.886 164.025 232.844C164.361 232.802 164.697 232.718 165.033 232.592C163.815 230.618 162.555 228.644 161.295 226.67C159.279 223.478 157.221 220.244 155.121 217.094C154.743 216.548 154.365 215.96 153.945 215.414C153.777 215.12 153.567 214.868 153.315 214.658C153.105 214.49 152.517 214.658 152.265 214.7C152.013 214.742 151.761 214.784 151.551 214.826C151.509 214.91 151.383 214.952 151.299 214.994Z" fill="#000005"/>
<path d="M48.2733 132.926L51.7173 132.884L60.9993 132.8L74.8173 132.674L91.5333 132.548L109.971 132.38L128.451 132.212L145.797 132.086L160.371 131.96L170.913 131.876C172.551 131.876 174.231 131.918 175.869 131.834C175.953 131.834 175.995 131.834 176.079 131.834C176.541 131.834 176.289 131.036 176.163 130.826C175.953 130.364 175.575 130.07 175.071 130.028L171.627 130.07L162.345 130.154L148.527 130.28L131.811 130.406L113.373 130.574L94.8933 130.742L77.5473 130.868L62.9733 130.994L52.4313 131.078C50.7933 131.078 49.1133 131.036 47.4753 131.12H47.2653C46.8033 131.12 47.0553 131.918 47.1813 132.128C47.3913 132.548 47.8113 132.884 48.2733 132.926Z" fill="#000005"/>
<path d="M176.626 136.076L174.064 136.118L167.092 136.16L156.718 136.244L144.118 136.328L130.3 136.454L116.314 136.58L103.294 136.664L92.2475 136.748L84.3515 136.79C83.0915 136.79 81.8315 136.748 80.6135 136.832H80.4455L81.4535 137.336L79.6475 131.666C79.3955 130.868 77.2955 131.036 77.6315 131.96L79.4375 137.63C79.5635 137.966 80.1095 138.134 80.4455 138.134L83.0075 138.092L89.9795 138.05L100.354 137.966L112.954 137.882L126.772 137.756L140.758 137.63L153.778 137.546L164.782 137.462L172.678 137.42C173.938 137.42 175.198 137.42 176.416 137.378H176.584C176.962 137.378 177.634 137.252 177.634 136.748C177.634 136.244 176.962 136.076 176.626 136.076Z" fill="#000005"/>
<path d="M57.5555 133.766C57.3875 133.766 57.2615 133.808 57.0935 133.808C56.7995 133.892 56.5055 134.018 56.2955 134.186C56.1275 134.354 56.0015 134.522 55.9175 134.732C55.9175 134.774 55.8755 134.816 55.8755 134.858C55.8335 134.984 55.8335 135.11 55.8335 135.236C55.8335 135.446 55.8755 135.614 55.9175 135.824C56.0015 136.034 56.0855 136.244 56.2115 136.454C56.4215 136.832 56.7575 137.084 57.1355 137.252C57.3875 137.378 57.6395 137.42 57.9335 137.42C58.9415 137.378 59.7395 136.538 59.7395 135.53C59.7395 135.404 59.6975 135.278 59.6975 135.11C59.6555 134.984 59.5715 134.858 59.5295 134.732C59.4875 134.69 59.4455 134.606 59.4035 134.564C59.3195 134.438 59.1935 134.354 59.1095 134.27C58.9835 134.186 58.8575 134.102 58.7315 134.018C58.5635 133.934 58.3535 133.85 58.1435 133.808C57.8495 133.724 57.5975 133.724 57.3035 133.808C57.0515 133.85 56.8415 134.018 56.6735 134.186C56.5475 134.396 56.5055 134.606 56.5475 134.858C56.6315 135.068 56.7995 135.278 57.0095 135.362C57.2615 135.488 57.5555 135.53 57.8075 135.446H57.8915L57.5975 135.488C57.6395 135.488 57.6815 135.488 57.7235 135.488L57.4295 135.446C57.4715 135.446 57.5555 135.488 57.5975 135.488L57.3455 135.404C57.4295 135.446 57.5135 135.488 57.5975 135.53L57.3875 135.404C57.4715 135.446 57.5555 135.53 57.6395 135.614L57.4715 135.446C57.5555 135.53 57.5975 135.614 57.6395 135.698L57.5555 135.488C57.5975 135.572 57.6395 135.656 57.6395 135.74L57.5975 135.488C57.5975 135.572 57.5975 135.656 57.5975 135.74L57.6395 135.488C57.5975 135.614 57.5975 135.698 57.5135 135.824L57.5975 135.614C57.5555 135.698 57.4715 135.782 57.4295 135.866L57.5975 135.656C57.5555 135.698 57.5135 135.74 57.4295 135.782L57.6395 135.656C57.5975 135.698 57.5555 135.698 57.5135 135.74L57.7655 135.656C57.7235 135.656 57.6815 135.698 57.5975 135.698L57.8915 135.656C57.8495 135.656 57.8075 135.656 57.7655 135.656L58.0595 135.698L57.9335 135.656L58.1855 135.74C58.1435 135.698 58.0595 135.698 58.0175 135.656L58.2275 135.782C58.1435 135.74 58.1015 135.698 58.0595 135.614L58.2275 135.782C58.1015 135.656 58.0175 135.53 57.9755 135.362L58.0595 135.572C57.9755 135.404 57.9335 135.278 57.8915 135.11L57.9335 135.362C57.9335 135.278 57.9335 135.194 57.9335 135.11L57.8915 135.362C57.8915 135.32 57.9335 135.236 57.9335 135.194L57.8495 135.404C57.8915 135.362 57.8915 135.32 57.9335 135.278L57.7655 135.446C57.8075 135.404 57.8495 135.362 57.8915 135.362L57.6815 135.488C57.7235 135.446 57.8075 135.446 57.8495 135.404L57.5975 135.488C57.6815 135.446 57.7655 135.446 57.8075 135.446L57.5135 135.488H57.5555C57.8075 135.488 58.1015 135.404 58.3115 135.236C58.4795 135.068 58.6055 134.858 58.6475 134.648C58.6475 134.396 58.5215 134.186 58.3535 134.018C58.1015 133.85 57.8075 133.766 57.5555 133.766Z" fill="#000005"/>
<path d="M62.3435 133.682C62.2595 133.682 62.2175 133.682 62.1755 133.724C61.9235 133.766 61.6715 133.892 61.5035 134.102C61.2935 134.354 61.1675 134.69 61.1675 135.026C61.1675 135.53 61.3355 135.992 61.5875 136.412C61.7555 136.664 61.9655 136.916 62.1755 137.126C62.3015 137.252 62.4695 137.378 62.6375 137.42C62.8475 137.504 63.0995 137.546 63.3095 137.546C63.4775 137.546 63.6035 137.462 63.7715 137.42C64.0655 137.252 64.2755 137 64.4435 136.664C64.6535 136.202 64.6535 135.74 64.5275 135.278C64.4435 134.984 64.2755 134.69 64.0655 134.48C63.8555 134.27 63.6455 134.06 63.3935 133.892C63.2255 133.808 63.0575 133.724 62.8475 133.682C62.7215 133.64 62.5955 133.64 62.5115 133.64C62.4695 133.682 62.3855 133.682 62.3435 133.682C62.2595 133.682 62.1335 133.724 62.0915 133.766C62.0075 133.808 61.9235 133.892 61.9235 134.018C61.8395 134.228 61.8395 134.48 61.9235 134.732C62.0075 134.984 62.1755 135.236 62.3855 135.404L62.5955 135.53C62.7215 135.614 62.8895 135.614 63.0155 135.614C63.0575 135.614 63.0995 135.572 63.1835 135.572H62.9735C63.0575 135.572 63.1415 135.614 63.2255 135.614L63.0155 135.53C63.0995 135.572 63.1835 135.614 63.2675 135.656L63.0575 135.53C63.1415 135.572 63.1835 135.614 63.2675 135.698L63.0995 135.53C63.1415 135.572 63.1835 135.614 63.2255 135.698L63.0575 135.446C63.0995 135.488 63.0995 135.53 63.1415 135.614L63.0155 135.362C63.0575 135.404 63.0575 135.488 63.0575 135.53L63.0155 135.278C63.0155 135.32 63.0155 135.404 63.0155 135.446V135.194C63.0155 135.236 63.0155 135.32 63.0155 135.362L63.0575 135.152C63.0155 135.278 62.9735 135.362 62.9315 135.488L63.0155 135.32C62.9735 135.404 62.8895 135.53 62.8055 135.572L62.9735 135.446C62.8895 135.488 62.8055 135.572 62.7215 135.572L62.8895 135.53C62.8055 135.572 62.7635 135.572 62.6795 135.572H62.8895C62.8475 135.572 62.7635 135.572 62.7215 135.53L62.9315 135.614C62.8895 135.614 62.8055 135.572 62.7635 135.53L62.9735 135.656C62.9315 135.614 62.8475 135.572 62.8055 135.53L62.9735 135.698C62.8895 135.614 62.8475 135.572 62.8055 135.488L62.9735 135.74C62.8895 135.614 62.8475 135.53 62.8055 135.404L62.9315 135.656C62.8895 135.572 62.8475 135.488 62.8475 135.362L62.8895 135.614C62.8895 135.572 62.8895 135.488 62.8895 135.446V135.698C62.8895 135.656 62.8895 135.614 62.8895 135.53L62.8475 135.74C62.8475 135.698 62.8895 135.656 62.8895 135.572L62.8055 135.74C62.8475 135.698 62.8895 135.614 62.9315 135.572L62.7635 135.698C62.8475 135.656 62.9315 135.572 63.0155 135.572L62.8475 135.614C62.9315 135.572 63.0155 135.572 63.0575 135.572C63.2675 135.53 63.4355 135.404 63.5195 135.194C63.6035 134.984 63.6035 134.69 63.5195 134.48C63.3095 134.06 62.8895 133.724 62.3435 133.682Z" fill="#000005"/>
<path d="M67.2155 133.892C67.0055 133.892 66.8375 133.976 66.6695 134.144C66.5435 134.27 66.5015 134.48 66.5015 134.648C66.5015 134.816 66.5435 134.984 66.6275 135.11C66.7115 135.362 66.8375 135.572 67.0055 135.782C67.2995 136.244 67.6775 136.622 68.0555 137C68.2235 137.168 68.3915 137.294 68.6435 137.378C68.8535 137.462 69.0635 137.42 69.2735 137.336C69.4415 137.21 69.6095 137.042 69.6935 136.874C69.7355 136.748 69.7775 136.58 69.7775 136.454C69.7775 136.286 69.7355 136.118 69.6935 135.992C69.6515 135.866 69.5675 135.782 69.5255 135.698C69.3575 135.446 69.1895 135.194 68.9795 134.984C68.7275 134.648 68.3915 134.396 68.0555 134.144C67.7615 133.934 67.4675 133.85 67.2155 133.892C67.1735 133.892 67.3415 134.228 67.3415 134.186C67.4675 134.396 67.6355 134.606 67.8035 134.774C67.9715 134.984 68.1395 135.152 68.3495 135.278C68.4335 135.32 68.5175 135.446 68.6435 135.446C68.6855 135.446 68.7275 135.446 68.7695 135.446H68.7275C68.8955 135.446 69.0215 135.488 69.1475 135.572L69.0635 135.53L69.1895 135.614C69.2735 135.656 69.1055 135.53 69.1055 135.53C69.1055 135.53 69.1475 135.53 69.1475 135.572C69.1895 135.572 69.2315 135.656 69.1055 135.53L69.0635 135.488L68.9375 135.362L68.7695 135.194C68.8535 135.278 68.6015 134.984 68.6015 135.026C68.6015 135.068 68.4335 134.816 68.4755 134.858C68.4335 134.816 68.4335 134.774 68.3915 134.732C68.4335 134.816 68.3075 134.564 68.3495 134.69C68.3495 134.732 68.3915 134.732 68.3915 134.774L68.3495 134.69C68.3915 134.816 68.4335 134.984 68.3915 135.11V135.068C68.3495 135.488 68.0135 135.824 67.5935 135.908H67.6355C67.5095 135.908 67.4255 135.866 67.2995 135.824L67.3835 135.908L67.3415 135.866C67.2995 135.824 67.5095 136.034 67.4675 135.95C67.5935 136.034 67.6775 136.16 67.7615 136.286C67.6775 136.202 67.9715 136.538 67.8875 136.454C67.8035 136.37 68.0555 136.706 67.9715 136.58C67.8875 136.454 68.0555 136.706 68.0555 136.706L68.0135 136.664C67.9715 136.622 67.9715 136.538 68.0555 136.748L68.0135 136.706C67.9715 136.622 67.9295 136.538 67.9295 136.454L67.9715 136.58C67.8875 136.412 67.8875 136.244 67.8875 136.076V136.118C67.9715 135.782 68.2655 135.572 68.5595 135.572C68.6435 135.572 68.4335 135.236 68.4335 135.278C68.3075 135.068 68.1395 134.858 67.9715 134.69C67.8035 134.48 67.6355 134.312 67.4255 134.186C67.4255 133.976 67.2995 133.892 67.2155 133.892Z" fill="#000005"/>
<path d="M148.334 30.0687C148.334 30.0687 120.32 31.2867 99.1942 60.6867C83.9062 81.9807 82.5202 107.265 84.0742 121.335C84.0742 121.335 76.1362 123.897 78.1942 126.207C80.2522 128.517 102.848 149.265 105.704 143.133C108.56 137.001 115.91 113.607 113.138 112.935C110.366 112.263 109.106 115.623 108.14 114.573C107.174 113.523 107.552 85.7607 117.086 61.7367C125.738 39.8547 156.398 29.3127 148.334 30.0687Z" fill="#59BE4C"/>
<path d="M148.166 29.0607C145.31 29.1867 142.454 29.8167 139.724 30.5307C132.794 32.3787 126.158 35.2767 120.152 39.1827C111.29 44.9367 103.604 52.3707 97.6402 61.1067C91.2142 70.4307 86.9302 81.0987 84.6202 92.1447C82.7722 100.923 82.1842 109.911 82.8562 118.899C82.9402 119.739 83.0242 120.579 83.1082 121.419L83.6962 120.411C82.7722 120.705 81.8482 121.083 80.9662 121.461C79.6642 122.049 78.0682 122.805 77.2702 124.023C76.8502 124.653 76.7662 125.409 77.0182 126.123C77.2282 126.543 77.5222 126.921 77.9002 127.257C78.4882 127.845 79.0762 128.433 79.6642 128.979C84.1582 133.263 88.9462 137.169 94.0282 140.739C96.3802 142.377 98.8582 143.973 101.588 144.855C103.352 145.443 105.578 145.569 106.544 143.637C107.804 141.117 108.686 138.345 109.568 135.657C110.786 132.087 111.878 128.517 112.802 124.863C113.6 121.881 114.398 118.815 114.608 115.707C114.65 114.825 114.692 113.817 114.356 112.977C113.642 111.423 111.542 111.633 110.282 112.305C109.652 112.683 109.064 113.145 108.518 113.607L108.35 113.691C108.182 113.817 108.35 113.649 108.35 113.691C107.93 113.565 108.434 113.817 108.35 113.691C108.182 113.649 108.476 113.733 108.518 113.733C108.644 113.775 108.728 113.817 108.77 113.943C108.98 114.279 108.896 114.195 108.854 114.069C108.77 113.859 108.896 114.405 108.854 114.027C108.854 113.901 108.812 113.775 108.812 113.649C108.77 113.271 108.728 112.893 108.728 112.515C108.728 112.263 108.728 112.011 108.686 111.801C108.686 111.717 108.686 111.675 108.686 111.591C108.686 111.633 108.686 111.801 108.686 111.633C108.686 111.465 108.686 111.297 108.686 111.129C108.686 110.457 108.686 109.785 108.686 109.113C108.728 107.433 108.812 105.753 108.896 104.073C109.526 94.1607 111.164 84.3327 113.768 74.7567C114.524 71.9427 115.406 69.1707 116.33 66.3987C117.128 64.0047 118.052 61.6527 119.144 59.3847C121.034 55.7727 123.386 52.4547 126.158 49.4727C131.03 44.1387 136.91 39.8127 143 35.9487C144.89 34.7307 146.822 33.6387 148.712 32.3787C149.258 32.0427 149.762 31.6647 150.182 31.2027C150.644 30.6567 150.602 29.8587 150.056 29.3967C149.972 29.3127 149.888 29.2707 149.762 29.1867C149.342 29.0187 148.754 28.9347 148.166 29.0607C146.864 29.1867 147.284 31.2027 148.46 31.0767C148.754 31.0347 149.048 31.0767 149.3 31.0347C149.51 31.0347 149.048 30.9927 149.216 31.0347C149.258 31.0347 149.3 31.0347 149.3 31.0347C149.468 31.1187 149.048 30.9087 149.174 30.9927C149.3 31.0767 148.964 30.8247 148.922 30.7827C148.67 30.5307 148.586 30.1527 148.712 29.8167C148.67 29.9847 148.88 29.5227 148.754 29.7747C148.712 29.8167 148.712 29.8167 148.67 29.8587C148.544 29.9847 148.88 29.6487 148.712 29.8167C148.628 29.9007 148.544 29.9847 148.418 30.0267C146.99 31.0767 145.478 32.0427 143.924 32.9247C138.296 36.4527 132.752 40.2327 127.922 44.8107C124.982 47.4987 122.378 50.5227 120.11 53.7987C117.506 57.6627 115.742 61.9047 114.272 66.3147C110.954 76.3107 108.728 86.6427 107.636 97.1007C107.216 100.839 106.922 104.577 106.838 108.315C106.796 109.575 106.796 110.877 106.838 112.179C106.838 112.893 106.922 113.565 107.048 114.279C107.3 115.455 108.392 116.211 109.568 115.539C110.156 115.203 110.618 114.657 111.206 114.279C111.5 114.069 111.794 113.943 112.13 113.901C112.298 113.859 112.466 113.859 112.634 113.859C112.718 113.859 112.802 113.901 112.928 113.901C113.012 113.943 112.676 113.691 112.844 113.859C112.886 113.901 112.634 113.607 112.76 113.775C112.844 113.859 112.592 113.481 112.718 113.691C112.76 113.775 112.802 114.069 112.718 113.691C112.76 113.859 112.76 114.027 112.802 114.153C112.844 114.279 112.802 114.363 112.802 114.447C112.802 114.531 112.802 114.363 112.802 114.363V114.615C112.76 115.791 112.634 116.967 112.382 118.101C111.752 121.419 110.954 124.695 109.946 127.887C108.938 131.331 107.846 134.733 106.628 138.093C106.166 139.353 105.704 140.571 105.2 141.789C105.116 141.999 105.032 142.209 104.906 142.419C104.864 142.503 104.822 142.629 104.78 142.713C104.864 142.545 104.822 142.671 104.738 142.755L104.57 142.965C104.654 142.923 104.78 142.713 104.57 142.965C104.528 143.007 104.444 143.049 104.402 143.091C104.276 143.175 104.612 143.007 104.486 143.049C104.444 143.049 104.402 143.091 104.36 143.091L104.15 143.175C103.898 143.259 104.276 143.175 104.108 143.175C103.94 143.175 103.73 143.175 103.52 143.217C103.31 143.259 103.688 143.259 103.436 143.217L103.142 143.175C102.89 143.133 102.68 143.091 102.47 143.007L102.092 142.881C102.05 142.881 101.63 142.713 101.882 142.797C101.63 142.713 101.336 142.587 101.084 142.461C100.496 142.209 99.9502 141.957 99.4042 141.663C96.7582 140.193 94.2382 138.513 91.8442 136.623C89.2822 134.691 86.8462 132.633 84.4102 130.533C82.7302 129.063 81.0502 127.593 79.4962 125.997L79.2022 125.703L79.0762 125.577C78.8662 125.367 79.1182 125.619 79.1182 125.619C79.1182 125.619 78.9922 125.451 78.9502 125.451L78.9082 125.409C78.9922 125.535 78.9922 125.577 78.9502 125.451L78.9082 125.409C78.9502 125.577 78.9502 125.577 78.9082 125.493C78.9502 125.451 78.7822 125.241 78.9082 125.577C78.9082 125.535 78.9082 125.451 78.9082 125.367C78.7402 125.703 79.1182 125.031 78.9502 125.325C79.0342 125.241 79.1182 125.115 79.1602 125.031C79.3282 124.821 79.1182 125.031 79.3282 124.863C79.6222 124.611 79.9162 124.401 80.2102 124.191C80.7982 123.813 81.4282 123.477 82.0582 123.225C82.8562 122.847 83.6542 122.553 84.4942 122.301C84.9142 122.133 85.1242 121.713 85.0822 121.293C84.2002 112.935 84.4942 104.535 85.9222 96.2607C87.6862 85.5507 91.3822 75.0927 97.0522 65.8527C102.638 56.6967 110.072 48.8007 118.85 42.6267C124.898 38.3847 131.576 35.1507 138.632 33.0507C139.85 32.6727 141.11 32.3787 142.37 32.0847C142.916 31.9587 143.462 31.8327 144.008 31.7487L144.344 31.6647L144.554 31.6227L145.226 31.4967C146.276 31.3287 147.368 31.2027 148.418 31.1187H148.544C149.762 30.9927 149.342 28.9767 148.166 29.0607Z" fill="#59BE4C"/>
<path d="M76.4027 171.134C74.6807 171.134 74.4287 177.224 76.4027 177.224C77.4527 177.224 96.7727 177.098 114.833 176.888V170.966C96.3107 171.008 76.4027 171.134 76.4027 171.134Z" fill="#59BE4C"/>
<path d="M76.1088 170.21C74.9328 170.252 74.3868 171.638 74.1768 172.604C73.8828 173.864 73.9668 175.124 74.3448 176.342C74.7228 177.35 75.4788 178.148 76.6128 178.148C77.2008 178.148 77.7888 178.148 78.3768 178.148C85.1808 178.106 91.9848 178.064 98.7468 177.98C104.123 177.938 109.499 177.896 114.875 177.812C115.337 177.854 115.757 177.56 115.841 177.098C115.841 177.056 115.841 177.014 115.841 176.972V171.008C115.757 170.462 115.337 170.042 114.791 170C107.777 170 100.805 170.042 93.7908 170.084C88.8768 170.126 83.9628 170.126 79.0488 170.168H76.4028C75.8988 170.168 75.4368 170.462 75.4368 171.008C75.5208 171.554 75.9408 171.974 76.4868 172.016L84.2988 171.974C90.4728 171.932 96.6048 171.89 102.779 171.89L114.917 171.848L113.867 170.84V176.762L114.833 175.922C106.223 176.006 97.6128 176.09 89.0448 176.174L80.1828 176.258H77.5368C77.1168 176.216 76.7388 176.216 76.3188 176.258C76.3608 176.258 76.6548 176.384 76.4448 176.258C76.6128 176.342 76.6128 176.384 76.5288 176.3C76.3608 176.174 76.6128 176.468 76.5288 176.3C76.4868 176.258 76.3608 175.922 76.4448 176.132C76.4028 176.006 76.3608 175.88 76.3188 175.754C76.1928 175.208 76.1508 174.62 76.1508 174.074C76.1928 173.528 76.2768 172.982 76.4868 172.436C76.4028 172.604 76.5708 172.31 76.6128 172.226C76.6548 172.142 76.8648 171.848 76.6968 172.1C76.7388 172.058 76.7388 172.058 76.7808 172.016L76.8228 171.974C76.6968 172.058 76.6968 172.058 76.7388 172.016C76.7808 171.974 77.0328 171.89 76.6968 172.016C76.7388 172.016 76.8228 172.016 76.8648 172.016C77.3268 171.974 77.6208 171.554 77.5368 171.092C77.5368 171.05 77.5368 170.966 77.4948 170.924C77.1588 170.42 76.6548 170.126 76.1088 170.21Z" fill="#59BE4C"/>
<path d="M145.955 171.134C145.409 170.924 130.583 170.882 114.791 170.924V176.888C130.583 176.72 145.367 176.468 145.955 176.258C147.215 175.754 147.215 171.638 145.955 171.134Z" fill="white"/>
<path d="M146.081 170.798C145.283 170.588 144.485 170.504 143.645 170.546C142.175 170.504 140.663 170.504 139.193 170.462C134.237 170.42 129.323 170.42 124.409 170.42H114.203C114.161 170.42 113.825 170.42 113.825 170.546V176.51C113.825 177.056 115.043 177.35 115.421 177.35C122.645 177.266 129.869 177.182 137.093 177.056C139.403 177.014 141.713 176.972 144.023 176.888C144.695 176.846 145.409 176.846 146.081 176.804C146.417 176.846 146.753 176.762 147.089 176.594C147.887 176.006 147.929 174.62 147.887 173.738C147.845 172.562 147.509 171.47 146.375 170.966C146.081 170.84 145.367 170.546 145.073 170.756C144.779 170.966 145.493 171.344 145.619 171.386C145.451 171.302 145.367 171.134 145.409 171.302C145.409 171.344 145.493 171.386 145.493 171.47C145.577 171.638 145.661 171.848 145.703 172.058C145.829 172.562 145.871 173.066 145.871 173.57C145.871 174.41 145.703 175.25 145.115 175.838C144.989 175.964 145.199 175.838 145.073 175.838H144.905H144.653H144.527H144.485C143.855 175.88 143.225 175.88 142.595 175.922C137.261 176.09 131.927 176.174 126.593 176.258C122.435 176.3 118.319 176.384 114.203 176.426L115.799 177.266V171.344L115.421 171.47C124.955 171.428 134.531 171.344 144.065 171.554C144.611 171.554 145.157 171.596 145.703 171.596L146.207 171.638C145.955 171.596 146.291 171.638 146.207 171.638C146.459 171.68 145.787 171.512 145.829 171.554C146.039 171.638 146.837 171.89 146.921 171.554C147.005 171.218 146.249 170.882 146.081 170.798Z" fill="#59BE4C"/>
<path d="M77.5366 170.924C77.5366 172.94 77.4526 174.914 77.4526 176.93C77.4526 177.476 77.8726 177.896 78.3766 177.938C78.7966 177.98 79.5106 177.77 79.5106 177.182C79.5106 175.166 79.5946 173.192 79.5946 171.176C79.5946 170.63 79.1746 170.21 78.6706 170.168C78.2506 170.126 77.5366 170.378 77.5366 170.924Z" fill="white"/>
<path d="M87.3228 170.504C87.3228 172.52 87.2388 174.494 87.2388 176.51C87.2808 176.678 87.3648 176.804 87.4908 176.93C87.6588 177.14 87.8268 177.35 87.9948 177.56C88.0368 177.644 88.6248 178.19 88.6248 177.98C88.6248 175.964 88.7088 173.99 88.7088 171.974C88.6668 171.806 88.5828 171.68 88.4568 171.554C88.2888 171.344 88.1208 171.134 87.9528 170.924C87.9108 170.84 87.3228 170.294 87.3228 170.504Z" fill="white"/>
<path d="M96.2686 171.386C96.2686 173.402 96.1846 175.376 96.1846 177.392C96.1846 178.148 98.0746 177.35 98.0746 176.636C98.0746 174.62 98.1586 172.646 98.1586 170.63C98.1586 169.916 96.2686 170.714 96.2686 171.386Z" fill="white"/>
<path d="M105.593 170.672V170.966C105.593 170.84 105.593 171.134 105.593 170.966C105.593 171.218 105.593 171.47 105.593 171.722L105.551 173.57C105.551 174.62 105.509 175.628 105.509 176.678C105.509 177.434 107.315 178.358 107.315 177.308V177.014C107.315 176.846 107.315 177.14 107.315 177.014V176.258L107.357 174.41C107.357 173.36 107.399 172.352 107.399 171.302C107.399 170.588 105.593 169.622 105.593 170.672Z" fill="white"/>
<path d="M120.512 105.644C120.512 105.644 128.912 102.242 139.748 90.9019C139.748 90.9019 151.298 99.5959 151.298 100.73C151.298 101.864 134.246 111.146 129.122 112.952L120.512 105.644Z" fill="#59BE4C"/>
<path d="M121.058 106.442C122.318 105.896 123.536 105.266 124.712 104.552C127.904 102.62 130.928 100.436 133.742 97.9998C136.094 95.9838 138.362 93.8418 140.504 91.6158L139.118 91.4058C140.798 92.6658 142.478 93.9678 144.116 95.2698C145.376 96.2778 146.636 97.2858 147.854 98.3358C148.358 98.7978 148.904 99.2178 149.366 99.6798C149.576 99.8478 149.744 100.058 149.954 100.226C150.038 100.31 150.08 100.394 150.164 100.436C150.332 100.562 149.996 100.268 150.122 100.394C150.164 100.436 150.206 100.478 150.248 100.562C150.29 100.646 150.332 100.688 150.374 100.73C150.542 100.898 150.29 100.562 150.374 100.688C150.458 100.814 150.374 100.73 150.332 100.562C150.332 100.688 150.332 100.52 150.332 100.436C150.29 100.562 150.416 100.184 150.374 100.352C150.374 100.394 150.332 100.436 150.29 100.478C150.458 100.394 150.416 100.352 150.29 100.436C150.164 100.52 150.038 100.646 149.912 100.772C148.988 101.444 148.064 102.074 147.098 102.662C144.116 104.51 141.008 106.19 137.9 107.786C134.876 109.382 131.768 111.062 128.534 112.196L129.71 112.532L122.192 106.106L121.1 105.182C120.764 104.888 120.134 104.636 119.714 104.972C119.294 105.308 119.546 105.854 119.882 106.148L127.61 112.7C127.904 112.952 128.24 113.246 128.534 113.498C129.164 114.002 129.668 113.834 130.34 113.582C130.718 113.414 131.096 113.288 131.474 113.12C133.532 112.238 135.506 111.23 137.48 110.222C141.764 108.08 145.964 105.77 149.996 103.166C150.542 102.83 151.088 102.452 151.592 102.032C151.928 101.738 152.348 101.402 152.306 100.898C152.222 100.31 151.676 99.7638 151.256 99.3438C150.668 98.7558 150.038 98.1678 149.408 97.6218C146.552 95.1438 143.57 92.8338 140.546 90.5658L140.336 90.3978C140 90.1458 139.328 89.8098 138.95 90.1878C135.548 93.7998 131.81 97.0758 127.778 100.058C126.434 101.024 125.09 101.948 123.662 102.788C123.158 103.082 122.612 103.418 122.108 103.67L121.814 103.838C121.982 103.754 121.646 103.922 121.604 103.964L121.058 104.258C120.68 104.426 120.302 104.636 119.924 104.804C118.832 105.266 120.218 106.778 121.058 106.442Z" fill="#59BE4C"/>
<path d="M39.9981 73.0521C38.1081 73.8081 36.8901 75.4881 36.0501 77.2941C35.0841 79.4361 34.4121 81.6621 34.0341 83.9721C33.2361 88.4241 33.6561 93.2121 36.1761 97.0341C38.5701 100.688 42.7281 103.082 46.9701 103.754C49.1541 104.09 51.3801 104.09 53.5641 103.796C56.0841 103.502 58.6041 102.914 61.1661 103.082C62.3001 103.166 63.6021 103.376 64.5681 104.006C65.2401 104.51 65.7861 105.182 66.1221 105.98C67.2141 108.416 65.8281 110.852 64.2741 112.7C64.1901 112.784 65.8281 114.086 66.0381 113.876C67.4241 112.238 68.6841 110.222 68.1801 107.996C67.7601 106.022 66.0801 104.636 64.4421 103.586C62.5521 102.41 60.3681 101.822 58.1421 101.906C55.6641 101.948 53.2281 102.578 50.7501 102.746C46.8441 103.04 41.9721 102.704 39.1161 99.6381C36.0081 96.2781 35.0421 91.4901 35.5041 87.0381C35.7981 84.3081 36.4281 81.6621 37.4781 79.1421C38.3181 77.0841 39.5781 75.0261 41.7621 74.1861C41.5101 73.9341 41.2581 73.6821 40.9641 73.4721C40.7541 73.3881 40.2501 72.9681 39.9981 73.0521Z" fill="#59BE4C"/>
<path d="M152.138 86.8279C152.306 86.7859 152.6 87.0379 152.81 87.2899C153.188 87.7099 153.482 88.2139 153.692 88.7179C154.238 90.0619 154.7 91.4059 155.036 92.7919C155.876 95.6479 156.338 98.5879 156.38 101.57C156.464 106.736 154.994 111.818 151.634 115.766C150.164 117.53 148.316 118.916 146.258 119.882C145.25 120.386 144.158 120.68 143.024 120.848C142.016 120.974 140.882 120.848 140.336 119.882C139.958 119.21 139.874 117.95 140.756 117.572C140.882 117.53 140.882 117.53 141.05 117.572C141.218 117.614 141.386 117.698 141.512 117.824C141.974 118.118 142.352 118.538 142.646 119C143.234 120.008 143.528 121.142 143.57 122.276C143.612 123.452 143.444 124.628 143.108 125.762C141.344 131.348 135.38 133.91 129.878 133.532C129.5 133.49 128.828 133.574 128.786 134.036C128.744 134.498 129.416 134.75 129.752 134.792C135.59 135.212 142.184 133.028 144.704 127.316C145.796 124.838 146.09 121.814 144.956 119.252C144.368 117.992 143.318 116.984 142.016 116.48C140.756 116.018 139.076 116.186 138.32 117.446C137.69 118.496 138.068 119.882 138.824 120.764C139.874 121.982 141.68 122.276 143.234 122.15C146.006 121.94 148.736 120.638 150.92 118.958C155.498 115.388 158.018 109.76 158.438 104.048C158.648 100.646 158.312 97.2439 157.472 93.9259C157.052 92.2459 156.548 90.5659 155.918 88.9279C155.456 87.7099 154.7 86.4079 153.482 85.8199C152.768 85.4839 151.97 85.3999 151.214 85.5679C150.794 85.6519 150.458 85.9879 150.752 86.4079C151.046 86.8279 151.718 86.9119 152.138 86.8279Z" fill="#59BE4C"/>
<path d="M27.8599 150.206C27.8599 150.206 14.7559 164.528 14.7559 170.198C14.7559 170.198 28.2799 178.01 30.0859 177.758C31.8919 177.506 36.9739 162.008 36.9739 162.008L27.8599 150.206Z" fill="#59BE4C"/>
<path d="M27.104 149.45C25.55 151.13 24.08 152.894 22.652 154.658C20.09 157.808 17.528 161.126 15.596 164.738C14.84 166.166 14 167.804 14 169.484C14 169.694 14.42 170.072 14.546 170.156C14.798 170.408 15.05 170.66 15.344 170.828C18.284 172.55 21.266 174.188 24.29 175.742C26.012 176.708 27.818 177.506 29.666 178.22C30.044 178.346 30.548 178.556 30.926 178.388C31.304 178.22 31.682 177.59 31.892 177.212C32.858 175.448 33.74 173.6 34.412 171.71C35.21 169.652 35.966 167.594 36.68 165.536C36.932 164.822 37.184 164.15 37.394 163.436C37.478 163.184 37.688 162.806 37.604 162.554C37.436 162.26 37.184 161.966 36.932 161.714L35.462 159.824L28.532 150.836L28.406 150.626C28.112 150.248 27.734 149.912 27.314 149.618C27.062 149.408 26.936 149.45 27.146 149.786L35.084 160.076L36.218 161.546L36.092 161.252C35.546 162.932 34.958 164.612 34.328 166.292C33.362 169.148 32.228 171.92 30.926 174.65C30.548 175.406 30.17 176.372 29.498 176.876C28.994 177.254 28.238 176.834 27.734 176.666C25.046 175.658 22.442 174.188 19.922 172.802C17.948 171.752 15.974 170.66 14.042 169.526L15.386 170.912C15.386 169.442 16.1 168.014 16.73 166.754C17.654 164.99 18.704 163.31 19.838 161.672C22.022 158.606 24.374 155.624 26.852 152.768C27.398 152.138 27.902 151.55 28.448 150.962C28.784 150.752 27.272 149.324 27.104 149.45Z" fill="#59BE4C"/>
<path d="M22.0219 166.208C23.2819 167.3 24.6259 168.224 26.0959 169.022C26.4319 169.19 26.7679 169.4 27.1459 169.568C27.5659 169.82 28.0699 169.988 28.5739 170.03C29.0779 170.03 29.5819 169.694 29.7499 169.232C29.8759 168.812 29.9599 168.35 30.0439 167.93C30.4219 166.166 30.6739 164.36 30.7999 162.512C30.8419 162.176 30.8419 161.84 30.7579 161.462C30.5899 161 30.1699 160.706 29.6659 160.664C28.7419 160.538 27.8179 161.21 27.0619 161.672C25.3399 162.638 23.7019 163.688 22.1479 164.864C21.8959 165.074 21.8119 165.452 22.0219 165.704C22.0639 165.788 22.1479 165.83 22.2319 165.872C22.6939 166.124 23.2819 166.082 23.7019 165.788C24.6259 165.074 25.5919 164.402 26.5999 163.772C27.1039 163.478 27.6079 163.184 28.1119 162.89L28.8679 162.47L29.3299 162.218L29.5399 162.134C29.7919 162.05 29.7079 162.008 29.3299 162.092L28.8679 161.924C28.7419 161.756 28.7419 161.714 28.7839 161.882C28.7419 161.882 28.7419 161.882 28.7839 161.924C28.7839 162.05 28.7839 162.176 28.7839 162.302C28.7419 162.596 28.7419 162.89 28.6999 163.226C28.6159 163.898 28.5319 164.57 28.4479 165.242C28.3639 165.914 28.2379 166.544 28.1119 167.174C28.0699 167.51 27.9859 167.804 27.9019 168.14C27.8599 168.434 27.7759 168.77 27.6919 169.064L27.9439 168.728L27.9019 168.77L28.3639 168.56H28.2799L28.8259 168.518C28.9939 168.56 28.7419 168.434 28.7419 168.434L28.3639 168.266C28.1539 168.14 27.9019 168.056 27.6919 167.93C27.2299 167.678 26.7679 167.426 26.3479 167.132C25.4659 166.586 24.6679 165.956 23.8699 165.326C23.4499 164.99 22.9039 164.906 22.3999 165.158C22.0219 165.368 21.6859 165.872 22.0219 166.208Z" fill="white"/>
<path d="M67.1302 57.2599L51.1702 56.6299C50.4562 56.5879 49.9522 88.3819 49.9102 89.0959C49.8682 89.8099 73.4722 91.2379 73.5142 90.0199C73.5562 88.8019 74.9002 66.9619 74.9002 66.9619C73.0522 62.7199 67.1302 57.2599 67.1302 57.2599Z" fill="white"/>
<path d="M66.4578 56.63L55.2858 56.21L52.2198 56.084C51.6738 56.084 51.1278 56 50.5818 56C49.9098 56.042 50.0358 57.386 49.9938 57.848C49.6578 61.838 49.5738 65.828 49.4478 69.818C49.3218 74.48 49.1958 79.142 49.1118 83.804C49.0698 85.19 49.0698 86.534 49.0278 87.92C49.0278 88.172 49.0278 88.382 49.0278 88.634C49.1538 89.348 50.2458 89.726 50.8758 89.894C52.3458 90.188 53.8578 90.356 55.3698 90.44C57.7218 90.65 60.0738 90.818 62.3838 90.902C64.6938 90.986 67.0458 91.112 69.3978 91.112C70.8678 91.112 72.4638 91.196 73.8918 90.86C74.2278 90.776 74.4378 90.692 74.4798 90.314C74.5218 89.852 74.5218 89.432 74.5638 88.97C74.6898 86.996 74.7738 85.064 74.8998 83.09C75.1938 78.512 75.4458 73.934 75.7398 69.356C75.7818 68.81 75.8238 68.264 75.8238 67.718C75.8658 67.046 75.4458 66.458 75.1098 65.912C73.5138 63.182 71.3718 60.788 69.1458 58.52C68.7258 58.1 68.2638 57.638 67.8018 57.218C67.4658 57.008 66.9198 56.588 66.4578 56.63C66.0378 56.714 66.3318 57.134 66.4998 57.302C68.0118 58.688 69.3978 60.116 70.6998 61.67C71.7498 62.888 72.7158 64.232 73.5138 65.618C73.7238 65.912 73.8918 66.248 73.9758 66.626C73.9758 66.752 73.9758 66.878 73.9338 67.004C73.6818 70.826 73.4298 74.69 73.1778 78.512C73.0518 80.822 72.8838 83.132 72.7578 85.442C72.6738 86.744 72.5478 88.088 72.5058 89.432C72.5058 89.474 72.5058 89.516 72.5058 89.558C72.5058 89.432 72.5478 89.516 72.4638 89.558C72.6318 89.474 72.4218 89.558 72.3798 89.558L72.1278 89.642L71.9598 89.684C71.8758 89.684 72.0438 89.684 71.9178 89.684L71.4978 89.726C71.1618 89.768 70.8678 89.768 70.5318 89.81C68.5578 89.894 66.5838 89.852 64.6098 89.81C60.2838 89.684 55.7898 89.474 51.5898 88.97C51.0018 88.886 50.4138 88.844 49.8678 88.718C49.7838 88.676 49.4898 88.592 49.8258 88.718C49.5738 88.634 49.9098 88.76 49.8678 88.76C50.0778 88.844 50.8338 89.39 50.7498 89.558C50.7498 89.516 50.7498 89.474 50.7498 89.474C50.7918 89.138 50.7918 88.802 50.7498 88.466L50.7918 86.618C50.8758 82.376 50.9598 78.092 51.0858 73.85C51.2118 69.482 51.2958 65.114 51.5478 60.746C51.5478 59.654 51.6738 58.52 51.8418 57.428C51.7998 57.596 51.8838 57.26 51.8838 57.26C51.8838 57.26 51.6738 57.302 51.7158 57.344C51.7578 57.386 51.8838 57.344 51.9258 57.344L53.7738 57.428L66.6678 57.932L67.6758 57.974C68.1378 57.974 67.8018 57.47 67.6338 57.302C67.3818 56.924 66.9198 56.672 66.4578 56.63Z" fill="#59BE4C"/>
<path d="M67.0459 58.478C67.0459 58.478 65.2819 66.416 65.5339 66.71C65.7859 67.004 72.1279 67.676 74.8999 67.004" fill="white"/>
<path d="M66.416 57.764C65.954 59.948 65.45 62.132 65.072 64.358C64.904 65.408 64.484 67.088 65.744 67.676C66.164 67.844 66.626 67.928 67.13 67.97C67.886 68.054 68.642 68.138 69.44 68.18C71.372 68.306 73.472 68.432 75.362 67.97C75.95 67.844 75.194 65.912 74.438 66.08C72.926 66.458 71.246 66.374 69.692 66.332C68.306 66.29 66.962 66.164 65.618 65.912H65.534C65.492 65.912 65.45 65.87 65.408 65.87L66.164 67.046C66.164 66.962 66.164 67.046 66.164 67.214C66.164 67.172 66.164 67.172 66.164 67.13C66.164 67.088 66.206 66.794 66.164 67.046C66.206 66.584 66.29 66.122 66.374 65.66C66.584 64.358 66.878 63.098 67.13 61.796C67.298 60.956 67.508 60.074 67.676 59.234C67.718 58.73 67.55 58.226 67.214 57.848C67.004 57.596 66.5 57.302 66.416 57.764Z" fill="#59BE4C"/>
<path d="M57.8062 71.204C58.2682 73.178 58.5202 75.194 58.5622 77.21C58.5622 78.218 58.3942 79.226 58.1002 80.192C57.9322 80.738 57.3022 82.292 56.5042 82.082L57.0922 82.376L56.9662 82.292L57.5542 82.838C57.3862 82.628 57.4282 82.166 57.5122 81.914C57.5962 81.452 57.7642 81.032 58.0162 80.654C58.3942 79.982 58.7722 79.352 59.1922 78.764C60.0322 77.546 61.0402 76.412 62.1322 75.404C62.6782 74.9 63.2242 74.438 63.7702 74.018C64.0642 73.766 64.3582 73.556 64.6942 73.388C64.8622 73.304 65.0302 73.178 65.2402 73.136C65.4082 73.052 65.6602 73.094 65.8282 73.052C66.2062 72.926 65.1562 72.758 65.2822 72.548C65.3242 72.632 65.3661 72.716 65.3661 72.8C65.4081 72.968 65.4502 73.094 65.4502 73.262C65.5342 73.64 65.5762 74.018 65.6182 74.396C65.6602 75.152 65.6602 75.908 65.5761 76.664C65.4502 77.546 65.2402 78.386 64.9461 79.226C64.8202 79.604 64.6522 79.982 64.4422 80.318C64.3162 80.57 64.0222 81.326 63.7282 81.326L64.2322 81.494C64.6102 81.704 64.4002 81.704 64.4002 81.578C64.3582 81.452 64.3162 81.368 64.2322 81.242C64.1062 80.948 64.0642 80.612 64.0642 80.318C64.0642 79.688 64.2742 79.058 64.6942 78.554C65.0722 78.134 65.8702 77.714 66.4162 78.092C66.9621 78.47 67.2982 79.394 67.5502 79.982C67.7602 80.402 68.1382 80.78 68.5582 80.99C68.7262 81.074 69.3141 81.326 69.1461 80.906C68.4321 79.184 67.0462 77.126 65.1142 76.58C63.4342 76.076 62.3001 77.882 62.4261 79.394C62.5101 80.192 62.8462 80.948 63.4342 81.578C63.7702 81.956 64.1482 82.334 64.6102 82.586C65.0302 82.838 65.3662 82.922 65.6182 82.46C66.6262 80.864 67.2142 79.016 67.3402 77.126C67.4242 76.202 67.3402 75.236 67.1722 74.312C67.0042 73.346 66.4582 72.506 65.6602 71.96C64.9462 71.414 63.8962 71.372 63.1822 71.918C62.3842 72.422 61.6282 73.01 60.9142 73.64C59.5282 74.9 58.2682 76.328 57.2602 77.882C56.7142 78.638 56.2942 79.436 56.0002 80.276C55.7062 81.284 56.0842 82.376 56.9242 82.964C57.3442 83.3 57.8482 83.636 58.3942 83.384C58.8142 83.174 59.1502 82.838 59.3602 82.418C59.8222 81.452 60.1162 80.444 60.2002 79.394C60.4522 77.042 59.9902 74.648 59.5282 72.338C59.3602 71.918 59.0662 71.54 58.6882 71.33C58.5622 71.33 57.7642 70.868 57.8062 71.204Z" fill="#59BE4C"/>
<path d="M49.5741 151.97L39.9141 137.018C39.9141 137.018 51.3801 133.07 58.0581 121.52C58.0581 121.52 69.6501 132.482 70.6161 134.666C71.5821 136.85 61.4601 149.618 49.5741 151.97Z" fill="white"/>
<path d="M50.4981 151.508L42.0141 138.404L40.8381 136.556L39.9561 137.732C41.5521 137.144 43.1061 136.43 44.5761 135.548C48.0201 133.616 51.1701 131.18 53.9001 128.324C55.8321 126.308 57.5121 124.04 58.9401 121.604L57.2601 122.15C60.9981 125.678 64.7781 129.248 68.1801 133.112C68.8101 133.7 69.3141 134.414 69.7341 135.17C69.6921 135.044 69.7341 135.086 69.7341 135.212C69.7341 135.254 69.7341 135.338 69.7341 135.38C69.7341 135.548 69.7761 135.212 69.7341 135.338C69.7341 135.38 69.7341 135.422 69.6921 135.464C69.6501 135.506 69.6501 135.674 69.6081 135.758C69.5661 135.842 69.5241 135.968 69.4821 136.094L69.4401 136.22C69.3981 136.346 69.5241 136.052 69.4401 136.22C69.3141 136.472 69.1881 136.724 69.0621 136.976C67.5081 139.79 65.0721 142.268 62.5521 144.41C58.8981 147.518 54.5721 150.164 49.8261 151.13C49.3641 151.214 48.7761 151.508 48.6501 152.012C48.5661 152.474 48.9861 152.768 49.4061 152.642C54.0681 151.718 58.3941 149.45 62.1321 146.552C65.2821 144.2 68.0121 141.386 70.2381 138.152C70.8261 137.27 71.4561 136.22 71.6661 135.17C71.8341 134.288 71.3301 133.658 70.7841 132.986C68.8101 130.508 66.5001 128.282 64.2741 126.056C62.5101 124.292 60.7041 122.57 58.8981 120.848C58.3941 120.386 57.4701 120.932 57.2181 121.394C54.9501 125.258 51.9681 128.618 48.3981 131.348C46.1301 133.112 43.6941 134.624 41.0481 135.758L40.4601 136.01C40.3761 136.052 40.0401 136.178 40.4181 136.01L40.2081 136.094L39.8301 136.262C39.4941 136.388 38.6121 136.934 38.9481 137.438L47.4321 150.542L48.6081 152.39C49.1541 153.23 51.0021 152.264 50.4981 151.508Z" fill="#59BE4C"/>
<path d="M50.2459 138.026C52.2199 138.11 54.2779 138.194 56.1259 137.354C57.6799 136.682 59.0659 135.422 59.4859 133.742C59.5699 133.448 59.4439 133.154 59.1919 133.028C58.2259 132.314 56.9659 133.028 56.1679 133.658C55.3699 134.33 54.6139 135.044 53.9839 135.884C53.3539 136.724 52.8079 137.606 52.3459 138.53C51.9679 139.412 51.2959 140.672 51.9679 141.596C52.6399 142.52 54.0679 142.604 55.0759 142.394C56.2519 142.1 57.3019 141.554 58.2259 140.798C58.6879 140.504 59.0239 140.042 59.1079 139.496C59.1499 138.95 58.7719 138.488 58.2259 138.446C58.1839 138.446 58.1419 138.446 58.0579 138.446C56.9659 138.446 55.9579 139.328 55.4119 140.21C55.0759 140.714 54.8659 141.302 54.7399 141.89C54.5719 142.52 54.4879 143.192 54.4879 143.822C54.5299 144.578 55.1179 144.83 55.7479 144.914C56.4619 144.998 57.1339 144.998 57.8479 144.956C58.3939 144.956 58.8559 144.662 59.0659 144.158C59.1499 143.78 58.8979 143.402 58.5199 143.318C58.4359 143.318 58.3519 143.318 58.3099 143.318C57.9319 143.318 57.5539 143.36 57.1759 143.318C56.9239 143.318 56.5039 143.36 56.2939 143.234L56.5879 143.528C56.4619 143.276 56.6299 142.688 56.6719 142.394C56.7139 142.016 56.8399 141.596 56.9659 141.218C57.0919 140.84 57.4279 140.126 57.8899 140.084H57.3859L57.5119 140.126L57.1339 139.916C57.1759 139.664 57.1759 139.58 57.0919 139.664L57.0499 139.706C56.9239 139.79 56.8399 139.832 56.7139 139.958C56.4619 140.126 56.2099 140.294 55.9579 140.462C55.5379 140.756 55.0339 140.882 54.4879 140.882C54.0679 140.882 53.6059 140.756 53.6899 140.252C53.8159 139.748 53.9839 139.244 54.2359 138.782C54.6979 137.858 55.2439 136.976 55.9579 136.178C56.3359 135.758 56.7139 135.38 57.1339 135.002C57.3019 134.876 57.4699 134.75 57.6379 134.624C57.7219 134.582 57.8059 134.54 57.8479 134.498C57.8059 134.498 57.5119 134.33 57.8059 134.54L57.5119 133.826C56.7559 136.766 53.0599 136.598 50.7079 136.472C50.1619 136.472 49.6999 136.766 49.4899 137.27C49.3219 137.648 49.7839 137.984 50.2459 138.026Z" fill="#59BE4C"/>
<path d="M156.758 132.062L166.376 143.906C166.376 143.906 167.594 148.904 160.034 155.036C152.474 161.168 151.424 162.302 148.82 161.252C146.216 160.202 141.806 147.224 141.806 147.224C141.806 147.224 143.276 143.192 145.46 142.73L147.182 145.838C147.182 145.838 156.38 137.816 156.758 132.062Z" fill="white"/>
<path d="M156.758 132.692L165.2 143.108L166.376 144.578L165.872 143.654C165.746 143.192 165.872 143.738 165.872 143.864C165.83 143.612 165.872 143.864 165.872 143.906C165.872 143.948 165.872 144.074 165.872 144.158C165.872 144.368 165.872 144.62 165.83 144.83C165.62 146.174 165.158 147.518 164.444 148.694C163.142 150.794 161.504 152.642 159.53 154.154C157.682 155.666 155.876 157.178 153.986 158.606C153.02 159.362 152.012 160.16 150.836 160.538C150.122 160.748 149.366 160.706 148.652 160.454L148.4 160.37L148.274 160.286C148.148 160.202 148.4 160.37 148.274 160.286L148.064 160.076C148.232 160.244 147.98 159.95 147.896 159.908L147.77 159.74C147.938 159.95 147.77 159.74 147.728 159.698C147.644 159.614 147.56 159.488 147.518 159.362C147.476 159.236 147.224 158.9 147.35 159.11C147.266 158.942 147.14 158.816 147.056 158.648C146.3 157.304 145.628 155.918 145.04 154.448C143.99 152.054 143.192 149.954 142.394 147.518L142.436 148.064C142.688 147.35 143.024 146.678 143.402 146.048C143.99 145.04 144.788 143.948 146.006 143.696L145.166 142.982L146.888 146.09C146.972 146.216 147.476 147.056 147.728 146.804C148.82 145.838 149.912 144.788 150.92 143.696C152.936 141.68 154.658 139.37 156.086 136.892C156.8 135.632 157.262 134.246 157.43 132.776C157.388 132.272 157.178 131.81 156.842 131.474C156.674 131.306 156.212 130.928 156.212 131.39C156.002 133.994 154.322 136.43 152.81 138.446C151.298 140.42 149.66 142.226 147.854 143.948C147.476 144.284 147.098 144.662 146.72 144.998L147.56 145.712L145.838 142.604C145.67 142.352 145.376 141.806 144.998 141.89C143.654 142.226 142.688 143.612 142.058 144.788C141.722 145.418 141.092 146.3 141.302 147.056C141.848 148.82 142.562 150.542 143.234 152.264C144.284 154.868 145.376 157.514 146.888 159.866C147.812 161.336 149.03 162.722 150.92 162.638C151.676 162.554 152.432 162.302 153.062 161.882C154.154 161.168 155.204 160.412 156.212 159.572C157.934 158.186 159.698 156.842 161.336 155.372C162.89 154.028 164.276 152.474 165.368 150.752C166.46 149.03 167.216 146.93 167.048 144.872C166.922 143.696 165.956 142.772 165.242 141.89L157.01 131.726L156.8 131.474C156.632 131.264 156.212 130.97 156.17 131.39C156.128 131.81 156.506 132.356 156.758 132.692Z" fill="#59BE4C"/>
<path d="M148.82 160.748C148.82 160.748 146.93 157.934 151.802 155.288L145.67 142.982" fill="white"/>
<path d="M149.786 161.084C149.492 160.58 149.366 159.95 149.492 159.362C149.744 157.64 151.382 156.464 152.81 155.666V155.624L147.392 144.872L146.636 143.318C146.468 143.024 145.754 142.856 145.46 142.73C145.376 142.688 144.62 142.478 144.704 142.604L148.232 149.702L150.332 153.902L150.626 154.532C150.668 154.616 150.794 154.784 150.794 154.868C150.794 154.952 149.87 155.414 149.702 155.54C149.156 155.918 148.652 156.38 148.232 156.884C147.476 157.85 147.14 159.278 147.854 160.328C148.064 160.622 148.694 160.79 149.03 160.916C149.114 161 149.87 161.21 149.786 161.084Z" fill="#59BE4C"/>
<path d="M156.842 143.192C156.002 143.822 155.036 144.284 153.986 144.578C153.524 144.704 152.936 144.746 152.558 144.83C152.474 144.83 152.432 144.788 152.516 144.872C152.6 144.956 152.558 144.914 152.6 144.872L152.642 144.662C152.642 144.662 152.768 144.494 152.684 144.578C152.6 144.662 152.684 144.578 152.768 144.578L153.062 144.62C153.356 144.662 153.608 144.746 153.902 144.83C154.28 144.956 154.658 145.082 154.742 145.544C154.826 146.048 154.49 146.594 154.238 147.014C154.112 147.224 153.776 147.77 153.566 147.77L154.868 148.358C154.742 148.526 154.49 148.652 154.28 148.61C154.112 148.61 154.112 148.61 154.196 148.61C154.28 148.61 154.406 148.652 154.532 148.652C154.658 148.694 154.742 148.736 154.826 148.82C155.204 149.156 154.952 149.534 154.868 149.912C154.784 150.332 154.952 150.752 155.288 151.004L156.548 152.222C156.968 152.516 157.514 152.642 157.976 152.474C158.312 152.39 158.732 152.054 158.354 151.676L157.43 150.752C157.22 150.584 156.884 150.374 156.926 150.08C156.968 149.702 157.178 149.45 157.094 149.072C157.01 148.778 156.884 148.484 156.632 148.274C156.044 147.812 155.33 147.56 154.616 147.518C154.028 147.434 152.81 147.518 152.768 148.316C152.768 148.862 153.734 148.946 154.07 148.904C155.414 148.694 156.38 147.56 156.716 146.258C157.178 144.62 155.498 143.99 154.238 143.654C153.44 143.402 152.6 143.36 151.802 143.486C151.172 143.612 150.458 144.074 150.458 144.788C150.458 145.502 151.298 145.838 151.886 145.922C152.642 146.006 153.398 145.964 154.112 145.796C155.75 145.46 157.262 144.788 158.606 143.822C158.984 143.528 158.564 143.15 158.228 143.024C157.808 142.856 157.262 142.898 156.842 143.192Z" fill="#59BE4C"/>
<path d="M120.68 105.77C124.208 105.938 127.946 106.022 131.222 104.468C133.994 103.166 136.01 100.856 137.564 98.2518C138.404 96.7818 139.202 95.2278 139.874 93.6738C140.042 93.2958 139.16 93.4218 139.034 93.4638C138.656 93.5478 138.068 93.7158 137.9 94.1358C136.766 96.5298 135.632 98.9658 133.952 101.066C133.154 102.074 132.188 102.956 131.096 103.628C129.92 104.3 128.576 104.72 127.232 104.846C125.468 104.972 123.704 104.972 121.982 104.846C121.478 104.846 120.974 104.972 120.554 105.308C120.218 105.518 120.26 105.77 120.68 105.77Z" fill="white"/>
<path d="M130.55 110.6V104.93C130.55 104.384 129.878 103.964 129.416 104.006C128.912 104.006 128.534 104.426 128.534 104.888C128.534 104.93 128.534 104.93 128.534 104.972V110.642C128.534 111.188 129.206 111.608 129.668 111.566C130.172 111.566 130.55 111.146 130.55 110.642V110.6Z" fill="white"/>
<path d="M136.262 101.234C138.404 101.108 140.504 101.318 142.562 101.906C142.898 102.032 143.276 101.822 143.402 101.486C143.444 101.402 143.444 101.318 143.444 101.234C143.402 100.688 143.066 100.226 142.562 100.058C140.378 99.428 138.11 99.176 135.842 99.302C134.582 99.386 135.296 101.276 136.262 101.234Z" fill="white"/>
</svg>
