<svg width="22" height="23" viewBox="0 0 22 23" fill="none" xmlns="http://www.w3.org/2000/svg">
<rect y="0.5" width="22" height="22" rx="11" fill="#B9FF66"/>
<path d="M16.8435 8.3696C16.7391 8.31742 16.6348 8.31742 16.5826 8.3696L14.7565 9.77829V9.1522C14.7565 8.31742 14.0783 7.63916 13.2435 7.63916H6.51304C5.67826 7.63916 5 8.31742 5 9.1522V13.8479C5 14.6826 5.67826 15.3609 6.51304 15.3609H13.2435C14.0783 15.3609 14.7565 14.6826 14.7565 13.8479V13.2218L16.5826 14.6305C16.6348 14.6826 16.7391 14.6826 16.8435 14.6305C16.9478 14.5783 17 14.5261 17 14.4218V8.57829C17 8.47394 16.9478 8.42177 16.8435 8.3696Z" fill="black"/>
</svg>
