<svg width="48" height="48" viewBox="0 0 48 48" fill="none" xmlns="http://www.w3.org/2000/svg">
<path d="M31.8354 20.0872C31.6496 19.178 30.3505 19.178 30.1646 20.0872C29.0245 25.6653 24.6653 30.0245 19.0872 31.1646C18.178 31.3504 18.178 32.6496 19.0872 32.8354C24.6653 33.9755 29.0245 38.3347 30.1646 43.9128C30.3505 44.822 31.6496 44.822 31.8354 43.9128C32.9755 38.3347 37.3347 33.9755 42.9128 32.8354C43.822 32.6496 43.822 31.3504 42.9128 31.1646C37.3347 30.0245 32.9755 25.6653 31.8354 20.0872Z" stroke="#191A23" stroke-width="3"/>
<path d="M10.0592 13.2901C10.0461 13.2255 9.95387 13.2255 9.94068 13.2901C9.25618 16.639 6.63899 19.2562 3.29002 19.9407C3.2255 19.9539 3.2255 20.0461 3.29002 20.0593C6.63899 20.7438 9.25618 23.361 9.94068 26.7099C9.95387 26.7745 10.0461 26.7745 10.0592 26.7099C10.7438 23.361 13.3609 20.7438 16.7099 20.0593C16.7744 20.0461 16.7744 19.9539 16.7099 19.9407C13.3609 19.2562 10.7438 16.639 10.0592 13.2901Z" stroke="#191A23" stroke-width="3"/>
<path d="M24.9376 2.58697C24.729 1.56657 23.271 1.56657 23.0625 2.58697C22.6018 4.84062 20.8406 6.60183 18.587 7.06246C17.5666 7.27102 17.5666 8.72898 18.587 8.93754C20.8406 9.39817 22.6018 11.1594 23.0625 13.413C23.271 14.4334 24.729 14.4334 24.9376 13.413C25.3982 11.1594 27.1594 9.39817 29.413 8.93754C30.4334 8.72898 30.4334 7.27102 29.413 7.06246C27.1594 6.60183 25.3982 4.84062 24.9376 2.58697Z" fill="#191A23"/>
</svg>
