<svg transform="scale(1)" version="1.1" id="Layer_1" xmlns="http://www.w3.org/2000/svg" xmlns:xlink="http://www.w3.org/1999/xlink" x="0px" y="0px" viewBox="0 0 500 500" xml:space="preserve" class="show_show__wrapper__graphic__5Waiy "><title>React</title><style type="text/css">
	.st0{fill:#191A23;}
	.st1{fill:#FFFFFF;}
	.st2{fill:#7dd515;}
</style><g id="hand-2"><path class="st0" d="M272.9,61.1c0,0,0.3,4.7,1.1,6.4s59.2,68.6,62,68.9s52.8-2.8,52.8-2.8L272.9,61.1z"></path><path class="st0" d="M270.6,60.3c0.2,2.6,0.2,5.8,1.8,7.9c0.5,0.7,1.1,1.4,1.7,2.1c2.8,3.3,5.6,6.6,8.4,9.8
		c8.9,10.3,17.9,20.5,27,30.7c7.2,8.1,14.4,16.4,22.2,24c0.9,1,2,1.9,3.2,2.7c1.2,0.5,2.5,0.7,3.7,0.6c5.2-0.1,10.4-0.4,15.6-0.7
		c11.6-0.7,23.3-1.4,34.9-2.1h0.7c0.7,0,1.3-0.5,1.3-1.2c0,0,0-0.1,0-0.1c-0.2-0.9-0.7-1.6-1.5-2l-11.6-7.2l-27.6-17.3l-33.5-20.9
		L288,68.6c-4.7-2.9-9.3-6-14.1-8.8l-0.2-0.1c-0.8-0.5-2.4-0.8-3,0.2s0.7,2.1,1.4,2.6l11.5,7.2L311.3,87l33.5,20.9l28.9,18.1l9.5,6
		c1.5,0.9,3,2.1,4.5,2.8l0.2,0.1l-0.2-3.3c-9.9,0.6-19.7,1.2-29.6,1.8c-6.1,0.4-12.2,0.7-18.3,1c-1.5,0.1-3,0.1-4.5,0.1
		c-0.4,0,0.6,0.1,0.3,0s0.5,0.1,0.5,0.1c0.3,0.1,0.6,0.2,0.8,0.4c-0.3-0.3-0.6-0.6-1-0.8l-0.6-0.6c-0.4-0.4,0.5,0.4,0,0l-0.4-0.4
		c-0.6-0.6-1.2-1.2-1.8-1.8c-1.5-1.6-3-3.2-4.5-4.8c-4.1-4.4-8.2-8.9-12.3-13.4c-9.1-10.2-18.1-20.5-27.1-30.8
		c-3.2-3.7-6.5-7.5-9.7-11.2c-0.9-1.1-1.9-2.2-2.8-3.3c-0.2-0.3-0.5-0.6-0.7-0.9s0.3,0.2,0.1,0.2s0-0.2,0,0c0.1-0.3-0.3-1-0.4-1.4
		c-0.3-1.4-0.4-2.7-0.5-4.1c-0.2-1.2-1-2.2-2.2-2.5C272.4,59.2,270.5,59.1,270.6,60.3z"></path><path class="st1" d="M272.9,61.1c0,0,51.2-1.4,53.9-1.1s62,73.5,62,73.5s-48.7,0.4-51.2,0.4S272.9,61.1,272.9,61.1z"></path><path class="st0" d="M273.5,63.4h0.7h0.8c0.5,0-0.6,0,0,0h0.7l7-0.2c6.8-0.2,13.6-0.3,20.5-0.5c6.2-0.1,12.4-0.3,18.6-0.4
		c1.5,0,3.1,0,4.6,0c0.1,0,0.3,0,0.4,0c-0.1,0.1-1.2-0.5-0.9-0.3c0.1,0.1,0.2,0.2,0.4,0.3c-0.1,0-0.6-0.5-0.3-0.2l0.3,0.3
		c2.5,2.5,4.9,5.1,7.1,7.8c3.9,4.4,7.7,9,11.5,13.5c8.9,10.6,17.7,21.3,26.5,32.1c3.4,4.2,6.8,8.3,10.2,12.5
		c1.7,2.1,3.4,4.4,5.2,6.5c0.1,0.1,0.2,0.2,0.2,0.3l1.6-3.9l-30.4,0.2l-17.5,0.1h-2.3c-0.2,0-0.4,0-0.7,0s-0.6-0.2,0.2,0.1
		c-0.3-0.1,0.6,0.5,0.3,0.2c-0.1-0.1-0.2-0.2-0.4-0.3c-0.4-0.2,0.6,0.6,0,0l-0.6-0.6c-2.8-2.6-5.3-5.5-7.9-8.3
		c-4.1-4.5-8.1-9-12.1-13.5c-9.1-10.3-18.1-20.6-27-31c-5.2-6-10.3-12.2-15.7-18.2l-0.2-0.3c-0.7-1-2.1-1.2-3.1-0.5
		s-1.2,2.1-0.5,3.1c0.1,0.2,0.2,0.3,0.4,0.4c4.4,5.1,8.8,10.2,13.2,15.3c8.9,10.3,17.9,20.6,26.9,30.9c7.1,8.1,14.1,16.3,21.7,23.9
		c1.6,1.6,3.1,3.4,5.5,3.4l14.5-0.1l35-0.2h0.7c2.2,0,2.9-2.2,1.6-3.9c-4.4-5.4-8.7-10.8-13.1-16.2c-8.8-10.7-17.6-21.4-26.4-32.1
		c-4-4.8-8-9.5-12.1-14.2c-2.7-3.1-5.4-6.3-8.3-9.2c-0.7-0.8-1.5-1.5-2.4-2.1c-1.1-0.5-2.3-0.7-3.6-0.5c-5.5,0-11,0.2-16.4,0.3
		c-11.7,0.3-23.5,0.5-35.2,0.9h-0.7c-1.3,0-1.9,1.6-1.6,2.7C271,62.7,272.2,63.6,273.5,63.4z"></path><path class="st0" d="M281.9,64.8c0,0,44.5-0.3,45.5,0s55.1,64.7,55.1,64.7h-43.1L281.9,64.8z"></path><path class="st2" d="M349.6,101.7c0,0-18.5,0-17.3,5.9s1.6,9.6,16.1,8.6S356.5,101.2,349.6,101.7z"></path><path class="st1" d="M392.5,285.2c0,0,57.4-112.1,5.3-178.2c-6.5-8.2-49.9-7.4-49.6-1.6s22.5,4.8,22.5,4.8s-6.5,1-4.6,8.1
		c0,0-8.4,3.2-2.9,9.9c-3.5,1.9-5.3,5.9-4.5,9.8c1.3,6.7,13.5,7.1,13.5,7.1s0,14.7,12.7,18l-16.3,61.4
		C368.5,224.5,388.9,302.1,392.5,285.2z"></path><path class="st0" d="M394.6,285.1c1.2-2.4,2.3-4.8,3.4-7.2c2.9-6.4,5.5-12.9,7.8-19.5c3.4-9.4,6.4-18.9,8.9-28.5
		c2.9-11.1,5-22.4,6.2-33.8c1.4-12,1.4-24.2,0.2-36.2c-1.3-12.1-4.4-24-9.4-35.1c-2.6-5.7-5.7-11-9.4-16.1c-1.1-1.8-2.5-3.4-4.1-4.7
		c-1.5-0.9-3.1-1.6-4.8-2.1c-4.3-1.3-8.8-2-13.2-2.3c-5.1-0.4-10.1-0.5-15.2-0.2c-4.1,0.1-8.2,0.7-12.2,1.7
		c-2.4,0.7-6.8,2.3-6.6,5.5c0.2,3.6,5.9,4.5,8.6,4.9c4.3,0.6,8.6,0.8,12.9,0.7c0.8,0,1.6,0,2.4-0.1l1.8-3.6
		c-1.9,0.3-3.7,1.2-5.2,2.4c-2.4,2.1-3.4,5.4-2.5,8.5l2-2.6c-2,0.8-3.7,2.1-5.1,3.7c-2.4,2.9-1.9,6.3,0.3,9.1l1.9-2.9
		c-4.1,2.2-7.2,6.6-6.7,11.4c0.5,5.2,5.9,7.4,10.4,8.3c1.5,0.3,3,0.5,4.5,0.5l-1.3-0.8c0.1,2.8,0.7,5.6,1.8,8.2
		c2,5.2,6.4,9.1,11.8,10.5l-0.8-1.2l-6.9,25.9l-8.9,33.6c-0.3,0.7-0.5,1.5-0.5,2.3c0.1,0.6,0.3,1.3,0.5,1.9c1,3.9,2.1,7.8,3.2,11.7
		c3.4,11.9,6.8,23.8,11.1,35.3c1.5,4.2,3.1,8.6,5.5,12.4c0.5,1,1.4,1.9,2.4,2.5c2,0.9,4.2-0.9,5.1-2.5c0.3-0.7,0.6-1.4,0.7-2.1
		c0.2-1.1-1-1.3-1.8-1.1c-1.2,0.3-2.1,1.2-2.5,2.3c-0.1,0.3-0.2,0.6-0.2,0.9c0.2-0.7-0.1,0.1-0.2,0.4c0.5-0.8,1.4-1.3,2.4-1.3
		c-0.4-0.1,0.3,0.3-0.1,0c-0.1-0.1-0.1-0.1-0.2-0.2l0,0c-0.4-0.4-0.7-0.9-1.1-1.4c-2.2-3.4-3.7-7.5-5.1-11.2
		c-4.2-11.3-7.6-22.9-10.9-34.5c-1.2-4.1-2.3-8.2-3.4-12.3c-0.1-0.9-0.4-1.8-0.7-2.6c-0.2-0.4-0.1,0.2,0,0.2s0.2-0.7,0.2-0.9
		l8.1-30.7l7.7-29.3l0.1-0.5c0.1-0.5-0.2-1.1-0.8-1.2c0,0,0,0,0,0c-7.6-2-11.9-9.7-11.9-17.2c0-0.7-0.8-0.8-1.3-0.8
		c1.1,0-0.5-0.1-0.8-0.1c-1-0.1-2-0.3-2.9-0.4c-2.5-0.4-4.8-1.4-6.7-2.9c-2-2-2.5-5-1.3-7.5c0.2-0.5,0.5-1,0.9-1.4
		c0.1-0.1,0.2-0.2,0.3-0.4c-0.2,0.2-0.2,0.2,0,0s0.4-0.3,0.6-0.5c0.3-0.4-0.5,0.3,0.1-0.1l0.4-0.3c0.5-0.4-0.1,0.1-0.2,0.1
		c0.7-0.4,2.7-1.8,1.9-2.9c-1-1.1-1.6-2.5-1.7-4c0-0.7,0.3-1.4,0.9-1.9c-0.4,0.4,0.1-0.1,0.2-0.2c0.5-0.5-0.3,0.2,0.1-0.1
		c0.2-0.2,1.3-0.8,0.5-0.4c0.4-0.2,0.7-0.4,1.1-0.5c0.8-0.3,2.2-1.5,2-2.5c-0.4-1.2-0.4-2.4-0.1-3.6c0.1-0.2,0.1-0.3,0.2-0.5
		c0.2-0.4-0.1,0.1,0.1-0.2c0.1-0.1,0.4-0.6,0.1-0.2c0.1-0.1,0.6-0.5,0-0.1c0.1-0.1,0.3-0.2,0.4-0.3c0.4-0.3-0.5,0.2,0,0l0.4-0.2
		c0.4-0.2-0.5,0.2-0.1,0s1.4-0.3,0.4-0.2c1.2-0.2,2.3-0.9,2.9-2c0.3-0.5,0.2-1.1-0.3-1.5c-0.3-0.2-0.6-0.2-0.9-0.2
		c-2.6,0.1-5.2,0.1-7.7,0c-3.8-0.2-8.5-0.3-11.9-2c-0.6-0.2-1-0.6-1.4-1.1c-0.3-0.4-0.1-0.2-0.2-0.5c-0.2-0.6-0.1,0.1,0-0.3
		c0,0.1-0.3,0.6-0.2,0.4s-0.5,0.5-0.2,0.2s-0.5,0.5-0.2,0.1c0.1-0.1,0.2-0.1,0.2-0.2c0.5-0.2-0.5,0.2-0.2,0.1
		c0.3-0.1,0.5-0.2,0.8-0.4c0.4-0.2-0.5,0.2,0,0l0.5-0.2l1-0.3l1.2-0.3l0.5,0c0.1,0,0.8-0.2,0.4-0.1c2-0.3,4-0.6,6-0.7
		c9.1-0.7,18.8-0.5,27.7,1.7c1.7,0.4,3.3,0.9,4.9,1.7c0.6,0.3,1.2,0.6,1.8,1c0.5,0.3,0.9,0.7,1.3,1.2c3.8,4.8,7,10,9.8,15.4
		c5.2,10.6,8.7,21.9,10.3,33.6c1.6,11.6,1.9,23.3,0.9,34.9c-1,11.2-2.7,22.4-5.4,33.4c-2.3,9.7-5.1,19.2-8.3,28.6
		c-2.4,6.8-5,13.7-7.9,20.4c-1.5,3.4-3,6.7-4.6,10l-0.2,0.4c-0.5,1,0.1,1.7,1.1,1.7C392.9,287,394,286.2,394.6,285.1z"></path><path class="st1" d="M316.2,82.5c2.7-0.5,5.4,0.4,7.3,2.5c1.6,1.9,2.6,5.6,0.6,7.6l0.6-0.4l-0.2,0.1l2.4-0.4h-0.2l1.5,0.2
		c-0.7-0.3-1-1.9-1.2-2.5c-0.3-1-0.6-2.1-0.7-3.1c-0.2-1.1-0.2-2.1-0.2-3.2c-0.1-0.9,0.3-1.9,1.1-2.4c0.5-0.4-0.1,0.2-0.2-0.1
		c0,0,1,0.2,1,0.2c0.9,0.3,1.7,0.9,2.3,1.5c1.3,1.4,2.2,3.2,2.6,5.1c0.3,1.3,5.2,0.5,5-0.4c-0.9-3.8-3.4-7.1-7.4-7.9
		c-2.4-0.5-5-0.2-7.2,0.8c-0.8,0.3-1.5,1-1.9,1.8c-0.3,1-0.4,2.1-0.2,3.2c0.1,2.1,0.6,4.3,1.4,6.3c0.3,0.8,0.6,1.6,1.5,1.9
		c1.5,0.5,3.2,0.3,4.6-0.4c1.4-0.8,1.7-3,1.6-4.5c-0.2-1.6-0.9-3.1-1.9-4.3c-3.2-3.7-9-3.7-13.4-2.9c-0.5,0.1-2.1,0.4-1.6,1.2
		S315.6,82.6,316.2,82.5L316.2,82.5z"></path></g><g id="hand-1"><path class="st1" d="M119.5,427.4l-6.5-46.7c0,0,32,3.4,60.9-16.9c0,0,15.6,39.3,15.5,45.7S150.6,435.1,119.5,427.4z"></path><path class="st0" d="M121.9,427.4l-2.2-15.8l-3.5-25.1l-0.8-5.8l-2.7,2.1c4.4,0.4,8.8,0.4,13.2,0c10.2-0.7,20.3-3,29.9-6.7
		c6.9-2.7,13.5-6.2,19.6-10.4l-3.7-1.3c1.8,4.5,3.5,9.1,5.3,13.6c1.5,4,3,8,4.4,12.1c0.7,2,1.4,4.1,2.1,6.1c0.3,0.9,0.6,1.8,0.9,2.8
		s0.6,1.8,0.7,2.2c0.8,2.5,1.5,5.1,1.9,7.7c0.1,0.6,0-0.4,0,0c0,0.1-0.1,0.3-0.1,0.4c0-0.7,0.1-0.2-0.1,0c-0.1,0.1-0.1,0.2-0.1,0.3
		c-0.2,0.5,0.2-0.3,0,0c-0.3,0.4-0.7,0.8-1.1,1.2c-0.2,0.2-0.4,0.4-0.7,0.6l-0.4,0.3c-0.1,0.1-0.7,0.5-0.2,0.2
		c-3.1,2.3-6.5,4.3-10.1,5.9c-4.7,2.2-9.5,3.9-14.5,5.3c-12.9,3.7-26.8,5.2-40,2c-1.1-0.3-2.3,0.3-2.7,1.4c0,0,0,0.1,0,0.1
		c0,1.3,0.9,2.4,2.2,2.6c12.4,3,25.5,2.1,37.8-0.9c5.6-1.3,11.1-3.1,16.5-5.4c4.1-1.7,8.1-3.7,11.9-6.1c2.2-1.5,5-3.3,6-5.9
		c0.9-2.1,0-4.8-0.6-6.9c-2.2-8.1-5.1-16-8.1-23.9c-2.1-5.7-4.1-11.5-6.5-17.1l-0.1-0.3c-0.5-1.3-2.5-2.1-3.7-1.3
		c-16.3,11.2-35.7,17.1-55.5,16.8c-1,0-2.1,0-3.1-0.1c-0.3,0-2-0.2-0.6,0c-1.4-0.1-2.9,0.5-2.7,2.1l2.2,15.8l3.5,25.1l0.8,5.8
		C117.4,430.1,122.3,430.4,121.9,427.4z"></path><path class="st2" d="M135.8,393.3c4.7,2.5,9.5,4.8,14.9,4.9c4.6,0,10-1,13.1-4.8l0.1-0.2c-1.1-2.2-4.8-1.6-6.7-1.2
		c-2.7,0.5-5.4,1.4-7.9,2.5c-2.5,1.1-4.8,2.5-6.9,4.1c-1.1,0.8-2.1,1.7-3.1,2.7c-1,0.8-1.7,1.8-2.1,3c-0.6,2.5,2.7,4.2,4.6,4.8
		c3,0.9,6.4,0.5,9.5,0c1.4-0.2,2.8-0.5,4.1-1.1c0.8-0.4,1.8-1.4,0.8-2.1s-2.8-0.4-3.8-0.3c-1.6,0.1-3.2,0.5-4.7,1.2
		c-2.8,1.3-4.6,3.8-6.1,6.4c-0.7,1.2-1.3,2.1,0.1,3c1.6,1,3.3,1.8,5,2.5c1,0.3,2.1,0.3,3.1,0c0.2,0,2.2-0.7,1.6-0.9
		c-1.3-0.5-2.6-1.1-3.8-1.8c-0.5-0.2-1-0.5-1.4-0.9c-0.7-0.6-0.4-1.2,0-1.9c1.1-2.3,2.8-4.3,4.8-5.9c0.5-0.2,1-0.4,1.4-0.7l-1,0.1
		l0.2,0.3c-0.1,0.3,0,0.5-0.3,0.7c-0.6,0.6-2.4,0.7-3.2,0.7c-2.1,0-5.2-1.2-5.9-3.4s2.2-4.3,3.7-5.5c2.8-2.4,6-4.2,9.4-5.5
		c0.5-0.2,1.1-0.4,1.6-0.5c0.6-0.1,1.2-0.2,1.7-0.4h-0.4c-0.5,0-0.6,0-0.2,0.1c0.1,0.1,0.4,0.1,0.5,0.3c0.6,0.5,0.1,0.9-0.4,1.3
		c-0.8,0.8-1.7,1.4-2.7,1.8c-2,0.9-4.2,0.5-6.2-0.1c-3-1-5.9-2.3-8.6-3.8c-1-0.3-2.1-0.3-3.1,0C137.3,392.5,135.3,393.1,135.8,393.3
		L135.8,393.3z"></path><path class="st1" d="M97.9,364.7c0,0-2.7,6.7,1.4,9.9s30.2,2.5,29.2-0.6s-7.8-9.6-11.1-10.3s-9.2,2-9.2,2l3.7-3.9l-25.5-14.4
		c0,0-5.6,7.2-11.6,9.9c-5.2,2.4-7.2,10.2,3.3,7.5c2.8-0.8,5.5-2,7.9-3.6l3.7-2.4C89.7,358.8,88.2,370.3,97.9,364.7z"></path><path class="st0" d="M95.6,365.5c-1.5,3.8-1.5,9.3,3,10.9c2,0.6,4.1,1,6.2,1.1c2.7,0.2,5.4,0.3,8.1,0.3c4.8-0.1,10-0.2,14.6-2
		c1.1-0.4,3.8-1.3,3.2-2.9c-0.5-1.2-1.2-2.2-2.1-3.2c-1.1-1.3-2.3-2.5-3.6-3.6c-1.2-1.1-2.6-2.1-4-2.8c-1.3-0.7-2.8-0.9-4.3-0.6
		c-3.2,0.5-6.4,1.4-9.3,2.9l2.9-0.3l3.7-3.9c0.2-0.2,0.3-0.3,0.1-0.5l-22.2-12.5l-3.2-1.8c-0.5-0.3-1.9,0.4-2.4,0.5
		c-0.8,0.2-1.5,0.7-2.1,1.3c-1.8,2.3-3.8,4.3-6.1,6.2c-1.6,1.2-3.3,2.3-5.2,3.3c-1.3,0.7-2.5,1.7-3.4,2.9c-1.2,1.5-2,4,0,5.2
		c1.3,0.7,2.8,0.9,4.3,0.6c2.7-0.4,5.4-1.1,7.9-2.2c3.4-1.6,6.7-3.5,9.8-5.7l-4.1,1.2c-0.3,1.9-0.1,3.8,0.7,5.6
		c2.2,4.1,8.4,0.9,11.2-0.6c0.5-0.3,1.4-0.8,0.6-1s-2.6,0.7-3.2,1.1c0,0-1,0.5-0.6,0.3c-0.3,0.1-0.1,0.1-0.5,0.1
		c-0.6,0-1.1-0.1-1.6-0.4c-0.8-0.6-1.4-1.5-1.6-2.5c-0.4-1.5-0.5-3-0.2-4.5c0-0.3-1.6,0.1-1.6,0.1c-0.9,0.2-1.7,0.6-2.5,1.1
		c-1.9,1.4-3.8,2.6-5.9,3.7c-2,1-6.6,2.8-8.5,0.6c-1.3-1.5-0.1-3.7,1-4.9c0.3-0.3,0.6-0.6,1-0.9c-0.2,0.1,0.3-0.2,0.1,0
		s0.3-0.1,0.3-0.1c0.6-0.3,1.1-0.5,1.6-0.9c1.8-1.1,3.6-2.3,5.2-3.7c2.2-1.9,4.2-4,6-6.2l-4.5,1.8l22.2,12.5l3.2,1.8l0.1-0.5
		l-3.7,3.9c-0.4,0.4-0.1,0.5,0.4,0.5c0.9-0.1,1.7-0.4,2.5-0.8c0.2-0.1-0.7,0.3,0,0l0.6-0.2l0.3-0.1l0.2-0.1c1.1-0.4,2.2-0.7,3.4-0.8
		c2.5-0.2,4.6,1.4,6.4,2.9c2.2,1.7,4.1,3.8,5.6,6.1c0.3,0.4,0.5,0.8,0.6,1.2c0,0.1,0,0.2,0,0.3c0.1,0.2-0.2,0,0,0
		c-0.1,0,0.2-0.2,0.1,0c0.2-0.2,0.5-0.3,0.7-0.4c0.3-0.1,0.8-0.2,0.3-0.1c0.7,0-0.6,0.1-0.2,0l-1.3,0.2c-0.9,0.1-1.9,0.3-2.8,0.4
		c-2.3,0.2-4.6,0.3-7,0.3c-4.1,0-8.6,0-12.6-1.2c-4.5-1.3-4.8-6.7-3.3-10.5c0.3-0.6-1.7,0-1.9,0C97.7,364.2,96,364.7,95.6,365.5z"></path><path class="st2" d="M136.4,378c0,0-98-55-98.8-56.6s1.8-7,3.7-7.4s98.9,54.5,99.7,55.4s8.3,10.7,8.3,10.7L136.4,378z"></path><path class="st2" d="M136.5,376.5l-11-6.2c-8.7-4.9-17.3-9.7-25.9-14.6c-10.1-5.7-20.2-11.4-30.2-17.2c-8-4.6-16.1-9.2-24-13.9
		c-2.1-1.2-4.2-2.5-6.3-3.8l-0.8-0.5c-0.3-0.2,0.3,0.3-0.1-0.1c0.1,0.1,0.9,1,0.7,1.1c0-0.2,0-0.4,0.1-0.6c0.3-1.5,1-2.9,2-4.1
		c0.2-0.2,0.4-0.5,0.7-0.6c0.2-0.1,0.4-0.3,0.3-0.2s-0.4-0.2-0.2,0c0.1,0,0.2,0.1,0.3,0.1l0.3,0.1c0.4,0.1-0.3-0.1,0.2,0.1
		c0.9,0.4,1.8,0.9,2.7,1.3c2.9,1.5,5.8,3,8.7,4.6c9,4.9,18,9.9,27,14.9c10.1,5.7,20.3,11.4,30.4,17.1c7.8,4.4,15.5,8.8,23.3,13.3
		c1.9,1.1,3.8,2.2,5.7,3.3c0.2,0.1,0.4,0.2,0.6,0.3c0.4,0.2-0.7-0.8-0.2-0.1c1.6,2,3.2,4,4.7,6.1l3.3,4.3l0.6-2.7l-13-2.1
		c-2-0.3-1.1,3.2,0.4,3.4l13,2.1c1.6,0.3,1.2-1.9,0.6-2.7c-2.7-3.5-5.3-7.2-8.2-10.6c-1.1-1-2.3-1.9-3.7-2.5
		c-6.8-4-13.6-7.8-20.4-11.7c-10.1-5.7-20.2-11.4-30.3-17.1c-9.6-5.4-19.3-10.8-29-16.1c-3.5-1.9-6.9-3.8-10.4-5.6
		c-2-1.1-4.1-2.2-6.2-3.1c-0.7-0.4-1.5-0.4-2.1,0.1c-1.3,1-2.3,2.4-2.9,3.9c-0.8,1.5-1,3.1-0.6,4.7c0.5,1.8,2.6,2.7,4,3.6
		c6.6,4.1,13.4,8,20.2,11.8c10,5.7,20,11.4,30,17.1c9.6,5.4,19.2,10.9,28.8,16.3l16.1,9l0.8,0.4c0.4,0.3,1,0.2,1.3-0.2
		c0.1-0.2,0.2-0.4,0.2-0.6C137.9,377.9,137.4,377,136.5,376.5z"></path><path class="st1" d="M89.4,338.3c0,0,33.8-91.4,63.7-100.5c20.2-6.2,9.9,40.6,9.9,40.6s-31.4,41-31.1,43.4c0,0,5.4,3.9,6.8,12.8
		s1.7,21.4,0.4,28.8s-7.8,11.5-10.6,4.7s-2.7-15-5.3-17.1s-7.1,2.4-7.1,2.4"></path><path class="st0" d="M91.9,338.6c1.8-4.8,3.7-9.4,5.6-14.1c4.5-10.8,9.3-21.4,14.6-31.9c5.9-11.7,12.3-23.3,20.1-33.8
		c3.3-4.6,6.9-8.8,11-12.8c3.2-3,6.9-5.8,11-7.3c0.5-0.2,1-0.3,1.5-0.5l0.5-0.1c0.1,0,1-0.1,0.6-0.1h0.4c0.4,0-0.6,0,0,0
		s-0.6-0.1,0.1,0c-0.9-0.1,0.4,0.1-0.4-0.1c0.1,0,0.2,0.1,0.4,0.1c0.2,0.1-0.4-0.1,0,0c0.3,0.1,0.6,0.3,0.9,0.4
		c0.3,0.2,0.6,0.5,0.9,0.7c0.6,0.6,1.1,1.3,1.6,2.1c2.2,3.9,2.4,8.9,2.5,13.2c0,5-0.4,10-1.1,14.9c-0.4,2.8-1.1,5.6-1.4,8.4
		c0,0.3,0,0.2,0,0.1c-0.1,0.2-0.3,0.5-0.5,0.7l-2.5,3.3c-3.1,4-6.1,8.1-9.1,12.1c-3.6,4.8-7.1,9.6-10.6,14.4
		c-2.5,3.5-5.1,7.1-7.4,10.8c-0.4,0.7-1.3,1.7-0.9,2.4c0.1,0.2,0.3,0.2,0.2,0.1c0.3,0.2,0.6,0.5,0.9,0.8c0.9,0.9,1.7,2,2.4,3.1
		c2.4,3.8,3.1,8.1,3.6,12.5c0.5,4.9,0.8,9.8,0.7,14.7c-0.1,4.2,0,9-1.6,13c-0.6,1.7-1.8,3.3-3.2,4.4c-0.3,0.2-0.5,0.3-0.8,0.4
		c-0.1,0-0.2,0-0.2,0.1h-0.2c0.4-0.1,0.8,0,1.1,0.1c1.2,0.2,0.5,0.1,0.1-0.3c-0.4-0.3-0.7-0.7-0.9-1c-1.3-2-1.9-4.6-2.4-6.8
		s-0.9-4.5-1.4-6.7c-0.3-1.6-0.8-3.2-1.7-4.5c-1.2-1.6-3.5-1.9-5.3-1.9c-2.7,0.1-5.3,1.3-7.1,3.3c-0.6,0.6,1.4,1,1.7,1
		c0.7,0.1,2.5,0.5,3.1-0.2c0.5-0.5,1-0.9,1.5-1.3c0.4-0.3,0.9-0.6,1.4-0.9c0.3-0.2,0.6-0.3,0.9-0.4c0.1,0,0.2,0,0.3-0.1
		c-0.2,0.1-2-0.6-1.8-0.2s0.6,0.6,0.7,0.8c0.3,0.6,0.6,1.1,0.8,1.8c0.5,1.6,0.8,3.1,1.1,4.7c0.7,3.6,1.3,7.5,3.1,10.7
		c1.6,2.8,5.1,3.7,8.2,3.2c6.5-1,7.3-9.4,7.6-14.6c0.5-7.7,0.1-15.3-1.1-22.9c-0.8-4.8-3-10.1-7-13l0.3,0.4c0.1-0.6,0.4-1.2,0.7-1.6
		c0.7-1.1,1.4-2.2,2.1-3.3c2.3-3.5,4.8-6.9,7.2-10.3c5.5-7.5,11-14.9,16.6-22.4c1.4-1.8,2.8-3.6,4.1-5.4c0.5-1,0.7-2,0.8-3.1
		c1.4-7.3,2.1-14.7,2-22.1c0-3.8-0.7-7.6-2-11.1c-1.2-3.1-4-5.4-7.3-5.9c-8.1-1.5-15.4,3.7-21,9c-7.1,6.8-12.7,15-17.9,23.3
		c-5.7,9.3-10.9,18.8-15.6,28.6c-4.1,8.5-8,17-11.6,25.7c-1.9,4.6-3.8,9.3-5.6,14l-0.2,0.6C86.7,338.6,91.4,339.7,91.9,338.6
		L91.9,338.6z"></path><path class="st0" d="M96.1,363.4c-0.3,1-0.5,2-0.7,3c0,0.1,0,0.2-0.1,0.4c0,0.2-0.1,0.4-0.1,0.7c0,0.5,0.4,0.9,0.8,1
		c0.5,0.2,1.1,0.1,1.7-0.1c0.6-0.2,1.2-0.6,1.6-1.1c0.4-0.4,0.6-0.9,0.6-1.4c0,0,0-0.1,0-0.1v0.5c0.1-0.5,0.2-1,0.3-1.4
		c0.1-0.5,0.3-1.1,0.4-1.6l0.1-0.4c0.1-0.4,0-0.9-0.3-1.2c-0.4-0.3-1-0.4-1.5-0.3c-0.6,0.1-1.3,0.4-1.8,0.8
		C96.6,362.4,96.3,362.9,96.1,363.4L96.1,363.4z"></path></g><g id="earth"><circle class="st2" cx="270.3" cy="262.5" r="130.8"></circle><path class="st1" d="M307.2,137.1c1,4.9,1.2,9.9,0.5,14.9c-1.5,11.7-6.5,22.8-14.3,31.6c-2.6,2.9-5.4,5.6-7.9,8.6
		c-2.2,2.5-4.3,5.1-6.2,7.9c-2.8,4-5.4,8.5-6.3,13.3c-0.8,4-0.3,8.1,1.4,11.7c2,4.4,5.6,7.9,9.2,11c3.4,2.8,6.7,5.1,9.2,8.7
		c1.8,2.7,3.4,5.5,4.7,8.4c1.2,2.6,2.7,5.1,4.6,7.3c2.6,2.6,5.8,4.4,9.3,5.3c4.7,1.2,9.8,0.9,14.6,0.4c5.7-0.6,11.3-2,16.7-4
		c9.4-3.7,17.7-9.8,25-16.7c10-9.6,18.4-20.7,24.9-32.9c0.1-0.2,0.2-0.4,0.3-0.6c0.7-1.3-3.8-3.5-4.5-2.2c-1.5,3-3.3,5.9-5.1,8.8
		c-4.3,6.7-9.1,13-14.4,18.9c-6.4,7.3-14,13.5-22.5,18.4c-4.4,2.5-9.1,4.4-14,5.7c-5.4,1.4-11,2.2-16.7,2.2c-1.9,0-3.8-0.2-5.6-0.6
		l-0.6-0.2c0.5,0.1-0.1,0-0.2-0.1s-1.3-0.5-0.6-0.2l-1-0.5c-0.5-0.3,0.5,0.3,0,0l-0.6-0.4c-0.5-0.3,0.4,0.3-0.1,0l-0.4-0.3
		c-0.2-0.2-0.4-0.4-0.6-0.5c0.4,0.4-0.3-0.3-0.4-0.4c-0.2-0.3-0.5-0.6-0.7-0.9c-0.7-1-1.4-2-1.9-3.1c-1.4-2.7-2.6-5.5-4.2-8.1
		c-2-3.3-4.4-6.3-7.3-8.9c-1.9-1.7-4-3.1-5.9-4.7c-1.7-1.5-3.3-3.1-4.7-4.9c-2.4-3-3.8-6.8-3.9-10.7c0-4.4,1.6-8.5,3.7-12.3
		c3.3-5.5,7.2-10.6,11.6-15.2c2.5-2.7,5.2-5.3,7.5-8.2c2.1-2.6,3.9-5.3,5.5-8.2c2.8-4.9,4.8-10.2,6-15.7c1.5-6.5,1.7-13.2,0.6-19.8
		c-0.1-0.3-0.1-0.7-0.2-1c-0.2-1-1.5-1.7-2.4-2C309.1,136.5,307.1,136.1,307.2,137.1L307.2,137.1z"></path><path class="st1" d="M241.2,135.2c0.1,0.3,0-0.1,0,0.3s0.1,0.9,0.1,1.4c0,1.5,0,3.1-0.3,4.6c-0.6,4.6-2.7,8.8-6,12
		c-2.3,2.1-5,3.6-7.9,4.6c-10.2,3.2-19.4,9-26.7,16.8c-4.7,5-8.8,10.9-10.6,17.6c-0.9,3.1-1.1,6.4-0.8,9.6c0.4,1.8,0.2,3.7-0.3,5.4
		c-1.2,2.9-4.4,4.3-7,4.9c-1.8,0.4-3.7,0.6-5.6,0.6c-1,0-2.1,0-3.1,0l-1.6-0.1h-0.3c0.4,0,0,0-0.1,0l-0.9-0.1
		c-2.1-0.2-4.2-0.5-6.4-0.8l-1.5-0.3l-0.6-0.1h0.1l-0.5-0.1c-0.9-0.2-1.8-0.3-2.7-0.5c-2.3-0.5-4.6-1.1-6.9-1.6l-0.3-0.1
		c-0.5-0.1-2.4-0.5-2.6,0.3s1.8,1.4,2.2,1.5c5.6,1.6,11.3,2.7,17,3.4c4.6,0.7,9.2,0.8,13.8,0.5c3.5-0.3,7.5-1.1,10.1-3.6
		c1.1-1.1,1.9-2.5,2.2-4c0.5-2.4-0.3-4.8-0.2-7.2c0.1-7,3.2-13.6,7.3-19c4.6-6,10.2-11.1,16.6-15c3.1-1.9,6.3-3.5,9.6-4.9
		c3.1-1.2,6.3-2.1,9.2-3.8c7-4.4,10.4-12.7,9.6-20.8c0-0.2,0-0.5-0.1-0.7C245.9,134.6,241,133.8,241.2,135.2L241.2,135.2z"></path><path class="st1" d="M138.4,244.9c4.7,2.1,9.7,3.7,14.9,4.6c11,2.4,22.3,2.6,33.3,0.5c9.1-1.8,18-5.2,27.4-4.6l0.9,0.1l0.7,0.1
		c0.1,0,0.8,0.1,0.2,0c0.7,0.1-0.4-0.1,0.1,0c0.2,0,0.4,0.1,0.5,0.2c1.1,0.4,2.1,0.9,3,1.7c2,1.7,3.2,4.1,3.4,6.7
		c0.4,3.7-0.6,7.6-1.7,11.1c-1.9,5.7-4.6,11.1-7.2,16.6c-2.3,4.9-4.7,9.8-6.8,14.8c-1.7,3.9-3,8-3.8,12.1c-0.6,3.5-0.4,7.1,0.6,10.6
		c1,3.4,3,6.2,4.6,9.3c2,3.8,3.5,8.5,2.4,12.8s-5,6.7-9.3,7.6c-8,1.5-16.4-0.9-23.9-3.5c-3.1-1-6.1-2.2-9.1-3.4
		c-1.1-0.4-2.3-0.7-3.5-0.7c-0.8,0-1,0.1-0.1,0.5c10.5,4.2,21.8,8,33.2,8.6c5.2,0.3,11.7,0,15.5-4.2c2.8-3.2,2.8-7.7,1.8-11.6
		c-0.7-2.5-1.7-4.8-3.1-7c-2.1-3.2-3.5-6.8-4.2-10.6c-1.2-8.4,2.6-16.8,6-24.3c2.5-5.6,5.2-11,7.8-16.6c2.2-4.9,4.5-9.8,5.5-15
		c0.6-3.1,0.8-6.5-0.4-9.4c-1-2.3-2.9-4.2-5.3-5.2c-7.3-3.4-16.1-2.8-23.8-1.4c-5.4,1-10.6,2.6-16,3.7c-6.1,1.2-12.4,1.6-18.6,1.2
		c-4.3-0.3-8.6-0.9-12.8-2.1l-2.1-0.6c-0.7-0.2-1.1-0.4-1.9-0.6c-0.6-0.2-1.1-0.4-1.7-0.6s-0.4-0.2-0.9-0.4c-0.3-0.1-0.7-0.3-1-0.4
		c-1.1-0.4-2.2-0.7-3.3-0.8C139.1,244.6,137.5,244.4,138.4,244.9L138.4,244.9z"></path><path class="st1" d="M286.5,359.6c2.4-6.6,2.8-13.7,1.3-20.5c-0.6-2.7-1.7-5.2-3.1-7.5c-1.5-2.1-3.1-4.1-4.9-5.9
		c-1-1.3-1.9-2.7-2.7-4.2c-0.9-1.7-1.6-3.4-2.2-5.2c-0.5-1.7-1-3.5-1.2-5.2c-0.1-0.9-0.3-1.9-0.3-2.8c-0.1-0.7-0.1-2.1-0.1-2.5
		c0-1.8,0.2-3.7,0.6-5.5c0.3-1.5,0.9-2.9,1.6-4.2c-0.2,0.4,0.3-0.5,0.4-0.6s0.4-0.5,0.6-0.8l0.4-0.4c0.4-0.5-0.4,0.3,0.1-0.1
		c0.3-0.3,0.6-0.6,1-0.9l0.5-0.3c-0.6,0.4,0,0,0.1,0c0.3-0.2,0.7-0.4,1-0.5l0.5-0.2c-0.1,0-0.5,0.2,0,0c0.5-0.2,0.9-0.3,1.4-0.4
		l0.6-0.1c0.7-0.1-0.5,0,0.3,0c0.5,0,0.9-0.1,1.4-0.1c0.9,0,1.8,0.1,2.8,0.2c3,0.5,5.8,1.3,8.8,1.6c5.8,0.5,11.5,0.3,17.2-0.6
		c4.9-0.6,9.6-1.5,14.5-1.7c2-0.1,4.1,0.1,6.1,0.5c1.7,0.4,3.2,1.2,4.5,2.3c3.3,2.9,4.7,7.4,5.5,11.6c1.9,9.4,0.5,19.4-2.7,28.4
		c-5.2,15.7-16.8,28.4-31.9,35.1c-2.6,1.3-5.3,2.4-8,3.3c-1.2,0.4-2.3,0.7-3.5,1c-0.5,0.1-1.1,0.2-1.6,0.3l-0.8,0.1l-0.5,0.1
		c0.2,0,0.2,0,0,0c-0.9,0.1-1.7,0.1-2.6,0.1H291c-0.7,0,0.5,0.1-0.2,0c-0.4-0.1-0.9-0.1-1.3-0.3l-0.5-0.1c-0.5-0.2,0.3,0.1,0,0
		c-0.3-0.1-0.5-0.2-0.8-0.4c-0.1-0.1-0.9-0.6-0.5-0.3c-0.3-0.2-0.5-0.5-0.8-0.7c-0.1-0.1-0.2-0.2-0.3-0.4c-0.4-0.4,0.2,0.4,0,0
		c-0.1-0.2-0.3-0.5-0.4-0.8c-0.1-0.3-0.3-0.5-0.4-0.8c0-0.1-0.2-0.6,0-0.1c-0.1-0.2-0.1-0.5-0.2-0.7c-0.2-0.7-0.3-1.5-0.3-2.3
		c0-0.3,0-0.5,0-0.8c0-0.5,0-1,0.1-1.4c0.2-2.1,0.6-4.1,1.2-6.1c0.4-1.2-1-2.2-2.1-2.1c-1.3,0-2.4,0.9-2.7,2.2
		c-1.8,6.5-2.8,16,5.1,18.8c3.9,1.3,8.3,0.6,12.1-0.5c6.2-1.8,12.2-4.4,17.8-7.6c10.1-6,18.4-14.6,23.9-25
		c5.3-9.5,8.1-20.2,8.2-31.1c0-4.9-0.8-9.7-2.3-14.3c-1.5-4.5-4.3-8.8-8.8-10.8c-4.3-1.9-9.2-1.8-13.8-1.4c-5.5,0.5-10.9,1.6-16.4,2
		c-3,0.3-5.9,0.3-8.9,0.1c-3-0.3-6-0.8-8.9-1.5c-4.2-0.9-8.8-0.9-12.7,1.1c-7.2,3.8-9,12.4-8.5,19.9c0.5,8.1,3.8,15.8,9.3,21.8
		c6.6,7,6.9,17.5,4.5,26.3c-0.1,0.3-0.3,1-0.1,0.4c-0.1,0.2-0.1,0.4-0.2,0.5s-0.1,0.3-0.2,0.5C280.9,361.5,285.5,362.2,286.5,359.6z
		"></path><path class="st1" d="M237.6,187.6c-5.8,2.1-10.1,9.1-6.1,14.7c1.9,2.6,5.1,3.9,8.3,3.3c3.2-0.6,6.4-3,7.3-6.2
		c0.9-3.3-0.6-6.9-3.6-8.5c-1.7-1-5.7,1.9-3.4,3.2c0.8,0.5,1.4,1.2,1.8,2c0.5,0.9,0.7,1.9,0.6,2.9c-0.1,0.9-0.4,1.7-1,2.4v0.1
		l-0.3,0.3c-0.1,0.1-0.4,0.3,0,0c-0.1,0.1-0.2,0.1-0.3,0.2l-0.4,0.2c-0.2,0.2,0.1-0.1,0.1-0.1l-0.4,0.2c-0.6,0.2,0.3,0-0.1,0
		c-0.1,0-0.7,0.1-0.3,0.1c-0.1,0-0.9,0-0.5,0c-0.2,0-0.5-0.1-0.7-0.1c-0.3-0.1,0.2,0.1-0.1,0c-0.2,0-0.3-0.1-0.5-0.2
		c-0.9-0.4-1.7-1-2.3-1.8c-1.2-1.5-1.6-3.5-1-5.4c0.1-0.3,0.2-0.6,0.3-0.9c0.1-0.2,0.2-0.3,0.3-0.5c0.2-0.3,0.3-0.5,0.5-0.8l0.3-0.3
		c-0.1,0.2,0,0,0.1-0.1l0.7-0.7c0.3-0.2-0.3,0.2,0,0l0.4-0.3c0.2-0.1,0.8-0.4,0.3-0.2c0.3-0.1,0.6-0.3,1-0.4
		c0.9-0.3,2.1-1.4,1.7-2.4S238.5,187.3,237.6,187.6L237.6,187.6z"></path><path class="st1" d="M241.1,358.4c-4.9-0.5-11.5,1.4-12.9,6.8c-0.6,2.1,0,4.4,1.6,6c1,0.8,2,1.4,3.1,1.9c1.3,0.6,2.4,1.3,3.4,2.3
		c3.7,3.5,6.3,8.7,12.1,8.7c4.9-0.1,9-3.7,9.8-8.5c0.8-5.8-3.6-10.5-7.3-14.3c-1.1-1.2-5.7,0.7-4.4,2c2.8,2.9,5.8,6,6.8,10
		c0.4,1.6,0.3,3.3-0.3,4.9c-0.4,1.2-1.2,2.3-2.2,3c0.1-0.1-0.4,0.1-0.1,0.1c-0.4,0-0.8,0-1.2-0.1c-1-0.3-1.9-0.8-2.7-1.5
		c-1.5-1.4-3-2.9-4.2-4.5c-1.3-1.6-2.9-3-4.7-4c-1.6-0.9-3.7-1.4-4.5-3.2c-0.8-1.8-0.6-3.8,0.6-5.4c1.1-1.3,2.8-1.8,4.4-1.5
		c1.2,0.2,2.4-0.2,3.4-1C242.2,359.3,242.1,358.4,241.1,358.4L241.1,358.4z"></path></g><path class="st0" d="M370.2,130.8c-0.4,3.1-0.6,6.3-0.6,9.5c-0.2,2.9,0.7,5.7,2.4,8.1c0.5,0.6,1.8,1.9,2.7,1.6s-0.1-1.7-0.4-2.1
	c0.2,0.3-0.1-0.3-0.2-0.3c-0.1-0.2-0.2-0.3-0.2-0.5c-0.2-0.5-0.3-1.1-0.4-1.7c-0.1-1.1-0.2-2.2-0.1-3.2c0.1-2.8,0.3-5.6,0.6-8.4
	c0.1-1-1-2.1-1.7-2.6C372,130.9,370.3,129.8,370.2,130.8L370.2,130.8z"></path><g id="paperplane-2"><path class="st0" d="M120.8,130.2c-4-4.5-8.2-9-12.5-13.2c-2-1.9-4.2-4.6-7-5.4c-1.2-0.3-3.3-0.6-3.8,0.8c-0.1,0.4-0.2,0.8-0.2,1.2
		c-0.8,4.6-1.3,9.2-1.8,13.8c-0.8,7.7-1.5,15.3-2.1,23c-0.6,8-1.1,15.9-1.3,23.9c-0.2,5.8-0.3,11.7,0.6,17.4
		c0.1,1.5,0.6,2.9,1.6,4.1c1.9,1.9,4.9,1.3,7.1,0.4c7-2.5,13.7-6.6,20-10.5c6.7-4.1,13.6-8.4,19.5-13.6c1.1-1,3.2-2.6,3.3-4.2
		c-0.1-0.8-0.3-1.6-0.7-2.3c-0.4-1.1-1-2.1-1.5-3.2c-1.1-2.1-2.3-4.1-3.5-6.1c-0.6-0.9-1.1-1.8-1.7-2.7l-0.1,0.6
		c2.3-2.9,4.5-5.7,6.6-8.6c3.2-4.3,6.6-8.6,9.2-13.4c0.6-1.1,1.6-2.6,0.2-3.6c-1.6-1.1-3.9-1.1-5.8-1.1c-5.7-0.1-11.4,0.3-17,0.7
		c-4.1,0.3-8.3,0.6-12.4,1c-0.8,0.1-1.8,0.6-1.1,1.4s2.3,1,3.3,0.9c3.2-0.3,6.3-0.6,9.5-0.8c5.5-0.4,10.9-0.8,16.1-0.9
		c1,0,2.1,0,3.1,0l1.2,0.1c-0.9,0,0.1,0.1,0.4,0.1c-0.2,0-0.7-0.2-0.3,0c-0.3-0.1-0.5-0.2-0.7-0.3c-0.1-0.1-0.4-0.4-0.4-0.4
		c-0.3-0.2,0.1-0.3,0,0c-0.3,0.6-0.3,0.8-0.6,1.4c-2.5,4.4-5.4,8.5-8.5,12.4c-2.4,3.3-4.9,6.5-7.5,9.8c-0.1,0.2-0.2,0.4-0.1,0.6
		c1.8,2.8,3.6,5.6,5.1,8.6c0.9,1.6,2.1,3.6,2.3,5.4c0-0.4-0.1,0.1-0.2,0.3c0.1-0.4-0.1,0.1-0.1,0.2s-0.2,0.3-0.3,0.5
		c-1.7,1.9-3.6,3.6-5.7,5c-3,2.3-6.2,4.5-9.4,6.6c-6.7,4.5-13.8,8.5-21,12.1c-0.7,0.3-1.3,0.6-2,0.9l-1,0.4l-0.8,0.3
		c-0.5,0.2-1,0.4-1.5,0.5l-0.7,0.2c-0.3,0.1-0.8,0-0.2,0.1c-0.5,0-0.2,0,0.1,0c0.5,0,1,0.1,1.5,0.3c1,0.4-0.2-0.1,0.6,0.4
		c-0.1-0.1-0.2-0.2-0.2-0.3c0,0,0.1,0.3,0,0c0-0.1-0.1-0.2-0.2-0.3c-0.1-0.3-0.3-0.7-0.3-1c-1.3-4.4-1-9.6-1-14.4
		c0-7.3,0.4-14.6,0.9-21.9c0.9-13.3,2-26.6,3.8-39.8c0.2-1.4,0.4-2.7,0.6-4c0-0.1,0.1-0.3,0.1-0.4s-0.1,0.2-0.1,0.2s1-0.9-0.2,0.2
		c-0.6,0.6-2.4,0.2-2.9,0c0.4,0.2-0.4-0.3,0.1,0.1c0.2,0.1,0.4,0.3,0.6,0.4c0.4,0.3,0.8,0.6,1.2,1c5,4.6,9.7,9.5,14.2,14.6l1,1.1
		c0.9,0.8,2.1,1.1,3.3,0.9C120.3,131.5,121.5,131,120.8,130.2z"></path><path class="st0" d="M108,180.4c4.1-9.1,8.2-18.1,12.4-27.2c2.1-4.5,4.1-9.1,6.5-13.4c0.1-0.2,0.3-0.5,0.4-0.7s0.1-0.2,0.2-0.2
		c0.5-0.4,1.1-0.6,1.7-0.8c2.6-1.1,5.2-1.9,7.9-2.8c5.3-1.8,10.6-3.5,16-5.2c1-0.3-0.3-0.9-0.7-1.1c-1.1-0.5-2.3-0.6-3.4-0.4
		c-4.6,1.4-9.2,2.9-13.7,4.5c-3,1-6,2-9,3.2c-1.2,0.4-2.9,0.8-3.7,1.9c-0.8,1.3-1.6,2.7-2.2,4.2c-1.2,2.5-2.4,5-3.6,7.6
		c-2.9,6.1-5.7,12.2-8.5,18.4c-1.7,3.8-3.4,7.5-5.1,11.3C102.8,180.1,107.5,181.6,108,180.4L108,180.4z"></path><path class="st0" d="M140.2,163.8l-12.1-22.4l-1.7-3.2c-0.4-0.7-1.3-2.3-2.3-2.2s-0.5,1.7-0.2,2.2l12.1,22.4l1.7,3.2
		c0.4,0.7,1.3,2.3,2.3,2.2S140.5,164.3,140.2,163.8z"></path><path class="st0" d="M108,180.4l3.7-15.8l5.9-25.2l1.4-5.8c0.7-2.8-4.3-3.7-4.9-0.8l-3.7,15.8l-5.9,25.2l-1.4,5.8
		C102.4,182.4,107.3,183.2,108,180.4z"></path><path class="st0" d="M256.2,110.6c-9.5-7.2-19.9-13.9-31.6-16.7c-5.8-1.4-11.9-1.7-17.8-0.8c-5.3,0.8-11.2,2.7-15,6.6
		c-3.5,3.6-4.8,8.9-1.9,13.3s9.4,4.8,13.1,1.1c4-3.9,3.2-10-0.3-13.9c-4-4.6-10.3-5.6-16.1-5.1c-12.1,1.1-22.3,9-29.5,18.3
		c-1.8,2.3,2.7,4.4,4.4,2.3c5.2-6.8,12.3-12.8,20.6-15.3c4.1-1.2,8.9-1.9,13-0.4c3.5,1.3,6.8,5.1,5.4,9c-0.9,2.7-4.6,4.8-6.4,2.1
		c-2.1-3.1-0.4-7,2.2-9.2c3.4-2.9,8.2-4.2,12.6-4.8c4.8-0.6,9.6-0.3,14.3,0.8c11,2.5,20.7,8.8,29.6,15.5c1,0.9,2.4,0.9,3.5,0.2
		c0.8-0.8,0.8-2,0.1-2.8C256.3,110.7,256.3,110.7,256.2,110.6L256.2,110.6z"></path><path class="st0" d="M155.1,123.2c0.8,0.1,1.5-0.5,1.6-1.3c0-0.2,0-0.4-0.1-0.6c-0.5-1.2-2-1.5-3.1-1.5c-0.8-0.1-1.5,0.5-1.6,1.3
		c0,0.2,0,0.4,0.1,0.6C152.5,122.9,154,123.2,155.1,123.2z"></path></g><g id="paperplane-1"><path class="st0" d="M410.4,359.5l-0.4-0.2l-0.1,0l-0.7-0.3l-4-1.6c-3.5-1.4-6.9-2.8-10.3-4.4c-1.5-0.7-3-1.4-4.5-2.2
		c-0.5-0.3-1-0.5-1.5-0.9c-0.3-0.2-0.6-0.4-0.9-0.7c-0.2-0.2-0.2-0.1-0.1-0.1c-0.1,0,0-0.1,0,0s-0.3,0.2,0,0s0.8-0.5,1.2-0.7
		c4-2.3,8.2-4.4,12.3-6.5c6.4-3.2,12.9-6.4,19.4-9.5c7-3.3,14-6.5,21.1-9.4c3-1.2,6-2.5,9.1-3.5c1.3-0.5,2.6-0.9,4-1.3
		c-0.5,0.1,0.4-0.1,0.6-0.2l0.8-0.2c0.6-0.1,1.1-0.3,1.7-0.4c0.2-0.1,0.5-0.1,0.7-0.1s1-0.2,0.2,0c0.4,0,0.9-0.1,1.3-0.2
		c-0.3,0.1-0.6,0-0.1,0s-0.2,0-0.1,0c0.6,0-0.2,0-0.1,0c0.5,0.1-0.5-0.1-0.1,0s-0.4-0.1,0,0s-0.2-0.1,0,0s0.1,0.1,0.1,0.2
		c0.1,0.3,0-0.2,0,0.1c0.2,0.9,0.2,1.7,0.2,2.6c0,7.1-1.3,14.2-2.6,21.2c-1.4,7.5-2.9,15.1-5.4,22.3c-0.4,1.1-0.8,2.2-1.4,3.2
		c-0.2,0.3-0.4,0.7-0.6,1c-0.1,0.1-0.2,0.2-0.3,0.4s0.2,0-0.1,0.1c1.1-0.3-0.7,0.1,0.6-0.2c0,0,1-0.1,0.5-0.1c-0.2,0-0.4,0-0.6,0
		c0.6,0-0.2,0-0.3,0c-1.1,0-1.9-0.1-3-0.2c-2.2-0.3-4.5-0.7-6.7-1.1l-2.1-0.4l-0.7-0.2c0.7,0.1,0.4,0.1,0.2,0
		c-1-0.2-3.5-0.5-4.2,0.6c-4.4,7.4-8.9,15-14.2,21.7c-0.5,0.6-1,1.2-1.6,1.8c-0.1,0.1-0.1,0-0.4,0.3c0,0.1-0.1,0.2,0.1,0
		c0.7-0.9,2.5-0.5,3.6-0.1c0.3,0.1,0.3,0.3,0.2,0.1c-0.3-0.5-0.5-1-0.8-1.4c-0.4-0.8-0.7-1.6-1-2.4c-1.9-5-3.5-10.2-5-15.4
		c-1.1-3.7-2.2-7.3-3.2-11c-0.4-1.4-5.2-0.7-5,0.2c2.4,8.8,4.9,17.8,8.1,26.3c0.5,1.4,1,3.3,2,4.4s2.9,0.9,4.1,0.6
		c0.8-0.2,1.5-0.6,2-1.2c1.4-1.5,2.7-3.1,3.8-4.9c1.7-2.4,3.3-4.8,4.9-7.3c2.4-3.7,4.8-7.5,7.1-11.4l-4.2,0.6
		c3.5,0.8,7.1,1.5,10.6,1.9c2.4,0.4,4.9,0.5,7.3,0.2c1.1-0.1,2.2-0.6,2.9-1.5c1.4-2,2.1-4.7,2.9-7.1c1.1-3.7,2.1-7.6,2.9-11.4
		c1.9-8.3,3.3-16.6,4.1-25.1c0.2-2.3,0.6-5,0-7.2c-0.5-1.8-3-1.8-4.5-1.8c-5.1,0.1-10.4,2.2-15.1,4c-7.1,2.7-14.1,5.7-21,8.9
		c-12.5,5.7-25.1,11.7-37.3,18.4c-1.1,0.6-2.2,1.2-3.3,1.9c-1.6,1.2,1.3,2.5,2.2,3c6.2,3.4,12.9,5.9,19.5,8.5l1.8,0.7
		c1.2,0.3,2.4,0.3,3.5-0.2C411.4,360.3,411.3,359.8,410.4,359.5z"></path><path class="st0" d="M448.5,328.8c-7.1,7.1-14.2,14.2-21.2,21.4c-3.4,3.5-7,7-10.2,10.8c-0.7,0.8-1,1.9-0.9,2.9
		c-0.1,2.8,0,5.7,0.1,8.5c0.2,5.6,0.5,11.3,0.8,16.9c0,1,1.3,1.9,2,2.4c0.2,0.1,1.9,1.3,1.9,0.5c-0.3-4.8-0.5-9.6-0.7-14.3
		c-0.1-3.1-0.2-6.2-0.2-9.4c0-1,0-1.9,0.1-2.9c0.1-0.6,0-0.4,0.3-0.8c2.8-3.5,6-6.6,9.1-9.8c4.6-4.8,9.3-9.5,14-14.3
		c2.9-2.9,5.8-5.8,8.7-8.7C452.9,331.5,449.3,328,448.5,328.8L448.5,328.8z"></path><path class="st0" d="M447.7,365.9l-25.2-3.4l-3.6-0.5c-1-0.1-2.6,0.2-3,1.3s1.1,1.6,1.9,1.7l25.2,3.4l3.6,0.5c1,0.1,2.6-0.2,3-1.3
		S448.5,366,447.7,365.9z"></path><path class="st0" d="M448.3,329.6l-13.5,9.1l-21.5,14.5l-5,3.4c-0.9,0.6,0,1.3,0.6,1.6c0.9,0.4,2.6,0.8,3.4,0.2l13.5-9.1l21.5-14.5
		l5-3.4c0.9-0.6,0-1.3-0.7-1.6C450.9,329.4,449.2,329,448.3,329.6L448.3,329.6z"></path><path class="st0" d="M260,416.2c5.6,12.9,20.4,19,33.1,22.2c13.8,3.6,28.2,4,42.1,1.1c6.7-1.4,13.1-3.9,19-7.3
		c3-1.7,5.8-3.7,8.4-5.9c2.2-1.9,4.3-4.2,4.6-7.2s-3.8-6.6-6.7-4.7c-2.3,1.5-2.2,4.8-1.1,6.9c1.7,3.2,6,4.5,9.4,4.6
		c3.5,0,6.9-0.7,10.1-2c12.2-5,20.6-16.5,21.5-29.7c0.1-1.6,0.1-3.2-0.1-4.8c-0.1-1.5-4.9-2.8-4.7-1.1c0.7,8.3-1.9,16.5-7.2,23
		c-5,6.2-12.7,11.4-20.8,11.8c-1.9,0.1-3.4-0.2-4-2.1c-0.5-1.6-0.2-3.8,1.5-4.5l-2.8-0.5c0.6,0.3,0.1,2.5-0.1,3.1
		c-0.6,1.5-1.6,2.9-2.8,4c-2.9,2.6-6.1,4.9-9.4,6.8c-6.7,3.8-14.1,6.4-21.7,7.6c-15.4,2.6-31.2,0.8-45.7-5
		c-7.6-3.1-14.6-8.2-18-15.9C263.9,415.3,259.2,414.2,260,416.2L260,416.2z"></path></g></svg>