<svg width="320" height="300" viewBox="0 0 320 300" fill="none" xmlns="http://www.w3.org/2000/svg">
<path d="M300.781 174.634C300.781 176.614 299.815 178.6 297.865 180.577C295.913 182.554 293.008 184.486 289.223 186.341C281.655 190.051 270.671 193.406 257.058 196.228C229.84 201.871 192.215 205.365 150.641 205.365C109.066 205.365 71.4414 201.871 44.2231 196.228C30.6099 193.406 19.6263 190.051 12.0582 186.341C8.27307 184.486 5.36831 182.554 3.41634 180.577C1.46593 178.6 0.5 176.614 0.5 174.634C0.5 172.653 1.46593 170.667 3.41634 168.69C5.36831 166.713 8.27307 164.781 12.0582 162.926C19.6263 159.216 30.6099 155.861 44.2231 153.039C71.4414 147.396 109.066 143.902 150.641 143.902C192.215 143.902 229.84 147.396 257.058 153.039C270.671 155.861 281.655 159.216 289.223 162.926C293.008 164.781 295.913 166.713 297.865 168.69C299.815 170.667 300.781 172.653 300.781 174.634Z" stroke="black"/>
<path d="M300.781 196.628C300.781 198.609 299.815 200.595 297.865 202.571C295.913 204.548 293.008 206.48 289.223 208.335C281.655 212.045 270.671 215.4 257.058 218.222C229.84 223.865 192.215 227.359 150.641 227.359C109.066 227.359 71.4414 223.865 44.2231 218.222C30.6099 215.4 19.6263 212.045 12.0582 208.335C8.27307 206.48 5.36831 204.548 3.41634 202.571C1.46593 200.595 0.5 198.609 0.5 196.628C0.5 194.647 1.46593 192.661 3.41634 190.685C5.36831 188.707 8.27307 186.775 12.0582 184.92C19.6263 181.21 30.6099 177.856 44.2231 175.033C71.4414 169.39 109.066 165.896 150.641 165.896C192.215 165.896 229.84 169.39 257.058 175.033C270.671 177.856 281.655 181.21 289.223 184.92C293.008 186.775 295.913 188.707 297.865 190.685C299.815 192.661 300.781 194.647 300.781 196.628Z" stroke="black"/>
<path d="M300.781 218.622C300.781 220.603 299.815 222.589 297.865 224.565C295.913 226.543 293.008 228.474 289.223 230.33C281.655 234.039 270.671 237.394 257.058 240.216C229.84 245.859 192.215 249.353 150.641 249.353C109.066 249.353 71.4414 245.859 44.2231 240.216C30.6099 237.394 19.6263 234.039 12.0582 230.33C8.27307 228.474 5.36831 226.543 3.41634 224.565C1.46593 222.589 0.5 220.603 0.5 218.622C0.5 216.641 1.46593 214.655 3.41634 212.679C5.36831 210.701 8.27307 208.769 12.0582 206.914C19.6263 203.204 30.6099 199.85 44.2231 197.027C71.4414 191.384 109.066 187.89 150.641 187.89C192.215 187.89 229.84 191.384 257.058 197.027C270.671 199.85 281.655 203.204 289.223 206.914C293.008 208.769 295.913 210.701 297.865 212.679C299.815 214.655 300.781 216.641 300.781 218.622Z" stroke="black"/>
<path d="M224.876 58.6303L225.045 59.5257L225.71 58.9029L267.505 19.7595L242.707 71.0771L242.305 71.9096L243.222 71.7905L300.323 64.3729L249.716 91.4948L248.894 91.9355L249.716 92.3762L300.323 119.498L243.222 112.08L242.305 111.961L242.707 112.794L267.505 164.111L225.71 124.968L225.045 124.345L224.876 125.241L214.373 181.162L203.87 125.241L203.702 124.345L203.037 124.968L161.241 164.111L186.039 112.794L186.441 111.961L185.525 112.08L128.423 119.498L179.03 92.3762L179.852 91.9355L179.03 91.4948L128.423 64.3729L185.525 71.7905L186.441 71.9096L186.039 71.0771L161.241 19.7595L203.037 58.9029L203.702 59.5257L203.87 58.6303L214.373 2.70868L224.876 58.6303Z" stroke="black"/>
<path d="M246.908 155.719L262.765 195.361L304.054 182.88L282.538 219.833L318.167 243.912L275.481 250.349L278.621 292.856L246.908 263.93L215.195 292.856L218.335 250.349L175.649 243.912L211.278 219.833L189.763 182.88L231.051 195.361L246.908 155.719Z" fill="#D9D9D9"/>
<path d="M60.7326 204.91L73.1502 176.726L85.6676 204.91L108.408 220.328L85.6676 235.746L73.1502 263.93L60.7326 235.746L37.8921 220.328L60.7326 204.91Z" fill="#B9FF66"/>
<path d="M191.144 164.076C191.144 194.161 166.431 218.561 135.933 218.561C105.435 218.561 80.7229 194.161 80.7229 164.076C80.7229 133.991 105.435 109.591 135.933 109.591C166.431 109.591 191.144 133.991 191.144 164.076Z" fill="black" stroke="black"/>
<ellipse cx="117.66" cy="152.199" rx="8.91365" ry="17.5953" fill="white"/>
<ellipse cx="154.206" cy="152.199" rx="8.91365" ry="17.5953" fill="white"/>
</svg>
