<svg width="338" height="121" viewBox="0 0 338 121" fill="none" xmlns="http://www.w3.org/2000/svg">
<path d="M337.5 35.5C337.5 37.7779 336.403 40.0523 334.208 42.3056C332.012 44.5607 328.746 46.76 324.497 48.8704C316 53.0902 303.672 56.9045 288.398 60.113C257.858 66.5282 215.644 70.5 169 70.5C122.356 70.5 80.1418 66.5282 49.6017 60.113C34.3276 56.9045 22.0001 53.0902 13.5033 48.8704C9.25393 46.76 5.98843 44.5607 3.79163 42.3056C1.5966 40.0523 0.5 37.7779 0.5 35.5C0.5 33.2221 1.5966 30.9477 3.79163 28.6944C5.98843 26.4393 9.25393 24.24 13.5033 22.1296C22.0001 17.9098 34.3276 14.0955 49.6017 10.887C80.1418 4.4718 122.356 0.5 169 0.5C215.644 0.5 257.858 4.4718 288.398 10.887C303.672 14.0955 316 17.9098 324.497 22.1296C328.746 24.24 332.012 26.4393 334.208 28.6944C336.403 30.9477 337.5 33.2221 337.5 35.5Z" stroke="black"/>
<path d="M337.5 60.5C337.5 62.7779 336.403 65.0523 334.208 67.3056C332.012 69.5607 328.746 71.76 324.497 73.8704C316 78.0902 303.672 81.9045 288.398 85.113C257.858 91.5282 215.644 95.5 169 95.5C122.356 95.5 80.1418 91.5282 49.6017 85.113C34.3276 81.9045 22.0001 78.0902 13.5033 73.8704C9.25393 71.76 5.98843 69.5607 3.79163 67.3056C1.5966 65.0523 0.5 62.7779 0.5 60.5C0.5 58.2221 1.5966 55.9477 3.79163 53.6944C5.98843 51.4393 9.25393 49.24 13.5033 47.1296C22.0001 42.9098 34.3276 39.0955 49.6017 35.887C80.1418 29.4718 122.356 25.5 169 25.5C215.644 25.5 257.858 29.4718 288.398 35.887C303.672 39.0955 316 42.9098 324.497 47.1296C328.746 49.24 332.012 51.4393 334.208 53.6944C336.403 55.9477 337.5 58.2221 337.5 60.5Z" stroke="black"/>
<path d="M337.5 85.5C337.5 87.7779 336.403 90.0523 334.208 92.3056C332.012 94.5607 328.746 96.76 324.497 98.8704C316 103.09 303.672 106.904 288.398 110.113C257.858 116.528 215.644 120.5 169 120.5C122.356 120.5 80.1418 116.528 49.6017 110.113C34.3276 106.904 22.0001 103.09 13.5033 98.8704C9.25393 96.76 5.98843 94.5607 3.79163 92.3056C1.5966 90.0523 0.5 87.7779 0.5 85.5C0.5 83.2221 1.5966 80.9477 3.79163 78.6944C5.98843 76.4393 9.25393 74.24 13.5033 72.1296C22.0001 67.9098 34.3276 64.0955 49.6017 60.887C80.1418 54.4718 122.356 50.5 169 50.5C215.644 50.5 257.858 54.4718 288.398 60.887C303.672 64.0955 316 67.9098 324.497 72.1296C328.746 74.24 332.012 76.4393 334.208 78.6944C336.403 80.9477 337.5 83.2221 337.5 85.5Z" stroke="black"/>
</svg>
