<svg width="210" height="210" viewBox="0 0 210 210" fill="none" xmlns="http://www.w3.org/2000/svg">
<path d="M87.99 186.69L81.438 120.078L64.512 85.8059C64.512 85.8059 49.896 98.9099 47.166 129.696C44.436 160.482 40.614 185.892 40.614 185.892" fill="#F5F5F5"/>
<path d="M88.746 187.362L88.326 183.12L87.276 172.368L85.848 157.962L84.378 142.8L83.118 129.822L82.32 121.884C82.278 121.506 82.278 121.086 82.194 120.708C82.068 120.078 81.606 119.448 81.354 118.86L76.23 108.486L69.594 95.0459L65.394 86.5199L65.184 86.0999C65.058 85.8479 64.134 84.6719 63.798 84.9659C61.95 86.6039 60.438 88.7039 59.052 90.7199C55.272 96.2639 52.374 102.354 50.4 108.78C48.93 113.4 47.838 118.104 47.166 122.892C46.284 128.814 45.948 134.778 45.36 140.742C44.352 150.864 43.176 160.986 41.874 171.066C41.454 174.258 41.034 177.45 40.572 180.6C40.362 182.07 40.068 183.54 39.942 185.01C39.942 185.052 39.942 185.136 39.9 185.178C39.858 185.556 40.404 186.018 40.656 186.228C40.74 186.312 41.37 186.816 41.412 186.48C42 182.658 42.504 178.878 43.008 175.056C44.268 165.48 45.402 155.862 46.41 146.286C47.04 140.28 47.502 134.232 48.174 128.226C48.678 123.228 49.644 118.272 50.946 113.4C52.794 106.428 55.692 99.7499 59.556 93.6599C60.69 91.8959 61.908 90.2159 63.252 88.6199C63.882 87.9059 64.554 87.2339 65.184 86.5199L65.268 86.4359L63.84 85.3019L66.864 91.3919L73.29 104.37L79.128 116.172L80.64 119.238C80.682 119.322 80.724 119.448 80.766 119.532C80.892 119.742 80.64 119.49 80.724 119.322C80.682 119.406 80.766 119.616 80.766 119.658L81.396 126L82.572 138.012L84.042 152.838L85.512 167.664L86.688 179.508L87.276 185.598L87.318 185.85C87.444 186.27 87.696 186.648 88.074 186.9C88.074 187.11 88.788 187.656 88.746 187.362Z" fill="#191A23"/>
<path d="M112.182 187.194L118.734 120.582L135.702 86.3099C135.702 86.3099 150.318 99.4139 153.006 130.2C155.694 160.986 159.558 186.438 159.558 186.438" fill="#F5F5F5"/>
<path d="M113.106 187.614L113.526 183.372L114.576 172.62L115.962 158.34L117.432 143.178L118.692 130.158L119.49 122.178L119.574 121.296C119.616 121.17 119.616 121.086 119.616 120.96C119.658 121.044 119.49 121.212 119.616 121.044C119.658 120.96 119.7 120.834 119.784 120.75L120.372 119.574L125.496 109.158L132.132 95.7599L136.332 87.2759L136.542 86.8559L135.072 86.6459C135.198 86.7719 135.324 86.8979 135.45 86.9819C135.576 87.0659 135.702 87.2759 135.87 87.4019L136.122 87.6539C136.164 87.6959 136.206 87.7799 136.29 87.8219C136.038 87.5279 136.248 87.7799 136.29 87.8219C137.508 89.2079 138.642 90.6359 139.692 92.1479C141.288 94.4579 142.716 96.8519 143.934 99.3719C145.656 102.816 147.084 106.344 148.218 109.998C149.646 114.618 150.738 119.406 151.41 124.194C152.25 130.032 152.586 135.954 153.174 141.792C154.182 151.872 155.358 161.952 156.66 171.99C157.08 175.14 157.5 178.332 157.92 181.482C158.13 182.952 158.298 184.422 158.55 185.892L158.592 186.06C158.76 186.564 159.138 186.942 159.684 187.026C160.062 187.11 160.566 186.984 160.482 186.48C159.894 182.658 159.39 178.794 158.886 174.93C157.626 165.312 156.492 155.694 155.484 146.076C154.854 140.028 154.392 133.98 153.72 127.932C153.174 122.85 152.208 117.852 150.864 112.938C148.974 105.966 146.034 99.2879 142.17 93.1559C140.49 90.5939 138.642 87.9059 136.332 85.8479L136.248 85.7639C135.996 85.5119 135.072 85.0079 134.778 85.5539L131.754 91.6439L125.328 104.622L119.448 116.466L117.978 119.49C117.852 119.742 117.726 120.036 117.726 120.33L117.096 126.63L115.878 138.684L114.408 153.51L112.938 168.378L111.762 180.264L111.174 186.354L111.132 186.648C111.132 187.614 113.022 188.538 113.106 187.614Z" fill="#191A23"/>
<path d="M116.844 167.622H84.1679C81.8579 166.992 64.9739 144.69 64.5959 141.33V36.5819C64.5959 33.3479 67.2419 30.7019 70.4759 30.7019H129.654C132.888 30.7019 135.534 33.3479 135.534 36.5819V141.33C135.828 144.06 120.288 167.58 116.844 167.622Z" fill="#F5F5F5"/>
<path d="M116.256 166.782H83.7899C83.7479 166.782 83.6639 166.782 83.622 166.782C83.7059 166.782 83.7899 166.824 83.8319 166.824C83.622 166.782 83.9579 166.908 83.7899 166.824L83.5799 166.656C83.8739 166.866 83.5799 166.656 83.4959 166.572L83.2439 166.32L83.1179 166.194C82.9079 165.984 83.2019 166.278 83.0759 166.152C80.3879 163.464 78.0779 160.482 75.7679 157.458C72.9959 153.846 70.2659 150.15 67.8299 146.328C67.4519 145.74 66.9899 144.984 66.5699 144.27C66.4019 143.976 66.2339 143.682 66.0659 143.346L65.8559 142.926L65.7719 142.716C65.6879 142.59 65.8139 142.842 65.7299 142.632C65.6459 142.422 65.5619 142.254 65.5199 142.044C65.4779 141.834 65.5199 142.086 65.4779 141.918C65.4779 141.876 65.4359 141.834 65.4359 141.792C65.4359 141.75 65.4359 141.666 65.4359 141.624C65.3939 140.532 65.4359 139.44 65.4359 138.348V37.6319C65.4359 37.3799 65.4359 37.1279 65.4359 36.8759C65.6459 33.8939 68.1239 31.5419 71.1479 31.5419C72.4079 31.5419 73.6679 31.5419 74.9279 31.5419H128.814C129.276 31.5419 129.78 31.5419 130.242 31.5419C132.426 31.5839 134.274 32.7599 134.694 34.9439C134.82 35.9519 134.862 36.9599 134.778 37.9679V140.784C134.778 140.826 134.778 140.994 134.778 140.784C134.778 140.952 134.736 141.162 134.652 141.33C134.232 142.548 133.686 143.766 133.014 144.858C132.048 146.622 130.998 148.344 129.906 150.066C127.428 153.972 124.782 157.794 121.884 161.406C120.834 162.75 119.7 164.052 118.482 165.27C117.894 165.816 117.054 166.74 116.256 166.782C115.836 166.74 116.256 167.538 116.34 167.664C116.592 168 117.012 168.42 117.432 168.42C118.398 168.378 119.364 167.37 119.994 166.74C121.296 165.438 122.472 164.094 123.606 162.624C126.504 158.928 129.192 155.106 131.67 151.116C132.72 149.436 133.77 147.714 134.736 145.95C135.324 144.858 135.996 143.682 136.29 142.464C136.374 141.75 136.416 140.994 136.332 140.238V37.2959C136.332 35.9099 135.912 34.5659 135.156 33.3899C133.812 31.2479 131.544 29.9459 129.024 29.9039H73.3319C71.9459 29.8199 70.5179 29.8619 69.1319 29.9459C66.1499 30.3659 63.9239 32.8859 63.8399 35.8679C63.8399 36.1199 63.8399 36.3719 63.8399 36.5819V137.97C63.8399 138.852 63.7559 139.818 63.8399 140.7C63.9659 141.456 64.2599 142.212 64.6799 142.884C65.4779 144.396 66.4019 145.866 67.3679 147.294C69.9299 151.2 72.7439 154.98 75.6419 158.676C77.9519 161.616 80.2619 164.766 83.0759 167.286C83.6219 167.79 84.2519 168.336 85.0079 168.336C85.8899 168.336 86.7719 168.336 87.6539 168.336H117.474C117.894 168.336 117.474 167.538 117.39 167.454C117.096 167.118 116.676 166.866 116.256 166.782Z" fill="#191A23"/>
<path d="M129.738 45.7379H69.51V144.774H129.738V45.7379Z" fill="#F5F5F5"/>
<path d="M129.108 144.018H71.358C70.56 144.018 69.762 143.976 69.006 144.018H68.88L70.224 145.53V47.4179C70.266 47.1239 70.266 46.8299 70.224 46.5359C70.182 46.3679 70.308 46.4939 70.14 46.4939C70.224 46.4939 70.266 46.4939 70.35 46.4939C71.694 46.5779 73.08 46.4939 74.424 46.4939H130.368L129.024 44.9819V139.986C129.024 141.288 128.982 142.548 129.024 143.85C129.024 143.892 129.024 143.976 129.024 144.018C129.024 144.396 129.528 144.858 129.78 145.068C129.822 145.11 130.494 145.698 130.494 145.446V50.4839C130.494 49.1819 130.536 47.9219 130.494 46.6199C130.494 46.5779 130.494 46.4939 130.494 46.4519C130.494 46.1579 130.116 45.7799 129.948 45.5699C129.78 45.3599 129.444 44.9399 129.15 44.9399H69.804C69.552 44.8979 69.258 44.8979 69.006 44.9399H68.88C68.796 44.9399 68.796 44.9399 68.796 45.0239V140.028C68.796 141.33 68.754 142.59 68.796 143.892V144.06C68.796 144.354 69.174 144.732 69.342 144.942C69.51 145.152 69.846 145.572 70.14 145.572H127.89C128.688 145.614 129.486 145.614 130.242 145.572H130.326C130.62 145.572 130.116 144.9 130.032 144.816C129.906 144.606 129.444 144.018 129.108 144.018Z" fill="#191A23"/>
<path d="M99.582 160.566C102.087 160.566 104.118 158.535 104.118 156.03C104.118 153.525 102.087 151.494 99.582 151.494C97.0769 151.494 95.046 153.525 95.046 156.03C95.046 158.535 97.0769 160.566 99.582 160.566Z" fill="#191A23"/>
<path d="M103.068 156.03C103.068 157.71 102.102 159.264 100.548 159.978C100.044 160.23 99.414 160.272 98.868 160.062C98.112 159.81 97.44 159.306 96.936 158.634C95.928 157.248 95.802 155.4 96.6 153.888C97.02 153.174 97.608 152.586 98.322 152.166C98.616 151.998 98.91 151.914 99.246 151.83C99.498 151.788 99.75 151.788 100.002 151.872C101.892 152.376 103.026 154.224 103.068 156.03C103.068 156.534 105.168 156.534 105.168 156.03C105.126 153.93 103.74 152.082 101.724 151.452C99.54 150.738 96.768 151.116 95.172 152.88C93.786 154.434 93.576 156.744 94.71 158.55C95.97 160.566 98.532 161.196 100.8 160.818C103.236 160.44 105.126 158.508 105.168 156.03C105.168 155.526 103.068 155.526 103.068 156.03Z" fill="#F5F5F5"/>
<path d="M105.546 40.1099C106.335 40.1099 106.974 39.4706 106.974 38.6819C106.974 37.8932 106.335 37.2539 105.546 37.2539C104.757 37.2539 104.118 37.8932 104.118 38.6819C104.118 39.4706 104.757 40.1099 105.546 40.1099Z" fill="#F5F5F5"/>
<path d="M89.292 39.3959L96.6 39.5219H97.65C98.196 39.5219 98.658 39.1859 98.826 38.6819C98.952 38.1779 98.49 37.8839 98.028 37.8839L90.762 37.7999H89.712C89.166 37.7999 88.704 38.1359 88.536 38.6399C88.368 39.1439 88.83 39.4379 89.292 39.3959Z" fill="#F5F5F5"/>
<path d="M75.18 55.8599H77.994C78.12 55.8599 78.078 55.6919 78.078 55.6079C77.994 55.3979 77.868 55.2299 77.7 55.0619C77.532 54.8519 77.322 54.6839 77.112 54.5159C76.986 54.3899 76.818 54.3479 76.65 54.3059H73.836C73.71 54.3059 73.71 54.4739 73.752 54.5579C73.836 54.7679 73.962 54.9359 74.13 55.1039C74.298 55.3139 74.508 55.4819 74.718 55.6499C74.844 55.7759 75.012 55.8179 75.18 55.8599Z" fill="#B9FF66"/>
<path d="M74.676 59.3879H77.49C77.952 59.3879 78.498 59.0099 78.372 58.5059C78.204 58.0019 77.7 57.6659 77.196 57.7499H74.382C73.92 57.7499 73.374 58.1279 73.5 58.6319C73.668 59.1359 74.172 59.4299 74.676 59.3879Z" fill="#B9FF66"/>
<path d="M118.482 170.982C118.482 170.982 115.08 152.418 125.664 139.524C125.664 139.524 118.482 103.53 129.066 103.152C139.65 102.774 147.63 136.878 147.63 136.878" fill="#F5F5F5"/>
<path d="M119.364 171.528C118.902 168.756 118.734 165.984 118.86 163.17C119.028 157.206 120.204 151.2 122.85 145.824C123.648 144.27 124.53 142.8 125.58 141.414C125.832 141.078 126.084 140.742 126.378 140.364C126.462 140.28 126.546 140.154 126.588 140.028C126.588 139.986 126.588 139.902 126.546 139.86C126.42 139.062 126.252 138.306 126.126 137.508C125.538 134.022 125.034 130.536 124.698 127.05C124.194 122.724 124.068 118.398 124.32 114.072C124.404 112.224 124.74 110.418 125.202 108.654C125.622 107.31 126.168 105.966 127.176 104.958C128.058 104.076 129.318 103.656 130.536 103.782C130.872 103.824 131.166 103.866 131.502 103.992C131.796 104.076 132.09 104.202 132.342 104.328L132.468 104.412C132.72 104.538 132.426 104.37 132.552 104.454L132.762 104.622C132.51 104.454 132.804 104.664 132.888 104.706C132.72 104.58 132.846 104.664 132.93 104.748L133.098 104.874L133.266 105C133.35 105.084 133.434 105.168 133.518 105.252L133.644 105.378L133.854 105.588C134.022 105.756 134.19 105.924 134.316 106.092C134.61 106.428 134.904 106.764 135.156 107.1C135.744 107.898 136.332 108.738 136.836 109.578C137.97 111.468 139.02 113.484 139.902 115.5C141.708 119.616 143.262 123.816 144.522 128.1C145.32 130.662 146.034 133.266 146.706 135.912C146.748 136.038 146.748 136.164 146.79 136.29C146.874 136.626 147.504 136.962 147.756 137.13C147.84 137.172 148.554 137.592 148.47 137.382C148.008 135.45 147.504 133.518 146.958 131.628C145.782 127.428 144.354 123.312 142.716 119.238C141.078 115.164 139.146 111.006 136.374 107.562C135.114 105.966 133.56 104.58 131.796 103.572C130.536 102.858 129.024 102.312 127.554 102.606C124.572 103.194 123.522 106.638 123.018 109.242C122.22 113.358 122.304 117.642 122.556 121.8C122.808 125.874 123.312 129.906 123.9 133.938C124.11 135.198 124.32 136.458 124.53 137.76C124.572 138.096 124.656 138.432 124.698 138.768C124.74 138.852 124.74 138.894 124.74 138.978V139.02C124.74 139.02 124.488 139.272 124.446 139.356C124.278 139.566 124.11 139.776 123.942 139.986C120.036 145.194 117.978 151.578 117.306 158.004C116.844 161.952 116.928 165.942 117.474 169.848C117.516 170.058 117.516 170.268 117.558 170.436C117.6 170.772 118.272 171.108 118.524 171.276C118.734 171.36 119.406 171.78 119.364 171.528Z" fill="#191A23"/>
<g opacity="0.49">
<path d="M109.872 63.7139H124.026C125.202 63.7139 126.168 64.6799 126.168 65.8559V76.7339C126.168 77.9099 125.202 78.8759 124.026 78.8759H109.872C108.696 78.8759 107.73 77.9099 107.73 76.7339V65.8559C107.73 64.6799 108.696 63.7139 109.872 63.7139Z" fill="#191A23"/>
<path d="M124.026 79.0859H109.872C108.57 79.0859 107.52 78.0359 107.52 76.7339V65.8559C107.52 64.5539 108.57 63.5039 109.872 63.5039H124.026C125.328 63.5039 126.378 64.5539 126.378 65.8559V76.7339C126.378 77.9939 125.328 79.0859 124.026 79.0859ZM109.872 63.9239C108.822 63.9239 107.94 64.8059 107.94 65.8559V76.7339C107.94 77.7839 108.822 78.6659 109.872 78.6659H124.026C125.076 78.6659 125.958 77.7839 125.958 76.7339V65.8559C125.958 64.8059 125.076 63.9239 124.026 63.9239H109.872Z" fill="#191A23"/>
</g>
<g opacity="0.49">
<path d="M100.632 85.0079H123.312C124.488 85.0079 125.454 85.9739 125.454 87.1499C125.454 88.3259 124.488 89.2919 123.312 89.2919H100.632C99.456 89.2919 98.49 88.3259 98.49 87.1499C98.49 85.9319 99.414 85.0079 100.632 85.0079Z" fill="#191A23"/>
<path d="M123.312 89.502H100.632C99.3299 89.46 98.3219 88.326 98.3639 87.024C98.4059 85.806 99.4139 84.798 100.632 84.756H123.312C124.614 84.798 125.622 85.932 125.58 87.234C125.538 88.452 124.53 89.46 123.312 89.502ZM100.632 85.218C99.5819 85.26 98.7419 86.184 98.7839 87.234C98.8259 88.242 99.6239 89.04 100.632 89.082H123.312C124.362 89.04 125.202 88.116 125.16 87.066C125.118 86.058 124.32 85.26 123.312 85.218H100.632Z" fill="#191A23"/>
</g>
<g opacity="0.49">
<path d="M76.272 97.4399H81.648C82.824 97.4399 83.79 98.4059 83.79 99.5819C83.79 100.758 82.824 101.724 81.648 101.724H76.272C75.096 101.724 74.13 100.758 74.13 99.5819C74.13 98.4059 75.096 97.4399 76.272 97.4399Z" fill="#191A23"/>
<path d="M81.648 101.934H76.272C74.97 101.934 73.92 100.884 73.92 99.582C73.92 98.28 74.97 97.23 76.272 97.23H81.648C82.95 97.23 84 98.28 84 99.582C84 100.884 82.95 101.934 81.648 101.934ZM76.272 97.65C75.222 97.65 74.34 98.532 74.34 99.582C74.34 100.632 75.222 101.514 76.272 101.514H81.648C82.698 101.514 83.58 100.632 83.58 99.582C83.58 98.532 82.698 97.65 81.648 97.65H76.272Z" fill="#191A23"/>
</g>
<g opacity="0.49">
<path d="M75.81 107.058H97.272C98.448 107.058 99.414 108.024 99.414 109.2V119.616C99.414 120.792 98.448 121.758 97.272 121.758H75.81C74.634 121.758 73.668 120.792 73.668 119.616V109.2C73.668 108.024 74.634 107.058 75.81 107.058Z" fill="#191A23"/>
<path d="M97.314 122.01H75.852C74.55 122.01 73.5 120.96 73.5 119.658V109.2C73.5 107.898 74.55 106.848 75.852 106.848H97.314C98.616 106.848 99.666 107.898 99.666 109.2V119.616C99.666 120.96 98.616 122.01 97.314 122.01ZM75.81 107.268C74.76 107.268 73.878 108.15 73.878 109.2V119.616C73.878 120.666 74.76 121.548 75.81 121.548H97.272C98.322 121.548 99.204 120.666 99.204 119.616V109.2C99.204 108.15 98.322 107.268 97.272 107.268H75.81Z" fill="#191A23"/>
</g>
<path d="M81.648 170.478C81.648 170.478 85.05 151.914 74.466 139.02C74.466 139.02 81.648 103.026 71.064 102.648C60.48 102.27 52.5 136.374 52.5 136.374" fill="#F5F5F5"/>
<path d="M82.446 171.15C82.824 168.798 82.992 166.404 82.95 164.052C83.034 158.76 82.11 153.51 80.304 148.554C79.044 145.236 77.28 142.17 75.054 139.44L75.222 139.734C75.474 138.558 75.642 137.424 75.852 136.248C76.314 133.434 76.692 130.62 76.986 127.806C77.364 124.404 77.574 120.96 77.616 117.516C77.616 114.492 77.49 111.342 76.608 108.36C75.894 105.84 74.382 103.53 71.946 102.396C69.846 101.43 67.536 102.354 65.856 103.698C63.504 105.63 61.824 108.36 60.396 111.048C58.716 114.282 57.246 117.6 56.028 121.002C54.894 124.068 53.928 127.176 53.004 130.284C52.5 132.006 52.038 133.728 51.618 135.45C51.618 135.534 51.576 135.618 51.576 135.702C51.492 135.954 52.08 136.374 52.248 136.5C52.29 136.542 53.172 137.13 53.172 137.004C53.592 135.114 54.138 133.266 54.642 131.46C55.818 127.386 57.162 123.312 58.716 119.364C60.354 115.29 62.202 111.174 64.848 107.688C66.57 105.42 69.3 102.69 72.45 103.404C72.576 103.446 72.702 103.488 72.828 103.53L73.038 103.614L73.164 103.656L73.29 103.698C73.122 103.614 73.542 103.824 73.332 103.698C73.206 103.656 73.416 103.782 73.248 103.614L73.332 103.698C73.5 103.824 73.122 103.53 73.29 103.656C73.458 103.782 73.122 103.53 73.29 103.698C73.458 103.866 73.29 103.698 73.332 103.74L73.458 103.908C73.5 103.95 73.542 103.992 73.542 104.034C73.752 104.328 73.92 104.58 74.088 104.916C74.802 106.386 75.264 107.94 75.474 109.536C76.146 113.694 76.02 117.978 75.726 122.136C75.432 126.042 74.97 129.906 74.34 133.812C74.172 134.988 73.962 136.164 73.752 137.34C73.71 137.634 73.626 137.928 73.584 138.18C73.584 138.222 73.542 138.264 73.542 138.348C73.584 138.474 73.626 138.642 73.752 138.726C74.046 139.104 74.34 139.44 74.592 139.818C78.372 144.984 80.346 151.284 80.976 157.626C81.396 161.49 81.354 165.396 80.808 169.26C80.766 169.47 80.766 169.638 80.724 169.848C80.682 170.142 81.228 170.52 81.396 170.688C81.564 170.646 82.404 171.234 82.446 171.15Z" fill="#191A23"/>
<path d="M175.518 70.7281L156.492 69.3421C155.316 69.2581 154.266 70.1401 154.182 71.3161L153.384 81.9841C153.3 83.1601 154.182 84.2101 155.4 84.2941L163.044 84.8401C163.548 85.9321 164.304 87.3601 164.766 88.2841C164.892 88.5361 165.228 88.6621 165.522 88.4941C165.606 88.4521 165.69 88.3681 165.732 88.2841L167.454 85.1341L174.426 85.6381C175.602 85.7221 176.652 84.8401 176.736 83.6221L177.534 72.9541C177.618 71.8621 176.736 70.8121 175.518 70.7281Z" fill="#191A23"/>
<path d="M175.434 69.804L167.958 69.258L157.458 68.502L156.492 68.418C155.442 68.334 154.434 68.754 153.804 69.552C153.006 70.56 153.132 72.24 153.048 73.5L152.628 79.254C152.544 80.472 152.166 82.152 152.712 83.328C153.258 84.462 154.392 85.218 155.652 85.26C156.282 85.302 156.912 85.344 157.542 85.386L162.792 85.764L163.17 85.806L162.162 85.05C162.708 86.226 163.296 87.36 163.884 88.494C164.472 89.628 166.026 90.006 166.74 88.83C167.37 87.822 167.874 86.772 168.42 85.764L167.58 86.1L172.284 86.436C172.998 86.478 173.712 86.562 174.426 86.604C175.686 86.73 176.904 86.1 177.492 84.966C177.702 84.42 177.828 83.874 177.828 83.328L177.996 80.892L178.416 74.928C178.458 74.382 178.5 73.878 178.542 73.332C178.626 71.526 177.282 69.972 175.434 69.804C175.014 69.72 174.636 70.014 174.552 70.434C174.552 70.476 174.552 70.518 174.552 70.602C174.636 71.148 175.098 71.526 175.644 71.568C176.064 71.61 176.442 71.904 176.526 72.324C176.568 72.45 176.568 72.576 176.568 72.702C176.568 72.618 176.568 72.912 176.568 72.702C176.568 72.786 176.568 72.786 176.568 72.828C176.526 73.332 176.484 73.878 176.442 74.382L176.022 79.968C175.938 81.102 175.896 82.236 175.77 83.37C175.77 84.168 175.098 84.798 174.3 84.756H174.258C173.628 84.714 172.956 84.672 172.326 84.63L167.412 84.252C167.076 84.21 166.782 84.336 166.572 84.63L165.144 87.234C165.06 87.402 164.976 87.528 164.892 87.696C164.892 87.738 164.892 87.738 164.892 87.696C165.102 87.486 165.396 87.612 165.69 87.99L165.648 87.864C165.606 87.738 165.564 87.654 165.48 87.528C164.976 86.562 164.514 85.596 164.052 84.63C163.842 84.21 163.464 83.958 163.002 83.916L159.054 83.622L156.408 83.412C155.988 83.412 155.568 83.37 155.148 83.328C154.728 83.202 154.434 82.824 154.392 82.3621C154.392 82.2781 154.392 82.068 154.392 82.236V82.194C154.392 82.194 154.392 82.068 154.392 82.026C154.434 81.48 154.476 80.934 154.518 80.388L154.938 74.886C155.022 73.752 155.064 72.66 155.19 71.526C155.19 70.728 155.862 70.098 156.66 70.098C156.912 70.098 157.206 70.14 157.458 70.14L167.244 70.854C170.016 71.064 172.746 71.316 175.518 71.442H175.644C176.064 71.526 176.484 71.232 176.526 70.77C176.526 70.728 176.526 70.686 176.526 70.602C176.442 70.266 175.98 69.846 175.434 69.804Z" fill="#F5F5F5"/>
<path d="M159.348 76.692C159.348 76.692 158.046 76.986 158.424 78.204C158.802 79.422 160.314 78.96 160.314 77.826C160.398 77.28 160.02 76.818 159.474 76.734C159.432 76.692 159.39 76.692 159.348 76.692Z" fill="#F5F5F5"/>
<path d="M158.676 76.02C158.298 76.104 157.92 76.314 157.668 76.608C157.5 76.818 157.374 77.112 157.416 77.406C157.458 77.91 157.668 78.372 158.004 78.75C158.466 79.212 159.096 79.506 159.726 79.548C160.062 79.548 160.44 79.464 160.734 79.254C161.028 79.044 161.196 78.708 161.238 78.372C161.322 77.952 161.238 77.532 160.986 77.154C160.65 76.692 160.188 76.314 159.642 76.146C159.39 76.062 159.138 75.978 158.844 75.978C158.676 75.978 158.466 76.02 158.382 76.146C158.34 76.314 158.34 76.482 158.466 76.608C158.634 76.818 158.802 76.986 159.054 77.112C159.264 77.238 159.516 77.322 159.768 77.322C159.81 77.322 159.852 77.322 159.894 77.322L159.684 77.28C159.726 77.28 159.81 77.28 159.852 77.322L159.6 77.238C159.642 77.238 159.684 77.28 159.726 77.28L159.474 77.154C159.516 77.154 159.558 77.196 159.6 77.238L159.348 77.07L159.432 77.154L159.222 76.986L159.306 77.07L159.138 76.902C159.18 76.944 159.222 76.986 159.222 77.028L159.138 76.86C159.18 76.944 159.222 77.07 159.222 77.154L159.18 76.986C159.222 77.196 159.222 77.406 159.18 77.574L159.222 77.406C159.18 77.574 159.096 77.742 158.97 77.91L159.054 77.784C158.97 77.868 158.844 77.952 158.676 78.036L158.844 77.994C158.76 78.036 158.676 78.036 158.55 78.078H158.76C158.718 78.078 158.634 78.078 158.592 78.078L158.802 78.12C158.76 78.12 158.718 78.12 158.676 78.078L158.928 78.162L158.802 78.12L159.054 78.246L158.97 78.204L159.222 78.372C159.18 78.33 159.138 78.33 159.138 78.288L159.348 78.456C159.306 78.414 159.264 78.372 159.264 78.33L159.432 78.498C159.39 78.456 159.348 78.372 159.306 78.33L159.39 78.498C159.306 78.372 159.264 78.204 159.264 78.078L159.306 78.246C159.264 78.078 159.264 77.952 159.306 77.784L159.264 77.91C159.306 77.742 159.39 77.616 159.474 77.49L159.39 77.574C159.516 77.448 159.726 77.322 159.894 77.238L159.726 77.28C159.81 77.238 159.852 77.238 159.936 77.238C160.104 77.196 160.23 77.07 160.23 76.902C160.188 76.692 160.104 76.524 159.978 76.398C159.768 76.23 159.558 76.062 159.306 75.978C159.138 76.02 158.928 75.978 158.676 76.02Z" fill="#F5F5F5"/>
<path d="M165.354 77.028C165.354 77.028 164.094 77.322 164.472 78.54C164.85 79.758 166.362 79.296 166.362 78.162C166.446 77.616 166.068 77.154 165.564 77.07C165.438 77.028 165.396 76.986 165.354 77.028Z" fill="#F5F5F5"/>
<path d="M164.808 76.3141C164.64 76.3561 164.472 76.3981 164.346 76.4821C164.094 76.6081 163.884 76.7341 163.716 76.9441C163.464 77.2381 163.338 77.5741 163.38 77.9521C163.38 78.2041 163.422 78.4141 163.548 78.6241C163.632 78.8341 163.716 79.0021 163.884 79.1701C164.094 79.4221 164.346 79.6321 164.682 79.7581C164.976 79.8841 165.312 79.9681 165.648 79.9681C166.068 79.9681 166.488 79.8001 166.782 79.5481C167.076 79.3381 167.286 79.0021 167.328 78.6661C167.37 78.4561 167.37 78.2041 167.37 77.9941C167.328 77.7841 167.286 77.5741 167.202 77.4061C167.076 77.1541 166.908 76.9441 166.698 76.7761C166.488 76.6081 166.236 76.4821 165.942 76.3981C165.69 76.3141 165.396 76.2721 165.102 76.2721C164.892 76.2721 164.682 76.3561 164.514 76.5241C164.388 76.6921 164.346 76.9021 164.43 77.0701C164.682 77.5321 165.186 77.7841 165.69 77.7841H165.732H165.48C165.564 77.7841 165.606 77.7841 165.69 77.8261L165.438 77.7421C165.522 77.7421 165.564 77.7841 165.606 77.7841L165.354 77.6581C165.396 77.7001 165.438 77.7001 165.522 77.7421L165.312 77.5741C165.354 77.6161 165.396 77.6581 165.438 77.7001L165.27 77.5321C165.312 77.5741 165.354 77.6161 165.396 77.7001L165.27 77.5321C165.312 77.6161 165.354 77.7001 165.396 77.8261L165.354 77.6161C165.396 77.7841 165.396 77.9521 165.396 78.1201L165.438 77.9521C165.396 78.1201 165.354 78.2461 165.27 78.3721L165.354 78.2041C165.27 78.3301 165.186 78.4141 165.102 78.4981L165.27 78.3721C165.186 78.4141 165.102 78.4981 165.018 78.5401L165.228 78.4561C165.144 78.4981 165.06 78.4981 165.018 78.4981L165.27 78.4561C165.228 78.4561 165.144 78.4561 165.102 78.4561H165.354C165.312 78.4561 165.228 78.4561 165.186 78.4561L165.438 78.5401C165.396 78.5401 165.354 78.4981 165.312 78.4981L165.564 78.6241C165.522 78.5821 165.48 78.5821 165.438 78.5401L165.648 78.7081C165.606 78.6661 165.564 78.6241 165.522 78.6241L165.69 78.7921C165.648 78.7501 165.606 78.6661 165.564 78.6241L165.69 78.7921C165.606 78.6661 165.564 78.5401 165.522 78.4141L165.564 78.6241C165.522 78.4981 165.522 78.3301 165.522 78.2041L165.48 78.3721C165.48 78.2461 165.522 78.1201 165.606 78.0361L165.522 78.2041C165.606 78.0781 165.69 77.9941 165.774 77.9101L165.606 78.0361C165.732 77.9521 165.858 77.8681 165.984 77.8261L165.774 77.9101C165.858 77.8681 165.9 77.8681 165.984 77.8681C166.278 77.8261 166.488 77.5321 166.446 77.2381C166.446 77.1121 166.362 76.9861 166.278 76.9021C165.9 76.3561 165.354 76.1881 164.808 76.3141Z" fill="#F5F5F5"/>
<path d="M171.57 77.238C171.57 77.238 170.31 77.532 170.688 78.75C171.066 79.968 172.578 79.506 172.578 78.372C172.662 77.826 172.284 77.364 171.738 77.28C171.654 77.238 171.612 77.238 171.57 77.238Z" fill="#F5F5F5"/>
<path d="M171.486 76.902C171.234 76.944 170.982 77.07 170.73 77.154C170.436 77.28 170.142 77.448 169.932 77.7C169.722 77.952 169.596 78.246 169.596 78.582C169.596 78.918 169.722 79.296 169.974 79.548C170.268 79.842 170.688 79.968 171.066 79.926C171.444 79.926 171.822 79.842 172.158 79.716C172.41 79.632 172.662 79.506 172.872 79.38C173.166 79.17 173.418 78.876 173.502 78.54C173.586 78.204 173.586 77.868 173.418 77.532C173.25 77.238 172.998 77.028 172.704 76.944C172.452 76.86 172.242 76.86 171.99 76.86C171.738 76.86 171.444 76.902 171.192 77.028C170.982 77.07 170.772 77.196 170.604 77.322C170.52 77.406 170.436 77.532 170.562 77.616C170.73 77.7 170.898 77.742 171.066 77.742C171.192 77.742 170.814 77.742 170.898 77.742C170.94 77.742 170.982 77.742 171.024 77.742L170.856 77.7C170.94 77.7 171.024 77.742 171.108 77.784L170.982 77.742C171.108 77.826 171.234 77.91 171.318 78.036L171.276 77.952C171.444 78.204 171.486 78.498 171.444 78.792V78.708C171.402 78.918 171.36 79.086 171.234 79.254L171.318 79.128C171.276 79.212 171.192 79.254 171.108 79.338L171.234 79.212C170.982 79.338 171.15 79.296 171.234 79.212C171.192 79.212 171.066 79.296 171.276 79.212L171.36 79.17C171.444 79.17 171.486 79.128 171.57 79.128H171.528C171.444 79.17 171.864 79.086 171.738 79.086C171.612 79.086 172.032 79.086 171.906 79.086C171.78 79.086 172.158 79.086 172.032 79.086H171.948L172.116 79.128C172.032 79.128 171.99 79.086 171.906 79.044L172.032 79.086C171.906 79.002 171.78 78.918 171.696 78.792L171.738 78.876C171.57 78.624 171.486 78.288 171.528 77.994V78.078C171.57 77.91 171.612 77.784 171.696 77.616L171.612 77.742C171.696 77.658 171.738 77.574 171.822 77.532L171.696 77.658C171.738 77.616 171.738 77.616 171.78 77.574L171.822 77.532H171.864C171.948 77.49 171.654 77.616 171.696 77.616C171.822 77.574 172.074 77.49 171.654 77.616L171.78 77.574C171.822 77.574 171.402 77.658 171.57 77.616C171.822 77.574 172.074 77.49 172.284 77.364C172.368 77.322 172.578 77.154 172.536 77.028C172.494 76.902 172.284 76.86 172.158 76.86C171.99 76.818 171.738 76.818 171.486 76.902Z" fill="#F5F5F5"/>
<path d="M184.842 140.7H160.692V158.172H184.842V140.7Z" fill="#F5F5F5"/>
<path d="M184.254 157.626H160.104L161.7 158.424V140.952L161.28 141.246H185.43L183.834 140.448V157.92C183.834 158.508 185.808 159.096 185.808 158.424V140.952C185.808 140.742 185.388 140.49 185.22 140.406C184.926 140.238 184.548 140.154 184.212 140.154H160.062C159.852 140.154 159.684 140.238 159.684 140.448V157.92C159.684 158.13 160.104 158.382 160.272 158.466C160.566 158.634 160.902 158.718 161.28 158.718H185.43C185.85 158.718 185.892 158.424 185.64 158.172C185.262 157.794 184.758 157.626 184.254 157.626Z" fill="#F5F5F5"/>
<path d="M160.692 141.33C163.716 142.674 165.858 145.362 168.504 147.21C169.176 147.714 169.89 148.134 170.688 148.47C171.57 148.848 172.62 149.142 173.502 148.596C175.266 147.504 177.03 146.286 178.752 145.152L184.632 141.288C184.842 141.12 184.086 140.868 184.002 140.826C183.75 140.742 182.994 140.406 182.742 140.616L173.082 146.958L171.864 147.756C171.696 147.882 171.57 147.966 171.402 148.05C171.444 148.05 171.066 148.176 171.066 148.176C171.066 148.05 172.116 148.596 171.654 148.302C171.024 147.882 170.352 147.504 169.764 147.042C168.546 146.118 167.412 145.068 166.236 144.102C164.934 142.968 163.422 142.002 161.826 141.246C161.49 141.078 160.818 140.826 160.44 140.91C160.062 140.994 160.524 141.246 160.692 141.33Z" fill="#191A23"/>
<path d="M161.532 157.29C162.372 155.358 163.38 153.468 164.514 151.704C165.606 149.898 166.74 148.092 167.916 146.328C168.21 145.908 166.32 145.026 165.942 145.614C164.766 147.378 163.632 149.142 162.54 150.99C161.406 152.796 160.44 154.644 159.558 156.576C159.348 157.122 161.28 157.878 161.532 157.29Z" fill="#191A23"/>
<path d="M176.652 146.958C178.5 150.36 180.306 153.804 182.028 157.29C182.112 157.458 183.96 156.492 183.918 156.366C182.154 152.922 180.39 149.478 178.542 146.034C178.416 145.824 176.568 146.832 176.652 146.958Z" fill="#191A23"/>
<path d="M164.556 99.4141C165.984 98.9941 167.664 99.8341 168.714 100.758C170.058 101.934 170.856 103.656 171.318 105.336C172.242 109.032 172.158 112.938 171.108 116.592C170.646 118.398 169.89 120.078 168.924 121.674C168.126 122.85 166.992 123.984 165.522 123.27C164.472 122.766 164.052 121.464 164.556 120.414C164.598 120.288 164.682 120.204 164.766 120.078C164.85 119.994 164.976 119.994 164.808 120.036C164.724 120.078 164.682 120.078 164.598 120.12H164.724C165.06 120.246 165.396 120.414 165.69 120.666C166.278 121.212 166.74 121.926 167.034 122.682C168.672 126.588 168.756 130.998 167.244 134.946C167.076 135.324 167.958 135.24 168.084 135.198C168.462 135.114 169.05 134.946 169.218 134.526C170.814 130.368 170.688 125.706 168.84 121.674C168.462 120.834 167.916 120.12 167.16 119.574C166.278 119.028 165.228 118.944 164.304 119.322C162.792 119.868 161.742 121.548 162.582 123.102C163.548 124.908 166.068 124.74 167.664 124.11C169.722 123.312 170.94 121.506 171.822 119.616C173.796 115.458 174.426 110.796 173.67 106.302C173.292 104.034 172.452 101.682 170.73 100.086C169.008 98.5321 166.572 97.9861 164.346 98.7001C164.094 98.7841 163.338 99.0781 163.464 99.4141C163.59 99.7501 164.304 99.4561 164.556 99.4141Z" fill="#F5F5F5"/>
<path d="M31.0379 100.464C27.8039 103.992 24.9479 108.108 24.2759 112.938C23.6879 117.138 24.8639 122.388 28.8119 124.656C29.7779 125.16 30.8699 125.454 31.9619 125.496C33.0539 125.58 34.1879 125.454 35.1959 125.076C36.0779 124.74 36.8339 124.152 37.3379 123.354C37.8419 122.514 38.0519 121.296 37.4219 120.456C36.9179 119.784 36.0359 119.574 35.2379 119.49C34.2299 119.406 33.0539 119.364 32.1299 119.826C30.2399 120.708 29.7779 123.186 29.8199 125.034C29.9879 129.738 32.8439 133.938 37.2119 135.828C37.6319 135.954 38.0519 135.996 38.5139 135.954C38.7239 135.996 38.9339 135.954 39.1439 135.912C39.1439 135.912 39.3959 135.87 39.2699 135.828C35.8679 134.358 33.3059 131.418 32.3399 127.848C31.8359 126.084 31.7939 124.236 32.2559 122.514C32.5079 121.59 33.0539 120.75 33.8519 120.162C33.9779 120.078 34.1039 119.994 34.2719 119.952C34.4819 119.868 35.1119 119.826 34.4399 119.784C33.7679 119.742 34.3559 119.826 34.5659 119.91C34.7339 119.994 34.9019 120.078 35.0699 120.204C36.6239 121.464 35.4059 123.774 34.0619 124.614C33.7259 124.824 33.3479 124.992 32.9699 125.118C32.7599 125.16 32.5499 125.202 32.3399 125.244C32.1299 125.286 32.2979 125.034 32.6339 125.244C32.5079 125.202 32.3819 125.16 32.2559 125.16C31.3319 124.908 30.4919 124.446 29.7779 123.816C26.6699 121.17 25.8719 116.634 26.4599 112.77C27.1739 108.024 30.0299 103.95 33.2219 100.464C32.8859 100.38 32.5079 100.338 32.1719 100.296C31.7939 100.338 31.2059 100.254 31.0379 100.464Z" fill="#F5F5F5"/>
<path d="M49.8959 79.464H30.7859C29.6099 79.464 28.6439 80.43 28.6019 81.606V92.316C28.6019 93.492 29.5679 94.458 30.7859 94.458L44.9399 94.5C45.5279 95.55 46.3679 96.936 46.9139 97.818C47.0819 98.07 47.4179 98.154 47.6699 97.986C47.7539 97.944 47.8379 97.86 47.8799 97.734L49.3919 94.458L49.8959 94.416C51.0719 94.416 52.0379 93.45 52.0799 92.274V81.564C52.0379 80.43 51.0719 79.464 49.8959 79.464Z" fill="#F5F5F5"/>
<path d="M50.694 79.044H41.286C38.052 79.044 34.818 78.96 31.584 79.044C30.114 79.086 28.014 79.8841 27.678 81.5221C27.594 82.0261 27.594 82.572 27.636 83.076V92.064C27.636 92.778 27.636 93.492 28.14 94.08C29.106 95.214 30.87 94.92 32.214 94.92H43.848H44.142L43.974 94.8361C44.31 95.424 44.646 95.97 44.982 96.558C45.276 97.104 45.612 97.65 45.948 98.154C46.368 98.658 47.082 98.448 47.628 98.238C48.132 98.112 48.594 97.8181 48.888 97.3561C49.434 96.348 49.854 95.2141 50.358 94.1221L48.594 94.8361C50.4 94.752 52.962 94.08 53.046 91.854C53.088 91.098 53.046 90.384 53.046 89.67V81.774C53.046 81.48 53.046 81.1861 53.046 80.8921C52.836 79.8421 51.87 79.002 50.694 79.044C50.232 79.086 49.77 79.212 49.35 79.464C49.224 79.548 48.678 79.884 49.098 79.926C50.442 79.968 51.072 81.1441 51.072 82.3621V92.148C51.072 92.358 51.072 92.526 51.072 92.736C51.072 93.2821 50.862 93.786 50.484 94.164C50.442 94.206 50.358 94.248 50.316 94.29C50.568 93.912 51.03 94.1221 50.694 94.1221C50.526 94.1221 50.4 94.122 50.232 94.164C49.896 94.206 49.518 94.29 49.224 94.416C49.014 94.5 48.594 94.668 48.468 94.878L47.208 97.65C47.124 97.776 47.082 97.9441 46.998 98.1121V98.154C46.83 98.532 47.208 98.406 48.216 97.734L48.132 97.6921C48.006 97.4821 47.838 97.314 47.712 97.104C47.124 96.18 46.578 95.214 46.032 94.248C45.99 94.206 45.906 94.164 45.864 94.164L35.784 94.1221C34.44 94.1221 33.054 94.1641 31.71 94.1221C30.576 94.0801 29.652 93.1561 29.652 92.022C29.652 91.5601 29.652 91.098 29.652 90.636V81.9C29.652 81.186 29.652 80.472 30.24 79.926C30.282 79.884 30.366 79.842 30.408 79.8C30.03 80.346 29.694 79.968 30.03 79.968H38.514C41.958 79.968 45.444 80.01 48.93 79.968H49.098C49.602 79.926 50.064 79.8 50.484 79.548C50.568 79.422 51.114 79.044 50.694 79.044Z" fill="#F5F5F5"/>
<path d="M33.6839 91.098C35.7839 90.426 37.5479 89.04 38.6399 87.108C38.9759 86.52 39.3959 85.764 39.3119 85.05C39.2279 84.252 38.3039 83.496 37.7159 83.034C37.3379 82.656 36.7499 82.656 36.3719 83.034C36.3299 83.076 36.2879 83.16 36.2459 83.244C35.8679 83.916 35.6999 84.672 35.7419 85.428C35.6999 86.268 35.7839 87.108 36.0779 87.864C36.4979 88.662 37.0859 89.376 37.7999 89.88C38.3879 90.342 39.1019 90.594 39.8159 90.636C41.2859 90.762 42.8399 90.174 43.5959 88.83C43.9319 88.284 44.0159 87.612 43.8899 86.982C43.6799 86.226 43.0079 85.638 42.4199 85.134C41.9579 84.714 41.3279 84.42 40.8239 84.966C40.3199 85.512 40.4459 86.226 40.7819 86.814C41.2439 87.654 41.8739 88.41 42.6299 89.04C43.2179 89.67 43.9739 90.09 44.8139 90.342C46.2839 90.678 48.0059 89.502 47.5859 87.864C47.5019 87.486 46.9979 87.108 46.7459 86.898C46.6619 86.814 46.0739 86.352 46.1159 86.52C46.3679 87.528 45.6539 88.452 44.7299 88.788C44.2259 88.956 43.7219 88.998 43.2179 88.83C43.0079 88.746 42.7979 88.662 42.5879 88.578C42.4619 88.494 42.2519 88.242 42.4199 88.536C42.5879 88.83 42.3779 88.41 42.3359 88.368C41.9999 87.906 41.9159 87.276 42.1679 86.772C42.2519 86.604 42.4199 86.436 42.6299 86.352C42.7559 86.31 42.9239 86.268 43.0499 86.268L43.1759 86.31C42.4199 85.302 42.1679 85.05 42.4199 85.554C42.6719 86.478 42.3779 87.486 41.6639 88.158C40.8659 88.956 39.7739 89.376 38.6819 89.292C38.1779 89.25 37.7159 89.166 37.2119 88.956L37.0439 88.872C37.5479 89.502 37.7579 89.67 37.5899 89.334C37.5479 89.208 37.5059 89.04 37.4639 88.914C37.3799 88.62 37.3379 88.284 37.2959 87.99C37.1699 86.982 37.1279 85.47 37.8839 84.63C38.0099 84.504 38.1779 84.378 38.3459 84.336C38.4299 84.294 38.5979 84.336 38.6819 84.336C37.7579 84.672 37.7579 82.908 37.8839 83.664C37.9679 84.252 37.6319 84.924 37.3799 85.428C36.3299 87.486 34.5239 88.998 32.2979 89.712C32.2139 89.754 32.8859 90.51 32.9279 90.552C32.9699 90.594 33.4739 91.182 33.6839 91.098Z" fill="#191A23"/>
<path d="M76.86 48.6781H39.354C37.506 48.6781 35.994 50.1901 35.994 52.0381V68.6281C35.994 70.4761 37.506 71.9881 39.354 71.9881L69.258 72.0301C70.14 73.6681 71.484 75.8101 72.324 77.1961C72.576 77.5741 73.08 77.7421 73.458 77.4901C73.626 77.4061 73.71 77.2801 73.794 77.1121L76.104 72.0721L76.86 72.0301C78.708 72.0301 80.22 70.5181 80.22 68.6701V52.0381C80.22 50.1901 78.708 48.6781 76.86 48.6781Z" fill="#191A23"/>
<path d="M76.062 48.2581H38.514C37.086 48.2581 35.784 49.0981 35.238 50.4001C34.818 51.4081 34.986 52.7521 34.986 53.8021V65.6881C34.986 66.6961 34.86 67.8301 35.028 68.8381C35.448 71.1481 38.136 72.3241 40.278 72.3661C42.882 72.3661 45.486 72.3661 48.132 72.3661H60.942H69.552H70.014L68.25 71.6521C69.006 72.9961 69.804 74.3401 70.602 75.6841C70.938 76.2301 71.232 76.9021 71.736 77.2381C72.24 77.5741 73.332 78.0781 74.046 77.9101C74.676 77.7841 74.844 77.1121 75.054 76.6081L76.188 74.1301L76.986 72.3661L76.818 72.4081C78.078 72.3241 79.296 72.2401 80.22 71.2321C80.808 70.5601 81.144 69.6781 81.102 68.7541C81.102 67.3261 81.102 65.9401 81.102 64.5121V52.9201C81.144 52.2481 81.06 51.5761 80.808 50.9461C80.094 49.2241 77.826 48.3001 76.062 48.2581C75.642 48.2581 76.23 48.5941 76.314 48.6781C76.734 48.9301 77.196 49.0561 77.7 49.0981C77.868 49.0981 77.994 49.0981 78.162 49.1401C78.162 49.2241 77.616 48.8461 78.036 49.1401C78.33 49.3501 78.582 49.6441 78.75 49.9381C79.086 50.4421 79.254 51.0301 79.254 51.6601C79.254 51.9541 79.254 52.2481 79.254 52.5421V67.8721C79.296 68.5861 79.128 69.3001 78.792 69.9301C78.372 70.6441 77.742 71.1481 76.986 71.4001C76.44 71.5261 75.852 71.6101 75.306 71.6101C75.264 71.6101 75.18 71.6101 75.138 71.6521L73.122 76.1041C73.038 76.3141 72.954 76.5241 72.828 76.7341C72.66 76.9861 72.534 77.0281 72.282 77.1961C73.29 77.8261 73.626 77.9101 73.29 77.5321C73.248 77.4481 73.206 77.3641 73.164 77.2801L72.912 76.8601C71.988 75.3901 71.106 73.8781 70.266 72.3661C70.14 72.1561 69.72 71.9881 69.51 71.9041C69.174 71.7361 68.838 71.6521 68.502 71.6101H62.454H50.106H40.026H38.598C38.472 71.6101 38.01 71.4841 38.262 71.6101C38.514 71.7361 38.304 71.6101 38.178 71.5261C38.052 71.4421 37.926 71.3161 37.842 71.1901C37.296 70.5601 37.044 69.8041 37.044 68.9641C37.044 68.5861 37.044 68.2081 37.044 67.8721V56.4481C37.044 55.1881 37.044 53.8861 37.044 52.6261C37.044 50.7781 38.346 49.1821 40.278 49.1821C42.21 49.1821 44.184 49.1821 46.158 49.1821H77.742C78.162 49.1821 77.574 48.8461 77.49 48.7621C76.986 48.4261 76.524 48.3001 76.062 48.2581Z" fill="#F5F5F5"/>
<path d="M49.224 68.292C53.8864 68.292 57.666 64.738 57.666 60.354C57.666 55.97 53.8864 52.416 49.224 52.416C44.5616 52.416 40.782 55.97 40.782 60.354C40.782 64.738 44.5616 68.292 49.224 68.292Z" fill="#F5F5F5"/>
<path d="M57.204 60.5641C57.162 63.7981 55.02 66.6121 51.912 67.5361C48.678 68.5021 45.234 67.4941 43.008 64.9741C40.908 62.4961 40.656 58.9681 42.378 56.1961C44.184 53.3821 47.712 52.2901 50.862 53.0041C54.474 53.8021 57.162 56.8681 57.204 60.5641C57.204 60.9421 58.128 60.4801 58.128 60.1021C58.086 56.4901 55.524 53.4241 52.08 52.4161C48.552 51.4081 44.772 52.5421 42.336 55.2721C39.984 57.9181 39.69 61.8661 41.622 64.8481C43.638 67.8721 47.502 69.2161 51.03 68.4181C54.894 67.5361 58.086 64.2181 58.128 60.1441C58.128 59.7661 57.204 60.1861 57.204 60.5641Z" fill="#F5F5F5"/>
<path d="M43.3861 64.974C43.3861 64.974 43.0921 57.54 44.7721 56.112C46.4521 54.684 50.9461 53.97 51.9541 55.356C52.9621 56.742 55.1881 63.756 55.1881 63.756C53.6761 64.134 52.1221 64.134 50.6521 63.756L47.3341 63.462L43.3861 64.974Z" fill="#F5F5F5"/>
<path d="M43.89 64.9321C43.848 63.7141 43.848 62.4541 43.932 61.2361C43.974 60.2281 44.1 59.2621 44.268 58.2961C44.394 57.6661 44.562 56.8681 45.066 56.4061C45.822 55.7341 46.956 55.3981 47.922 55.2301C48.888 55.0621 50.022 54.8941 50.946 55.2721C51.576 55.5241 51.828 56.1961 52.08 56.7841C52.458 57.6661 52.794 58.5481 53.13 59.4721C53.676 60.9421 54.18 62.4541 54.642 63.9241L55.02 63.3361C53.214 63.8401 51.366 63.4621 49.602 63.0421L49.266 63.9661L50.4 64.2181L50.736 63.2941L48.636 63.1261C48.174 63.0841 47.502 62.9161 47.04 63.0421C45.738 63.4621 44.478 64.0501 43.218 64.5121C42.63 64.7641 42.798 65.6881 43.428 65.4361L45.108 64.8061C45.822 64.5541 46.536 64.3021 47.208 63.9661C47.502 63.7981 47.124 64.0921 47.082 63.9241C47.166 63.9241 47.25 63.9241 47.334 63.9661L48.426 64.0501L50.4 64.2181C50.988 64.2601 51.408 63.4201 50.736 63.2941L49.602 63.0421C49.014 62.9161 48.636 63.8401 49.266 63.9661C51.198 64.4281 53.256 64.8061 55.23 64.2181C55.524 64.1761 55.692 63.8821 55.65 63.6301C55.188 62.2441 54.726 60.8161 54.222 59.4301C53.844 58.4221 53.508 57.4141 53.046 56.4481C52.752 55.7761 52.458 55.0201 51.828 54.6001C50.946 54.0541 49.728 54.0541 48.72 54.1801C47.502 54.3061 46.326 54.6421 45.234 55.1881C44.436 55.5661 43.848 56.2381 43.554 57.0781C43.218 58.0021 43.05 58.9681 42.966 59.9761C42.798 61.6561 42.756 63.3361 42.798 64.9741C42.924 65.6461 43.932 65.5201 43.89 64.9321Z" fill="#191A23"/>
<path d="M52.794 61.2781C53.004 62.1601 53.172 63.0421 53.298 63.9661C53.34 64.2181 53.718 64.2181 53.886 64.1761C54.054 64.1341 54.348 64.0081 54.306 63.7561C54.18 62.8321 54.012 61.9501 53.802 61.0681C53.76 60.8161 53.424 60.8161 53.214 60.8581C53.004 60.9001 52.71 61.0681 52.794 61.2781Z" fill="#191A23"/>
<path d="M52.038 62.4121C51.996 62.8741 51.954 63.3361 51.912 63.7561C51.912 64.0081 52.122 64.2181 52.374 64.2181H52.416C52.668 64.2181 52.92 64.0501 52.962 63.7561C53.004 63.2941 53.046 62.8321 53.088 62.3701C53.088 62.1181 52.878 61.9081 52.626 61.9081C52.626 61.9081 52.626 61.9081 52.584 61.9081C52.332 61.9501 52.08 62.1601 52.038 62.4121Z" fill="#191A23"/>
<path d="M44.016 61.1521L43.848 63.5041C43.848 63.6301 43.932 63.7561 44.016 63.8401C44.1 63.9241 44.226 64.0081 44.352 64.0501C44.52 64.0921 44.73 64.0081 44.814 63.8401C44.814 63.7981 44.814 63.7561 44.814 63.7561L44.982 61.4041C44.982 61.2781 44.898 61.1521 44.814 61.0681C44.73 60.9841 44.604 60.9001 44.478 60.8581C44.31 60.8161 44.1 60.9001 44.016 61.0681C44.016 61.0681 44.016 61.1101 44.016 61.1521Z" fill="#191A23"/>
<path d="M45.2761 59.8081C45.2761 59.8081 44.8561 58.5481 44.3521 58.9261C43.8481 59.3041 44.6461 61.6561 45.4441 61.1101C46.2421 60.5641 45.2761 59.8081 45.2761 59.8081Z" fill="#F5F5F5"/>
<path d="M45.7801 59.8921C45.6541 59.4721 45.4021 59.1361 45.0661 58.8841C44.7721 58.7161 44.4781 58.6741 44.1421 58.6741C44.0161 58.6741 43.8481 58.7161 43.7641 58.8421C43.6381 59.0101 43.5961 59.1781 43.6381 59.3461C43.6801 59.8501 43.8061 60.3541 44.1421 60.7741C44.3101 61.0261 44.6041 61.1941 44.8981 61.2781C45.2761 61.4461 45.6961 61.4041 46.0321 61.1941C46.1581 61.1101 46.2421 60.9421 46.2841 60.7741C46.2841 60.6061 46.2421 60.4801 46.1581 60.3541C46.0321 60.1861 45.9061 60.0181 45.7381 59.8921C45.5281 59.7661 45.2761 59.6821 45.0661 59.6821C44.9821 59.6821 44.6461 59.6821 44.8561 59.8081L44.9401 59.8921L44.9821 59.9341L45.0661 60.0601C45.1921 60.2281 45.2761 60.4381 45.2341 60.6481C45.1921 60.7741 45.1081 60.9001 44.9821 60.9841L44.8561 61.0681C44.8141 61.1101 44.8981 61.0261 44.8561 61.0681H44.8141C44.7721 61.0681 44.8981 61.0681 44.8561 61.0681C44.8141 61.0681 44.7721 61.0681 44.9401 61.0681H45.0241C45.1081 61.0681 45.2341 61.1101 45.3181 61.1521C45.2761 61.1521 45.4441 61.1941 45.3601 61.1521C45.2761 61.1101 45.4021 61.1941 45.3601 61.1521L45.2761 61.0681L45.2341 61.0261C45.2341 60.9841 45.1921 60.9841 45.1921 60.9841C44.9401 60.6481 44.7721 60.2281 44.7301 59.8081C44.6881 59.6401 44.6881 59.4301 44.7301 59.2621C44.7301 59.2201 44.7721 59.1781 44.7721 59.1781V59.1361C44.8141 59.0941 44.8141 59.0941 44.8561 59.0941C44.8141 59.0941 44.8981 59.0521 44.8561 59.0941C44.6881 59.0941 44.4781 59.0521 44.3101 59.0101L44.2681 58.9681C44.3101 59.0101 44.2261 58.9681 44.2261 58.9681L44.3101 59.0101L44.3521 59.0941C44.4361 59.1781 44.4781 59.3041 44.5201 59.3881C44.6041 59.5141 44.6461 59.6401 44.6881 59.7661C44.6881 59.8081 44.8561 59.8921 44.8981 59.8921C45.0241 59.9341 45.1501 59.9761 45.2761 60.0181C45.4861 59.9761 45.8641 60.0601 45.7801 59.8921Z" fill="#191A23"/>
<path d="M52.4161 59.892C52.4161 59.892 53.0461 58.716 53.5081 59.136C53.9701 59.556 52.7941 61.824 52.0801 61.152C51.3661 60.48 52.4161 59.892 52.4161 59.892Z" fill="#F5F5F5"/>
<path d="M52.92 59.9341C53.046 59.7241 53.172 59.5561 53.298 59.3461L53.34 59.3041L53.382 59.2621L53.424 59.2201L53.466 59.1781C53.508 59.1361 53.508 59.1781 53.424 59.1781C53.424 59.1781 53.466 59.1781 53.466 59.1361C53.382 59.1781 53.298 59.1781 53.214 59.1781C53.13 59.1781 53.046 59.1781 52.92 59.1361C52.962 59.1361 52.836 59.0941 52.878 59.1361L52.92 59.1781C52.878 59.1361 52.962 59.1781 52.92 59.1781L52.962 59.2201V59.2621C52.962 59.2621 52.962 59.2621 52.962 59.2201C52.962 59.1781 52.962 59.2621 52.962 59.2621C53.004 59.4301 53.004 59.5981 52.92 59.7661C52.92 59.8081 52.92 59.8081 52.92 59.8501V59.8921C52.92 59.8921 52.878 60.0181 52.878 60.0601C52.878 60.1021 52.794 60.2701 52.71 60.3961C52.626 60.6061 52.5 60.7741 52.332 60.9421L52.29 60.9841C52.248 61.0261 52.332 60.9421 52.29 60.9841L52.248 61.0261L52.122 61.1101C52.122 61.1101 52.08 61.1101 52.08 61.1521C52.122 61.1101 52.164 61.1101 52.08 61.1521C52.038 61.1941 52.122 61.1521 52.122 61.1521C52.038 61.1941 52.248 61.1101 52.164 61.1521C52.29 61.1101 52.416 61.1101 52.5 61.1521C52.458 61.1101 52.458 61.1521 52.5 61.1521L52.458 61.1101C52.416 61.0681 52.5 61.1521 52.458 61.1101C52.416 61.0681 52.416 61.0681 52.374 61.0261C52.332 60.9841 52.29 60.9001 52.248 60.8581C52.248 60.8161 52.248 60.8161 52.248 60.7741C52.248 60.7321 52.248 60.6901 52.248 60.6901C52.248 60.6481 52.248 60.6481 52.248 60.6061V60.5641C52.29 60.4381 52.374 60.3541 52.458 60.2701L52.5 60.2281C52.458 60.2701 52.5 60.1861 52.5 60.2281L52.584 60.1861L52.71 60.1021L52.836 60.0181C52.878 59.9761 52.92 59.9341 52.878 59.8921C52.794 59.8501 52.71 59.8081 52.626 59.8081C52.374 59.7661 52.122 59.8081 51.912 59.8921C51.576 60.0601 51.156 60.4801 51.282 60.9001C51.534 61.6561 52.584 61.6981 53.13 61.2781C53.55 60.9421 53.844 60.4801 53.97 59.9761C54.054 59.7661 54.054 59.5981 54.012 59.3881C53.928 59.0101 53.508 58.9261 53.172 58.9681C52.92 58.9681 52.668 59.0521 52.458 59.1781C52.332 59.2621 52.206 59.3881 52.122 59.5141C51.996 59.6401 51.912 59.8081 51.828 59.9761C51.744 60.1441 52.122 60.1861 52.206 60.1861C52.332 60.1861 52.5 60.1861 52.626 60.1441C52.752 60.0181 52.878 60.0181 52.92 59.9341Z" fill="#191A23"/>
<path d="M45.234 59.304C45.234 59.304 45.024 63.084 47.796 64.05C51.24 65.268 53.004 61.404 52.794 58.464C52.794 58.464 50.106 57.876 49.644 56.196C49.644 56.196 46.788 59.556 45.234 59.304Z" fill="#F5F5F5"/>
<path d="M44.73 59.2621C44.646 60.8161 45.15 62.6641 46.368 63.7141C47.334 64.5541 48.636 64.9321 49.854 64.6381C50.988 64.3021 51.912 63.5461 52.416 62.4961C53.046 61.2781 53.34 59.8921 53.256 58.4641C53.256 58.2121 53.088 58.0441 52.878 57.9601C51.87 57.7081 50.442 57.1621 50.064 56.0701C49.98 55.7761 49.518 55.4821 49.224 55.7761C48.762 56.3221 48.258 56.8681 47.712 57.3301C47.292 57.7081 46.872 58.0441 46.41 58.3381C46.074 58.6321 45.612 58.7581 45.192 58.7581C44.52 58.6741 44.688 59.6401 45.234 59.7241C46.368 59.8921 47.502 58.9261 48.258 58.2541C48.888 57.7081 49.434 57.1201 49.98 56.5321L49.14 56.2381C49.602 57.7081 51.24 58.5481 52.668 58.8841L52.29 58.3801C52.374 60.2281 51.744 62.7901 49.854 63.5461C48.888 63.8821 47.796 63.7141 46.998 63.0841C46.368 62.4961 45.948 61.6981 45.78 60.8581C45.654 60.3541 45.612 59.8501 45.654 59.3461C45.738 58.7581 44.772 58.5901 44.73 59.2621Z" fill="#191A23"/>
<path d="M46.536 60.8161C46.536 60.8581 46.536 60.8581 46.536 60.9001C46.536 60.9841 46.536 61.1101 46.536 61.1941C46.536 61.2781 46.578 61.3621 46.62 61.4041C46.662 61.4881 46.704 61.5721 46.746 61.6141L46.788 61.6561C46.83 61.6981 46.872 61.7401 46.914 61.7821C46.956 61.8241 46.998 61.8661 47.082 61.9081L47.124 61.9501C47.208 61.9921 47.25 61.9921 47.334 62.0341C47.418 62.0341 47.46 62.0761 47.544 62.0761H47.628C47.712 62.0761 47.796 62.0761 47.88 62.0341C47.922 62.0341 48.006 61.9921 48.048 61.9501C48.09 61.9081 48.132 61.8661 48.132 61.8241C48.132 61.7821 48.132 61.6981 48.132 61.6561C48.132 61.6141 48.132 61.5301 48.09 61.4881C48.048 61.3621 47.922 61.2781 47.796 61.1941L47.67 61.1521C47.586 61.1521 47.502 61.1521 47.418 61.1521H47.334H47.46C47.418 61.1521 47.334 61.1521 47.292 61.1521H47.418C47.376 61.1521 47.334 61.1521 47.334 61.1101L47.46 61.1521L47.376 61.1101L47.502 61.1941C47.46 61.1941 47.46 61.1521 47.418 61.1521L47.502 61.2361C47.502 61.1941 47.46 61.1941 47.46 61.1521L47.544 61.2781C47.502 61.2361 47.502 61.1941 47.502 61.1521L47.544 61.2781C47.544 61.2361 47.502 61.1521 47.502 61.1101V61.2361C47.502 61.1941 47.502 61.1101 47.502 61.0681C47.502 61.0261 47.502 60.9421 47.46 60.9001C47.46 60.8161 47.418 60.7741 47.376 60.7321C47.334 60.6901 47.292 60.6061 47.208 60.6061C47.166 60.5641 47.082 60.5221 47.04 60.5221C46.914 60.4801 46.788 60.4801 46.704 60.5641L46.62 60.6481C46.578 60.6901 46.536 60.7741 46.536 60.8581V60.8161Z" fill="#191A23"/>
<path d="M50.526 59.052C50.4 59.052 50.316 59.178 50.316 59.346C50.316 59.346 50.316 59.346 50.316 59.388C50.4 59.64 50.694 59.556 50.694 59.304C50.736 59.178 50.694 59.094 50.526 59.052C50.568 59.052 50.568 59.052 50.526 59.052Z" fill="#191A23"/>
<path d="M48.846 59.2201C48.72 59.2201 48.636 59.3461 48.636 59.4721V59.5141C48.72 59.7661 49.014 59.6821 49.014 59.4721C49.056 59.3461 48.972 59.2621 48.846 59.2201Z" fill="#191A23"/>
<path d="M49.4341 55.4821L49.1821 55.8181C48.9301 56.1541 48.6781 56.4481 48.3841 56.7421C47.6701 57.5821 46.7881 58.2121 45.7801 58.6741C45.2341 58.8841 44.6461 58.9681 44.0581 58.8421C43.3861 58.6741 43.3861 59.5981 43.9321 59.7241C46.3261 60.2701 48.4681 58.4221 49.8541 56.6581C50.0221 56.4481 50.1901 56.2381 50.3161 56.0281C50.6101 55.6081 49.7281 54.9781 49.4341 55.4821Z" fill="#191A23"/>
<path d="M45.066 58.8421C46.536 58.4221 48.384 57.7921 49.056 56.2801C49.182 55.9861 48.3 55.4821 48.174 55.6921C47.502 57.2041 45.738 57.7501 44.268 58.2121C44.058 58.2541 44.352 58.5901 44.436 58.6321C44.562 58.7161 44.856 58.8841 45.066 58.8421Z" fill="#191A23"/>
<path d="M44.562 58.3381C45.738 57.6661 46.9561 56.9101 47.6281 55.6921C47.6701 55.6081 47.5861 55.4821 47.5861 55.4401C47.5441 55.3141 47.46 55.1881 47.334 55.1041C47.208 55.0201 46.998 54.8101 46.872 55.0201C46.242 56.1961 44.9821 56.9101 43.8901 57.5401C43.8061 57.5821 43.8481 57.7081 43.8901 57.7501C43.9321 57.8761 43.9741 58.0021 44.0581 58.0861C44.1841 58.2121 44.394 58.4221 44.562 58.3381Z" fill="#191A23"/>
<path d="M50.1061 56.5741C50.7361 57.2041 51.4921 57.6661 52.3321 57.8761C52.5841 57.9601 52.8781 57.8761 53.0461 57.6661C53.1721 57.4561 53.0041 57.2461 52.7941 57.2041C52.7101 57.2041 52.6261 57.1621 52.5001 57.1201L52.4161 57.0781C52.4581 57.0781 52.5001 57.1201 52.4161 57.0781L52.2901 57.0361C52.1221 56.9521 51.9541 56.8681 51.7861 56.7841L51.6601 56.7001L51.5761 56.6581C51.5341 56.6161 51.6181 56.7001 51.5761 56.6581C51.5341 56.6161 51.4081 56.5321 51.3661 56.4901C51.1981 56.3641 51.0721 56.2381 50.9461 56.0701C50.8621 55.9861 50.7361 55.9441 50.6101 55.9441C50.4841 55.9441 50.3161 55.9861 50.2321 56.0281C50.0221 56.1541 49.9381 56.3641 50.1061 56.5741Z" fill="#191A23"/>
<path d="M49.812 62.034C49.812 62.034 51.786 61.698 52.248 60.606C52.71 59.514 51.282 59.43 50.106 60.606" fill="#F5F5F5"/>
<path d="M49.896 62.3701C50.106 62.3281 50.316 62.2861 50.526 62.2021C51.03 62.0761 51.492 61.8241 51.954 61.5301C52.416 61.2361 52.752 60.7741 52.836 60.2281C52.878 59.9761 52.794 59.7241 52.584 59.5561C52.374 59.3881 52.08 59.3041 51.786 59.3041C50.946 59.3881 50.19 59.7661 49.644 60.3541C49.518 60.4801 49.518 60.6481 49.644 60.7741C49.686 60.8161 49.728 60.8581 49.77 60.8581C50.022 60.9421 50.316 60.9001 50.484 60.6901C50.526 60.6481 50.61 60.5641 50.694 60.5221L50.736 60.4801L50.82 60.3961L50.988 60.2701L51.072 60.2281C51.114 60.2281 51.24 60.1021 51.114 60.1861C51.198 60.1021 51.324 60.0601 51.45 60.0181C51.492 60.0181 51.576 60.0181 51.45 60.0181C51.492 60.0181 51.492 60.0181 51.534 59.9761L51.702 59.9341C51.534 59.9761 51.702 59.9341 51.744 59.9341C51.618 59.8921 51.87 59.9341 51.744 59.9341H51.786C51.702 59.9341 51.702 59.8921 51.744 59.9341C51.744 59.9341 51.786 59.9341 51.786 59.9761C51.702 59.9761 51.702 59.9341 51.744 59.9761C51.702 59.8921 51.786 60.0181 51.744 59.9761L51.786 60.0181C51.828 60.0601 51.786 59.9341 51.786 59.9761C51.786 60.0181 51.786 60.0181 51.786 60.0601C51.786 59.9761 51.786 60.1441 51.786 60.0601C51.786 60.1441 51.786 60.1021 51.786 60.1441C51.786 60.1861 51.786 60.2281 51.744 60.2701C51.702 60.3121 51.702 60.3541 51.744 60.2701L51.702 60.3541C51.702 60.3961 51.66 60.4381 51.618 60.4801L51.576 60.5221C51.492 60.6061 51.618 60.4801 51.576 60.5221C51.534 60.6061 51.45 60.6481 51.366 60.7321C51.366 60.7741 51.324 60.7741 51.324 60.7741C51.366 60.7321 51.408 60.6901 51.324 60.7741L51.198 60.8581L50.946 61.0261C51.072 60.9421 50.946 61.0261 50.904 61.0261L50.82 61.3201L50.568 61.4041L50.442 61.4461C50.232 61.4881 50.4 61.4461 50.442 61.4461C50.232 61.5301 50.022 61.5721 49.77 61.6141C49.56 61.6561 49.266 61.8661 49.35 62.0761C49.434 62.2861 49.728 62.3701 49.938 62.3281L49.896 62.3701Z" fill="#191A23"/>
<path d="M43.344 66.2761C43.47 66.0241 43.596 65.8141 43.764 65.6041L43.722 65.6461C43.89 65.4361 44.1 65.3101 44.31 65.1421C44.394 65.1001 44.478 65.0581 44.478 64.9321C44.478 64.8481 44.436 64.7641 44.352 64.7221C44.142 64.5961 43.848 64.5541 43.596 64.6801C43.05 64.9741 42.588 65.4361 42.336 66.0241C42.252 66.2341 42.504 66.3601 42.672 66.4021C42.798 66.4441 42.966 66.4441 43.092 66.4021C43.176 66.4021 43.302 66.3601 43.344 66.2761Z" fill="#191A23"/>
<path d="M53.802 64.7221H53.76C53.802 64.7221 53.802 64.7221 53.76 64.7221C53.76 64.7221 53.676 64.6801 53.718 64.7221C53.76 64.7641 53.76 64.7641 53.802 64.7221C53.802 64.7641 53.676 64.6801 53.802 64.7221L53.844 64.8061L53.886 64.8481C54.012 64.9741 54.18 64.9741 54.306 64.8481C54.432 64.7221 54.432 64.5541 54.306 64.4281C54.18 64.3021 54.012 64.3021 53.886 64.4281C53.802 64.5121 53.76 64.6801 53.844 64.8061C53.886 64.8901 53.97 64.9741 54.054 65.0581C54.138 65.1421 54.18 65.2261 54.264 65.3521L54.348 65.4781C54.348 65.5201 54.39 65.5201 54.39 65.5201C54.348 65.4361 54.348 65.4781 54.39 65.5201C54.432 65.6041 54.474 65.7301 54.516 65.8141C54.6 66.0241 54.684 66.2341 54.726 66.4441C54.81 66.6961 55.104 66.8641 55.398 66.7801C55.65 66.6961 55.776 66.4441 55.692 66.1921C55.692 66.1921 55.692 66.1921 55.692 66.1501C55.524 65.6461 55.314 65.1421 55.02 64.6801C54.684 64.1341 54.18 63.5881 53.466 63.7141C53.214 63.7981 53.088 64.0501 53.172 64.3021V64.3441C53.298 64.6801 53.55 64.8061 53.802 64.7221Z" fill="#191A23"/>
<path d="M46.4101 64.554C46.9981 65.352 47.8381 65.94 48.7621 66.234C49.1821 66.402 49.6021 66.444 50.0221 66.444C50.4421 66.402 50.7781 66.024 51.1981 65.94C51.3241 65.898 50.9881 65.646 50.9881 65.604C50.8621 65.52 50.7781 65.436 50.6521 65.394C50.6101 65.352 50.4841 65.31 50.4001 65.31C50.1061 65.436 49.8121 65.562 49.5181 65.73C49.1821 65.856 48.8041 65.856 48.4681 65.772C48.1741 65.73 47.9221 65.604 47.6701 65.478C47.5861 65.436 47.5441 65.394 47.5021 65.352C47.3761 65.226 47.2921 65.142 47.2081 64.974C47.0401 64.806 46.8721 64.638 46.6201 64.554C46.5781 64.512 46.2841 64.386 46.4101 64.554Z" fill="#191A23"/>
<path d="M61.74 63.3781C63.294 63.0841 64.428 61.9081 65.436 60.7321C66.444 59.5141 67.242 58.1281 67.83 56.7001C68.124 55.9441 68.544 55.0201 67.914 54.3061C67.326 53.7181 66.402 53.5921 65.646 54.0121C64.386 54.6421 63.798 55.9861 63.504 57.2881C63.168 58.7581 63.168 60.2701 63.462 61.6981C63.882 63.2101 65.058 64.5541 66.696 64.6381C68.334 64.7221 69.678 63.6301 70.518 62.3281C70.896 61.6981 71.442 60.9001 71.526 60.1861C71.568 59.3461 70.896 58.6321 70.056 58.5901C69.972 58.5901 69.888 58.5901 69.804 58.5901C68.082 58.7581 67.536 60.6901 68.25 62.0341C69.132 63.7141 71.148 63.8821 72.828 63.7561C73.332 63.7141 73.71 63.2521 73.668 62.7061C73.668 62.7061 73.668 62.7061 73.668 62.6641C73.542 62.1181 72.996 61.7821 72.45 61.8661C71.778 61.9081 70.728 61.9921 70.266 61.4461C70.098 61.2781 70.014 61.0261 70.014 60.8161C70.014 60.6481 70.056 60.6061 70.056 60.4801C70.056 60.5221 70.098 60.3541 70.098 60.3961C70.098 60.4381 69.72 60.3541 69.72 60.3541L69.384 59.9761C69.426 60.0601 69.468 59.7661 69.342 60.1021C69.258 60.2701 69.216 60.3961 69.09 60.5641C68.964 60.8581 68.796 61.1101 68.628 61.3621C68.334 61.8661 67.914 62.2861 67.41 62.5801C66.402 63.0841 65.688 62.2441 65.436 61.3201C65.184 60.1441 65.226 58.8841 65.478 57.7081C65.562 57.2041 65.73 56.7421 65.94 56.3221C66.024 56.1541 66.15 55.9861 66.318 55.8601C66.402 55.7761 66.612 55.6921 66.654 55.6081C66.78 55.7761 66.57 55.7341 66.108 55.4401L66.024 54.9781C66.024 55.6501 65.562 56.4481 65.268 57.0361C64.974 57.6661 64.596 58.2961 64.176 58.8421C63.756 59.4301 63.294 60.0181 62.748 60.5221C62.37 60.9841 61.824 61.3621 61.236 61.5301C60.732 61.5721 60.354 62.0761 60.396 62.5801C60.648 63.1261 61.194 63.4621 61.74 63.3781Z" fill="#F5F5F5"/>
<path d="M114.996 22.806H170.856C173.586 22.806 175.812 25.032 175.812 27.804V52.5C175.812 55.272 173.586 57.498 170.814 57.498L126.294 57.54C124.95 59.934 123.018 63.168 121.758 65.226C121.38 65.814 120.624 65.982 120.036 65.646C119.826 65.52 119.658 65.31 119.574 65.1L116.13 57.582L114.996 57.54C112.266 57.54 109.998 55.314 109.998 52.542V27.804C109.998 25.032 112.224 22.806 114.996 22.806Z" fill="#191A23"/>
<path d="M114.198 23.226H169.092C169.386 23.226 169.68 23.226 169.974 23.226C171.486 23.226 172.914 23.94 173.838 25.116C175.056 26.712 174.846 28.686 174.846 30.576V48.09C174.846 49.644 174.846 51.24 174.846 52.794C174.846 53.592 174.636 54.348 174.3 55.062C173.922 55.776 173.25 56.658 172.452 56.91C172.032 56.994 171.612 57.036 171.192 56.994H159.096L140.322 57.036L127.806 57.078H127.176C126.714 57.078 125.664 57.33 125.412 57.792C124.404 59.598 123.354 61.404 122.262 63.168C121.8 63.924 121.212 64.68 120.834 65.52C120.582 66.024 120.33 64.89 121.548 65.352C121.464 65.352 121.422 65.31 121.338 65.31C121.17 65.268 121.044 65.184 120.918 65.058C120.792 64.932 120.666 64.764 120.624 64.596C119.742 62.832 118.986 60.984 118.146 59.178L117.222 57.12C117.18 57.078 117.096 57.036 117.054 57.036C116.382 57.036 115.71 56.994 115.038 56.868C113.988 56.658 113.022 56.07 112.308 55.272C111.51 54.306 111.09 53.046 111.132 51.786V29.106C111.132 28.56 111.132 27.972 111.132 27.384C111.132 26.418 111.426 25.452 111.972 24.654C112.434 23.856 113.148 23.268 114.198 23.226C114.702 23.184 115.164 23.058 115.584 22.806C115.71 22.722 116.256 22.344 115.836 22.344C113.4 22.386 110.67 23.604 109.578 25.872C109.2 26.754 108.99 27.72 109.074 28.686V52.248C108.99 53.424 109.284 54.642 109.914 55.65C110.586 56.658 111.636 57.414 112.812 57.708C113.652 57.876 114.492 57.96 115.332 57.96L115.164 57.876L117.768 63.588C118.02 64.302 118.356 64.974 118.734 65.604C119.322 66.402 120.414 66.234 121.254 65.898C121.758 65.73 122.262 65.436 122.64 65.058C122.934 64.68 123.186 64.302 123.396 63.882C124.74 61.656 126.084 59.43 127.344 57.204L125.58 57.918H134.82L153.552 57.876H168.294C169.848 57.876 171.276 57.876 172.746 57.33C174.93 56.532 176.652 54.768 176.82 52.374C176.862 51.912 176.82 51.45 176.82 50.988V27.888C176.862 26.88 176.652 25.872 176.19 24.99C175.266 23.352 173.502 22.386 171.654 22.386C168.924 22.344 166.194 22.386 163.464 22.386H115.794C115.29 22.428 114.828 22.554 114.408 22.806C114.282 22.848 113.736 23.226 114.198 23.226Z" fill="#F5F5F5"/>
<path d="M124.152 50.526C130.577 50.526 135.786 45.637 135.786 39.606C135.786 33.5751 130.577 28.686 124.152 28.686C117.727 28.686 112.518 33.5751 112.518 39.606C112.518 45.637 117.727 50.526 124.152 50.526Z" fill="#191A23"/>
<path d="M119.154 39.438C119.154 39.438 117.348 34.398 121.59 32.424C125.832 30.45 131.46 33.768 131.796 39.396C132.132 45.024 125.286 45.78 125.286 45.78L119.154 39.438Z" fill="#F5F5F5"/>
<path d="M119.574 39.3541C119.532 39.2701 119.532 39.1441 119.49 39.0601C119.406 38.7241 119.322 38.3881 119.28 38.0521C119.112 37.0861 119.238 36.1201 119.574 35.1961C120.54 32.7601 123.522 31.9201 125.916 32.5081C128.52 33.2221 130.536 35.2801 131.124 37.9261C131.46 39.1861 131.376 40.5301 130.914 41.7481C130.494 42.6721 129.78 43.4281 128.94 43.9321C127.764 44.6881 126.462 45.1501 125.076 45.3181L125.538 45.4861L119.406 39.1021C118.944 38.6401 118.44 39.2281 118.902 39.6901L124.068 45.0661C124.488 45.4861 124.992 46.2841 125.664 46.2001C126.672 46.0741 127.638 45.7801 128.562 45.3181C129.948 44.7301 131.082 43.6801 131.796 42.3361C132.636 40.5301 132.384 38.3461 131.628 36.5821C130.116 32.9701 125.874 30.4501 121.968 31.7101C119.994 32.2981 118.524 34.0621 118.356 36.1201C118.23 37.2541 118.356 38.3881 118.734 39.4801C118.902 40.0261 119.784 39.984 119.574 39.3541Z" fill="#191A23"/>
<path d="M119.322 44.016C117.726 42.084 119.154 35.07 119.154 35.07C120.288 33.264 126.21 34.356 126.21 34.356C125.37 36.162 125.664 39.102 125.664 39.102C126.336 37.506 128.226 38.178 128.142 39.732C128.058 41.286 126.21 41.79 126.21 41.79C126.21 41.79 126.756 45.15 126.588 45.738C126.42 46.326 123.522 47.292 121.968 45.486C121.968 45.57 120.708 45.738 119.322 44.016Z" fill="#F5F5F5"/>
<path d="M119.784 43.848C119.07 42.924 119.07 41.538 119.07 40.404C119.07 39.102 119.196 37.8 119.406 36.498C119.448 36.12 119.532 35.7 119.616 35.322C119.658 35.028 119.7 35.028 119.952 34.86C120.876 34.272 122.304 34.356 123.354 34.44C124.236 34.482 125.118 34.566 126 34.734L125.706 34.314C125.034 35.826 124.992 37.632 125.118 39.27C125.16 39.69 125.958 39.564 126.126 39.27C126.336 38.85 126.63 38.43 127.134 38.724C127.554 39.06 127.722 39.606 127.596 40.152C127.47 40.614 127.134 41.034 126.714 41.286C126.588 41.37 126.42 41.454 126.252 41.496C126.756 41.286 127.008 40.656 126.798 40.11C126.588 39.606 125.958 39.354 125.412 39.564C124.908 39.774 124.656 40.404 124.866 40.95C125.076 41.412 125.622 41.664 126.126 41.538C125.916 41.58 125.622 41.748 125.664 42C125.79 42.798 125.916 43.596 126 44.352C126.084 44.814 126.126 45.276 126.084 45.696C126.042 45.948 125.832 46.032 125.538 46.116C125.034 46.284 124.488 46.326 123.942 46.2C123.648 46.158 123.354 46.074 123.102 45.906C122.808 45.738 122.556 45.36 122.262 45.234C122.136 45.192 122.01 45.192 121.884 45.192C122.136 45.192 121.968 45.192 121.926 45.192C121.8 45.192 121.632 45.15 121.506 45.108C120.792 44.856 120.204 44.394 119.742 43.806C119.448 43.47 118.482 43.806 118.776 44.184C119.574 45.108 120.666 46.032 121.968 45.864L121.422 45.696C122.22 46.536 123.396 46.998 124.572 46.872C125.328 46.83 126.378 46.662 126.882 45.99C127.302 45.444 127.008 44.394 126.924 43.764C126.84 43.05 126.756 42.336 126.63 41.622L126.168 42.084C127.428 41.748 128.73 40.698 128.562 39.27C128.478 38.514 127.89 37.884 127.134 37.758C126.252 37.632 125.454 38.136 125.118 38.934H126.126C126 37.464 126.042 35.742 126.63 34.398C126.714 34.188 126.588 33.978 126.336 33.978C125.496 33.81 124.656 33.726 123.774 33.684C122.43 33.6 120.918 33.558 119.658 34.104C119.196 34.272 118.776 34.608 118.524 35.07C118.44 35.322 118.398 35.616 118.398 35.868C118.146 37.212 118.02 38.556 117.978 39.942C117.936 41.286 117.894 43.092 118.776 44.226C119.112 44.562 120.12 44.226 119.784 43.848Z" fill="#191A23"/>
<path d="M121.128 40.908C121.128 40.908 117.39 41.286 116.802 39.312C116.214 37.338 118.944 36.54 120.96 38.22" fill="#F5F5F5"/>
<path d="M121.17 40.488H120.876H120.582H120.246C119.952 40.488 119.616 40.446 119.322 40.404C119.154 40.404 119.028 40.362 118.86 40.32H118.818L118.692 40.278C118.608 40.236 118.482 40.236 118.398 40.194C118.23 40.152 118.104 40.068 117.936 39.984C118.02 40.026 117.852 39.942 117.852 39.9C117.852 39.858 117.684 39.774 117.642 39.732C117.432 39.522 117.306 39.27 117.222 39.018C117.18 38.85 117.18 38.682 117.222 38.514C117.222 38.514 117.264 38.388 117.222 38.472L117.264 38.346L117.306 38.262C117.306 38.22 117.348 38.22 117.306 38.262L117.348 38.178L117.432 38.094L117.516 38.01C117.432 38.052 117.6 37.926 117.516 38.01C117.558 38.01 117.768 37.884 117.642 37.926C117.726 37.884 117.81 37.842 117.894 37.842C117.894 37.842 118.062 37.8 117.936 37.842L118.146 37.8H118.272H118.398C118.65 37.8 118.86 37.842 119.07 37.884C119.616 38.01 120.078 38.262 120.54 38.598C120.96 38.934 121.758 38.262 121.296 37.884C120.456 37.128 119.364 36.792 118.23 36.918C117.306 37.044 116.382 37.632 116.214 38.64C116.088 39.48 116.508 40.32 117.222 40.74C117.936 41.118 118.692 41.328 119.532 41.37C120.036 41.412 120.54 41.412 121.044 41.37C121.296 41.328 121.548 41.16 121.59 40.866C121.59 40.656 121.422 40.488 121.254 40.488C121.212 40.488 121.17 40.53 121.17 40.488Z" fill="#191A23"/>
<path d="M123.69 41.034C123.69 41.076 123.69 41.118 123.69 41.16V41.034C123.648 41.244 123.606 41.412 123.522 41.58L123.564 41.496C123.48 41.664 123.354 41.832 123.186 41.958L123.27 41.916C123.186 42 123.06 42.042 122.976 42.084C122.892 42.126 122.85 42.21 122.85 42.336C122.85 42.462 122.85 42.588 122.934 42.714C122.976 42.84 123.06 42.924 123.186 43.008C123.27 43.05 123.354 43.092 123.438 43.05C123.732 42.924 123.984 42.672 124.152 42.378C124.278 42.168 124.362 41.916 124.404 41.622C124.404 41.58 124.404 41.538 124.404 41.496C124.404 41.37 124.362 41.244 124.32 41.118C124.278 40.992 124.194 40.908 124.068 40.824C123.984 40.782 123.9 40.74 123.816 40.782C123.732 40.866 123.69 40.95 123.69 41.034Z" fill="#191A23"/>
<path d="M121.086 37.0859C121.254 37.1279 121.338 37.2959 121.296 37.4639V37.5059C121.17 37.8419 120.792 37.6319 120.792 37.3379C120.792 37.2119 120.918 37.0859 121.086 37.0859Z" fill="#191A23"/>
<path d="M123.396 37.296C123.564 37.338 123.648 37.506 123.606 37.674V37.716C123.48 38.052 123.102 37.884 123.102 37.548C123.102 37.38 123.228 37.254 123.396 37.296C123.396 37.254 123.354 37.254 123.396 37.296Z" fill="#191A23"/>
<path d="M119.322 49.35C119.952 48.048 120.96 46.956 122.22 46.2C122.346 46.116 121.884 46.074 121.884 46.074C121.758 46.074 121.59 46.074 121.464 46.074C121.38 46.074 121.296 46.074 121.212 46.116C119.952 46.872 118.902 47.964 118.272 49.308C118.23 49.392 118.734 49.434 118.776 49.434C118.902 49.434 119.028 49.434 119.154 49.434C119.196 49.434 119.28 49.434 119.322 49.35Z" fill="#F5F5F5"/>
<path d="M126.966 45.906C127.26 45.948 127.554 46.032 127.806 46.116C128.142 46.242 128.436 46.41 128.73 46.62C129.318 47.04 129.822 47.5439 130.2 48.1739C130.284 48.3419 130.662 48.3839 130.83 48.3839C130.872 48.3839 131.334 48.384 131.208 48.216C130.242 46.788 128.73 45.822 127.008 45.57C126.924 45.57 126.504 45.4859 126.462 45.6539C126.42 45.8219 126.882 45.906 126.966 45.906Z" fill="#F5F5F5"/>
<path d="M146.202 35.49C143.724 36.12 141.834 38.178 141.498 40.698C141.33 42.084 142.128 43.554 143.052 44.52C143.892 45.276 144.984 45.696 146.118 45.612C148.806 45.486 151.242 44.1 152.67 41.832C153.048 41.286 153.216 40.656 153.174 40.026C153.09 39.228 152.544 38.472 152.124 37.842C151.83 37.38 151.41 36.918 150.822 36.834C150.234 36.834 149.688 37.17 149.436 37.716C148.89 38.766 148.596 39.942 148.596 41.118C148.638 41.748 148.806 42.378 149.142 42.924C149.478 43.638 149.94 44.268 150.528 44.814C151.494 45.528 152.922 45.612 154.056 45.57C155.19 45.528 156.366 45.276 157.416 44.814C159.642 43.89 161.532 42.252 162.666 40.11C163.128 39.228 163.8 37.842 163.506 36.792C163.254 35.994 162.876 35.28 162.288 34.692C161.91 34.314 161.322 34.188 160.818 34.356C160.104 34.608 159.684 35.322 159.39 35.994C159.054 36.792 158.802 37.632 158.676 38.472C158.424 39.984 158.592 41.538 159.096 43.008C159.432 43.848 159.852 44.688 160.398 45.444C160.776 46.074 161.364 46.536 162.036 46.83C163.464 47.418 165.102 46.914 166.488 46.452C166.488 46.452 165.69 44.562 165.438 44.646C164.178 45.066 162.75 45.528 161.406 45.15C161.028 45.066 160.692 44.898 160.356 44.646C160.23 44.562 160.104 44.394 159.978 44.31L159.894 44.184C160.188 44.688 160.272 44.814 160.104 44.52C159.894 43.848 159.768 43.134 159.684 42.42C159.558 40.908 159.81 39.354 160.356 37.968C160.566 37.338 160.944 36.792 161.49 36.372C161.742 36.204 162.036 36.12 162.33 36.12C162.456 36.12 162.582 36.12 162.708 36.162C162.792 36.204 163.17 36.456 163.044 36.246L162.414 35.154C162.708 35.784 162.204 36.96 161.952 37.548C161.658 38.22 161.322 38.85 160.902 39.438C160.062 40.572 159.012 41.58 157.794 42.294C156.576 43.05 155.232 43.512 153.846 43.722C153.132 43.806 152.418 43.848 151.704 43.764C150.906 43.68 150.108 43.428 149.436 43.008C149.058 42.756 149.646 42.462 149.772 43.68C149.772 43.596 149.73 43.512 149.73 43.428C149.688 43.26 149.688 43.092 149.688 42.924C149.688 42.462 149.73 42 149.856 41.58C149.982 40.866 150.234 40.152 150.612 39.522C150.99 38.934 151.662 38.514 152.334 38.892C152.418 38.934 152.502 39.018 152.586 39.06L152.67 39.144L152.082 38.346C152.04 38.556 152.124 38.892 152.082 39.102C151.998 39.522 151.83 39.9 151.578 40.278C149.982 42.756 146.454 44.646 143.514 43.764C143.136 43.638 142.8 43.47 142.464 43.26C142.38 43.218 142.338 43.134 142.254 43.092C141.75 42.672 142.716 44.352 142.632 43.764C142.59 43.512 142.548 43.302 142.548 43.05C142.59 42.126 142.842 41.244 143.304 40.488C144.144 38.976 145.614 37.884 147.252 37.464C147.336 37.464 146.874 36.582 146.832 36.498C146.79 36.414 146.37 35.448 146.202 35.49Z" fill="#F5F5F5"/>
</svg>
