<svg width="210" height="210" viewBox="0 0 210 210" fill="none" xmlns="http://www.w3.org/2000/svg">
<path d="M75.642 111.174C75.642 110.418 73.374 103.782 74.13 99.414C74.886 95.046 79.002 92.358 79.926 92.652C80.85 92.946 79.338 97.314 79.59 98.154C79.842 98.994 86.604 107.772 86.646 109.662C86.688 111.552 83.538 114.954 83.538 114.954C83.538 114.954 89.922 141.624 77.364 143.808C71.19 144.858 51.324 115.038 51.324 115.038C51.324 115.038 54.642 110.082 56.196 109.074C57.75 108.066 74.718 123.27 74.718 123.27L75.642 111.174Z" fill="#F5F5F5"/>
<path d="M76.398 111.888C76.356 111.09 76.02 110.208 75.81 109.452C75.432 107.94 75.138 106.428 74.928 104.874C74.634 103.194 74.676 101.514 74.97 99.834C75.348 98.28 76.104 96.852 77.196 95.676C77.952 94.752 78.876 94.038 79.968 93.576C80.136 93.492 80.304 93.45 80.472 93.45C80.514 93.45 80.556 93.45 80.64 93.45C80.64 93.45 80.682 93.492 80.724 93.45C80.682 93.45 79.59 92.19 79.59 92.274C79.632 92.778 79.632 93.282 79.548 93.744C79.38 94.836 79.002 96.012 78.96 97.104C78.96 97.692 79.38 98.196 79.716 98.7C81.018 100.632 82.404 102.522 83.664 104.454C84.294 105.378 84.924 106.344 85.428 107.352C85.764 108.024 86.142 108.654 85.974 109.41C85.68 110.67 84.798 111.846 84.042 112.812C83.748 113.19 83.412 113.568 83.118 113.946C83.034 114.03 82.95 114.114 82.908 114.24C82.908 114.45 82.992 114.702 83.076 114.912C83.202 115.416 83.286 115.92 83.37 116.424C84.084 120.162 84.504 123.984 84.546 127.806C84.588 131.838 84.21 136.5 81.732 139.902C80.64 141.414 79.044 142.464 77.238 142.926C76.02 143.22 75.012 142.8 74.004 142.128C73.668 141.918 73.5 141.792 73.164 141.54C72.744 141.246 72.618 141.12 72.282 140.826C72.114 140.7 71.946 140.532 71.778 140.406L71.526 140.154L71.484 140.112L71.4 140.028C71.022 139.692 70.686 139.356 70.308 138.978C70.266 138.936 70.014 138.684 70.182 138.852L69.93 138.6L69.342 137.97L68.754 137.382C68.67 137.298 68.586 137.172 68.502 137.088L68.334 136.878C67.536 135.996 66.78 135.114 66.024 134.232C63.042 130.704 60.102 126.798 57.372 123.06C55.65 120.666 53.97 118.272 52.29 115.836L52.038 115.5L52.164 115.794C52.668 114.996 53.256 114.24 53.802 113.484C54.642 112.266 55.608 111.132 56.658 110.124C57.12 109.746 57.372 109.788 57.834 110.04C58.548 110.418 59.22 110.838 59.85 111.3C64.092 114.24 67.956 117.642 71.862 121.044C72.912 121.968 74.004 122.892 75.054 123.816C75.096 123.858 75.516 124.236 75.516 124.026L76.356 113.4L76.482 111.888C76.524 111.552 75.894 111.048 75.684 110.88C75.6 110.796 75.054 110.292 75.012 110.502L74.172 121.128L74.046 122.64L74.508 122.85C71.694 120.33 68.796 117.852 65.856 115.416C63.756 113.694 61.698 111.972 59.472 110.418C58.674 109.872 57.876 109.326 57.036 108.864C56.658 108.654 56.028 108.234 55.566 108.402C55.104 108.57 54.726 109.116 54.39 109.41C53.802 110.082 53.214 110.754 52.668 111.468C51.954 112.434 51.24 113.4 50.61 114.366C50.568 114.45 50.694 114.618 50.736 114.66C51.954 116.508 53.256 118.314 54.516 120.12C57.288 124.026 60.144 127.848 63.126 131.586C66.108 135.324 69.216 139.02 72.87 142.086C74.046 143.052 75.348 144.102 76.818 144.564C78.288 145.026 79.926 144.27 81.102 143.472C84.546 141.162 85.47 136.5 85.764 132.636C86.016 128.352 85.806 124.068 85.05 119.868C84.84 118.65 84.63 117.474 84.378 116.256C84.336 116.13 84.336 116.004 84.294 115.878C84.252 115.752 84.294 115.752 84.252 115.836C84.462 115.542 84.672 115.29 84.924 115.038C85.344 114.534 85.722 113.988 86.1 113.484C86.688 112.644 87.528 111.384 87.36 110.292C87.15 109.452 86.814 108.696 86.31 107.982C85.008 105.756 83.496 103.614 82.026 101.514C81.48 100.758 80.934 100.002 80.43 99.204C80.346 99.078 80.262 98.952 80.262 98.826C80.262 98.322 80.346 97.818 80.43 97.356C80.556 96.726 80.682 96.054 80.808 95.424C80.934 94.92 80.976 94.374 80.892 93.87C80.64 93.114 80.094 92.484 79.422 92.106C79.128 91.98 78.792 91.98 78.498 92.106C77.406 92.568 76.44 93.282 75.684 94.206C74.55 95.424 73.794 96.894 73.416 98.49C72.744 101.64 73.542 105.084 74.298 108.15C74.508 108.948 74.844 109.788 74.886 110.586C74.886 110.922 75.474 111.384 75.684 111.594C75.768 111.552 76.398 112.098 76.398 111.888Z" fill="#191A23"/>
<path d="M40.782 148.386C40.782 148.386 36.288 172.62 33.348 177.618C31.122 181.44 28.476 187.656 27.216 188.328C25.956 189 25.452 187.362 25.662 186.102C25.872 184.842 26.67 182.112 24.696 181.524C22.722 180.936 14.826 184.632 14.826 184.632L12.726 185.598C12.6 183.96 14.28 182.196 14.28 182.196C12.432 182.406 14.238 179.13 18.06 176.904C21.882 174.678 26.964 171.906 26.964 171.906C26.964 171.906 26.67 127.428 32.172 118.566C34.356 114.996 47.754 109.2 40.782 148.386Z" fill="#F5F5F5"/>
<path d="M39.9 147.84C39.396 150.57 38.85 153.258 38.262 155.988C37.212 160.944 36.12 165.942 34.734 170.814C34.23 172.662 33.642 174.468 32.886 176.232C32.424 177.24 31.836 178.164 31.332 179.13C30.534 180.684 29.736 182.238 28.938 183.792C28.392 184.968 27.72 186.102 26.964 187.152C26.88 187.278 26.754 187.404 26.628 187.53C26.586 187.572 26.502 187.614 26.46 187.656C26.418 187.698 26.334 187.698 26.292 187.74C25.704 187.95 26.628 187.32 26.88 188.244C26.754 187.992 26.67 187.74 26.628 187.488C26.586 187.152 26.586 186.774 26.67 186.438C26.88 185.262 27.216 184.044 26.796 182.868C26.334 181.566 24.822 180.768 23.478 180.768C22.428 180.852 21.378 181.062 20.412 181.44C19.194 181.818 18.018 182.28 16.884 182.742C15.54 183.288 14.238 183.876 12.936 184.506L11.928 184.968L13.692 185.934C13.65 184.716 14.448 183.498 15.246 182.658C15.456 182.448 14.868 182.028 14.784 181.944C14.448 181.692 14.07 181.524 13.65 181.524C13.44 181.524 13.566 181.482 13.608 181.566C13.902 181.776 14.196 181.944 14.49 182.112C14.574 182.154 14.49 182.196 14.532 182.154C14.532 182.196 14.532 182.196 14.532 182.112C14.532 182.028 14.532 181.986 14.532 181.944C14.616 181.524 14.826 181.146 15.078 180.852C15.876 179.718 16.926 178.752 18.102 177.996C19.404 177.114 20.832 176.358 22.176 175.602C23.436 174.888 24.654 174.216 25.914 173.502C26.544 173.166 27.174 172.83 27.804 172.452C27.888 172.41 27.93 172.326 27.93 172.242C27.93 170.898 27.93 169.512 27.93 168.168C27.972 164.766 28.014 161.322 28.098 157.92C28.224 153.51 28.392 149.058 28.686 144.648C28.98 140.238 29.316 135.786 29.904 131.376C30.366 128.016 30.87 124.572 32.004 121.338C32.298 120.414 32.718 119.532 33.264 118.776C33.432 118.566 33.6 118.398 33.768 118.23C33.81 118.188 33.894 118.104 33.852 118.146L34.02 118.02C34.146 117.936 34.23 117.852 34.356 117.768C34.818 117.432 35.364 117.138 35.91 116.928C36.036 116.886 36.204 116.844 36.33 116.802C36.456 116.76 36.246 116.802 36.456 116.76L36.666 116.718C36.834 116.676 36.96 116.676 37.128 116.676H37.338C37.38 116.676 37.632 116.676 37.506 116.676H37.632L37.884 116.718C37.926 116.718 38.178 116.76 38.01 116.718C37.842 116.676 38.094 116.76 38.136 116.76C38.178 116.76 38.472 116.886 38.262 116.802C38.052 116.718 38.346 116.844 38.388 116.844C38.22 116.718 38.682 116.97 38.388 116.844C38.472 116.886 38.556 116.928 38.64 116.97C38.766 117.012 38.388 116.802 38.556 116.928L38.64 117.012C38.724 117.096 38.976 117.306 38.724 117.054C38.808 117.096 38.85 117.18 38.934 117.222C39.018 117.264 39.27 117.558 39.018 117.306C39.144 117.474 39.312 117.6 39.438 117.768C39.522 117.852 39.564 117.936 39.648 118.02L39.732 118.188C41.202 120.582 41.538 123.564 41.748 126.336C42.084 131.754 41.496 137.214 40.74 142.59C40.488 144.396 40.194 146.202 39.858 148.008C39.774 148.554 41.622 149.478 41.748 148.806C42.84 142.59 43.764 136.29 43.722 129.948C43.722 126.588 43.512 123.06 42.168 119.91C41.328 117.936 39.858 116.298 37.8 115.626C36.456 115.206 34.986 115.29 33.684 115.962C32.634 116.466 31.752 117.222 31.122 118.23C30.534 119.364 30.072 120.54 29.736 121.758C29.274 123.438 28.896 125.118 28.602 126.798C27.846 131.04 27.426 135.366 27.09 139.65C26.712 144.228 26.502 148.848 26.334 153.468C26.208 157.374 26.082 161.238 26.04 165.144C25.998 167.16 25.998 169.176 25.998 171.234C25.998 171.318 25.998 171.402 25.998 171.528L26.082 171.318C23.94 172.452 21.84 173.628 19.74 174.804C18.144 175.686 16.506 176.526 15.12 177.744C14.154 178.542 13.062 179.55 12.642 180.726C12.18 182.028 13.692 182.952 14.868 182.826L13.272 181.692C12.39 182.616 11.634 183.876 11.676 185.178C11.718 185.724 12.978 186.396 13.44 186.144C14.616 185.598 15.75 185.052 16.968 184.548C19.11 183.624 21.336 182.658 23.646 182.196C23.856 182.154 24.108 182.112 24.318 182.112H24.612H24.738C24.822 182.112 24.654 182.112 24.78 182.112C24.906 182.112 24.948 182.196 24.822 182.112C24.948 182.196 24.654 181.944 24.654 181.986C24.696 181.944 24.906 182.49 24.906 182.616C25.158 183.834 24.612 185.01 24.57 186.186C24.528 186.9 24.738 187.572 25.158 188.118C25.704 188.79 26.712 189.294 27.594 189.084C28.518 188.832 29.064 187.698 29.526 186.942C31.206 184.086 32.508 181.062 34.146 178.164C34.944 176.694 35.574 175.098 35.994 173.502C37.464 168.714 38.556 163.758 39.648 158.844C40.362 155.568 40.992 152.334 41.622 149.058C41.622 149.016 41.622 148.974 41.664 148.89C41.832 148.218 39.942 147.42 39.9 147.84Z" fill="#191A23"/>
<path d="M19.446 178.584C19.446 178.584 14.826 181.818 13.902 182.658L19.446 178.584Z" fill="#F5F5F5"/>
<path d="M19.152 178.122C17.556 179.214 16.002 180.348 14.448 181.524C14.07 181.818 13.692 182.07 13.398 182.406C13.188 182.616 12.768 183.12 13.146 183.372C13.524 183.624 14.154 183.246 14.448 182.994C14.742 182.742 15.036 182.49 15.33 182.28L15.666 182.028L15.834 181.902L16.548 181.398C17.43 180.768 18.312 180.096 19.236 179.466C19.446 179.34 19.614 179.214 19.824 179.046C20.076 178.878 20.664 178.416 20.412 177.996C20.16 177.576 19.404 177.912 19.152 178.122Z" fill="#191A23"/>
<path d="M74.9699 116.256C77.2799 117.138 85.9739 119.616 87.6119 121.254C89.2499 122.892 90.7619 138.264 76.4399 152.376C63.0419 165.606 58.3379 165.354 37.5479 168.042C26.9219 169.428 16.0439 165.564 16.0439 165.564C16.0439 165.564 27.7619 113.568 39.9419 106.806C52.1219 100.044 73.6679 119.322 73.6679 119.322L74.9699 116.256Z" fill="#B9FF66"/>
<path d="M74.382 116.424C77.616 117.642 80.934 118.482 84.126 119.826C84.798 120.078 85.47 120.414 86.058 120.792C86.226 120.876 86.394 121.002 86.562 121.17C86.604 121.212 86.772 121.38 86.646 121.254C86.688 121.296 86.73 121.338 86.73 121.38C87.066 122.01 87.276 122.682 87.36 123.396C87.738 126.168 87.612 128.982 86.982 131.712C86.1 135.954 84.462 139.986 82.194 143.682C79.464 148.134 75.852 151.872 71.988 155.4C69.426 157.836 66.57 159.936 63.546 161.742C57.582 165.102 50.652 165.942 43.974 166.782C41.496 167.118 39.018 167.454 36.498 167.748C33.726 168.084 30.912 168.084 28.098 167.79C24.318 167.454 20.58 166.698 16.926 165.522L16.38 165.354L17.052 165.816C17.304 164.766 17.556 163.716 17.808 162.666C18.48 159.936 19.152 157.206 19.908 154.476C20.916 150.696 21.966 146.958 23.142 143.22C24.402 139.062 25.746 134.946 27.216 130.914C28.644 127.008 30.198 123.102 31.962 119.364C33.432 116.298 35.028 113.232 37.17 110.586C37.968 109.578 38.892 108.654 39.9 107.856C41.16 106.932 42.63 106.302 44.184 106.008C45.108 105.84 45.99 105.798 46.914 105.84C47.838 105.882 48.72 105.966 49.644 106.176C51.66 106.596 53.634 107.268 55.524 108.108C59.346 109.83 63 111.93 66.402 114.408C68.502 115.878 70.56 117.474 72.492 119.154L72.786 119.406C73.08 119.658 74.508 120.162 74.718 119.658L76.02 116.55C76.188 116.172 74.172 115.584 73.962 116.088L72.66 119.196L74.592 119.448C73.206 118.188 71.694 117.012 70.182 115.878C66.864 113.358 63.378 111.09 59.682 109.158C55.608 107.058 51.198 105.336 46.578 105.042C43.134 104.832 39.606 105.588 37.044 107.982C34.776 110.082 33.096 112.854 31.626 115.584C29.736 119.154 28.056 122.85 26.586 126.63C24.99 130.746 23.52 134.946 22.176 139.188C20.916 143.178 19.74 147.168 18.606 151.158C17.724 154.266 16.926 157.374 16.128 160.524C15.75 162.078 15.372 163.632 14.994 165.228L14.952 165.438C14.91 165.69 15.498 165.858 15.624 165.9C18.48 166.866 21.42 167.58 24.402 168.042C27.174 168.504 29.946 168.798 32.76 168.798C35.616 168.756 38.43 168.504 41.244 168.084C45.486 167.538 49.77 167.034 53.97 166.236C57.12 165.69 60.144 164.766 63.084 163.506C66.15 162.036 69.006 160.188 71.61 157.962C75.432 154.77 79.086 151.284 82.068 147.294C84.924 143.514 87.108 139.23 88.41 134.652C89.334 131.586 89.712 128.352 89.544 125.16C89.502 124.194 89.334 123.228 89.04 122.304C88.788 121.548 88.242 120.96 87.528 120.624C85.974 119.742 84.294 119.07 82.614 118.482C80.808 117.852 78.96 117.222 77.154 116.634L76.188 116.298L75.726 116.13L75.516 116.046C75.306 115.962 75.726 116.13 75.516 116.046C75.138 115.878 74.508 115.668 74.088 115.836C73.668 116.004 74.172 116.34 74.382 116.424Z" fill="#B9FF66"/>
<path d="M100.842 75.432L72.3659 73.668C70.6019 73.542 69.2159 75.138 69.3419 77.154L70.2659 95.508C70.3499 97.566 71.9039 99.288 73.6679 99.414L85.0919 100.128C86.0579 101.976 87.4439 104.454 88.3259 106.008C88.7039 106.68 89.5439 106.68 89.7539 106.008L91.6859 100.548L102.102 101.22C103.866 101.346 105.252 99.75 105.126 97.734L104.202 79.38C104.16 77.322 102.648 75.558 100.842 75.432Z" fill="#191A23"/>
<path d="M100.758 74.55L88.9139 73.794L73.3319 72.828C72.9959 72.786 72.6179 72.786 72.2819 72.786C69.8879 72.702 68.2919 74.634 68.3339 76.944C68.3339 78.624 68.5019 80.304 68.5859 81.984L69.0479 91.014L69.2159 94.332C69.2159 95.046 69.2999 95.76 69.4259 96.432C69.9299 98.532 71.6939 100.086 73.8359 100.338C74.7179 100.422 75.5999 100.464 76.5239 100.506L84.6719 101.01L85.2179 101.052L84.2939 100.506C85.0499 101.976 85.8479 103.404 86.6459 104.832C86.9399 105.504 87.3179 106.134 87.7799 106.722C88.3259 107.352 89.2079 107.604 90.0059 107.268C90.6779 106.932 90.8879 106.092 91.0979 105.462L92.0639 102.774L92.7359 100.884L91.8119 101.472L99.4139 101.934C100.338 101.976 101.262 102.06 102.186 102.102C104.664 102.186 106.218 100.128 106.134 97.776C105.966 92.61 105.63 87.402 105.336 82.236C105.294 81.312 105.252 80.43 105.21 79.506C105.126 77.07 103.32 74.76 100.758 74.55C100.296 74.508 99.9179 74.802 99.8339 75.222C99.8339 75.264 99.8339 75.306 99.8339 75.39C99.9179 75.936 100.38 76.356 100.926 76.398C102.438 76.524 103.194 78.078 103.278 79.464C103.32 80.262 103.362 81.018 103.404 81.816L103.866 90.804C103.992 93.03 104.118 95.256 104.202 97.482C104.244 98.7 103.698 100.296 102.228 100.338C101.43 100.38 100.632 100.254 99.8339 100.17L91.6859 99.666C91.2659 99.624 90.8879 99.876 90.7619 100.254L89.4599 103.824C89.2499 104.412 89.0399 105 88.8299 105.546C88.8299 105.588 88.7879 105.63 88.7879 105.672C88.7039 105.462 89.2079 105.672 89.2079 105.672C89.3339 105.672 89.2499 105.756 89.2079 105.63C89.1659 105.588 89.1239 105.504 89.1239 105.462L88.9139 105.084L88.4099 104.202C87.6959 102.942 86.9819 101.64 86.3099 100.38C86.0159 99.834 85.7639 99.288 85.0499 99.204H84.7559L80.8919 98.952L75.8099 98.616L74.1299 98.532C73.7939 98.532 73.4579 98.49 73.1219 98.406C71.7779 97.986 71.3159 96.516 71.2319 95.214L71.0639 92.148L70.5599 82.152L70.3499 78.33C70.3079 77.49 70.1819 76.566 70.5599 75.81C70.8539 75.054 71.6099 74.592 72.4079 74.592L72.8279 74.634L75.2639 74.802L84.2519 75.348L94.4159 75.978L100.59 76.356H100.884C101.304 76.44 101.724 76.104 101.808 75.684C101.808 75.642 101.808 75.558 101.808 75.516C101.766 74.97 101.304 74.592 100.758 74.55Z" fill="#191A23"/>
<path d="M79.4219 88.41C78.2459 88.41 77.1959 87.696 76.7759 86.604C75.7259 84.252 77.6579 82.446 78.7919 81.816L78.8339 81.774C80.3459 81.186 81.3119 81.606 81.8579 82.068C82.9499 83.034 83.2019 84.84 82.8659 86.1C82.5299 87.36 81.2699 88.242 79.7999 88.368C79.6739 88.41 79.5479 88.41 79.4219 88.41ZM79.2959 82.824C79.0439 82.992 76.9439 84.252 77.7839 86.142C78.1199 86.898 78.9179 87.36 79.7159 87.276C80.6819 87.192 81.5639 86.562 81.7739 85.848C82.0259 84.924 81.8159 83.58 81.1019 82.95C80.6399 82.572 80.0519 82.53 79.2959 82.824Z" fill="#F5F5F5"/>
<path d="M79.17 87.9899C78.582 87.9899 77.994 87.7799 77.574 87.3599C77.112 86.8559 76.86 86.2259 76.86 85.5539C76.818 84.3779 77.574 83.3279 78.498 82.6139C79.422 81.8999 80.682 81.5639 81.606 82.2779C82.53 82.9919 82.656 84.4619 82.488 85.5119C82.236 87.1079 80.682 88.0319 79.17 87.9899C78.918 87.9899 79.002 88.2419 79.044 88.3679C79.17 88.5779 79.38 88.7459 79.632 88.7879C81.228 88.8299 82.95 87.9059 83.286 86.2259C83.622 84.6719 83.16 83.0339 82.026 81.8999C80.892 80.8919 79.254 80.8079 78.036 81.6479C76.86 82.4459 75.978 83.7059 76.02 85.1339C76.146 87.1079 77.7 88.6619 79.632 88.7879C79.884 88.7879 79.8 88.5359 79.758 88.3679C79.632 88.1579 79.422 88.0319 79.17 87.9899Z" fill="#F5F5F5"/>
<path d="M78.96 82.446C78.372 82.782 77.868 83.244 77.49 83.832C76.902 84.882 77.112 86.142 77.994 86.982C78.792 87.738 79.968 87.948 80.976 87.444C81.522 87.234 81.984 86.772 82.194 86.226C82.32 85.68 82.362 85.092 82.236 84.546C82.11 83.832 81.732 83.16 81.144 82.698C80.472 82.194 79.674 82.11 78.96 82.446C78.582 82.614 79.254 83.37 79.59 83.244C79.842 83.118 80.136 83.076 80.43 83.076C80.514 83.076 80.598 83.076 80.682 83.118C80.724 83.118 80.766 83.16 80.808 83.16C80.808 83.16 80.934 83.244 80.892 83.202C80.85 83.16 81.018 83.328 80.934 83.244C80.976 83.286 81.018 83.328 81.018 83.37C80.976 83.328 81.06 83.454 81.06 83.454L81.102 83.538C81.186 83.748 81.27 83.958 81.312 84.21C81.396 84.63 81.396 85.092 81.312 85.554C81.186 86.016 80.85 86.394 80.388 86.604C79.968 86.814 79.548 86.94 79.086 86.898C78.96 86.898 78.792 86.856 78.666 86.814C78.54 86.772 78.456 86.73 78.33 86.646C78.204 86.52 78.12 86.352 78.036 86.184C77.952 85.974 77.91 85.764 77.91 85.554C77.91 85.176 78.036 84.798 78.246 84.504C78.456 84.168 78.708 83.916 79.002 83.664C79.128 83.58 79.212 83.496 79.338 83.412L79.38 83.37H79.422L79.506 83.328C79.716 83.202 79.548 82.95 79.464 82.824C79.38 82.698 79.128 82.32 78.96 82.446Z" fill="#F5F5F5"/>
<path d="M84.6408 81.3332L84.3853 90.1497L85.5188 90.1825L85.7743 81.366L84.6408 81.3332Z" fill="#F5F5F5"/>
<path d="M85.26 89.754L84.126 89.712L84.63 90.594L84.882 82.152C84.882 82.068 84.882 81.984 84.882 81.9C84.882 81.858 84.882 81.816 84.882 81.858C84.966 81.816 85.344 81.858 85.428 81.858H85.974L85.47 80.976L85.26 88.704V89.754C85.26 89.964 85.344 90.174 85.47 90.342C85.47 90.384 85.764 90.72 85.764 90.594L85.974 82.866L86.016 81.774C86.016 81.606 85.764 80.892 85.512 80.892L84.378 80.85V80.892L84.168 88.62L84.126 89.712C84.126 89.88 84.378 90.594 84.63 90.594L85.764 90.636C85.848 90.636 85.638 90.174 85.596 90.132C85.554 90.048 85.428 89.754 85.26 89.754Z" fill="#F5F5F5"/>
<path d="M85.1759 85.848L85.0079 84.756C87.0239 84.42 87.1919 84.63 87.3599 84.798L86.5619 85.596C86.6039 85.638 86.6879 85.68 86.7719 85.722C86.2259 85.68 85.7219 85.722 85.1759 85.848Z" fill="#F5F5F5"/>
<path d="M85.596 85.9739L85.428 84.8819L85.302 85.1759C85.68 85.1339 86.058 85.0499 86.478 85.0079H86.688H86.814H87.108L87.318 85.0499C87.36 85.0499 87.192 85.0079 87.276 85.0499H87.318C87.318 85.0499 87.36 85.0499 87.36 85.0919C87.276 85.0499 87.234 85.0499 87.318 85.0499C87.402 85.0499 87.234 84.9659 87.276 85.0079L87.36 85.0499L87.15 84.3779L86.352 85.1759C86.142 85.3859 86.394 85.7219 86.562 85.8479C86.688 85.9739 86.898 86.0999 87.066 86.1419L86.73 85.2599C86.478 85.2599 86.268 85.2599 86.016 85.3019C85.68 85.3439 85.344 85.3859 85.05 85.4279C84.798 85.4699 84.924 85.8059 85.008 85.9319C85.092 86.0579 85.344 86.3519 85.596 86.3099C85.89 86.2679 86.226 86.2259 86.52 86.1839L86.898 86.1419C86.856 86.1419 86.982 86.1419 86.898 86.1419H86.982H87.066C87.318 86.1839 87.318 85.8899 87.276 85.7219C87.192 85.5119 86.982 85.3019 86.73 85.2599C86.772 85.2599 86.856 85.3019 86.772 85.2599C86.688 85.2179 86.898 85.3859 86.814 85.3019L87.024 85.9739L87.822 85.1759C88.032 84.9659 87.78 84.6299 87.612 84.5039C87.192 84.0839 86.562 84.1259 85.974 84.1679C85.596 84.2099 85.218 84.2519 84.882 84.2939C84.756 84.3359 84.714 84.4619 84.756 84.5879L84.924 85.6799C84.966 85.9319 85.134 86.1419 85.386 86.2679C85.47 86.3099 85.596 86.2259 85.596 85.9739Z" fill="#F5F5F5"/>
<path d="M78.078 92.8619L78.162 89.0399L79.296 89.0819L79.212 91.7279L85.47 91.6859V92.7779L78.078 92.8619Z" fill="#F5F5F5"/>
<path d="M78.582 92.9459L78.708 89.1239L78.33 89.1659L79.464 89.2079L78.834 89.0399L78.75 91.7279C78.75 91.8959 79.422 91.8959 79.548 91.8959L85.806 91.8539L85.05 91.6859V92.8199L85.302 92.7359L78.834 92.8199H77.91C77.784 92.8199 77.574 92.8199 77.7 92.9459C77.826 93.0719 78.246 93.0719 78.414 93.0719L84.924 92.9879H85.848C85.89 92.9879 86.1 92.9879 86.1 92.9039V91.7699C86.1 91.6019 85.428 91.6019 85.302 91.6019L79.044 91.6439L79.842 91.8119L79.926 89.1239C79.926 88.9979 79.338 88.9559 79.296 88.9559L78.162 88.9139C78.12 88.9139 77.784 88.8719 77.784 88.9559L77.658 92.7779C77.532 92.9879 78.582 93.0719 78.582 92.9459Z" fill="#F5F5F5"/>
<path d="M94.122 93.5339C93.156 93.5339 92.148 93.3239 91.266 92.9039C90.384 92.4419 89.88 91.7699 89.922 91.0139C89.922 90.4679 90.174 89.9219 90.594 89.5859C91.644 88.7039 93.534 88.8719 93.954 88.9139C95.802 88.7879 97.146 89.7539 97.566 90.8039C97.902 91.5179 97.65 92.3999 97.02 92.8619C96.432 93.3659 95.298 93.5759 94.122 93.5339ZM93.324 90.0059C92.694 90.0059 91.77 90.0479 91.308 90.4259C91.14 90.5519 91.014 90.8039 91.056 91.0139C91.056 91.3919 91.434 91.6859 91.812 91.8539C93.198 92.5679 95.676 92.5259 96.348 91.9799C96.6 91.8119 96.684 91.4759 96.558 91.2239C96.306 90.5519 95.256 89.9219 93.996 90.0059H93.954H93.912C93.702 90.0059 93.492 90.0059 93.324 90.0059Z" fill="#F5F5F5"/>
<path d="M94.542 93.408C93.282 93.366 91.602 93.072 90.762 91.98C90.174 91.14 90.342 89.964 91.182 89.334C91.35 89.208 91.518 89.124 91.686 89.082C92.106 88.998 92.568 88.956 92.988 88.998C93.45 89.04 93.87 88.998 94.332 89.04C95.466 89.124 96.474 89.796 97.02 90.804C97.356 91.434 97.23 92.232 96.768 92.736C96.18 93.408 95.34 93.408 94.542 93.408C94.29 93.408 94.038 93.492 93.828 93.576C93.786 93.576 93.45 93.702 93.66 93.702C94.542 93.744 95.466 93.618 96.306 93.324C97.02 93.198 97.608 92.736 97.986 92.148C98.7 90.72 97.23 89.376 96.012 88.998C95.382 88.83 94.71 88.746 94.08 88.746C93.534 88.704 92.946 88.704 92.4 88.788C91.056 88.998 89.208 89.586 89.334 91.308C89.502 93.198 92.148 93.618 93.618 93.66C93.87 93.66 94.08 93.576 94.332 93.492C94.458 93.492 94.752 93.408 94.542 93.408Z" fill="#F5F5F5"/>
<path d="M93.744 89.88C93.156 89.88 92.568 89.922 91.98 90.09C91.518 90.216 90.888 90.342 90.636 90.762C89.964 91.812 91.812 92.316 92.484 92.442C93.492 92.652 94.5 92.61 95.466 92.4C95.928 92.316 96.348 92.19 96.726 91.938C97.062 91.686 97.146 91.224 96.894 90.93C96.852 90.888 96.852 90.846 96.81 90.804C96.474 90.384 95.97 90.09 95.424 89.964C95.088 89.88 94.794 89.838 94.458 89.88C94.248 89.88 93.996 89.838 93.744 89.88C93.492 89.838 93.24 89.922 93.03 90.006C92.988 90.006 92.652 90.132 92.862 90.132C93.072 90.132 93.24 90.174 93.408 90.174C93.576 90.174 93.828 90.132 94.038 90.174C94.5 90.216 94.92 90.342 95.298 90.594C95.592 90.762 95.844 91.014 96.012 91.35C96.18 91.644 96.012 92.022 95.718 92.19C95.634 92.274 95.844 92.19 95.676 92.19C95.508 92.19 95.382 92.232 95.214 92.232C94.836 92.232 94.416 92.232 94.038 92.19C93.282 92.106 92.4 91.938 91.854 91.434C91.518 91.182 91.476 90.72 91.728 90.384C91.77 90.342 91.812 90.3 91.854 90.258C91.896 90.216 91.98 90.174 92.022 90.174C92.022 90.216 91.854 90.216 91.98 90.174L92.19 90.132C92.442 90.132 92.652 90.132 92.904 90.132C93.156 90.132 93.366 90.048 93.618 89.964C93.66 89.964 93.954 89.88 93.744 89.88Z" fill="#F5F5F5"/>
<path d="M94.542 88.2839L88.83 88.1579L88.998 82.4879L90.09 82.5299L89.964 87.0239L94.542 87.1919V88.2839Z" fill="#F5F5F5"/>
<path d="M94.458 87.822L89.46 87.696L88.746 87.654L89.208 88.326L89.334 83.37L89.376 82.656L88.998 82.95L90.132 82.992L89.67 82.32L89.544 86.856C89.544 87.108 89.712 87.528 90.006 87.528L94.584 87.654L94.122 86.982L94.08 88.116C94.038 88.368 94.206 88.662 94.458 88.788C94.626 88.872 94.794 88.83 94.878 88.662C94.92 88.62 94.92 88.578 94.92 88.536L94.962 87.402C94.962 87.15 94.794 86.73 94.5 86.73L89.922 86.604L90.384 87.276L90.51 82.74C90.51 82.488 90.342 82.068 90.048 82.068L88.914 82.026C88.746 81.984 88.578 82.11 88.536 82.32L88.41 87.276L88.368 87.99C88.368 88.242 88.536 88.662 88.83 88.662L93.828 88.83H94.542C95.172 88.83 94.962 87.822 94.458 87.822Z" fill="#F5F5F5"/>
<path d="M93.4429 82.9397L93.41 84.0732L97.3565 84.1876L97.3893 83.0541L93.4429 82.9397Z" fill="#F5F5F5"/>
<path d="M97.6499 83.874L94.2059 83.79H93.7019L93.9119 83.958L93.9539 82.824L93.1979 83.286L96.6419 83.37H97.1459L96.8939 83.202L96.8519 84.336C96.8519 84.714 97.8179 84.378 97.8179 84.042L97.8599 82.908C97.8599 82.782 97.7339 82.74 97.6499 82.74L94.2059 82.656H93.7019C93.4499 82.656 92.9459 82.824 92.9459 83.118L92.9039 84.252C92.9039 84.378 93.0299 84.42 93.1559 84.42L96.5999 84.504H97.1039C97.3559 84.504 97.6079 84.378 97.7759 84.21C97.9019 84.042 97.8599 83.874 97.6499 83.874Z" fill="#F5F5F5"/>
<path d="M93.575 84.8481L93.5421 85.9817L97.2786 86.09L97.3115 84.9564L93.575 84.8481Z" fill="#F5F5F5"/>
<path d="M97.566 86.016L94.29 85.932H93.828L94.08 85.974L94.122 84.84L93.324 84.966L96.6 85.05H97.062L96.81 85.008L96.768 86.142C96.768 86.226 97.818 86.226 97.818 86.058L97.86 84.924C97.86 84.882 97.608 84.882 97.608 84.882L94.332 84.798H93.87C93.786 84.798 93.072 84.798 93.072 84.924L93.03 86.058C93.03 86.1 93.282 86.1 93.282 86.1L96.558 86.184H97.02C97.272 86.226 97.524 86.184 97.734 86.1C97.944 86.016 97.65 86.016 97.566 86.016Z" fill="#F5F5F5"/>
<path d="M96.8604 81.6947L96.6682 88.328L97.8018 88.3609L97.994 81.7275L96.8604 81.6947Z" fill="#F5F5F5"/>
<path d="M97.3979 88.242L96.2639 88.2L97.1879 88.452L97.3559 82.656L97.3979 81.816L97.3139 81.858L98.4479 81.9L97.5239 81.648L97.3559 87.444L97.3139 88.242C97.3139 88.41 98.3219 88.536 98.3219 88.494L98.4899 82.698L98.5319 81.9C98.5319 81.732 97.6919 81.648 97.6079 81.648L96.4739 81.606C96.4319 81.606 96.4319 81.606 96.3899 81.606L96.2219 87.402L96.1799 88.242C96.1799 88.41 97.0199 88.494 97.1039 88.494L98.2379 88.536C98.4479 88.536 98.1119 88.41 98.0699 88.41C97.8599 88.284 97.6079 88.242 97.3979 88.242Z" fill="#F5F5F5"/>
<path d="M84.168 110.754C84.168 110.754 83.874 106.47 81.228 104.496C81.228 104.496 86.52 97.44 84.966 96.516C83.412 95.592 80.85 97.566 77.322 102.144" fill="#F5F5F5"/>
<path d="M85.134 111.048C84.966 108.444 83.874 105.63 81.732 104.034L82.11 105C83.496 103.236 84.672 101.346 85.638 99.33C86.1 98.322 86.604 96.936 85.554 96.096C84.336 95.13 82.782 95.508 81.606 96.264C79.464 97.608 77.868 99.708 76.314 101.682C76.02 102.06 76.65 102.648 76.944 102.774C77.364 103.026 77.868 102.984 78.204 102.606C79.422 100.926 80.85 99.372 82.488 98.028C82.95 97.65 83.496 97.356 84.084 97.146C84.21 97.104 84.042 97.146 84.252 97.104C84.336 97.104 84.378 97.062 84.462 97.062C84.42 97.062 84.252 97.062 84.42 97.062C84.588 97.062 84.63 97.104 84.504 97.062C84.588 97.104 84.672 97.146 84.462 97.02C84.546 97.062 84.672 97.188 84.42 96.978C84.546 97.062 84.336 96.894 84.336 96.894C84.294 96.81 84.252 96.726 84.252 96.726C84.042 96.684 84.378 96.726 84.252 96.768V96.852C84.252 96.6 84.252 96.936 84.252 96.978C84.252 97.104 84.21 97.188 84.21 97.314C84.084 97.776 83.916 98.238 83.664 98.658C83.076 99.834 82.404 100.926 81.69 102.018C81.228 102.69 80.766 103.362 80.304 103.992C80.094 104.286 80.472 104.79 80.682 104.958C81.774 105.798 82.404 107.058 82.782 108.36C82.95 108.864 83.034 109.368 83.118 109.914C83.16 110.082 83.16 110.25 83.202 110.418C83.244 110.67 83.202 110.292 83.202 110.46C83.286 110.964 83.622 111.384 84.126 111.468C84.42 111.552 85.176 111.552 85.134 111.048Z" fill="#191A23"/>
<path d="M26.7959 101.094C20.4539 85.6379 29.3999 78.4979 36.4139 76.0199C43.4279 73.5419 48.8879 74.9279 51.0719 77.5739C52.6679 79.5059 50.9459 94.1219 50.9459 94.1219L41.6219 108.528C41.6219 108.528 31.6259 112.896 26.7959 101.094Z" fill="#191A23"/>
<path d="M59.64 98.9099C62.58 92.6099 51.408 80.3039 51.408 80.3039C48.678 80.6819 43.638 79.7159 43.638 79.7159C47.586 87.0239 39.186 92.3159 39.186 92.3159C35.91 88.7459 31.5 91.9379 33.18 95.9279C34.86 99.9179 38.934 99.0359 38.934 99.0359C38.934 99.0359 40.32 109.872 41.244 111.342C41.244 111.342 49.476 113.736 51.66 106.428C51.744 106.428 57.666 103.194 59.64 98.9099Z" fill="#F5F5F5"/>
<path d="M60.48 99.498C61.362 97.608 61.026 95.382 60.396 93.45C59.598 91.098 58.506 88.872 57.12 86.814C56.028 85.092 54.81 83.412 53.508 81.816C53.088 81.27 52.626 80.766 52.164 80.22C51.702 79.674 51.408 79.38 50.694 79.464C48.3 79.716 45.78 79.338 43.428 78.876C42.882 78.75 42.63 79.212 42.882 79.716C44.1 81.9 44.1 84.504 42.966 86.688C42.084 88.326 40.908 89.712 39.438 90.846C39.144 91.098 38.808 91.35 38.472 91.56L39.648 91.854C38.43 90.552 36.75 89.586 34.944 89.964C33.558 90.258 32.466 91.308 32.13 92.694C31.374 95.886 34.104 99.288 37.17 99.834C37.968 100.002 38.808 100.002 39.606 99.834L38.136 98.574C38.556 102.186 39.144 105.798 39.942 109.368C40.068 110.124 40.32 110.88 40.74 111.552C41.118 112.098 41.622 112.224 42.252 112.35C43.89 112.686 45.57 112.686 47.208 112.308C49.938 111.678 51.828 109.662 52.626 107.016L52.374 107.268C53.55 106.596 54.684 105.84 55.734 105C57.624 103.53 59.43 101.724 60.48 99.498C60.858 98.784 59.262 97.44 58.842 98.28C57.834 100.338 56.112 102.018 54.306 103.446C53.592 103.992 52.878 104.538 52.122 105C51.828 105.21 51.492 105.336 51.156 105.588C50.82 105.84 50.694 106.512 50.526 106.932C50.316 107.394 50.064 107.814 49.77 108.234C49.266 108.948 48.594 109.536 47.838 109.956C46.494 110.628 45.024 110.964 43.512 110.88C43.176 110.88 42.84 110.838 42.504 110.796L42.294 110.754C42.294 110.754 42.378 110.754 42.21 110.754C42.042 110.754 41.958 110.712 41.832 110.712C41.58 110.67 41.328 110.628 41.076 110.544L41.916 111.174C42.084 111.426 41.958 111.216 41.916 111.09C41.832 110.88 41.958 111.174 41.916 111.048L41.832 110.796C41.706 110.418 41.622 110.04 41.538 109.662C41.286 108.696 41.118 107.688 40.95 106.68C40.614 104.664 40.278 102.648 40.026 100.632L39.9 99.624C39.9 99.582 39.9 99.54 39.9 99.456C39.9 99.33 39.942 99.666 39.9 99.498V99.414C39.816 98.742 39.186 97.986 38.43 98.154H38.346C38.598 98.112 38.304 98.154 38.22 98.154C37.926 98.196 37.59 98.196 37.296 98.154C36.456 98.112 35.658 97.818 35.028 97.314C34.986 97.272 34.944 97.23 34.86 97.146C34.776 97.062 34.734 97.02 34.65 96.936C34.44 96.684 34.272 96.432 34.146 96.138C33.852 95.592 33.726 94.962 33.768 94.332C33.81 93.24 34.482 92.274 35.448 91.812C36.708 91.224 37.926 91.728 38.85 92.694C39.144 93.03 39.606 93.24 40.026 92.988C42.924 91.182 45.444 87.906 45.654 84.42C45.696 82.74 45.318 81.102 44.478 79.632L43.932 80.472C44.94 80.64 45.948 80.808 46.914 80.934C48.552 81.186 50.232 81.228 51.87 81.102L51.03 80.682L51.324 81.018L51.66 81.396C51.87 81.648 51.618 81.312 51.702 81.438L51.996 81.774C52.836 82.782 53.634 83.832 54.432 84.924C56.364 87.612 58.212 90.51 59.052 93.744C59.43 95.214 59.556 96.81 58.926 98.28C58.506 99.036 60.102 100.38 60.48 99.498Z" fill="#191A23"/>
<path d="M51.45 89.1239C53.298 89.7539 55.188 90.0899 57.12 90.1739C63.63 90.5519 64.638 92.6939 62.79 94.1639C60.942 95.6339 52.122 95.6339 52.122 95.6339" fill="#F5F5F5"/>
<path d="M51.24 89.9639C53.13 90.6359 55.104 91.0139 57.078 91.0979C58.422 91.1399 59.724 91.3499 61.026 91.6859C61.236 91.7699 61.488 91.8539 61.698 91.9379L61.95 92.0639C61.95 92.0639 62.118 92.1479 61.992 92.1059C61.866 92.0639 62.076 92.1479 62.118 92.1479C62.244 92.2319 62.37 92.3159 62.496 92.3999C62.202 92.1899 62.706 92.7359 62.538 92.4419C62.58 92.4839 62.58 92.5259 62.622 92.5679C62.706 92.6519 62.58 92.3999 62.622 92.5259C62.664 92.8199 62.664 92.3999 62.664 92.6939C62.664 92.8619 62.706 92.5259 62.664 92.6519C62.664 92.6939 62.622 92.7779 62.622 92.8199C62.58 92.9879 62.664 92.7779 62.622 92.8199C62.58 92.8619 62.58 92.9459 62.538 92.9879C62.496 93.0299 62.454 93.1139 62.412 93.1559C62.328 93.3239 62.454 93.1139 62.412 93.1559C62.328 93.2399 62.202 93.3659 62.076 93.4499C62.034 93.4499 61.866 93.5759 61.992 93.5339C62.118 93.4919 61.908 93.5759 61.908 93.5759C61.74 93.6599 61.572 93.7019 61.404 93.7859C61.068 93.9119 60.732 93.9959 60.396 94.0379C59.934 94.1219 59.472 94.2059 59.01 94.2479C58.002 94.3739 56.994 94.4579 55.986 94.5419C54.642 94.6259 53.256 94.6679 51.912 94.6679C51.492 94.7099 51.156 95.0879 51.198 95.5079C51.198 95.5499 51.198 95.6339 51.24 95.6759C51.408 96.2219 51.954 96.5579 52.5 96.4739C53.76 96.4739 55.02 96.4319 56.28 96.3479C58.296 96.2219 60.438 96.0959 62.412 95.4239C63.714 95.0039 65.058 93.7859 64.596 92.2739C64.008 90.2579 61.152 89.6699 59.388 89.4179C56.826 89.0399 54.138 89.1239 51.744 88.1999C51.282 87.9899 50.778 88.1999 50.568 88.6199C50.568 88.6199 50.568 88.6619 50.526 88.6619C50.4 89.2919 50.736 89.7959 51.24 89.9639Z" fill="#191A23"/>
<path d="M47.502 88.7459C47.964 88.6199 48.468 88.9559 48.552 89.4179C48.552 89.4599 48.552 89.5019 48.552 89.5439C48.636 90.5099 47.418 90.6359 47.082 89.7959C46.872 89.4179 46.998 88.9559 47.376 88.7459C47.418 88.7879 47.46 88.7879 47.502 88.7459Z" fill="#191A23"/>
<path d="M53.55 86.0999C54.012 85.9739 54.516 86.3099 54.6 86.7719C54.6 86.8139 54.6 86.8559 54.6 86.8979C54.684 87.8639 53.466 87.9899 53.13 87.1499C52.92 86.7719 53.046 86.3099 53.424 86.1419C53.466 86.1419 53.508 86.0999 53.55 86.0999Z" fill="#191A23"/>
<path d="M31.122 103.068C31.038 104.202 30.912 105.294 30.618 106.386C30.24 107.898 29.652 109.998 28.056 110.67C27.762 110.796 27.426 110.838 27.132 110.754C27.3 110.796 26.964 110.712 26.922 110.712C26.796 110.67 27.048 110.754 26.922 110.712L26.754 110.67C26.712 110.67 26.544 110.544 26.712 110.67L26.544 110.586L26.376 110.502C26.502 110.586 26.334 110.46 26.292 110.46C25.41 109.872 24.57 109.032 24.402 107.94C24.276 107.142 24.528 106.344 25.116 105.756C25.368 105.504 25.704 105.294 26.04 105.168C26.208 105.126 26.334 105.084 26.502 105.084C26.544 105.084 26.628 105.084 26.67 105.084H26.796C26.964 105.084 26.628 105.084 26.838 105.084C26.88 105.084 26.922 105.084 26.964 105.126C26.922 105.126 26.754 105.042 26.922 105.126C27.048 105.21 26.712 105.042 26.964 105.168C26.754 105.126 26.796 105.084 26.88 105.126C26.754 105.042 26.796 105.042 26.838 105.084C27.006 105.21 26.838 105.042 27.006 105.252C27.258 105.63 27.468 106.092 27.552 106.554C27.804 108.108 27.72 109.704 27.258 111.216C26.838 112.728 26.166 114.156 25.242 115.458C24.57 116.55 23.646 117.432 22.554 118.104C22.344 118.23 22.134 118.314 21.882 118.398C21.798 118.44 21.714 118.44 21.63 118.44C21.546 118.44 21.294 118.482 21.378 118.482C21.294 118.482 21.168 118.482 21.084 118.482C21.168 118.482 21.21 118.524 21.126 118.482C21.336 118.65 21.252 118.524 21.168 118.524C21.462 118.734 21.21 118.566 21.21 118.566C21.21 118.65 21.336 118.65 21.21 118.566C21.084 118.482 21.252 118.65 21.126 118.482C20.622 117.852 20.37 117.012 20.496 116.214C20.664 114.87 21.756 113.736 22.89 113.106C23.478 112.77 24.108 112.56 24.78 112.476H24.99C24.822 112.476 25.032 112.476 25.074 112.476H25.284C25.326 112.476 25.368 112.476 25.41 112.476C25.536 112.476 25.2 112.434 25.368 112.476L25.578 112.518C25.368 112.434 25.704 112.56 25.578 112.518C25.578 112.518 25.326 112.392 25.536 112.518C25.284 112.35 25.746 112.644 25.536 112.518C25.704 112.644 25.452 112.35 25.578 112.56C25.62 112.602 25.662 112.686 25.704 112.728C25.578 112.56 25.746 112.812 25.746 112.854C25.872 113.148 25.956 113.484 25.998 113.778C26.04 114.87 25.872 115.962 25.452 117.012C25.2 117.768 24.906 118.482 24.528 119.196C24.234 119.784 26.124 120.75 26.376 120.204C27.09 118.776 27.594 117.222 27.846 115.668C28.014 114.702 27.804 113.736 27.3 112.938C26.25 111.384 24.108 110.88 22.386 111.426C20.832 111.888 19.32 113.022 18.774 114.576C18.102 116.676 19.278 118.902 21.336 119.574C21.588 119.658 21.798 119.7 22.05 119.742C23.31 119.868 24.444 119.154 25.284 118.356C26.46 117.222 27.426 115.878 28.14 114.366C28.938 112.728 29.358 110.964 29.442 109.2C29.484 107.73 29.274 106.134 28.182 105.042C26.628 103.488 23.772 103.32 22.68 105.462C21.336 108.15 24.528 110.838 26.712 111.762C27.72 112.182 28.938 112.35 29.946 111.762C30.744 111.216 31.374 110.418 31.71 109.494C32.382 107.814 32.76 106.05 32.886 104.286L32.928 103.95C33.054 103.194 31.122 102.354 31.122 103.068Z" fill="#191A23"/>
<path d="M44.604 94.794C44.478 95.046 44.394 95.382 44.436 95.676C44.478 96.012 44.562 96.306 44.688 96.6C44.772 96.768 44.856 96.894 44.982 97.02C45.108 97.188 45.276 97.356 45.444 97.482C45.654 97.65 45.864 97.734 46.116 97.818C46.284 97.86 46.41 97.86 46.578 97.86C46.746 97.818 46.914 97.776 47.082 97.692C47.208 97.608 47.292 97.482 47.292 97.314C47.292 97.104 47.292 96.936 47.166 96.768C47.082 96.6 46.956 96.432 46.788 96.348C46.662 96.264 46.494 96.222 46.368 96.306C46.284 96.348 46.2 96.39 46.116 96.39L46.242 96.348C46.116 96.39 45.99 96.39 45.864 96.348H45.99C45.864 96.348 45.78 96.306 45.654 96.264L45.78 96.348C45.696 96.306 45.612 96.264 45.528 96.18L45.654 96.306C45.57 96.264 45.528 96.18 45.444 96.138L45.57 96.306C45.528 96.222 45.444 96.18 45.402 96.096L45.486 96.264C45.444 96.18 45.402 96.138 45.402 96.054L45.486 96.264C45.444 96.18 45.444 96.096 45.402 96.054L45.444 96.222C45.444 96.138 45.444 96.096 45.402 96.012V96.18C45.402 96.096 45.402 96.012 45.444 95.928L45.402 96.096C45.402 96.012 45.444 95.928 45.486 95.844C45.528 95.676 45.528 95.508 45.486 95.34C45.444 95.13 45.318 94.962 45.192 94.836C45.066 94.71 44.94 94.626 44.772 94.626L44.646 94.668C44.688 94.626 44.646 94.668 44.604 94.794Z" fill="#191A23"/>
<path d="M41.328 165.438C43.26 158.088 44.814 150.654 45.948 143.136C46.032 142.716 44.478 142.758 44.394 143.304C43.26 150.738 41.748 158.13 39.816 165.396C39.69 165.942 41.244 165.9 41.328 165.438Z" fill="#191A23"/>
<path d="M62.202 123.396C65.016 131.334 67.116 139.524 68.46 147.84C68.838 150.192 69.174 152.544 69.426 154.896C69.468 155.442 69.888 155.862 70.434 155.904C70.854 155.946 71.568 155.652 71.484 155.106C70.518 146.622 68.838 138.222 66.402 130.032C65.73 127.722 64.974 125.412 64.176 123.102C64.008 122.556 63.462 122.262 62.916 122.304C62.454 122.346 62.118 122.724 62.118 123.186C62.16 123.27 62.16 123.312 62.202 123.396Z" fill="#191A23"/>
<path d="M175.686 107.898C175.686 107.898 200.256 126.21 196.98 152.544C193.704 178.878 159.936 148.68 159.936 148.68L157.836 119.616L175.686 107.898Z" fill="#F5F5F5"/>
<path d="M174.678 107.73C177.198 109.662 179.508 111.846 181.65 114.198C186.438 119.364 190.47 125.328 193.116 131.838C194.712 135.702 195.678 139.776 196.098 143.934C196.308 146.16 196.308 148.386 196.14 150.612C196.014 152.46 195.72 154.308 195.174 156.072C194.46 158.382 193.158 160.608 191.058 161.868C189.168 162.96 186.9 163.17 184.842 162.918L184.59 162.876C184.506 162.876 184.086 162.792 184.296 162.834L183.918 162.75L183.666 162.708C183.96 162.75 183.582 162.708 183.54 162.666L183.33 162.624L182.868 162.498C182.826 162.498 182.406 162.372 182.574 162.414L182.07 162.246C180.852 161.826 179.634 161.364 178.458 160.818C175.938 159.642 173.544 158.256 171.234 156.702C167.832 154.518 164.598 152.082 161.532 149.478C161.28 149.31 161.07 149.142 160.902 148.89C160.902 148.932 160.902 148.89 160.902 148.806C160.902 148.596 160.86 148.428 160.86 148.218L160.44 142.212L159.138 124.362L158.928 121.38L158.844 120.456C158.802 120.288 158.802 120.12 158.802 119.952C158.844 119.742 159.18 119.616 159.39 119.49L161.784 117.936L175.686 108.822L176.694 108.15C176.358 107.982 176.064 107.856 175.728 107.772C175.476 107.73 174.93 107.52 174.678 107.646L162.876 115.374L157.206 119.112C156.954 119.28 156.828 119.28 156.828 119.574C156.828 120.162 156.912 120.75 156.954 121.296L158.172 138.264L158.718 146.034L158.886 148.092C158.886 148.302 158.886 148.428 159.012 148.554C159.264 148.806 159.558 149.058 159.852 149.268C160.398 149.772 160.986 150.234 161.574 150.696C163.296 152.082 165.06 153.426 166.908 154.686C171.528 157.92 176.484 160.902 181.902 162.54C186.396 163.884 192.024 164.598 195.258 160.44C197.19 157.962 197.82 154.644 198.114 151.578C198.534 147.168 198.198 142.716 197.148 138.432C195.342 130.956 191.52 124.11 186.732 118.146C183.918 114.618 180.726 111.384 177.24 108.528C177.072 108.402 176.904 108.234 176.694 108.108C176.316 107.898 175.896 107.73 175.476 107.688C175.35 107.688 174.594 107.646 174.678 107.73Z" fill="#191A23"/>
<path d="M155.442 108.864C162.078 111.174 164.85 108.528 165.942 112.854C165.942 112.854 176.148 116.256 175.644 107.94C175.56 106.638 169.764 92.904 164.472 89.67C164.472 89.67 158.55 88.032 158.676 82.698C158.676 82.698 155.61 87.612 151.536 88.116C147.462 88.62 139.356 88.452 139.104 92.61C138.852 96.768 144.522 97.356 147.924 96.138L149.436 102.018C153.384 102.312 154.266 97.986 154.266 97.986C154.266 97.986 157.416 101.262 156.912 103.068C156.408 104.874 152.628 106.05 152.628 106.05C153.09 107.352 154.098 108.402 155.442 108.864Z" fill="#F5F5F5"/>
<path d="M154.644 109.452C156.156 109.956 157.752 110.334 159.348 110.502C160.398 110.628 161.448 110.628 162.498 110.754C163.254 110.838 163.968 111.216 164.472 111.804C164.724 112.182 164.934 112.644 165.06 113.106C165.144 113.358 165.144 113.358 165.312 113.442C165.69 113.61 166.11 113.694 166.53 113.778C167.244 113.946 167.958 114.03 168.672 114.072C170.52 114.24 172.368 113.82 173.964 112.812C174.846 112.266 175.602 111.51 176.064 110.586C176.526 109.578 176.694 108.444 176.61 107.352C176.526 106.89 176.442 106.47 176.232 106.05C175.938 105.21 175.602 104.412 175.224 103.614C174.216 101.346 173.124 99.162 171.906 97.02C170.688 94.794 169.176 92.694 167.454 90.804C166.866 90.174 166.152 89.376 165.312 89.04C164.892 88.872 164.472 88.746 164.052 88.536C162.204 87.654 160.524 86.184 159.894 84.168C159.684 83.496 159.6 82.824 159.6 82.152C159.6 81.774 158.046 82.866 157.92 83.076C157.038 84.546 155.82 85.806 154.392 86.772C153.384 87.36 152.166 87.528 150.99 87.654C149.73 87.78 148.428 87.864 147.168 87.99C144.522 88.284 141.834 88.83 139.734 90.552C138.894 91.182 138.348 92.106 138.264 93.156C138.18 94.29 138.642 95.382 139.524 96.096C141.624 97.776 145.026 97.524 147.42 96.684L147.084 96.726L148.596 102.606L148.68 102.648C151.62 102.816 154.602 100.38 155.19 97.482L153.426 98.574C153.888 99.036 154.308 99.54 154.686 100.086C155.316 100.926 156.03 101.934 156.156 102.984C156.198 103.404 156.072 103.824 155.778 104.16C155.568 104.412 155.316 104.58 155.022 104.706C154.434 105 153.846 105.252 153.216 105.462C152.838 105.588 152.502 105.798 152.25 106.05C152.124 106.134 151.788 106.386 151.83 106.596C152.124 107.982 153.384 109.032 154.644 109.452C154.98 109.62 155.61 109.074 155.82 108.906C155.904 108.822 156.534 108.36 156.282 108.276C154.98 107.814 153.972 106.764 153.552 105.42L152.166 106.554C153.93 106.008 155.526 105.126 156.912 103.908C157.584 103.278 158.088 102.522 157.878 101.556C157.626 100.632 157.164 99.75 156.534 98.994C156.114 98.448 155.694 97.902 155.232 97.398C154.938 97.104 153.552 98.196 153.468 98.49C153.384 98.952 153.216 99.414 153.006 99.834C152.838 100.212 152.586 100.59 152.292 100.926C152.208 101.01 152.166 101.094 152.082 101.136L152.04 101.178C151.998 101.22 152.208 101.136 152.04 101.178C152.04 101.178 151.872 101.262 151.83 101.262C151.578 101.346 150.57 101.598 150.402 101.388C150.276 101.262 150.234 100.8 150.192 100.632L149.436 97.692L148.89 95.55C148.89 95.466 148.554 95.592 148.554 95.592C146.496 96.306 143.64 96.39 141.708 95.172C140.784 94.626 140.154 93.618 140.07 92.526C140.028 92.022 140.112 91.476 140.322 91.014C140.406 90.846 140.49 90.678 140.616 90.552C140.616 90.51 140.784 90.384 140.7 90.468L140.826 90.342C140.7 90.468 140.91 90.258 140.826 90.342C140.742 90.426 140.868 90.342 140.826 90.342C140.784 90.342 140.784 90.342 140.868 90.3C140.784 90.342 141.036 90.216 141.078 90.174C141.288 90.09 141.54 90.006 141.75 89.922C142.296 89.754 142.842 89.586 143.43 89.502C144.69 89.25 145.95 89.124 147.252 88.998C148.428 88.914 149.604 88.83 150.738 88.662C152.208 88.41 153.636 87.822 154.812 86.94C156.66 85.68 158.256 84.084 159.474 82.194L157.794 83.118C157.752 85.428 158.928 87.57 160.818 88.83C161.49 89.292 162.162 89.67 162.918 89.964C163.296 90.09 163.674 90.258 164.01 90.468C165.816 91.77 167.244 93.702 168.462 95.55C169.89 97.692 171.15 99.918 172.242 102.228C173.082 103.908 173.838 105.63 174.468 107.436C174.972 108.906 174.846 110.502 174.048 111.846C173.964 111.972 173.88 112.098 173.754 112.224C173.754 112.266 173.544 112.476 173.628 112.35C173.586 112.392 173.544 112.392 173.502 112.434C173.544 112.392 173.586 112.35 173.502 112.434C173.586 112.392 173.628 112.35 173.586 112.392C173.418 112.476 173.754 112.35 173.502 112.434L173.376 112.476L173.082 112.56C172.368 112.77 171.612 112.854 170.814 112.812C169.554 112.77 168.294 112.602 167.076 112.224C166.95 112.224 166.824 112.182 166.698 112.14C166.614 112.056 166.53 111.552 166.446 111.342C166.194 110.586 165.606 109.998 164.892 109.704C164.052 109.452 163.212 109.284 162.33 109.284C161.07 109.2 159.81 109.074 158.55 108.822C157.71 108.654 156.912 108.402 156.114 108.15C155.778 108.066 155.19 108.57 154.938 108.738C154.98 108.906 154.392 109.368 154.644 109.452Z" fill="#191A23"/>
<path d="M176.82 101.64C176.82 101.64 182.364 103.488 183.456 100.506C184.548 97.5239 180.894 98.0279 180.894 98.0279C180.894 98.0279 185.472 92.0639 179.802 90.5519C179.802 90.5519 184.884 86.1419 181.398 81.4799C177.912 76.8179 170.226 79.2119 170.226 79.2119C170.226 79.2119 170.856 72.4499 164.934 72.9119C159.012 73.3739 160.188 77.5739 160.188 77.5739C160.188 77.5739 156.408 77.8259 156.156 80.1779C155.904 82.5299 158.676 83.6219 158.676 83.6219C158.676 83.6219 159.306 90.3419 164.472 89.7119L168.882 98.4059C168.882 98.4059 166.95 101.346 168.63 104.622C170.352 107.856 176.82 105.966 176.82 101.64Z" fill="#191A23"/>
<path d="M176.022 102.27C177.702 102.816 179.676 103.11 181.398 102.606C182.7 102.228 184.002 101.304 184.422 99.9599C184.758 98.9519 184.632 97.9019 183.54 97.4819C182.826 97.2299 182.112 97.1879 181.398 97.3139L181.734 97.8179C182.532 96.8099 183.078 95.6339 183.414 94.4159C183.666 93.5339 183.624 92.6099 183.288 91.7699C182.784 90.7199 181.692 90.1319 180.6 89.8379L180.264 90.6779C182.532 88.6619 184.296 85.3859 183.12 82.3619C181.608 78.4559 177.24 77.5319 173.544 77.9099C172.494 77.9939 171.486 78.2039 170.478 78.4979L171.15 78.6659C171.318 76.7339 170.814 74.3819 169.26 73.1219C167.706 71.8619 165.564 71.9459 163.758 72.4499C162.036 72.9119 160.188 73.9199 159.474 75.6419C159.18 76.3979 159.096 77.2379 159.306 78.0359L160.818 76.7759C158.886 76.9019 156.534 77.6999 155.568 79.5059C154.518 81.4379 156.114 83.4119 157.878 84.1259L157.752 83.9159C157.878 85.1339 158.214 86.3099 158.802 87.4019C159.222 88.2839 159.852 88.9979 160.65 89.5439C161.658 90.1739 162.834 90.3839 164.01 90.2159L163.59 90.1319L167.412 97.7339L167.958 98.8259L168.042 98.4059C167.496 99.3299 167.118 100.338 167.034 101.388C166.866 102.9 167.202 104.916 168.462 105.924C170.52 107.646 173.754 106.554 175.602 105.042C176.862 104.076 177.618 102.648 177.702 101.052C177.702 100.464 175.896 101.304 175.896 101.976C175.896 102.942 175.518 103.866 174.846 104.538C174.594 104.79 174.3 104.958 174.006 105.084C173.922 105.126 173.964 105.084 174.006 105.084L173.796 105.168L173.502 105.252C173.292 105.336 173.04 105.378 172.83 105.378C171.99 105.504 171.108 105.336 170.394 104.832C169.344 104.076 168.924 102.564 168.882 101.304C168.84 100.212 169.134 99.0779 169.638 98.1119C169.554 98.2379 169.68 98.0699 169.638 98.1119L169.68 98.0699C169.764 97.9439 169.806 97.7759 169.764 97.6079C169.722 97.4819 169.68 97.3559 169.596 97.2719L167.328 92.8199L165.354 88.9559C165.27 88.8299 165.018 88.8719 164.934 88.8719C161.616 89.2499 159.852 85.8059 159.6 82.9919C159.6 82.9079 159.558 82.8239 159.474 82.8239C158.172 82.2779 156.744 80.8919 157.122 79.3799C157.164 79.2119 157.248 79.0439 157.374 78.8759C157.332 78.9179 157.5 78.7499 157.5 78.7499C157.416 78.7919 157.458 78.7919 157.542 78.7499C157.458 78.7919 157.458 78.7919 157.5 78.7499C157.71 78.5819 157.5 78.7499 157.626 78.6659C157.71 78.6239 157.794 78.5819 157.878 78.5399C157.71 78.5819 158.004 78.4979 158.004 78.4979L158.34 78.3719C158.634 78.2879 158.928 78.2459 159.222 78.1619L159.558 78.1199C159.474 78.1199 159.768 78.0779 159.558 78.1199C160.062 78.0779 161.28 77.5319 161.07 76.8599C161.112 77.1119 161.07 76.8599 161.07 76.8179C161.07 76.6919 161.028 76.5659 161.028 76.4399C160.986 76.1039 161.028 75.7259 161.07 75.3899C161.112 75.1799 161.196 74.9279 161.322 74.7179C161.406 74.5499 161.49 74.3819 161.658 74.2139L161.7 74.1719C161.742 74.1299 161.952 73.9619 161.742 74.1299L161.91 74.0039C162.204 73.8359 161.7 74.0879 162.036 73.9619C162.372 73.7939 162.708 73.6679 163.086 73.5839C164.598 73.2479 166.446 73.2059 167.664 74.3399C168.462 75.1379 169.008 76.1879 169.176 77.3639C169.302 78.0779 169.344 78.7919 169.302 79.5059C169.26 79.8419 169.848 79.6739 169.974 79.6739C170.1 79.6739 170.268 79.5899 169.932 79.6739L170.394 79.5479C170.898 79.4219 171.402 79.3379 171.948 79.2539C173.418 79.0439 174.93 79.0859 176.4 79.3799C178.164 79.7579 179.76 80.8079 180.768 82.3199C181.818 83.9579 181.944 86.0159 181.062 87.7799C180.894 88.1579 180.684 88.4939 180.432 88.8299C180.306 88.9979 180.222 89.1659 180.096 89.2919C179.97 89.4179 179.97 89.4599 179.844 89.5859C179.718 89.7119 179.508 89.9639 179.34 90.1319C179.298 90.1739 179.214 90.2159 179.172 90.2999C179.13 90.3839 179.382 90.0899 179.256 90.2159C179.13 90.3419 178.5 90.9299 178.92 91.0559C179.928 91.3499 180.936 91.8119 181.398 92.8199C181.692 93.5339 181.692 94.3739 181.482 95.0879C181.188 96.1379 180.684 97.1459 180.012 98.0279C179.76 98.3639 179.97 98.5739 180.348 98.5319C180.39 98.5319 180.558 98.5319 180.306 98.5319H180.6C180.894 98.5319 181.146 98.5319 181.44 98.5739C182.154 98.6999 182.7 99.1619 182.658 99.9179C182.616 100.338 182.49 100.758 182.238 101.136C182.238 101.178 182.112 101.304 182.238 101.178C182.196 101.22 182.112 101.22 182.196 101.22C182.28 101.22 182.196 101.22 182.154 101.262C182.196 101.22 182.322 101.178 182.154 101.262C181.986 101.346 182.196 101.262 182.028 101.304C181.944 101.346 181.86 101.346 181.776 101.388C180.894 101.556 179.97 101.514 179.088 101.346C178.542 101.262 177.996 101.136 177.492 100.968C177.072 100.842 176.568 101.178 176.232 101.43C176.232 101.556 175.644 102.144 176.022 102.27Z" fill="#191A23"/>
<path d="M163.59 90.888C163.59 90.888 164.682 86.352 167.916 87.486C171.15 88.62 171.738 98.994 165.9 98.322" fill="#F5F5F5"/>
<path d="M164.64 90.972C164.85 90.048 165.312 89.166 165.942 88.41C166.152 88.158 166.404 87.948 166.698 87.78C166.824 87.738 166.908 87.654 167.034 87.612L167.202 87.57C167.118 87.57 167.16 87.57 167.244 87.57H167.118C167.076 87.57 167.118 87.57 167.202 87.612C167.118 87.57 167.286 87.654 167.286 87.654C167.16 87.612 167.412 87.738 167.454 87.738C167.664 87.864 167.832 88.074 167.958 88.242C168.672 89.292 169.092 90.51 169.176 91.77C169.344 93.156 169.176 94.584 168.63 95.886C168.378 96.516 167.958 97.062 167.412 97.482C167.16 97.65 166.908 97.776 166.614 97.86C166.488 97.902 166.362 97.902 166.236 97.944C165.942 97.986 166.404 97.944 166.11 97.944C165.984 97.944 165.984 97.944 166.11 97.944L165.9 97.902C165.69 97.902 164.85 97.818 164.808 98.112C164.766 98.406 165.69 98.49 165.816 98.532C167.538 98.7 169.302 98.364 170.31 96.852C171.108 95.466 171.444 93.912 171.276 92.316C171.192 90.888 170.814 89.292 169.89 88.158C169.428 87.612 168.798 87.234 168.084 87.066C166.992 86.772 165.648 86.73 164.64 87.318C163.506 87.99 162.792 89.376 162.498 90.636C162.456 91.14 164.514 91.476 164.64 90.972Z" fill="#191A23"/>
<path d="M156.408 89.6279C155.988 89.7119 155.736 90.1319 155.82 90.5519C155.82 90.5939 155.82 90.6359 155.862 90.6779C156.156 91.4759 157.122 91.0979 157.08 90.3419C157.122 90.0059 156.828 89.6699 156.492 89.6699C156.45 89.6279 156.408 89.6279 156.408 89.6279Z" fill="#191A23"/>
<path d="M136.92 106.68L140.07 105.672L151.158 114.156L167.202 107.73L171.066 109.662L152.502 114.618L149.772 114.744L136.92 106.68Z" fill="#F5F5F5"/>
<path d="M137.256 106.848L140.406 105.84L139.104 105.966L149.772 114.156C149.898 114.282 150.024 114.366 150.15 114.45C150.654 114.66 151.368 114.366 151.872 114.198C152.586 113.904 153.3 113.61 154.014 113.316L161.994 110.124L167.706 107.814L166.152 108.024L170.016 109.956L170.646 109.494L164.388 111.174L154.392 113.862L152.082 114.492L153.09 114.324L151.2 114.408C150.906 114.366 150.654 114.408 150.36 114.45C150.192 114.492 150.612 114.534 150.57 114.492C150.528 114.45 150.486 114.45 150.486 114.45C150.234 114.24 149.94 114.072 149.646 113.904L148.134 112.938L139.902 107.772L137.76 106.428C137.466 106.218 136.794 106.47 136.458 106.554C136.374 106.596 135.576 106.848 135.828 107.016L141.918 110.838L146.286 113.568L147.84 114.534C148.092 114.702 148.344 114.87 148.638 115.038C149.016 115.206 149.604 115.08 150.024 115.08C150.864 115.122 151.746 115.038 152.586 114.87C153.216 114.702 153.846 114.534 154.476 114.366L163.968 111.804C166.362 111.174 168.756 110.544 171.15 109.872L171.276 109.83C171.318 109.83 172.2 109.494 171.906 109.368L169.974 108.402C169.344 108.024 168.714 107.73 168.042 107.436C167.412 107.226 166.698 107.562 166.068 107.814L164.472 108.444L153.552 112.854L150.444 114.114L151.998 113.904L146.538 109.704L142.716 106.764L141.456 105.798C141.288 105.63 141.12 105.504 140.91 105.378C140.28 105.084 139.062 105.672 138.432 105.882L136.458 106.512C136.29 106.554 135.618 106.722 135.828 106.974C136.038 107.226 137.088 106.932 137.256 106.848Z" fill="#B9FF66"/>
<path d="M149.772 114.744L136.92 106.68L136.416 138.264C136.416 138.264 150.066 145.698 149.772 143.682C149.478 141.666 149.772 114.744 149.772 114.744Z" fill="#B9FF66"/>
<path d="M150.15 113.988L138.936 106.932L137.34 105.924C136.752 105.546 136.08 105.714 136.038 106.512L135.87 117.264L135.618 134.232L135.576 138.096C135.576 138.558 135.996 138.936 136.374 139.104C138.852 140.448 141.372 141.75 143.934 142.926C145.488 143.682 147.084 144.312 148.722 144.816C149.226 144.984 149.772 144.984 150.276 144.858C150.78 144.648 150.822 144.102 150.78 143.598C150.696 142.59 150.696 141.54 150.696 140.532C150.696 138.768 150.654 137.004 150.654 135.24C150.654 130.998 150.654 126.798 150.696 122.556C150.696 120.876 150.738 119.196 150.738 117.558C150.738 116.718 150.78 115.836 150.78 114.996C150.78 114.954 150.78 114.912 150.78 114.87C150.78 113.82 148.932 113.232 148.932 114.576C148.932 116.592 148.89 118.608 148.89 120.624C148.848 124.698 148.848 128.73 148.806 132.804C148.806 135.996 148.764 139.23 148.89 142.464C148.89 142.8 148.89 143.094 148.932 143.43C148.974 143.598 148.932 143.514 148.932 143.388C148.974 143.262 149.058 143.136 149.184 143.052C148.974 143.136 149.352 143.01 149.184 143.052C149.142 143.052 149.1 143.052 149.058 143.052C148.89 143.052 149.268 143.094 149.1 143.052C148.89 143.01 148.638 142.968 148.386 142.926C148.134 142.884 148.386 142.926 148.344 142.926L148.134 142.842L147.588 142.674C146.79 142.38 146.034 142.044 145.236 141.708C142.338 140.448 139.566 138.936 136.794 137.508L136.626 137.424L137.424 138.432L137.592 127.68L137.844 110.712L137.886 106.848L136.584 107.436L147.798 114.492L149.394 115.5C149.772 115.752 150.36 115.836 150.612 115.374C150.78 114.828 150.57 114.282 150.15 113.988Z" fill="#B9FF66"/>
<path d="M171.066 109.662C171.066 109.662 152.544 114.03 152.544 114.66V143.388L172.326 138.726L171.066 109.662Z" fill="#B9FF66"/>
<path d="M171.318 109.452C168.336 110.166 165.354 110.88 162.414 111.636C160.23 112.182 158.046 112.728 155.862 113.358C154.98 113.61 154.098 113.862 153.258 114.156C152.712 114.282 152.166 114.492 151.704 114.786C151.536 114.912 151.536 114.996 151.536 115.206V142.464C151.494 142.8 151.494 143.178 151.536 143.514C151.536 143.556 151.536 143.598 151.536 143.64C151.536 143.724 152.292 143.556 152.292 143.556L158.97 142.002L169.596 139.482L172.032 138.894C172.116 138.894 173.292 138.642 173.292 138.432L172.872 128.604L172.2 112.98L172.032 109.41C172.032 109.41 169.974 109.662 170.016 109.956L170.436 119.784L171.108 135.408L171.276 138.978L172.536 138.558L165.858 140.154L155.232 142.674L152.796 143.262L153.552 143.178V117.348C153.552 116.424 153.468 115.458 153.552 114.534C153.552 114.492 153.552 114.408 153.552 114.408C153.552 114.408 153.72 114.324 153.594 114.366C153.72 114.282 153.804 114.282 153.72 114.324L154.014 114.198H154.056L154.266 114.114L154.476 114.03C154.644 113.988 154.266 114.072 154.518 114.03L155.064 113.862L155.61 113.694L155.904 113.61H155.862L156.072 113.568L157.5 113.19C158.55 112.896 159.6 112.644 160.65 112.35C161.784 112.056 162.582 111.846 163.758 111.552L166.824 110.796L170.562 109.914L170.73 109.872C170.982 109.83 171.234 109.746 171.528 109.662C171.57 109.662 171.948 109.536 171.99 109.494C172.032 109.452 171.36 109.452 171.318 109.452Z" fill="#B9FF66"/>
<path d="M149.772 114.744C149.772 114.744 151.41 113.526 152.502 114.66V143.388C152.502 143.388 150.78 144.312 149.772 143.682V114.744Z" fill="#F5F5F5"/>
<path d="M150.444 115.08C150.318 115.122 150.612 114.954 150.444 115.08C150.528 115.038 150.57 114.996 150.654 114.996L150.78 114.954C150.696 114.996 150.696 114.996 150.78 114.954C150.864 114.912 150.99 114.87 151.116 114.87C151.326 114.912 151.494 114.996 151.62 115.164L151.536 114.87V143.598L152.082 142.968L151.872 143.052C152.04 142.968 151.956 143.01 151.83 143.052C151.704 143.094 151.62 143.136 151.494 143.178C151.158 143.304 150.822 143.262 150.528 143.136L150.78 143.556V114.618C150.78 113.694 148.764 114.198 148.764 114.954V143.892C148.764 144.06 148.848 144.228 149.016 144.312C150.234 144.942 151.83 144.48 152.964 143.892C153.174 143.766 153.51 143.514 153.51 143.262V116.172C153.51 115.626 153.51 115.122 153.51 114.576C153.468 113.82 152.334 113.568 151.746 113.526C150.78 113.526 149.856 113.862 149.058 114.45C148.722 114.702 148.554 115.122 148.974 115.374C149.394 115.626 150.108 115.332 150.444 115.08Z" fill="#B9FF66"/>
<path d="M159.936 148.722C159.936 148.722 152.796 143.052 150.066 136.122C147.336 129.192 150.696 129.402 150.696 129.402C150.696 129.402 148.47 125.706 149.772 123.27C151.074 120.834 154.098 124.572 158.004 132.384C158.004 132.384 154.728 124.446 156.324 121.632C157.71 119.196 159.684 122.094 160.398 125.37C161.112 128.646 162.918 133.728 162.918 133.728C162.918 133.728 164.01 130.62 163.884 127.932C163.674 123.27 168.714 122.472 169.344 128.142C170.184 135.408 170.352 138.6 170.352 138.6C170.688 140.28 171.108 141.918 171.612 143.556C172.242 145.53 164.598 150.486 159.936 148.722Z" fill="#F5F5F5"/>
<path d="M160.356 148.05C158.088 146.244 156.072 144.144 154.266 141.834C152.754 139.944 151.536 137.802 150.654 135.534C150.234 134.526 149.982 133.476 149.856 132.384C149.856 132.174 149.856 132.006 149.856 131.796C149.856 131.712 149.856 131.628 149.856 131.544C149.856 131.292 149.814 131.712 149.856 131.46C149.856 131.334 149.898 131.25 149.94 131.124C149.94 131.082 149.982 130.998 149.982 130.956C150.024 130.83 149.898 131.082 150.024 130.914C150.066 130.83 150.15 130.704 150.234 130.62C150.108 130.746 150.318 130.536 150.234 130.62C150.276 130.578 150.276 130.578 150.318 130.536L150.528 130.368C150.654 130.284 150.318 130.452 150.486 130.41C150.528 130.41 150.57 130.368 150.612 130.368C150.654 130.368 150.738 130.326 150.78 130.326C150.948 130.284 150.822 130.326 150.738 130.326C150.78 130.326 150.822 130.326 150.864 130.326C151.704 130.368 151.536 129.36 151.284 128.898C151.578 129.36 151.368 129.024 151.284 128.94C151.2 128.73 151.074 128.562 150.99 128.352C150.738 127.806 150.528 127.218 150.36 126.63C150.15 125.958 150.15 125.286 150.234 124.572C150.276 124.278 150.402 124.026 150.528 123.774C150.57 123.69 150.612 123.648 150.654 123.564C150.78 123.396 150.57 123.606 150.738 123.48L150.906 123.396C150.696 123.522 150.906 123.396 150.948 123.396C150.99 123.396 150.948 123.396 150.864 123.396H151.074C151.242 123.396 150.906 123.354 151.032 123.396L151.242 123.48C151.032 123.396 151.2 123.48 151.284 123.522C151.368 123.564 151.452 123.606 151.494 123.69C151.284 123.522 151.578 123.774 151.662 123.816C151.83 123.984 151.998 124.152 152.166 124.32C152.208 124.362 152.292 124.488 152.166 124.32L152.292 124.488C152.418 124.614 152.502 124.74 152.628 124.866C153.09 125.454 153.51 126.042 153.888 126.63C155.106 128.52 156.156 130.494 157.164 132.51C157.374 132.93 157.836 133.392 158.382 133.224C158.928 133.056 158.886 132.468 158.718 132.048C158.34 131.166 158.046 130.284 157.752 129.36C157.164 127.68 156.828 125.916 156.702 124.152C156.66 123.48 156.786 122.808 157.038 122.22C157.164 122.01 157.29 121.842 157.458 121.674C157.458 121.674 157.71 121.548 157.626 121.59C157.878 121.506 157.584 121.632 157.71 121.59C157.794 121.548 157.626 121.548 157.794 121.59C157.626 121.548 157.878 121.632 157.92 121.674C157.794 121.548 158.046 121.8 158.046 121.8C158.13 121.884 158.214 121.968 158.256 122.052C158.97 123.06 159.306 124.278 159.6 125.454C159.852 126.546 160.146 127.596 160.482 128.646C160.986 130.368 161.574 132.09 162.162 133.77C162.372 134.4 163.506 134.904 163.8 134.064C164.346 132.51 164.64 130.914 164.766 129.276C164.808 128.394 164.682 127.512 164.934 126.672C165.06 126.126 165.354 125.664 165.774 125.286C165.858 125.202 165.942 125.16 166.068 125.076C166.194 124.992 165.9 125.118 166.11 125.076L166.236 125.034C166.278 125.034 166.614 124.95 166.446 124.992C166.572 124.992 166.74 124.992 166.866 124.992C166.698 124.992 167.034 125.034 167.076 125.034C167.118 125.034 167.244 125.076 167.076 125.034C167.16 125.076 167.202 125.118 167.286 125.16C167.328 125.202 167.37 125.202 167.412 125.244C167.244 125.118 167.412 125.244 167.454 125.286C167.496 125.328 167.58 125.37 167.622 125.454C167.454 125.286 167.664 125.496 167.664 125.538C168.084 126.168 168.336 126.882 168.462 127.638C168.672 128.856 168.756 130.116 168.882 131.334C169.134 133.644 169.302 135.912 169.512 138.222C169.554 138.6 169.638 138.978 169.722 139.314C169.932 140.28 170.184 141.246 170.436 142.212C170.52 142.632 170.646 143.052 170.814 143.472C170.856 143.556 170.814 143.22 170.814 143.388C170.814 143.388 170.814 143.598 170.814 143.43C170.814 143.262 170.772 143.598 170.73 143.64C170.688 143.85 170.772 143.556 170.73 143.64L170.646 143.808C170.562 143.892 170.52 144.018 170.436 144.144C170.268 144.354 170.1 144.564 169.89 144.732C168.588 145.908 167.034 146.832 165.312 147.42C163.632 148.008 161.7 148.386 159.936 147.756C159.6 147.63 159.222 147.798 159.096 148.134C159.054 148.218 159.054 148.302 159.054 148.386C159.054 148.932 159.432 149.394 159.936 149.604C163.38 150.864 167.58 149.226 170.352 147.084C171.318 146.37 172.536 145.278 172.536 143.934C172.494 143.514 172.41 143.094 172.242 142.716C172.074 142.17 171.906 141.582 171.78 141.036C171.57 140.238 171.444 139.44 171.234 138.642C171.15 138.348 171.234 138.894 171.234 138.726C171.234 138.642 171.234 138.558 171.234 138.474C171.192 138.096 171.192 137.718 171.15 137.298C171.024 135.576 170.856 133.854 170.688 132.174C170.562 130.788 170.394 129.444 170.226 128.058C170.1 127.008 169.764 126 169.26 125.076C168.504 123.816 167.076 122.808 165.564 123.186C163.842 123.606 163.128 125.496 163.044 127.05C163.002 127.722 163.044 128.436 163.002 129.108C162.918 129.738 162.834 130.368 162.666 130.998C162.498 131.712 162.33 132.426 162.078 133.098L163.716 133.392C163.716 133.35 163.674 133.308 163.674 133.308C163.674 133.266 163.632 133.224 163.632 133.182C163.548 132.972 163.716 133.392 163.632 133.182C163.506 132.804 163.38 132.468 163.254 132.09C162.876 130.956 162.498 129.822 162.162 128.688C161.784 127.47 161.49 126.252 161.196 125.034C160.902 123.564 160.272 122.178 159.39 121.002C158.718 120.162 157.584 119.28 156.45 119.91C155.61 120.372 155.19 121.422 155.064 122.304C154.77 124.32 155.232 126.462 155.778 128.394C156.156 129.822 156.66 131.208 157.206 132.552L158.76 132.132C157.71 130.032 156.576 127.932 155.316 125.958C154.518 124.698 153.636 123.396 152.46 122.43C151.704 121.8 150.612 121.17 149.688 121.8C148.428 122.598 148.386 124.53 148.554 125.832C148.764 127.26 149.268 128.646 150.024 129.864L150.444 128.436C149.814 128.436 149.184 128.688 148.764 129.192C147.714 130.368 148.05 132.342 148.428 133.728C149.73 138.852 153.09 143.22 156.744 146.874C157.626 147.756 158.55 148.596 159.474 149.394C159.81 149.646 160.356 149.856 160.692 149.436C161.028 149.016 160.692 148.344 160.356 148.05Z" fill="#191A23"/>
<path d="M149.856 129.906C149.982 130.2 150.108 130.536 150.276 130.788C150.528 131.292 150.822 131.754 151.116 132.258C151.746 133.266 152.376 134.316 153.048 135.324C153.258 135.66 153.51 135.996 153.72 136.374C154.014 136.836 155.904 136.122 155.778 135.954C154.686 134.148 153.51 132.426 152.46 130.62C152.25 130.284 152.04 129.906 151.914 129.528C151.83 129.234 151.032 129.444 150.822 129.486C150.612 129.528 149.73 129.654 149.856 129.906Z" fill="#191A23"/>
<path d="M185.64 43.7639H158.55C157.626 43.7639 156.912 44.4779 156.912 45.4019V64.4279L156.954 68.1659C156.954 68.5439 157.29 68.8799 157.71 68.8799C157.878 68.8799 158.088 68.7959 158.214 68.6699L162.372 64.4279H185.64C186.564 64.4279 187.278 63.7139 187.278 62.7899V45.4019C187.278 44.5199 186.564 43.7639 185.64 43.7639Z" fill="#191A23"/>
<path d="M157.71 69.09C157.584 69.09 157.458 69.048 157.374 69.006C157.038 68.88 156.786 68.544 156.786 68.166L156.744 64.428V45.402C156.744 44.394 157.584 43.554 158.592 43.554H185.64C186.648 43.554 187.488 44.394 187.488 45.402V62.79C187.488 63.798 186.648 64.638 185.64 64.638H162.456L158.382 68.796C158.172 69.006 157.962 69.09 157.71 69.09ZM158.55 43.974C157.752 43.974 157.122 44.604 157.122 45.402V64.428L157.164 68.166C157.164 68.376 157.29 68.544 157.5 68.628C157.71 68.712 157.92 68.67 158.046 68.502L162.246 64.218H185.64C186.438 64.218 187.068 63.588 187.068 62.79V45.402C187.068 44.604 186.438 43.974 185.64 43.974H158.55Z" fill="#F5F5F5"/>
<path d="M160.902 49.854V57.288C160.902 57.666 161.322 58.128 161.574 58.38C161.616 58.422 162.246 59.052 162.246 58.8V51.366C162.246 50.988 161.826 50.526 161.574 50.232C161.532 50.19 160.902 49.56 160.902 49.854Z" fill="#F5F5F5"/>
<path d="M161.448 54.5999H165.9C166.362 54.5999 166.992 54.2219 166.992 53.7179C166.992 53.2139 166.488 52.9199 166.026 52.9199H161.574C161.112 52.9199 160.482 53.2979 160.482 53.8019C160.482 54.3059 160.986 54.5999 161.448 54.5999Z" fill="#F5F5F5"/>
<path d="M164.976 49.476V57.414C164.976 57.624 165.774 57.834 165.942 57.876C166.026 57.918 166.992 58.17 166.992 58.044V50.106C166.992 49.896 166.194 49.686 166.026 49.644C165.942 49.644 164.976 49.35 164.976 49.476Z" fill="#F5F5F5"/>
<path d="M168.546 55.3559H170.604C170.982 55.3979 171.402 55.3559 171.78 55.3139C172.074 55.2299 172.368 55.0199 172.494 54.7679C172.536 54.5579 172.578 54.3899 172.578 54.1799C172.62 53.8859 172.578 53.5499 172.536 53.2559C172.41 52.8359 172.116 52.4999 171.738 52.3319C171.108 52.0379 170.436 51.9959 169.764 52.1639C168.546 52.4159 167.58 53.3819 167.37 54.6419C167.244 55.7759 167.706 56.9099 168.588 57.6239C169.26 58.1699 170.142 58.4219 171.024 58.3799C171.78 58.3379 172.494 57.9179 172.956 57.2879C173.082 57.1199 173.166 56.9099 173.082 56.6579C172.998 56.4479 172.83 56.2379 172.62 56.1539C172.242 55.9859 171.444 55.9019 171.15 56.3639C171.108 56.4479 171.066 56.4899 171.024 56.5739L170.94 56.6579C170.94 56.6579 171.066 56.5739 170.982 56.6159L170.772 56.7419C170.772 56.7419 170.94 56.6579 170.814 56.6999C170.772 56.6999 170.73 56.7419 170.688 56.7419C170.562 56.7839 170.772 56.6999 170.772 56.6999C170.73 56.6999 170.688 56.7419 170.646 56.7419C170.478 56.7839 170.814 56.7419 170.646 56.7419H170.52C170.352 56.7419 170.73 56.7839 170.562 56.7419C170.52 56.7419 170.31 56.6999 170.31 56.6579C170.31 56.6159 170.478 56.7419 170.394 56.6999L170.268 56.6159C170.226 56.6159 170.058 56.4899 170.142 56.5319L170.058 56.4479L169.932 56.3639L169.848 56.2799L169.722 56.1119C169.68 56.0699 169.638 55.9859 169.596 55.9019C169.554 55.8179 169.596 55.9439 169.596 55.9439C169.596 55.9019 169.554 55.8599 169.554 55.8179C169.512 55.6919 169.47 55.5239 169.428 55.3979C169.428 55.3559 169.428 55.3139 169.428 55.3139C169.428 55.3559 169.47 55.4819 169.428 55.3139C169.428 55.2719 169.428 55.1459 169.428 55.0619C169.428 54.9779 169.428 54.8939 169.428 54.8099C169.428 54.7259 169.47 54.5999 169.428 54.7679C169.47 54.6419 169.512 54.4739 169.596 54.3479C169.596 54.3059 169.638 54.2639 169.638 54.2219C169.638 54.1799 169.554 54.3479 169.596 54.2639C169.638 54.1799 169.68 54.1799 169.722 54.0959C169.764 54.0119 169.806 53.9699 169.89 53.9279C169.974 53.8439 169.974 53.8859 169.89 53.9279C169.806 54.0119 169.89 53.9279 169.932 53.8859C169.974 53.8439 170.058 53.8019 170.1 53.7599L170.184 53.7179C170.268 53.6759 170.1 53.7599 170.1 53.7599C170.1 53.7599 170.268 53.6759 170.31 53.6759C170.184 53.7179 170.52 53.5919 170.31 53.6759C170.394 53.6759 170.478 53.6759 170.562 53.6339C170.562 53.6339 170.31 53.6339 170.436 53.6339H170.604C170.394 53.5919 170.772 53.6339 170.604 53.6339C170.646 53.6339 170.688 53.6759 170.688 53.6759C170.604 53.6759 170.52 53.5919 170.436 53.5499C170.436 53.5499 170.352 53.4659 170.394 53.4239C170.394 53.4659 170.436 53.5079 170.436 53.5499C170.436 53.3819 170.436 53.5079 170.436 53.5499V53.6759C170.436 53.8019 170.436 53.8859 170.436 54.0119V54.1799C170.436 54.5159 170.394 54.0959 170.688 53.9279L171.15 53.7599C171.36 53.7599 171.402 53.7599 171.234 53.7599H168.63C168.21 53.7599 167.538 53.9699 167.538 54.5159C167.58 55.0199 168.042 55.3979 168.546 55.3559Z" fill="#F5F5F5"/>
<path d="M173.838 49.8959C173.796 52.7939 173.838 55.6499 174.006 58.5479C174.09 59.0939 174.426 59.5139 174.93 59.6819C175.224 59.8079 175.56 59.6399 175.644 59.3879C175.686 59.3039 175.686 59.1779 175.686 59.0939C175.56 56.1959 175.476 53.3399 175.518 50.4419C175.56 49.5179 173.88 48.6359 173.838 49.8959Z" fill="#F5F5F5"/>
<path d="M176.484 50.316L176.568 57.876C176.568 58.296 177.408 58.296 177.702 58.254C178.08 58.212 178.668 58.002 178.668 57.582L178.584 50.022C178.584 49.602 177.744 49.602 177.45 49.644C177.072 49.686 176.442 49.854 176.484 50.316Z" fill="#F5F5F5"/>
<path d="M181.566 52.836C180.894 52.752 180.222 53.088 179.802 53.634C179.592 54.012 179.466 54.432 179.424 54.852C179.382 55.608 179.592 56.364 180.012 56.994C180.264 57.372 180.642 57.708 181.062 57.876C181.734 58.128 182.532 58.086 183.162 57.75C183.582 57.54 184.002 57.204 184.338 56.868C184.674 56.532 184.842 56.028 184.716 55.524C184.506 54.6 183.876 53.802 183.036 53.34C182.784 53.256 182.532 53.214 182.28 53.214C182.028 53.214 181.776 53.298 181.566 53.466C181.44 53.592 181.272 53.718 181.314 53.928C181.356 54.096 181.482 54.264 181.65 54.348C181.65 54.306 181.776 54.39 181.65 54.348L181.734 54.39L181.902 54.516L182.07 54.642L182.112 54.684C182.112 54.684 182.238 54.81 182.154 54.726C182.07 54.642 182.238 54.81 182.238 54.852C182.238 54.894 182.322 54.936 182.322 55.02C182.406 55.146 182.49 55.272 182.532 55.398L182.616 55.608C182.574 55.482 182.616 55.65 182.658 55.692C182.658 55.776 182.7 55.86 182.7 55.902C182.7 55.944 182.7 55.986 182.7 55.986C182.7 56.028 182.7 56.154 182.7 56.07C182.7 56.112 182.7 56.154 182.658 56.154C182.658 56.154 182.616 56.28 182.658 56.196C182.7 56.112 182.658 56.238 182.658 56.238C182.658 56.238 182.616 56.322 182.574 56.322L182.448 56.448L182.364 56.532C182.322 56.574 182.238 56.616 182.196 56.658C182.154 56.7 181.986 56.742 181.986 56.784C181.986 56.826 182.196 56.7 182.028 56.742L181.944 56.784C181.86 56.826 182.028 56.742 182.028 56.742C181.944 56.742 181.944 56.742 182.028 56.742C182.07 56.742 182.154 56.742 182.196 56.742C182.406 56.742 182.07 56.7 182.28 56.742C182.322 56.742 182.406 56.784 182.448 56.784C182.322 56.7 182.406 56.784 182.448 56.784L182.364 56.742C182.322 56.7 182.238 56.658 182.196 56.574L182.154 56.532C182.112 56.49 182.196 56.616 182.154 56.532C181.986 56.322 181.86 56.07 181.734 55.818C181.734 55.776 181.692 55.734 181.692 55.692C181.692 55.692 181.65 55.608 181.692 55.65V55.608C181.692 55.566 181.692 55.566 181.692 55.524C181.65 55.398 181.65 55.23 181.608 55.104C181.608 54.936 181.608 54.81 181.608 54.642C181.608 54.6 181.608 54.6 181.608 54.558C181.608 54.39 181.608 54.6 181.608 54.516C181.608 54.432 181.65 54.348 181.65 54.306C181.65 54.222 181.692 54.138 181.734 54.096L181.776 54.012C181.776 54.012 181.86 53.844 181.818 53.928C181.818 53.928 181.86 53.844 181.902 53.802C181.944 53.76 181.86 53.844 181.86 53.844C181.944 53.802 181.902 53.802 181.734 53.886C181.566 53.97 181.356 54.012 181.188 53.97C181.44 53.97 181.734 53.928 181.986 53.844C182.154 53.76 182.406 53.634 182.448 53.424C182.574 52.962 182.028 52.752 181.65 52.752L181.566 52.836Z" fill="#F5F5F5"/>
<path d="M89.4599 117.096C90.7199 113.526 92.2319 109.998 93.7859 106.512C96.6839 100.128 99.9179 93.702 104.37 88.284C106.218 86.016 108.318 83.79 110.922 82.488C111.972 81.942 113.148 81.606 114.324 81.522C114.954 81.48 115.584 81.564 116.214 81.69L116.592 81.774L116.928 81.9C116.97 81.942 117.348 82.068 117.138 81.984L117.348 82.068C117.516 82.152 117.222 81.984 117.474 82.11L117.684 82.236C117.432 82.11 117.684 82.236 117.726 82.278L117.936 82.404C117.726 82.278 117.978 82.446 118.02 82.446C118.314 82.614 118.608 82.824 118.86 83.034C119.406 83.454 119.952 83.916 120.456 84.42C121.59 85.596 122.598 86.856 123.522 88.2C125.412 91.14 127.05 94.248 128.352 97.482C130.158 101.892 131.628 106.428 132.762 111.048C132.762 111.132 132.804 111.216 132.804 111.258C132.888 111.552 133.644 111.846 133.896 111.93C133.98 111.972 134.694 112.266 134.652 112.056C134.4 110.838 134.064 109.662 133.728 108.486C132.93 105.672 132.006 102.9 130.956 100.17C129.696 96.852 128.184 93.618 126.378 90.552C124.698 87.78 122.64 85.05 119.994 83.16C117.6 81.48 114.492 80.052 111.468 80.682C108.78 81.228 106.47 83.034 104.622 84.966C102.228 87.486 100.086 90.3 98.3219 93.282C96.3899 96.432 94.6679 99.624 93.1139 102.942C91.7699 105.714 90.5519 108.57 89.3759 111.426C88.7879 112.938 88.1579 114.45 87.6119 115.962L87.5279 116.172C87.4439 116.466 89.3759 117.264 89.4599 117.096Z" fill="#191A23"/>
<path d="M98.196 93.5761C105.042 96.6841 113.106 98.2801 120.33 95.4661C122.22 94.7521 123.942 93.7021 125.454 92.3581C125.706 92.1481 124.992 91.8541 124.866 91.8121C124.614 91.7281 123.816 91.3921 123.564 91.6441C118.398 96.0541 111.258 96.9781 104.79 95.3821C102.9 94.9201 101.052 94.2481 99.288 93.4501C98.952 93.2821 98.28 92.9881 97.902 93.1141C97.524 93.2401 97.986 93.4501 98.196 93.5761Z" fill="#191A23"/>
<path d="M127.05 67.6621C127.05 67.6621 129.99 55.5241 119.658 52.0801C109.326 48.6361 97.1879 57.6661 97.7759 70.7701C98.3639 83.8741 114.408 83.8741 114.408 83.8741L127.05 67.6621Z" fill="#F5F5F5"/>
<path d="M128.058 68.04C128.52 66.066 128.604 64.05 128.394 62.076C127.974 58.17 126.042 54.558 122.556 52.542C118.482 50.19 113.358 49.98 108.99 51.702C104.538 53.424 100.884 56.784 98.784 61.068C96.726 65.268 96.012 70.77 97.776 75.222C99.204 78.75 102.102 81.228 105.504 82.74C107.982 83.832 110.586 84.462 113.274 84.672C113.82 84.714 114.912 84.966 115.332 84.504C115.71 84.042 116.088 83.58 116.424 83.076L122.472 75.264L127.638 68.628L127.932 68.25C128.604 67.368 126.798 66.36 126.21 67.158L121.968 72.618L115.164 81.396L113.61 83.412L114.24 83.16C114.03 83.16 113.778 83.16 113.568 83.118C113.526 83.118 113.442 83.118 113.4 83.118H113.484L113.022 83.076C112.686 83.034 112.308 82.992 111.972 82.95C111.09 82.824 110.208 82.656 109.368 82.446L109.032 82.362C108.948 82.362 108.654 82.278 108.906 82.32C108.654 82.236 108.36 82.152 108.108 82.068C107.604 81.9 107.1 81.732 106.596 81.522C106.344 81.438 106.092 81.312 105.84 81.186L105.462 81.018L105.21 80.892C104.706 80.64 104.202 80.304 103.74 80.01C102.816 79.38 102.018 78.624 101.304 77.742C99.54 75.474 98.91 72.702 98.952 69.804C99.036 63.126 102.816 56.826 108.822 53.844C111.468 52.5 114.45 51.996 117.39 52.332C120.204 52.752 122.934 54.054 124.572 56.364C125.832 58.296 126.546 60.522 126.588 62.832C126.63 63.756 126.588 64.68 126.504 65.646C126.462 65.982 126.42 66.318 126.378 66.612L126.336 66.99C126.294 67.242 126.378 66.864 126.294 67.116C126.294 67.2 126.252 67.284 126.252 67.326C126.168 67.83 126.462 68.292 126.966 68.418C127.134 68.502 127.932 68.544 128.058 68.04Z" fill="#191A23"/>
<path d="M127.848 78.3301C131.04 73.4581 126 57.6241 126 57.6241C122.976 53.7601 109.494 57.7501 109.494 57.7501C111.846 61.6981 111.93 68.5861 111.93 68.5861C109.914 65.0161 105.756 67.0741 106.344 70.6861C106.932 74.2981 111.342 74.9281 111.342 74.9281C111.342 74.9281 110.964 82.7821 111.426 84.2101C111.888 85.6381 118.944 87.0241 122.094 82.5301C122.052 82.5301 125.034 82.6141 127.848 78.3301Z" fill="#F5F5F5"/>
<path d="M128.646 78.96C129.276 77.826 129.654 76.566 129.654 75.306C129.738 73.71 129.696 72.072 129.486 70.476C129.108 67.284 128.478 64.134 127.596 61.026C127.386 60.186 127.134 59.346 126.882 58.464C126.84 58.296 126.756 58.128 126.63 57.96C126 57.246 125.286 56.658 124.446 56.238C121.8 54.768 118.356 55.188 115.5 55.608C113.19 55.944 110.88 56.448 108.612 57.12V57.162C109.83 59.22 110.334 61.656 110.712 64.008C110.922 65.31 111.006 66.612 111.048 67.956L112.728 69.174C112.266 68.376 111.636 67.704 110.838 67.158C110.208 66.612 109.452 66.276 108.654 66.15C107.394 66.024 106.218 66.738 105.714 67.872C104.286 70.896 107.268 73.668 109.746 74.844C110.46 75.222 111.258 75.474 112.098 75.6L110.46 74.34C110.376 75.936 110.334 77.49 110.292 79.086C110.292 80.178 110.292 81.27 110.334 82.404C110.376 83.076 110.376 83.706 110.88 84.21C112.434 85.806 114.618 86.352 116.802 86.268C118.02 86.226 119.238 85.932 120.33 85.386C120.876 85.092 121.422 84.756 121.884 84.336C122.136 84.084 122.388 83.832 122.598 83.58C122.682 83.454 122.724 83.328 122.85 83.244C123.06 83.202 123.312 83.16 123.522 83.16C123.984 83.034 124.404 82.908 124.824 82.656C126.462 81.732 127.764 80.472 128.646 78.96C128.814 78.75 127.092 77.532 127.008 77.742C125.79 79.548 123.984 81.522 121.716 81.9C121.59 81.9 121.464 81.9 121.338 81.942C121.17 81.984 121.044 82.236 120.96 82.404C120.75 82.656 120.54 82.908 120.288 83.118C119.406 83.874 118.356 84.462 117.222 84.714C116.13 85.008 115.038 85.092 113.904 84.966C113.442 84.924 113.022 84.84 112.56 84.714C112.392 84.672 112.182 84.63 112.014 84.546C111.93 84.504 111.846 84.504 111.762 84.462C111.678 84.42 111.678 84.42 111.678 84.42C111.678 84.42 111.594 84.378 111.804 84.504C112.014 84.63 112.098 84.714 112.224 84.84C112.308 84.924 112.35 84.966 112.35 84.966C112.35 84.966 112.266 84.756 112.266 84.714C112.182 84.378 112.14 84.042 112.14 83.706C112.056 82.698 112.056 81.732 112.098 80.724C112.098 79.044 112.14 77.322 112.266 75.642C112.266 75.39 111.804 75.096 111.636 74.97C111.342 74.718 111.006 74.508 110.628 74.382C110.25 74.34 109.872 74.214 109.536 74.088C109.158 73.962 108.822 73.836 108.486 73.626L108.276 73.5C108.234 73.416 108.15 73.374 108.108 73.29C106.764 71.652 106.848 68.838 108.822 67.746C109.284 67.494 109.83 67.368 110.376 67.452C110.586 67.494 110.796 67.536 111.006 67.62C110.964 67.704 110.67 67.2 110.628 67.368L110.754 67.494C110.88 67.662 111.006 67.872 111.132 68.082C111.342 68.418 111.636 68.67 111.972 68.88C112.224 69.048 112.518 69.174 112.812 69.3C112.77 67.998 112.686 66.696 112.476 65.436C112.308 64.26 112.098 63.126 111.804 61.992C111.636 61.404 111.468 60.816 111.216 60.228C111.006 59.682 110.67 59.136 110.46 58.59C110.376 58.38 110.334 58.506 110.502 58.422C110.67 58.38 110.796 58.338 110.964 58.296C111.51 58.128 112.056 58.002 112.602 57.876C114.324 57.456 116.046 57.12 117.81 56.91C119.7 56.616 121.59 56.574 123.48 56.784C123.9 56.826 124.278 56.91 124.656 57.036C124.782 57.078 125.538 57.288 125.58 57.414C125.58 57.372 125.202 57.12 125.118 57.078C125.16 57.12 125.244 57.246 125.202 57.162C125.244 57.246 125.244 57.288 125.286 57.372C126.126 60.144 126.84 62.958 127.344 65.814C127.722 67.83 127.974 69.888 128.058 71.946C128.1 73.584 128.058 75.348 127.47 76.902C127.344 77.196 127.176 77.532 127.008 77.784C126.84 77.952 128.562 79.128 128.646 78.96Z" fill="#191A23"/>
<path d="M122.892 71.5681C122.892 71.5681 131.628 71.5261 132.51 66.8641C133.392 62.2021 126.924 60.9841 122.64 65.4361" fill="#F5F5F5"/>
<path d="M123.144 72.492C125.79 72.492 128.73 71.988 130.998 70.56C133.266 69.3 134.064 66.402 132.804 64.134C132.048 62.832 130.746 61.95 129.234 61.782C126.546 61.362 123.858 62.664 122.052 64.554C121.716 64.89 121.884 65.436 122.136 65.772C122.304 66.024 122.934 66.57 123.27 66.234C124.74 64.722 126.756 63.546 128.898 63.546C129.318 63.546 129.78 63.588 130.158 63.714C130.242 63.756 130.452 63.798 130.578 63.882C130.746 63.924 130.872 64.008 130.998 64.092C131.04 64.134 131.25 64.302 131.124 64.176C131.208 64.218 131.25 64.302 131.334 64.344C131.502 64.47 131.25 64.218 131.376 64.386C131.418 64.428 131.586 64.638 131.502 64.554C131.418 64.47 131.544 64.68 131.586 64.722C131.628 64.764 131.628 64.806 131.628 64.848C131.628 64.848 131.586 64.722 131.628 64.806C131.67 64.932 131.712 65.1 131.754 65.268C132.174 68.67 127.974 69.93 125.37 70.392C124.698 70.518 124.026 70.602 123.354 70.644L122.976 70.686C122.934 70.686 122.892 70.686 122.85 70.686H122.64C121.506 70.644 122.346 72.492 123.144 72.492Z" fill="#191A23"/>
<path d="M115.29 72.66C115.332 72.954 115.458 73.206 115.542 73.458C115.878 74.214 116.424 74.886 117.096 75.39C117.684 75.852 118.314 76.23 118.986 76.482C119.028 76.482 119.28 76.608 119.322 76.524C119.364 76.44 119.196 76.23 119.154 76.188C118.986 76.02 118.776 75.852 118.566 75.684C118.356 75.516 118.146 75.39 117.936 75.306L117.684 75.222C117.558 75.18 117.894 75.306 117.726 75.222L117.6 75.138C117.516 75.096 117.81 75.264 117.726 75.222L117.684 75.18L117.642 75.138C117.6 75.138 117.894 75.306 117.81 75.222L117.726 75.138C117.726 75.138 117.978 75.348 117.852 75.264L117.81 75.222L117.768 75.18C117.726 75.18 117.978 75.348 117.894 75.306C117.81 75.264 117.852 75.264 117.81 75.222C117.684 75.096 117.768 75.18 117.81 75.222C117.936 75.348 117.81 75.222 117.81 75.18L117.684 75.012C117.6 74.928 117.768 75.138 117.684 75.054L117.6 74.97C117.516 74.844 117.432 74.76 117.39 74.634C117.348 74.592 117.348 74.55 117.306 74.466C117.306 74.424 117.264 74.424 117.264 74.382C117.264 74.382 117.306 74.508 117.306 74.424C117.306 74.34 117.306 74.382 117.306 74.382C117.222 74.214 117.18 74.046 117.096 73.878C117.054 73.794 117.054 73.71 117.054 73.626C117.012 73.5 116.844 73.29 116.76 73.206C116.55 73.038 116.34 72.87 116.13 72.702C115.962 72.744 115.206 72.366 115.29 72.66Z" fill="#191A23"/>
<path d="M118.356 65.1C118.356 65.058 118.356 65.016 118.314 64.974V64.89C118.314 64.806 118.314 64.89 118.314 64.932C118.314 64.89 118.314 64.848 118.314 64.806C118.314 64.764 118.314 64.764 118.314 64.722C118.314 64.68 118.314 64.638 118.314 64.764C118.314 64.722 118.314 64.68 118.314 64.638C118.314 64.638 118.272 64.722 118.314 64.68L118.356 64.638L118.398 64.596C118.44 64.554 118.482 64.512 118.482 64.512L118.398 64.554C118.482 64.47 118.608 64.428 118.734 64.386L118.65 64.428C118.776 64.386 118.86 64.386 118.986 64.386C118.902 64.386 119.07 64.386 118.986 64.386L119.07 64.428L119.238 64.47L119.28 64.512C119.322 64.512 119.322 64.554 119.364 64.554C119.406 64.554 119.406 64.596 119.406 64.596C119.364 64.512 119.49 64.68 119.406 64.596L119.448 64.638C119.406 64.554 119.532 64.764 119.448 64.638C119.49 64.764 119.574 64.848 119.7 64.932C119.784 64.974 119.91 65.016 119.994 64.974C120.204 64.848 120.162 64.512 120.078 64.344C119.826 63.84 119.322 63.462 118.776 63.42C118.524 63.378 118.314 63.42 118.104 63.546C117.852 63.672 117.642 63.966 117.6 64.26C117.558 64.596 117.6 64.932 117.684 65.226C117.726 65.352 117.768 65.478 117.894 65.562C117.978 65.646 118.062 65.688 118.188 65.688C118.44 65.646 118.482 65.394 118.398 65.184L118.356 65.1Z" fill="#191A23"/>
<path d="M124.026 63.5881C123.942 63.3361 123.942 63.0001 124.026 62.7481V62.7901C124.068 62.7481 124.11 62.7061 124.152 62.6641C124.152 62.6641 124.152 62.6641 124.11 62.6641C124.194 62.6221 124.11 62.6641 123.9 62.7061C123.774 62.7481 123.648 62.7901 123.522 62.8321H123.606C123.648 62.8321 123.69 62.8741 123.774 62.8741H123.732C123.942 62.9581 124.068 63.1261 124.152 63.3361C124.152 63.3781 124.32 63.3361 124.32 63.3361C124.446 63.2941 124.572 63.2941 124.698 63.2521C124.824 63.2101 124.95 63.1681 125.034 63.1261C125.034 63.1261 125.202 63.0841 125.16 63.0421C125.034 62.7481 124.782 62.5381 124.488 62.4961C124.32 62.4961 124.152 62.5381 123.984 62.5801C123.816 62.6221 123.69 62.6641 123.564 62.7481C123.48 62.7901 123.396 62.8321 123.312 62.8741C123.144 62.9581 123.06 63.1261 123.018 63.2941C123.018 63.5041 123.018 63.7141 123.06 63.9241C123.06 63.9661 123.228 63.9241 123.228 63.9241C123.48 63.8821 123.69 63.7981 123.942 63.7141C123.942 63.6721 124.026 63.5881 124.026 63.5881Z" fill="#191A23"/>
<path d="M92.946 107.1C95.466 107.52 97.902 108.36 100.38 108.864C102.69 109.326 105.042 109.662 107.394 109.788C112.224 110.082 117.096 109.62 121.8 108.444C124.404 107.772 126.924 106.89 129.36 105.756C129.528 105.672 128.688 105.546 128.646 105.546C128.226 105.462 127.764 105.504 127.344 105.63C119.448 109.242 110.502 110.502 102.018 108.696C99.498 108.15 97.02 107.31 94.458 106.89C93.954 106.806 93.45 106.806 92.988 106.848C92.61 106.932 92.568 107.016 92.946 107.1Z" fill="#191A23"/>
<path d="M75.348 75.3061C72.534 70.3921 70.14 61.5721 72.114 57.3721C74.256 52.7941 76.44 58.1701 76.44 58.1701C76.44 58.1701 76.062 51.6601 77.448 50.6521C80.094 48.7201 81.354 58.7161 81.354 58.7161C81.354 58.7161 81.648 52.7941 83.496 52.5421C87.402 51.9961 86.394 64.5121 86.394 64.5121C86.394 64.5121 88.284 62.3701 90.51 62.4961C92.736 62.6221 92.61 65.0161 91.014 66.864C89.124 68.9641 88.242 71.82 87.78 74.088" fill="#F5F5F5"/>
<path d="M76.062 75.0121C74.088 71.5261 72.828 67.7041 72.324 63.7561C72.03 62.0341 72.072 60.3121 72.408 58.5901C72.576 57.7501 72.954 56.9941 73.458 56.3221C73.542 56.2381 73.668 56.1541 73.71 56.0701L73.836 56.1121C73.962 56.1541 74.046 56.1961 74.13 56.2801C74.844 56.7841 75.348 57.7081 75.684 58.5061C75.936 59.0941 77.196 58.5061 77.154 58.0021C77.112 56.9521 77.112 55.9441 77.112 54.8941C77.112 54.0961 77.196 53.2561 77.322 52.4581C77.364 52.1221 77.448 51.8281 77.574 51.4921C77.616 51.3661 77.658 51.2401 77.742 51.1141C77.7 51.1981 77.826 50.9881 77.784 51.0301L77.868 50.9461C77.826 50.9881 77.826 50.9881 77.868 50.9461C77.742 51.0721 77.826 50.9881 77.868 50.9461C78.078 50.8621 77.7 51.0301 77.91 50.9461C77.952 50.9461 77.868 50.9461 77.826 50.9461C77.742 50.9041 77.868 50.9461 77.868 50.9461C77.742 50.9041 77.868 50.9461 77.91 50.9461C77.994 50.9461 78.036 50.9881 78.12 51.0721C78.498 51.4081 78.792 51.8701 78.96 52.3321C79.506 53.5921 79.884 54.8941 80.136 56.2381C80.304 57.1201 80.472 58.0021 80.598 58.8841C80.682 59.6401 82.068 59.0941 82.068 58.5061C82.11 57.2881 82.32 56.0281 82.614 54.8521C82.698 54.4321 82.866 54.0541 83.034 53.6761C83.118 53.5501 83.202 53.3821 83.286 53.2561C83.286 53.2561 83.412 53.0881 83.37 53.1721C83.37 53.1301 83.412 53.1301 83.454 53.0881C83.412 53.1721 83.538 53.0041 83.454 53.0881C83.496 53.0041 83.538 53.0041 83.412 53.0881C83.58 53.1301 83.496 53.0461 83.706 53.0881H83.748L83.916 53.1721C84 53.2141 84.084 53.2981 84.168 53.3401C85.092 54.1801 85.344 55.7761 85.512 56.9521C85.722 58.5481 85.806 60.1861 85.764 61.8241C85.764 62.7901 85.722 63.7561 85.638 64.6801C85.596 65.3101 86.73 64.9321 86.898 64.6801C87.318 64.1761 87.864 63.7561 88.41 63.4621C89.166 63.0421 90.552 62.6221 91.182 63.4621C91.812 64.3021 91.224 65.5201 90.72 66.2341C90.3 66.7801 89.838 67.2841 89.46 67.8721C89.082 68.4601 88.746 69.0901 88.452 69.7201C87.822 71.1061 87.36 72.5761 87.066 74.0881C86.898 74.8861 88.368 74.5501 88.494 73.9621C88.788 72.4501 89.25 70.9801 89.88 69.5941C90.258 68.7961 90.678 68.0821 91.182 67.4101C91.686 66.8641 92.106 66.2341 92.484 65.6041C92.946 64.6381 93.198 63.2941 92.358 62.4961C91.35 61.5301 89.586 61.9081 88.452 62.4121C87.444 62.8321 86.562 63.5041 85.848 64.2601H87.108C87.36 61.5721 87.318 58.8841 86.94 56.2381C86.73 54.9361 86.436 53.1301 85.26 52.3321C84.672 51.9541 83.958 51.8281 83.286 52.0381C82.362 52.3321 81.816 53.1301 81.48 53.9701C80.934 55.5661 80.64 57.2461 80.64 58.9681L82.11 58.5901C81.984 57.7081 81.858 56.8681 81.69 56.0281C81.438 54.5161 80.976 53.0461 80.388 51.6181C79.842 50.4841 78.918 49.5601 77.574 50.1481C76.062 50.8201 75.894 52.7521 75.768 54.1801C75.642 55.6081 75.642 57.0361 75.726 58.4221L77.196 57.9181C76.86 57.0361 76.314 56.1961 75.6 55.5661C74.172 54.3901 72.492 55.5241 71.736 56.9101C70.812 58.5901 70.602 60.5221 70.686 62.3701C70.812 64.5961 71.19 66.8221 71.862 68.9221C72.534 71.2741 73.458 73.5421 74.634 75.6841C74.97 76.2301 76.398 75.5581 76.062 75.0121Z" fill="#191A23"/>
<path d="M82.5719 62.8321C82.5719 62.5381 82.5299 62.2021 82.5299 61.9081C82.4039 60.7321 82.2359 59.5561 82.0679 58.3801C81.9839 57.8761 81.6899 57.4561 81.3119 57.1621C81.1439 57.0361 80.5979 56.7001 80.6819 57.1621C80.8499 58.3381 81.0179 59.5141 81.1439 60.6901C81.1859 60.9841 81.1859 61.3201 81.2279 61.6141C81.2699 61.8241 81.3539 62.0341 81.4799 62.2021C81.6059 62.4541 81.7739 62.6641 81.9839 62.8321C82.1099 63.0001 82.5719 63.2941 82.5719 62.8321Z" fill="#191A23"/>
<path d="M75.4739 58.086C75.8099 59.556 76.0619 61.026 76.2719 62.538C76.3979 63.084 76.9019 63.42 77.4479 63.378C78.0359 63.252 78.1619 62.706 78.1199 62.202C77.9099 60.732 77.6159 59.22 77.3219 57.75C77.1959 57.204 76.6919 56.868 76.1459 56.91C75.6419 57.036 75.3479 57.54 75.4739 58.086Z" fill="#191A23"/>
<path d="M84.7139 67.4521C84.9239 67.0741 85.1759 66.7381 85.4279 66.4021C85.8899 65.8141 86.3519 65.2261 86.8979 64.7221C86.9819 64.6801 86.5199 64.4281 86.4779 64.4281C86.3519 64.3861 86.2679 64.3441 86.1419 64.3021C86.0999 64.3021 86.0159 64.2601 85.9739 64.3021C85.4279 64.8061 84.9659 65.3941 84.5039 65.9821C84.2519 66.3181 83.9999 66.6541 83.7899 67.0321C83.7479 67.1161 84.1679 67.3261 84.2099 67.3261C84.2519 67.3261 84.6719 67.5781 84.7139 67.4521Z" fill="#191A23"/>
<path d="M91.602 55.2721L96.684 52.7101C97.104 52.5001 96.516 52.2901 96.306 52.2481C95.844 52.1221 95.34 52.1641 94.878 52.3321L89.796 54.8941C89.376 55.1041 89.964 55.3141 90.174 55.3561C90.678 55.4401 91.14 55.4401 91.602 55.2721Z" fill="#B9FF66"/>
<path d="M89.1239 51.8281L90.4679 46.4941C90.5519 46.2421 89.5019 46.2841 89.3759 46.3261C89.0819 46.3681 88.4519 46.4101 88.3679 46.7461L87.0239 52.0801C86.9399 52.3321 87.9899 52.2901 88.1159 52.2481C88.4099 52.2481 89.0399 52.1641 89.1239 51.8281Z" fill="#B9FF66"/>
<path d="M52.29 63.7561C51.408 58.5481 51.87 52.9201 54.39 48.2161C56.7 43.8481 60.942 40.8241 65.814 40.0261C67.116 39.8161 68.418 39.8161 69.678 40.0261C70.728 40.2361 71.736 40.6561 72.618 41.2441L72.492 41.1181C71.946 41.9581 71.274 42.6721 70.518 43.3021C70.182 43.5961 69.762 43.8061 69.342 43.9321C69.174 43.9741 68.964 44.0161 68.796 44.0581C68.67 44.0581 68.544 44.0581 68.418 44.0581C67.872 44.1001 68.838 44.1421 68.796 44.2261C68.628 44.1001 68.502 43.9741 68.334 43.8061C68.208 43.6381 68.082 43.4281 68.04 43.2181C67.914 42.7141 67.914 42.2101 68.082 41.7061C68.418 40.7821 68.88 39.9421 69.51 39.2281C71.946 36.0781 75.222 33.6001 78.96 32.1721C80.01 31.7521 81.102 31.4581 82.236 31.2901C83.244 31.1641 84.252 31.1221 85.008 31.6261C85.428 31.8781 85.89 32.0461 86.394 32.1301C86.52 32.1721 87.192 32.2561 86.814 32.0461C84.546 30.7021 81.9 30.2821 79.338 30.8701C76.986 31.4161 74.76 32.4241 72.744 33.8101C70.392 35.4061 62.244 42.2521 67.956 44.3521C69.132 44.7721 70.476 45.0661 71.61 44.5201C72.744 43.9741 73.668 42.8401 74.466 41.7901C74.466 41.7481 74.424 41.7061 74.34 41.6641C69.846 38.8081 64.176 38.4721 59.346 40.7821C54.348 43.2181 51.282 48.1321 50.232 53.4661C49.644 56.6581 49.602 59.9761 50.148 63.1681C50.19 63.4201 50.904 63.5881 51.114 63.6301C51.324 63.6301 52.332 63.8401 52.29 63.7561Z" fill="#B9FF66"/>
<path d="M133.896 32.4241C135.828 31.9621 138.18 31.4581 140.112 32.2981C142.086 33.1801 142.212 35.4481 142.254 37.3801C142.296 40.1521 142.254 42.8821 142.254 45.6541C142.254 48.0481 142.17 50.5681 143.178 52.7941C144.354 55.3981 146.874 56.5321 149.478 57.4141C149.94 57.5821 150.234 57.0361 150.192 56.6581C150.15 56.1121 149.856 55.6501 149.352 55.4821C147.336 54.8101 145.11 54.0121 144.354 51.8701C144.018 50.7781 143.85 49.6441 143.892 48.5101C143.85 47.1661 143.892 45.8221 143.892 44.4361V40.2361C143.892 39.0181 143.934 37.8001 143.85 36.5401C143.682 34.2301 142.8 31.7941 140.616 30.6601C138.432 29.5261 135.786 29.9461 133.476 30.4921C132.972 30.6181 132.888 31.0801 133.014 31.5421C133.098 31.9201 133.518 32.5921 134.022 32.5081L133.896 32.4241Z" fill="#B9FF66"/>
<path d="M95.004 21.5461H122.766C123.648 21.5041 124.404 22.2181 124.446 23.1001V41.2861L124.404 44.8561C124.362 45.2761 123.984 45.5701 123.606 45.5281C123.438 45.5281 123.27 45.4441 123.144 45.3181L118.902 41.2861H95.046C94.164 41.3281 93.408 40.6141 93.366 39.7321V23.1001C93.366 22.2181 94.122 21.5041 95.004 21.5461Z" fill="#191A23"/>
<path d="M123.648 45.7381C123.396 45.7381 123.144 45.6541 122.976 45.4861L118.776 41.4961H95.004C93.996 41.5381 93.156 40.7401 93.114 39.7321V23.1001C93.156 22.0921 93.996 21.2941 95.004 21.3361H122.766C123.774 21.2941 124.614 22.0921 124.656 23.1001V41.2861L124.614 44.8561C124.614 45.1921 124.362 45.5281 124.068 45.6541C123.942 45.7381 123.774 45.7381 123.648 45.7381ZM95.004 21.7561C94.206 21.7141 93.576 22.3021 93.534 23.1001V39.7321C93.576 40.5301 94.248 41.1181 95.004 41.0761H118.944L123.27 45.1921C123.438 45.3601 123.69 45.4021 123.858 45.2761C124.026 45.1921 124.152 45.0661 124.152 44.8561L124.194 41.2861V23.1001C124.152 22.3441 123.522 21.7141 122.724 21.7561H95.004Z" fill="#191A23"/>
<path d="M103.446 27.678C102.354 27.552 101.262 27.762 100.296 28.308C99.498 28.686 98.826 29.316 98.406 30.114C97.65 31.584 97.356 33.894 98.49 35.238C99.708 36.75 101.682 36.624 103.362 36.036C105.042 35.448 106.386 34.146 106.554 32.298C106.722 30.534 105.756 28.35 103.782 28.14C103.278 28.14 102.816 28.266 102.396 28.518C102.27 28.602 101.724 28.854 102.144 28.896C103.404 29.022 104.202 30.324 104.454 31.458C104.832 32.844 104.454 34.272 103.446 35.322C103.362 35.406 103.236 35.49 103.11 35.574C102.984 35.658 102.858 35.7 102.774 35.784C102.732 35.826 102.984 35.7 102.984 35.7C102.984 35.7 102.732 35.7 102.69 35.7C102.102 35.658 101.514 35.49 101.052 35.112C99.876 34.314 99.666 32.844 99.834 31.5C99.918 30.702 100.17 29.904 100.59 29.232C100.8 28.896 101.052 28.602 101.346 28.392C101.388 28.35 101.43 28.35 101.472 28.308C101.64 28.182 101.262 28.35 101.22 28.392C101.052 28.476 101.136 28.392 101.178 28.392C101.22 28.392 101.43 28.392 101.556 28.434C101.976 28.434 102.438 28.35 102.816 28.182C103.026 28.098 103.194 28.014 103.404 27.888C103.446 27.846 103.572 27.72 103.446 27.678Z" fill="#F5F5F5"/>
<path d="M107.94 27.762C107.856 30.618 107.898 33.516 108.066 36.372C108.108 37.254 110.208 37.002 110.166 36.078C109.998 33.222 109.956 30.324 110.04 27.468C110.04 26.964 109.242 26.88 108.906 26.964C108.444 27.006 107.94 27.258 107.94 27.762Z" fill="#F5F5F5"/>
<path d="M117.264 30.324C117.012 30.282 116.718 30.24 116.466 30.282C115.92 30.324 115.416 30.45 114.912 30.618C114.366 30.744 113.862 30.996 113.484 31.416C113.148 31.794 112.896 32.214 112.728 32.676C112.518 33.138 112.392 33.6 112.392 34.104C112.434 35.028 113.232 35.448 114.072 35.448C114.492 35.448 114.87 35.364 115.29 35.28C115.71 35.196 116.088 35.07 116.466 34.944C116.886 34.776 117.222 34.482 117.474 34.146C118.188 33.18 118.146 31.92 118.104 30.786L116.046 31.248L117.726 35.616C117.768 35.742 118.65 35.532 118.776 35.49C118.902 35.448 119.826 35.238 119.784 35.154L118.104 30.786C118.062 30.66 117.18 30.87 117.054 30.912C116.802 30.954 116.592 31.038 116.34 31.122C116.298 31.122 116.046 31.206 116.046 31.248C116.13 32.088 116.088 32.886 115.878 33.684C115.794 34.02 115.626 34.314 115.416 34.608C115.206 34.86 114.954 35.07 114.66 35.238L115.836 34.986H115.794C115.752 34.986 115.668 34.986 115.626 34.986C115.5 34.986 115.332 34.944 115.206 34.86C114.954 34.734 114.744 34.524 114.618 34.272C114.282 33.6 114.618 32.76 114.87 32.088C115.038 31.71 115.29 31.332 115.584 31.038C115.71 30.912 115.878 30.786 116.046 30.702L116.172 30.66L115.038 30.912C115.122 30.954 115.248 30.954 115.332 30.954C115.5 30.954 115.668 30.954 115.836 30.912C116.088 30.87 116.382 30.828 116.634 30.744C116.844 30.702 117.054 30.618 117.222 30.576C117.18 30.45 117.348 30.408 117.264 30.324Z" fill="#F5F5F5"/>
<path d="M114.744 28.6021C115.416 28.5181 116.088 28.3921 116.718 28.2241C116.802 28.2241 116.886 28.1821 116.928 28.1401C117.012 28.0981 117.054 28.0141 117.054 27.9301C117.096 27.7201 117.054 27.4681 116.97 27.2581C116.886 27.0061 116.718 26.7541 116.508 26.5861L116.34 26.4601C116.256 26.3761 116.13 26.3341 116.004 26.3341C115.374 26.5021 114.702 26.6281 114.03 26.7121C113.568 26.7541 113.652 27.3841 113.778 27.6781C113.862 27.9301 114.03 28.1821 114.24 28.3501C114.324 28.5181 114.534 28.6021 114.744 28.6021Z" fill="#F5F5F5"/>
</svg>
