<svg width="210" height="210" viewBox="0 0 210 210" fill="none" xmlns="http://www.w3.org/2000/svg">
<path d="M182.532 21.294C182.532 18.228 180.684 15.792 178.416 15.792H73.668C71.4 15.792 69.552 18.27 69.552 21.294V27.3L182.49 26.964L182.532 21.294Z" fill="#191A23"/>
<path d="M183.582 21.21C183.582 19.278 182.826 17.094 181.062 16.086C180.306 15.666 179.466 15.498 178.626 15.498H74.382C73.038 15.498 71.652 15.708 70.56 16.59C68.166 18.606 68.502 21.882 68.502 24.654V27.426C68.502 27.636 69.216 27.636 69.3 27.636H72.324L80.514 27.594L92.694 27.552L107.478 27.51L123.774 27.468L140.112 27.426L155.442 27.384L168.294 27.342L177.618 27.3C179.088 27.3 180.558 27.3 181.986 27.3H182.196C182.364 27.3 183.498 27.216 183.498 26.88L183.582 21.21C183.582 20.832 181.482 20.958 181.482 21.462V27.132L182.784 26.712H179.76L171.57 26.754L159.39 26.796L144.606 26.838L128.31 26.88H111.93L96.6 26.922L83.748 26.964L74.424 27.006C72.954 27.006 71.484 26.964 70.056 27.006C70.014 27.006 69.93 27.006 69.888 27.006L70.686 27.216C70.686 25.2 70.644 23.226 70.686 21.21C70.686 19.446 71.316 17.388 72.87 16.38C73.038 16.296 73.164 16.212 73.332 16.128C73.374 16.128 73.626 16.044 73.416 16.086C73.29 16.086 73.29 16.086 73.458 16.086H73.584C75.18 16.086 76.734 16.086 78.288 16.086H178.164C177.87 16.086 178.332 16.128 178.374 16.128C178.584 16.17 178.836 16.296 179.004 16.38C180.726 17.346 181.398 19.488 181.44 21.378C181.482 21.798 183.582 21.672 183.582 21.21Z" fill="#191A23"/>
<path d="M69.594 27.3421V120.54C69.594 123.606 71.442 126.042 73.71 126.042H178.458C180.726 126.042 182.574 123.564 182.574 120.54V27.0061L69.594 27.3421Z" fill="white"/>
<path d="M68.88 26.628V118.986C68.88 120.75 69.09 122.43 70.182 123.942C71.148 125.328 72.618 126.798 74.424 126.84H179.088C180.726 126.798 181.986 125.664 182.658 124.236C183.288 122.934 183.288 121.59 183.288 120.204V27.678C183.288 27.426 182.826 27.006 182.7 26.838C182.574 26.67 182.154 26.208 181.902 26.208H178.878L170.688 26.25L158.508 26.292L143.724 26.334L127.428 26.376L111.048 26.46L95.718 26.502L82.866 26.544H73.542C72.072 26.544 70.602 26.544 69.174 26.544H68.964C68.712 26.544 69.258 27.174 69.3 27.258C69.468 27.468 69.972 28.098 70.308 28.098H73.332L81.522 28.056L93.702 28.014L108.486 27.972L124.782 27.93L141.12 27.888L156.45 27.846L169.302 27.804L178.626 27.762C180.096 27.762 181.566 27.804 183.036 27.762C183.078 27.762 183.162 27.762 183.246 27.762L181.86 26.292V118.692C181.86 119.952 181.86 121.212 181.356 122.43C180.768 123.942 179.508 125.286 177.786 125.286H72.912C72.408 125.244 71.904 125.118 71.442 124.824C71.358 124.782 71.19 124.614 71.358 124.782C71.316 124.74 71.316 124.74 71.274 124.698C71.106 124.404 70.938 124.068 70.77 123.774C70.308 122.598 70.308 121.338 70.308 120.078V28.014C70.308 27.678 69.72 27.216 69.51 27.006C69.468 26.922 68.88 26.418 68.88 26.628Z" fill="#191A23"/>
<path d="M79.17 24.276C80.469 24.276 81.522 23.223 81.522 21.924C81.522 20.625 80.469 19.572 79.17 19.572C77.871 19.572 76.818 20.625 76.818 21.924C76.818 23.223 77.871 24.276 79.17 24.276Z" fill="#B9FF66"/>
<path d="M106.848 33.1801H75.432V72.2401H106.848V33.1801Z" fill="#B9FF66"/>
<path d="M77.28 72.702C77.28 72.702 85.638 57.918 92.064 58.8C98.49 59.682 100.254 72.66 100.254 72.66" fill="white"/>
<path d="M78.204 72.3241C79.002 70.8961 79.926 69.4681 80.892 68.1241C82.698 65.5621 84.672 63.0001 87.066 60.9421C87.57 60.4801 88.116 60.1021 88.704 59.7661L88.788 59.7241L88.998 59.5981C88.788 59.7241 89.04 59.5561 89.082 59.5561C88.872 59.6401 89.04 59.5561 89.082 59.5561C89.166 59.5141 89.25 59.4721 89.334 59.4721L89.46 59.4301C89.544 59.3881 89.628 59.3881 89.712 59.3881C90.93 59.1361 92.19 59.4301 93.198 60.1021C95.634 61.6561 96.936 64.6381 97.818 67.2841C98.49 69.1741 98.952 71.1481 99.246 73.1221C99.246 73.2061 101.178 72.6601 101.136 72.1981C100.884 70.3921 100.464 68.6281 99.876 66.9061C98.994 64.1341 97.692 60.9841 95.214 59.2621C94.122 58.5061 92.778 58.1701 91.476 58.3381C89.796 58.6741 88.2 59.3881 86.814 60.3961C84.042 62.2861 81.816 64.9321 79.884 67.6201C78.582 69.3841 77.364 71.1901 76.272 73.0801C76.146 73.2901 76.986 72.9961 77.028 72.9541C77.406 72.8701 77.994 72.6601 78.204 72.3241Z" fill="#191A23"/>
<path d="M84.252 55.104C84.252 55.104 80.136 55.692 79.548 54.012C78.96 52.332 81.564 52.836 81.564 52.836C81.564 52.836 78.708 49.266 82.908 48.888C82.908 48.888 79.59 46.116 82.446 43.89C85.302 41.664 90.636 43.47 90.636 43.47C90.636 43.47 90.678 39.774 94.92 40.446C99.162 41.118 97.986 43.302 97.986 43.302C97.986 43.302 100.674 43.722 100.674 44.982C100.674 46.242 98.616 46.662 98.616 46.662C98.616 46.662 97.65 50.274 93.996 49.518L90.174 53.886C90.846 54.936 90.72 56.322 89.88 57.246C88.452 58.926 83.916 57.456 84.252 55.104Z" fill="#191A23"/>
<path d="M84.21 54.222C83.076 54.39 81.816 54.474 80.85 53.97C81.018 54.054 80.556 53.718 80.682 53.844C80.64 53.802 80.556 53.718 80.514 53.634C80.598 53.802 80.514 53.55 80.514 53.508C80.514 53.634 80.514 53.34 80.514 53.382C80.514 53.424 80.388 53.634 80.514 53.508C80.514 53.55 80.262 53.802 80.388 53.676C80.22 53.676 80.262 53.802 80.388 53.676C80.094 53.676 80.556 53.676 80.64 53.676C80.388 53.676 80.766 53.676 80.85 53.676C81.018 53.676 81.186 53.718 81.312 53.76C82.068 53.886 82.95 52.962 82.404 52.29C82.278 52.164 82.194 51.996 82.11 51.828C82.068 51.744 82.026 51.66 81.984 51.576C82.11 51.786 81.984 51.534 81.942 51.45C81.858 51.24 81.774 51.072 81.69 50.862L81.648 50.736C81.606 50.61 81.69 50.904 81.648 50.736C81.648 50.61 81.648 50.526 81.606 50.4C81.564 50.484 81.606 50.232 81.606 50.4C81.606 50.358 81.606 50.316 81.648 50.274C81.648 50.232 81.69 50.106 81.648 50.232C81.606 50.358 81.69 50.19 81.69 50.148C81.48 50.358 81.858 50.022 81.732 50.106C81.606 50.19 81.774 50.064 81.816 50.064C81.648 50.148 81.984 49.98 81.816 50.064C82.152 49.938 82.488 49.854 82.866 49.812C83.664 49.728 84.21 48.762 83.538 48.174L83.454 48.09C83.328 47.964 83.538 48.174 83.496 48.132L83.328 47.964C83.076 47.712 82.824 47.418 82.614 47.082C82.236 46.452 82.068 45.612 82.656 44.898C84.042 43.344 86.646 43.596 88.578 43.974L88.914 44.058L89.04 44.1C88.914 44.058 89.208 44.142 89.04 44.1C89.166 44.142 89.418 44.184 89.586 44.226C89.754 44.268 89.922 44.31 90.048 44.352C90.636 44.562 91.308 44.268 91.518 43.68C91.56 43.596 91.56 43.512 91.56 43.386C91.56 43.344 91.56 43.344 91.56 43.302C91.56 43.092 91.56 43.344 91.56 43.302C91.602 43.092 91.644 42.84 91.728 42.63L91.77 42.462C91.77 42.42 91.686 42.588 91.77 42.42C91.854 42.252 91.938 42.126 92.022 42C92.064 41.958 91.938 42.084 92.064 41.958L92.232 41.79C92.274 41.748 92.484 41.622 92.316 41.706L92.568 41.538L92.694 41.454C92.694 41.454 92.526 41.538 92.652 41.496C92.778 41.454 92.862 41.412 92.988 41.37C93.156 41.328 92.946 41.37 93.114 41.328C93.282 41.286 93.366 41.286 93.534 41.286C94.164 41.286 94.752 41.37 95.34 41.538C95.802 41.664 96.222 41.832 96.642 42.126C96.684 42.168 96.81 42.294 96.726 42.168C96.768 42.21 96.81 42.294 96.894 42.336C96.936 42.378 96.936 42.42 96.978 42.462C96.978 42.462 96.894 42.294 96.936 42.378C96.978 42.462 96.978 42.504 97.02 42.588C97.104 42.756 97.02 42.546 97.02 42.63C97.02 42.714 97.02 42.756 97.02 42.798C97.02 42.84 97.02 42.924 97.02 42.966C97.02 42.84 97.062 42.798 97.02 42.924C96.978 43.008 96.978 43.05 96.978 43.134C96.978 43.176 97.104 42.882 97.02 43.008C96.81 43.428 96.936 43.932 97.356 44.142C97.44 44.184 97.566 44.226 97.692 44.226L97.944 44.268C98.154 44.31 97.818 44.226 98.07 44.31C98.196 44.352 98.322 44.394 98.406 44.394C98.868 44.478 99.246 44.73 99.582 45.066C99.624 45.108 99.624 45.192 99.582 45.234C99.54 45.36 99.498 45.36 99.498 45.36C99.498 45.36 99.288 45.486 99.204 45.57C99.078 45.612 99.12 45.654 99.204 45.57L99.036 45.654C98.952 45.696 98.826 45.738 98.7 45.78C98.574 45.822 98.322 45.864 98.532 45.822C98.574 45.822 98.742 45.78 98.532 45.822C98.07 45.864 97.692 46.2 97.566 46.62C97.524 46.746 97.482 46.872 97.44 46.998C97.566 46.704 97.356 47.124 97.314 47.25C97.23 47.418 97.146 47.586 97.02 47.712C96.894 47.838 97.02 47.754 97.02 47.712C96.978 47.754 96.936 47.796 96.936 47.838C96.894 47.922 96.81 48.006 96.726 48.048C96.642 48.132 96.558 48.216 96.474 48.258C96.6 48.132 96.306 48.384 96.264 48.384C96.222 48.384 95.928 48.552 96.138 48.468C96.012 48.51 95.928 48.552 95.802 48.594C95.76 48.594 95.466 48.678 95.592 48.678C95.424 48.72 95.256 48.72 95.046 48.762C94.374 48.762 93.702 48.468 93.114 49.056C92.946 49.224 92.82 49.392 92.652 49.602L90.72 51.828L89.334 53.424C89.04 53.718 88.998 54.18 89.208 54.516C89.166 54.348 89.334 54.684 89.208 54.516C89.25 54.684 89.334 54.81 89.376 54.936C89.628 55.608 89.46 56.322 88.956 56.826C88.83 56.952 88.998 56.784 88.914 56.868C88.872 56.868 88.662 57.036 88.746 56.952C88.83 56.868 88.284 57.078 88.494 57.036L88.2 57.078C88.2 57.078 87.906 57.078 88.032 57.078C87.276 57.078 86.562 56.868 85.932 56.448C85.638 56.28 85.428 56.028 85.26 55.776C85.176 55.65 85.134 55.524 85.092 55.398C85.134 55.566 85.092 55.314 85.092 55.272C85.092 55.188 85.092 55.104 85.092 54.978C85.134 54.432 84.462 54.138 84.042 54.222C83.496 54.264 83.076 54.684 83.034 55.23C82.782 57.75 86.1 59.052 88.116 58.884C90.09 58.8 91.602 57.162 91.518 55.188C91.476 54.516 91.266 53.886 90.93 53.34L90.804 54.432L94.626 50.064L93.618 50.442C95.298 50.82 97.062 50.232 98.238 48.972C98.826 48.342 99.246 47.586 99.498 46.788L98.532 47.586C99.96 47.292 102.06 46.242 101.514 44.436C101.094 43.092 99.288 42.588 98.07 42.42L98.742 43.638C98.952 43.218 99.036 42.714 98.994 42.21C98.826 41.076 97.86 40.404 96.852 39.984C94.5 39.06 91.14 39.102 89.922 41.748C89.628 42.336 89.502 42.924 89.46 43.554L90.972 42.588C89.124 41.958 87.15 41.706 85.176 41.874C83.664 42 82.236 42.588 81.144 43.638C80.136 44.604 79.8 46.116 80.388 47.418C80.766 48.258 81.354 49.014 82.068 49.602L82.74 47.964C81.102 48.132 79.212 49.056 79.464 50.988C79.59 51.87 79.968 52.71 80.556 53.382L81.648 51.912C80.892 51.744 80.136 51.786 79.422 52.038C78.498 52.416 78.036 53.466 78.414 54.39C78.498 54.6 78.624 54.81 78.792 54.978C80.052 56.28 82.446 56.154 84.084 55.944C84.63 55.902 85.05 55.482 85.092 54.936C85.008 54.432 84.588 54.096 84.084 54.18C84.252 54.18 84.21 54.18 84.21 54.222Z" fill="#191A23"/>
<path d="M98.784 58.8421C101.178 55.7341 98.28 47.2921 98.28 47.2921C95.34 47.8381 90.678 44.7721 90.678 44.7721C92.022 47.5441 89.376 52.5421 89.376 52.5421C88.2 50.0641 85.554 50.1061 85.764 52.5421C85.848 53.9281 86.94 55.0621 88.326 55.2301C88.326 55.2301 87.318 61.1101 87.57 62.0761C87.822 63.0421 93.156 66.0661 94.71 61.3201C94.752 61.3621 96.684 61.5721 98.784 58.8421Z" fill="white"/>
<path d="M99.708 59.346C100.884 57.792 100.884 55.6501 100.716 53.802C100.506 51.9541 100.17 50.106 99.624 48.342C99.498 47.964 99.414 47.586 99.288 47.208C99.036 46.704 98.532 46.452 97.986 46.494C96.6 46.746 95.004 46.116 93.702 45.528C92.82 45.15 91.98 44.688 91.182 44.142C90.678 43.806 89.292 44.058 89.712 44.898C90.384 46.326 90.006 48.006 89.544 49.434C89.334 50.064 89.082 50.736 88.83 51.324C88.746 51.534 88.662 51.744 88.536 51.954C88.494 52.038 88.284 52.374 88.494 52.038L90.384 52.458C89.754 51.156 88.662 50.022 87.15 49.896C85.974 49.77 84.924 50.61 84.798 51.786C84.798 51.828 84.798 51.87 84.798 51.954C84.63 54.054 86.394 55.86 88.41 56.07L87.402 54.894C87.234 55.776 87.108 56.658 86.982 57.498C86.73 58.842 86.604 60.186 86.562 61.53C86.562 62.58 87.36 63.168 88.2 63.6721C89.376 64.386 90.72 64.764 92.064 64.68C93.912 64.554 95.172 63.2941 95.76 61.5721L94.794 62.076C96.726 62.328 98.532 60.774 99.708 59.346C100.38 58.464 98.49 57.54 97.902 58.338C97.272 59.22 96.432 59.934 95.424 60.354C95.256 60.396 95.13 60.48 94.962 60.522C94.836 60.564 95.13 60.48 94.962 60.522L94.794 60.564C94.668 60.564 94.374 60.564 94.752 60.564H94.668C94.29 60.48 93.87 60.69 93.702 61.068C93.534 61.656 93.198 62.244 92.736 62.664C92.568 62.832 92.358 62.916 92.148 63C91.938 63.084 91.77 63.126 91.56 63.126C91.518 63.126 91.14 63.126 91.308 63.168C91.182 63.168 91.056 63.168 90.93 63.126C90.804 63.126 90.678 63.084 90.552 63.084C90.762 63.126 90.384 63.042 90.3 63C90.09 62.916 89.838 62.832 89.628 62.748C89.88 62.832 89.544 62.706 89.502 62.664C89.46 62.622 89.25 62.538 89.124 62.454C88.998 62.37 88.956 62.37 88.872 62.286C88.788 62.202 88.998 62.412 88.788 62.244L88.578 62.076C88.41 61.908 88.536 62.118 88.536 62.034C88.536 61.95 88.494 61.992 88.494 61.95C88.452 61.824 88.494 61.9501 88.494 61.9921C88.494 62.034 88.536 62.118 88.536 62.118C88.536 61.95 88.494 61.782 88.536 61.5721C88.578 60.438 88.704 59.304 88.872 58.17C88.998 57.288 89.124 56.406 89.292 55.524C89.334 54.936 88.914 54.432 88.326 54.39C88.284 54.39 88.284 54.39 88.242 54.39H88.158C87.906 54.348 88.41 54.474 88.2 54.39C88.116 54.348 87.99 54.306 87.864 54.306C87.822 54.306 87.612 54.222 87.78 54.264C87.948 54.306 87.738 54.222 87.696 54.222L87.528 54.096C87.444 54.054 87.612 54.18 87.486 54.054C87.36 53.97 87.276 53.886 87.192 53.76C86.982 53.466 86.814 53.13 86.772 52.752C86.688 52.374 86.73 51.996 86.898 51.66C86.94 51.576 86.982 51.534 87.066 51.492L87.192 51.45C87.276 51.45 87.066 51.408 87.234 51.45C87.528 51.492 87.066 51.366 87.318 51.492C87.402 51.534 87.444 51.534 87.528 51.576C87.864 51.828 88.158 52.164 88.326 52.584C88.494 52.92 88.83 53.172 89.208 53.256C89.502 53.298 90.048 53.298 90.216 52.962C90.72 51.954 91.14 50.946 91.476 49.854C91.98 48.216 92.358 46.2 91.56 44.562L90.09 45.318C91.014 45.906 91.98 46.41 92.946 46.83C94.626 47.586 96.6 48.3 98.448 47.964L97.188 47.25C97.65 48.678 98.028 50.106 98.28 51.576C98.616 53.592 99.078 56.448 97.776 58.17C97.23 59.22 99.078 60.144 99.708 59.346Z" fill="#191A23"/>
<path d="M93.618 56.028C93.618 56.028 97.524 60.396 100.296 58.758C103.068 57.12 100.758 53.34 96.642 53.172" fill="white"/>
<path d="M92.568 55.9861C94.038 57.6241 95.97 59.0521 98.154 59.3881C99.582 59.6401 101.346 59.3881 102.144 58.0441C102.774 57.0361 102.396 55.7761 101.64 54.9361C100.338 53.4241 98.238 52.8361 96.306 52.7521C96.138 52.7521 95.382 52.7521 95.508 53.0881C95.634 53.4241 96.474 53.4661 96.768 53.5081C97.062 53.5501 96.558 53.4661 96.852 53.5081L97.146 53.5501C97.44 53.5921 96.936 53.5081 97.23 53.5501L97.482 53.5921C97.776 53.6761 97.314 53.5081 97.566 53.6341L97.734 53.6761L97.986 53.7601C97.86 53.7181 98.154 53.8441 98.154 53.8441C98.658 54.0541 99.078 54.3901 99.456 54.7681C100.128 55.4821 100.548 56.4481 100.17 57.3721C100.002 57.7921 99.666 58.1701 99.288 58.3801C99.12 58.5061 98.91 58.5901 98.7 58.6321C98.658 58.6321 98.448 58.6741 98.658 58.6321H98.448C98.49 58.6321 98.7 58.5901 98.448 58.6321H98.532H98.406C98.448 58.5901 98.658 58.6741 98.448 58.6321L98.28 58.5901C98.532 58.6321 98.112 58.5481 98.028 58.5061C97.818 58.4221 98.196 58.5901 97.986 58.4641L97.776 58.3801C97.65 58.3381 97.524 58.2541 97.398 58.1701C96.936 57.9181 96.474 57.6241 96.054 57.2881C95.676 56.9941 95.298 56.6581 94.92 56.3221L94.71 56.1121C94.584 56.0281 94.752 56.1961 94.668 56.0701L94.542 55.9441C94.206 55.6501 93.744 55.4821 93.282 55.5241C93.198 55.5241 92.232 55.6081 92.484 55.8601L92.568 55.9861Z" fill="#191A23"/>
<path d="M90.426 55.524C90.468 56.49 91.098 57.3301 92.064 57.5821L90.426 55.524Z" fill="white"/>
<path d="M90.174 55.524C90.174 56.196 90.468 56.826 90.972 57.246C91.224 57.456 91.56 57.624 91.896 57.75C92.022 57.792 92.148 57.75 92.274 57.666C92.316 57.582 92.316 57.498 92.274 57.414L92.232 57.372C91.728 57.246 91.308 56.91 91.056 56.49C91.014 56.448 91.014 56.406 90.972 56.364L90.93 56.322V56.28C90.888 56.196 90.846 56.112 90.846 56.028C90.804 55.902 90.762 55.776 90.762 55.65V55.608C90.762 55.65 90.762 55.566 90.762 55.566V55.524C90.72 55.23 90.216 55.272 90.174 55.524Z" fill="#191A23"/>
<path d="M97.86 52.542C97.86 52.416 97.818 52.29 97.776 52.206C97.734 52.038 97.65 51.912 97.566 51.786C97.524 51.702 97.482 51.66 97.398 51.618C97.23 51.492 96.852 51.45 96.768 51.702C96.726 51.87 96.726 51.996 96.81 52.164C96.81 52.206 96.852 52.248 96.852 52.29C96.894 52.332 96.894 52.416 96.936 52.458L96.978 52.5L97.02 52.542V52.5C96.978 52.374 96.978 52.29 96.978 52.164C97.02 51.912 97.314 51.912 97.482 51.996C97.524 51.996 97.566 52.038 97.608 52.08L97.65 52.122C97.692 52.164 97.65 52.08 97.65 52.08C97.608 52.038 97.566 51.954 97.566 51.912C97.566 51.87 97.566 51.87 97.566 51.87V51.912C97.566 51.912 97.566 51.912 97.566 51.954C97.566 51.996 97.566 52.038 97.566 52.08C97.566 52.122 97.608 52.164 97.608 52.206C97.65 52.248 97.65 52.332 97.692 52.374C97.734 52.416 97.734 52.458 97.776 52.5C97.776 52.5 97.818 52.542 97.818 52.5L97.86 52.542Z" fill="#191A23"/>
<path d="M94.92 52.4581C94.962 52.3321 94.962 52.2061 94.92 52.0801C94.878 51.9121 94.794 51.7861 94.71 51.6601C94.668 51.5761 94.584 51.4921 94.542 51.4501C94.332 51.2821 93.87 51.1981 93.702 51.4501C93.66 51.4921 93.66 51.5761 93.66 51.6181C93.66 51.7441 93.66 51.8701 93.66 51.9541C93.66 51.9961 93.66 52.0381 93.702 52.0801C93.744 52.1641 93.744 52.2061 93.786 52.2481C93.828 52.2901 93.828 52.3321 93.87 52.3741C93.87 52.3741 93.912 52.4161 93.912 52.3741C93.87 52.2061 93.912 52.0381 93.954 51.8701C94.038 51.7441 94.206 51.6601 94.374 51.7021C94.542 51.7021 94.71 51.7861 94.836 51.9121C94.794 51.8701 94.794 51.8281 94.752 51.7861C94.71 51.7441 94.71 51.7021 94.71 51.6601V51.7021C94.71 51.7441 94.71 51.7861 94.71 51.7861C94.71 51.8701 94.71 51.9121 94.71 51.9961C94.71 52.0381 94.71 52.0801 94.752 52.1221C94.794 52.1641 94.794 52.2481 94.836 52.2901C94.836 52.3741 94.878 52.4161 94.92 52.4581Z" fill="#191A23"/>
<path d="M82.026 65.772C87.066 68.754 94.08 70.434 99.288 66.864C99.54 66.696 98.742 66.402 98.658 66.36C98.364 66.276 97.65 65.982 97.356 66.192C95.298 67.578 92.904 68.208 90.426 68.124C87.948 68.04 85.638 67.032 83.538 65.814C83.118 65.562 82.614 65.436 82.11 65.436C81.774 65.436 81.69 65.562 82.026 65.772Z" fill="#191A23"/>
<path d="M80.346 71.862C86.478 72.408 92.652 72.45 98.826 72.03C98.994 72.03 98.322 71.568 98.28 71.526C97.986 71.358 97.482 70.98 97.104 70.98C90.972 71.4 84.798 71.316 78.666 70.812C78.498 70.812 79.17 71.274 79.212 71.316C79.548 71.568 79.926 71.736 80.346 71.862Z" fill="#191A23"/>
<path d="M102.606 34.944L104.58 36.918L104.874 37.212C105.042 37.38 105.252 37.506 105.504 37.548C105.714 37.548 105.504 37.338 105.462 37.254L103.488 35.28L103.194 34.986C103.026 34.818 102.816 34.692 102.564 34.65C102.312 34.65 102.522 34.86 102.606 34.944Z" fill="white"/>
<path d="M102.984 37.464L105.462 35.322L105.84 35.028C106.008 34.86 105.798 34.692 105.672 34.608C105.42 34.524 105.168 34.566 104.958 34.692L102.438 36.834L102.06 37.128C101.892 37.296 102.102 37.464 102.228 37.548C102.48 37.632 102.774 37.59 102.984 37.464Z" fill="white"/>
<path d="M126.504 106.806C126.504 106.806 116.466 106.974 119.868 117.054C122.136 123.816 132.132 121.968 132.888 115.374C133.392 111.006 130.914 106.722 126.504 106.806Z" fill="#B9FF66"/>
<path d="M125.832 121.548C123.06 121.59 120.54 119.826 119.7 117.138C118.65 113.988 118.776 111.468 120.078 109.62C122.136 106.722 126.378 106.596 126.546 106.596C128.268 106.512 129.99 107.226 131.124 108.528C132.636 110.208 133.392 112.77 133.098 115.374C132.678 119.154 129.444 121.17 126.63 121.464C126.378 121.548 126.084 121.548 125.832 121.548ZM126.672 107.016H126.504C126.462 107.016 122.304 107.1 120.372 109.872C119.154 111.594 119.07 113.988 120.078 117.012C121.212 120.414 124.194 121.338 126.588 121.086C129.234 120.792 132.3 118.902 132.678 115.374C132.972 112.854 132.258 110.418 130.788 108.822C129.738 107.688 128.226 107.016 126.672 107.016Z" fill="#B9FF66"/>
<path d="M124.572 109.704C124.572 109.704 124.068 114.324 124.866 114.87C125.664 115.416 127.974 115.626 128.184 113.904C128.394 112.182 128.436 109.704 127.386 109.452C126.336 109.2 124.614 108.864 124.572 109.704Z" fill="white"/>
<path d="M121.968 113.568C122.346 113.526 122.724 113.484 123.102 113.442H123.228L123.186 113.61C123.102 114.072 123.102 114.492 123.186 114.954C123.27 115.374 123.396 115.752 123.69 116.088C123.942 116.382 124.32 116.634 124.698 116.718C125.118 116.844 125.538 116.886 125.958 116.886H126C126.504 116.886 127.008 116.844 127.512 116.76C127.974 116.676 128.436 116.424 128.772 116.088C128.94 115.92 129.024 115.71 129.108 115.5C129.192 115.248 129.234 114.996 129.276 114.744C129.402 114.198 129.486 113.652 129.654 113.106L129.696 112.98H129.822C130.284 113.022 130.746 113.064 131.25 113.148C130.788 113.19 130.326 113.274 129.822 113.316L129.948 113.19C129.906 113.736 129.864 114.282 129.822 114.828C129.822 115.122 129.78 115.374 129.696 115.668C129.612 115.962 129.486 116.298 129.276 116.508C128.856 116.97 128.31 117.306 127.68 117.474C127.092 117.642 126.504 117.684 125.916 117.642H125.958C125.454 117.642 124.95 117.558 124.488 117.432C123.984 117.264 123.522 116.928 123.228 116.508C122.934 116.088 122.766 115.584 122.766 115.038C122.766 114.534 122.808 114.072 122.976 113.61L123.102 113.778C122.724 113.652 122.346 113.61 121.968 113.568Z" fill="white"/>
<path d="M124.404 118.566C124.656 118.44 124.866 118.356 125.118 118.314C125.37 118.272 125.58 118.23 125.832 118.23C126.084 118.23 126.336 118.23 126.546 118.314C126.798 118.356 127.05 118.44 127.302 118.566C127.092 118.734 126.84 118.818 126.588 118.902C126.336 118.944 126.084 118.986 125.874 118.986C125.622 118.986 125.37 118.944 125.118 118.902C124.866 118.86 124.614 118.734 124.404 118.566Z" fill="white"/>
<path d="M125.958 117.222C126.084 117.306 126.168 117.432 126.252 117.558C126.378 117.768 126.378 118.02 126.252 118.23C126.168 118.356 126.084 118.482 125.958 118.566C125.832 118.482 125.748 118.356 125.664 118.23C125.538 118.02 125.538 117.768 125.664 117.558C125.748 117.432 125.832 117.306 125.958 117.222Z" fill="white"/>
<path d="M90.678 108.066C90.678 108.066 92.274 103.362 90.384 96.9781C88.494 90.5941 93.156 93.3241 95.046 98.0701C95.046 98.0701 98.784 86.5201 101.178 84.1681C105.168 80.3461 105.84 86.3101 100.674 98.5741C100.674 98.5741 103.53 89.7121 105.462 87.3181C107.982 84.2101 111.342 87.1501 108.696 92.7361C105.756 98.9941 105.336 101.346 105.336 101.346C105.336 101.346 107.604 96.3481 108.192 93.9541C108.78 91.5601 112.098 92.8621 109.788 100.548C107.478 108.234 101.976 111.888 101.22 113.148C101.22 113.148 89.88 140.28 83.79 144.732C77.7 149.184 55.23 151.83 55.23 151.83L51.324 131.292C51.324 131.292 68.334 132.048 75.432 130.41C78.372 129.78 90.678 108.066 90.678 108.066Z" fill="white"/>
<path d="M91.644 107.94C91.854 107.226 92.022 106.47 92.106 105.756C92.358 103.95 92.358 102.102 92.148 100.254C91.98 99.036 91.728 97.818 91.392 96.642C91.14 95.844 90.972 95.004 90.972 94.164C90.972 94.08 90.972 93.954 91.014 93.87C91.014 93.828 91.056 93.786 91.056 93.744C91.098 93.576 91.056 93.786 91.056 93.786C91.014 93.702 91.266 93.618 91.014 93.786C91.098 93.744 91.098 93.744 90.93 93.87C90.804 93.954 90.72 93.996 90.594 94.038C90.678 93.996 90.468 94.08 90.468 94.038C90.3 94.08 90.468 94.038 90.51 94.038C90.552 94.038 90.3 93.996 90.468 94.038C90.552 94.08 90.678 94.08 90.762 94.122C90.972 94.248 91.14 94.332 91.35 94.5C92.652 95.508 93.576 97.104 94.206 98.616C94.332 98.952 94.92 98.868 95.172 98.784C95.592 98.658 95.928 98.364 96.096 97.986C97.314 94.164 98.658 90.258 100.548 86.688C100.8 86.226 101.052 85.764 101.346 85.302C101.472 85.134 101.598 84.924 101.724 84.756C101.598 84.924 101.766 84.714 101.808 84.672C101.85 84.63 101.934 84.504 102.018 84.462C102.102 84.42 102.186 84.294 102.27 84.252C102.102 84.378 102.312 84.21 102.354 84.168C102.396 84.126 102.522 84.042 102.564 84C102.606 83.958 102.648 83.958 102.69 83.916C102.858 83.79 102.48 84 102.648 83.916C102.732 83.874 102.774 83.874 102.858 83.832C102.606 83.874 102.942 83.748 102.858 83.832C103.026 83.79 102.984 83.79 102.816 83.832C102.774 83.79 103.068 83.79 102.816 83.832C102.858 83.874 102.942 83.832 102.816 83.832C102.858 83.832 102.9 83.874 102.942 83.874C102.816 83.79 102.984 83.916 102.942 83.874L103.068 84C103.11 84.042 103.026 83.916 103.068 84.042C103.11 84.084 103.152 84.168 103.152 84.21C103.236 84.336 103.278 84.504 103.32 84.63C103.278 84.504 103.362 84.756 103.362 84.798C103.362 84.84 103.404 84.966 103.404 85.05C103.446 85.26 103.446 85.512 103.446 85.722C103.446 86.226 103.404 86.772 103.362 87.276C103.152 88.914 102.774 90.51 102.27 92.106C101.556 94.374 100.758 96.642 99.792 98.826L101.682 98.574C102.144 97.188 102.606 95.802 103.11 94.458C103.908 92.316 104.706 90.09 105.924 88.158C106.008 87.99 106.134 87.822 106.26 87.696C106.302 87.654 106.344 87.57 106.428 87.528C106.512 87.486 106.68 87.276 106.638 87.276C106.764 87.192 106.848 87.108 106.974 87.024C106.806 87.108 107.058 86.982 107.1 86.94C107.016 86.982 107.184 86.94 107.184 86.94C107.184 86.94 107.352 86.94 107.268 86.94C107.604 86.94 107.898 87.108 108.108 87.318C108.402 87.654 108.612 88.032 108.696 88.494C109.032 89.964 108.528 91.518 107.94 92.862C107.226 94.458 106.47 96.054 105.798 97.692C105.21 98.952 104.79 100.296 104.454 101.64C104.37 102.102 104.748 102.27 105.168 102.228C105.672 102.144 106.134 101.85 106.344 101.388C107.016 99.96 107.604 98.532 108.15 97.062C108.528 96.096 108.864 95.088 109.158 94.08C109.2 93.954 109.242 93.828 109.284 93.66C109.284 93.702 109.326 93.492 109.284 93.66C109.284 93.618 109.326 93.576 109.368 93.492C109.2 93.66 109.41 93.366 109.368 93.492C109.536 93.324 109.242 93.576 109.284 93.534C109.452 93.45 109.116 93.618 109.2 93.576C109.368 93.492 108.948 93.66 109.116 93.618C108.948 93.66 108.864 93.66 108.864 93.66C108.822 93.576 108.78 93.702 108.906 93.66C108.864 93.618 109.032 93.618 108.906 93.66C108.99 93.702 109.074 93.786 109.116 93.828C109.2 93.912 109.116 93.828 109.158 93.87C109.2 93.912 109.242 93.954 109.284 94.038C109.62 94.626 109.746 95.34 109.746 96.012C109.83 98.7 108.906 101.556 107.772 103.992C106.764 106.092 105.42 108.024 103.866 109.704C102.9 110.754 101.808 111.636 100.884 112.728C100.548 113.148 100.296 113.61 100.128 114.114C99.75 114.996 99.372 115.92 98.952 116.802C97.608 119.91 96.18 122.976 94.71 126.042C92.988 129.654 91.14 133.266 89.124 136.71C88.242 138.222 87.318 139.734 86.31 141.162C85.596 142.212 84.756 143.22 83.832 144.102C83.748 144.186 83.748 144.186 83.832 144.102L83.664 144.228C83.58 144.312 83.496 144.396 83.37 144.438C83.244 144.48 83.118 144.606 82.992 144.69C82.95 144.69 82.74 144.858 82.908 144.774C83.076 144.69 82.824 144.816 82.74 144.858C82.068 145.236 81.396 145.572 80.724 145.824C80.892 145.74 80.682 145.824 80.64 145.866L80.304 145.992L79.716 146.202C79.296 146.37 78.876 146.496 78.414 146.664C77.49 146.958 76.566 147.252 75.6 147.504C71.652 148.554 67.662 149.394 63.672 150.024C61.11 150.444 58.548 150.822 55.944 151.158L55.566 151.2L56.322 151.62L55.02 144.69L52.92 133.644L52.416 131.082L50.988 132.132C53.97 132.258 56.952 132.3 59.934 132.3C62.538 132.3 65.184 132.258 67.788 132.09C70.056 132.006 72.366 131.754 74.592 131.376C75.306 131.292 75.978 131.04 76.608 130.62C77.07 130.284 77.49 129.906 77.868 129.444C78.96 128.184 79.968 126.882 80.892 125.538C83.286 122.136 85.47 118.566 87.612 114.996C88.956 112.77 90.3 110.544 91.56 108.276L91.602 108.15C91.77 107.94 91.728 107.646 91.518 107.478C91.434 107.394 91.308 107.352 91.182 107.352C90.636 107.352 90.174 107.604 89.88 108.024C88.872 109.83 87.78 111.636 86.73 113.442C84.672 116.928 82.53 120.414 80.262 123.774C79.716 124.572 79.17 125.37 78.624 126.126C78.372 126.462 78.12 126.798 77.868 127.176C77.742 127.344 77.616 127.47 77.532 127.638L77.364 127.848C77.49 127.68 77.28 127.974 77.238 128.016C76.86 128.52 76.44 128.982 75.978 129.444L75.726 129.696C75.684 129.738 75.936 129.528 75.768 129.654L75.642 129.78C75.558 129.864 75.264 130.032 75.642 129.822C75.348 129.948 75.516 129.906 75.642 129.822L75.558 129.864C75.768 129.78 75.6 129.864 75.474 129.864L74.76 129.99C74.256 130.074 73.752 130.158 73.248 130.2C72.114 130.368 70.98 130.452 69.804 130.536C67.326 130.704 64.848 130.788 62.328 130.788C58.884 130.83 55.44 130.746 52.038 130.62H51.87C51.408 130.62 50.316 131.04 50.442 131.67L51.744 138.6L53.844 149.646L54.306 152.208C54.39 152.586 54.726 152.67 55.062 152.628C57.036 152.418 58.968 152.124 60.942 151.788C65.1 151.158 69.216 150.402 73.29 149.394C76.902 148.512 80.766 147.546 83.916 145.53C84.966 144.816 85.932 143.934 86.688 142.884C87.738 141.54 88.704 140.154 89.586 138.726C91.77 135.24 93.66 131.586 95.466 127.89C97.146 124.53 98.742 121.086 100.254 117.642C100.926 116.13 101.556 114.576 102.228 113.064C102.06 113.442 102.396 112.938 102.144 113.232C102.228 113.148 102.312 113.064 102.354 112.98C102.522 112.77 102.732 112.56 102.942 112.392C103.53 111.846 104.118 111.3 104.664 110.712C106.344 109.032 107.73 107.142 108.906 105.084C110.376 102.48 111.258 99.624 111.552 96.642C111.636 95.382 111.72 93.24 110.418 92.484C109.116 91.728 107.604 92.946 107.268 94.164C106.638 96.222 105.882 98.238 105 100.212C104.79 100.674 104.58 101.136 104.37 101.598L106.26 101.346C106.554 100.128 106.932 98.91 107.436 97.734C108.108 96.054 108.864 94.374 109.62 92.736C110.292 91.266 110.838 89.544 110.544 87.906C110.334 86.856 109.788 85.848 108.654 85.554C107.352 85.218 106.008 85.932 105.084 86.814C104.328 87.612 103.74 88.536 103.278 89.544C102.69 90.762 102.186 91.98 101.682 93.24C100.968 95.088 100.296 96.936 99.708 98.826C99.54 99.288 100.044 99.456 100.422 99.414C100.926 99.372 101.388 99.036 101.598 98.574C103.11 95.004 104.538 91.224 105.126 87.402C105.336 86.352 105.378 85.26 105.252 84.21C105.126 83.538 104.874 82.824 104.16 82.572C103.278 82.236 102.312 82.74 101.598 83.202C100.758 83.79 100.044 84.504 99.54 85.344C98.07 87.612 97.062 90.258 96.138 92.778C95.424 94.626 94.752 96.474 94.164 98.364L96.054 97.776C95.424 96.18 94.458 94.752 93.198 93.576C92.19 92.694 90.678 92.232 89.628 93.366C88.41 94.626 89.334 96.81 89.712 98.238C90.3 100.506 90.552 102.858 90.384 105.21C90.342 106.302 90.132 107.352 89.838 108.36C89.67 108.822 90.216 108.99 90.552 108.948C90.972 108.738 91.434 108.402 91.644 107.94Z" fill="#191A23"/>
<path d="M39.396 127.932C39.396 127.932 8.48398 148.344 8.48398 154.686C8.48398 161.028 29.106 172.746 29.106 172.746L39.396 127.932Z" fill="white"/>
<path d="M38.766 127.638C36.204 129.318 33.684 131.082 31.206 132.846C26.25 136.332 21.378 139.944 16.758 143.85C14.658 145.572 12.642 147.462 10.794 149.436C9.57599 150.78 8.18999 152.292 7.64399 154.056C7.09799 155.82 8.39999 157.794 9.49199 159.138C11.34 161.448 13.65 163.338 16.002 165.102C19.866 168.042 23.94 170.73 28.182 173.166L28.434 173.292C28.938 173.586 30.072 173.166 30.198 172.578L31.206 168.126L33.642 157.458L36.624 144.48L39.186 133.308L40.026 129.612C40.152 129.024 40.362 128.436 40.446 127.848C40.446 127.806 40.446 127.806 40.446 127.764C40.614 126.966 38.598 127.386 38.43 128.1L37.38 132.594L34.944 143.262L31.92 156.24L29.358 167.412L28.518 171.108C28.392 171.696 28.224 172.284 28.098 172.872C28.098 172.914 28.098 172.914 28.098 172.956L29.862 172.242C26.334 170.226 22.932 168.042 19.656 165.648C17.136 163.884 14.784 161.952 12.642 159.81C11.76 158.97 11.004 158.004 10.374 156.996C9.95399 156.282 9.49199 155.274 9.53399 154.56C9.53399 154.266 9.61799 153.972 9.70199 153.72C9.65999 153.846 9.74399 153.552 9.70199 153.72C9.70199 153.678 9.70199 153.678 9.74399 153.636C9.78599 153.594 9.78599 153.468 9.82799 153.426C9.91199 153.258 9.99599 153.09 10.08 152.922C10.5 152.166 11.004 151.452 11.592 150.822C13.272 148.932 15.078 147.168 16.968 145.53C21.378 141.666 26.292 138.012 31.122 134.568C34.062 132.468 37.002 130.494 39.984 128.436L40.11 128.352C40.446 128.142 40.614 127.722 40.236 127.512C39.858 127.302 39.102 127.428 38.766 127.638Z" fill="#191A23"/>
<path d="M41.706 95.3401C41.706 95.3401 47.082 98.7841 51.45 97.3981C55.818 96.0121 63.798 91.9381 66.024 96.0121C68.25 100.086 62.832 103.32 58.884 103.74C58.884 103.74 63.21 114.954 57.372 120.036C51.534 125.118 47.838 124.152 48.72 128.982C48.72 128.982 42.714 139.482 39.228 130.914C38.682 129.57 30.408 113.568 39.228 105.084C39.228 105.042 44.352 100.632 41.706 95.3401Z" fill="white"/>
<path d="M41.202 96.054C42.84 97.062 44.604 97.818 46.494 98.238C48.006 98.658 49.56 98.7 51.114 98.448C52.374 98.112 53.592 97.692 54.81 97.188C57.246 96.264 59.85 95.172 62.538 95.13C62.748 95.13 62.958 95.13 63.168 95.172C63.294 95.172 63.42 95.214 63.546 95.214C63.588 95.214 63.798 95.256 63.672 95.214C63.546 95.172 63.84 95.256 63.84 95.256C63.966 95.298 64.05 95.34 64.176 95.382L64.302 95.424C64.428 95.508 64.512 95.55 64.638 95.634C64.638 95.634 64.764 95.718 64.68 95.676C64.596 95.634 64.764 95.76 64.806 95.802C65.142 96.18 65.352 96.6 65.478 97.104C65.604 97.608 65.604 98.112 65.436 98.616C65.016 99.918 63.882 100.842 62.748 101.514C61.488 102.228 60.102 102.69 58.674 102.858C58.212 102.9 57.75 103.362 57.918 103.866C59.01 106.68 59.514 109.704 59.43 112.77C59.346 114.996 58.716 117.222 57.162 118.86C56.028 119.994 54.81 120.96 53.424 121.758C52.374 122.43 51.282 123.018 50.232 123.648C49.35 124.11 48.594 124.824 48.048 125.664C47.46 126.714 47.544 127.932 47.754 129.108L47.88 128.436C47.46 129.15 46.998 129.822 46.494 130.494C46.284 130.788 46.032 131.082 45.78 131.334L45.402 131.754L45.234 131.922L45.108 132.048C44.814 132.3 44.562 132.552 44.226 132.762C44.1 132.846 43.932 132.972 43.764 133.056C43.596 133.14 43.722 133.056 43.68 133.098C43.638 133.14 43.512 133.182 43.428 133.224C43.26 133.308 43.134 133.35 42.966 133.392C42.924 133.392 43.092 133.392 42.924 133.392L42.672 133.434C42.546 133.434 42.462 133.434 42.63 133.434H42.378C42.168 133.434 42.42 133.434 42.378 133.434L42.126 133.35C41.958 133.308 42.252 133.434 42.084 133.35L41.832 133.182C41.664 133.098 41.79 133.182 41.748 133.14C41.706 133.098 41.58 132.972 41.496 132.93C41.202 132.594 40.908 132.258 40.74 131.838C40.236 130.872 39.816 129.906 39.396 128.898C39.48 129.108 39.312 128.688 39.27 128.604L39.06 128.142C38.934 127.806 38.766 127.428 38.64 127.092C38.304 126.252 38.052 125.454 37.758 124.614C37.128 122.682 36.666 120.708 36.414 118.692C35.868 114.366 36.456 109.788 39.438 106.428L39.732 106.134L39.984 105.882C39.9 105.966 39.984 105.882 40.026 105.84C40.194 105.672 40.362 105.504 40.53 105.336C41.034 104.79 41.496 104.244 41.916 103.614C43.176 101.682 43.848 99.414 43.344 97.104C43.176 96.432 42.966 95.76 42.63 95.13C42.126 94.122 40.236 94.626 40.824 95.802C42.294 98.784 40.908 101.976 38.766 104.202L38.598 104.37C38.682 104.286 38.724 104.244 38.64 104.328C38.556 104.412 38.388 104.538 38.262 104.664C37.59 105.336 37.002 106.05 36.498 106.848C35.532 108.36 34.902 110.04 34.524 111.762C33.348 117.894 35.238 124.278 37.674 129.822C37.8 130.158 37.968 130.452 38.094 130.788L38.22 131.124C38.304 131.292 38.136 130.998 38.178 131.04C38.304 131.25 38.388 131.502 38.472 131.712C39.102 133.14 40.11 134.61 41.664 135.03C44.268 135.786 46.494 133.644 48.006 131.796C48.552 131.166 49.014 130.452 49.434 129.738C49.476 129.696 49.518 129.612 49.518 129.57C49.686 129.234 49.686 128.856 49.602 128.52C49.56 128.184 49.56 127.806 49.56 127.47C49.56 127.386 49.56 127.302 49.602 127.26C49.644 127.092 49.56 127.47 49.602 127.176C49.644 127.008 49.686 126.882 49.77 126.714C49.77 126.672 49.812 126.63 49.854 126.546C49.77 126.756 49.896 126.504 49.896 126.504C49.98 126.378 50.064 126.294 50.148 126.168L50.274 126.042C50.442 125.832 50.19 126.126 50.316 126C50.442 125.874 50.568 125.79 50.694 125.706C51.282 125.286 51.912 124.908 52.584 124.53C54.516 123.48 56.364 122.22 58.044 120.75C62.706 116.634 61.824 109.284 59.976 103.992L59.85 103.614L59.094 104.622C61.866 104.328 65.016 103.026 66.612 100.674C68.082 98.658 67.662 95.802 65.604 94.332C65.352 94.122 65.058 93.996 64.764 93.87C62.286 92.778 59.136 93.744 56.7 94.542C55.356 95.004 54.012 95.508 52.668 96.012C51.408 96.474 50.148 96.936 48.804 96.894C47.208 96.768 45.654 96.39 44.184 95.718C43.722 95.508 43.26 95.298 42.84 95.046C42.63 94.92 42.42 94.836 42.252 94.71C41.79 94.416 41.202 94.458 40.824 94.878C40.572 95.298 40.698 95.844 41.118 96.096C41.118 96.012 41.16 96.054 41.202 96.054Z" fill="#191A23"/>
<path d="M32.55 122.85C32.55 122.85 27.888 127.302 25.368 124.824C22.848 122.346 26.754 121.128 26.754 121.128C26.754 121.128 19.362 117.306 24.318 113.148C24.318 113.148 17.178 111.132 18.438 104.79C19.698 98.4481 28.518 97.2301 28.518 97.2301C28.518 97.2301 24.696 90.7621 30.828 88.4521C36.96 86.1421 37.8 90.8881 37.8 90.8881C37.8 90.8881 41.706 89.3761 43.05 91.5601C44.394 93.7441 42.168 96.1801 42.168 96.1801C42.168 96.1801 44.73 103.236 39.228 105.042L38.934 115.836C38.934 115.836 42.252 117.894 42.126 121.926C42 125.958 34.608 127.218 32.55 122.85Z" fill="#191A23"/>
<path d="M31.668 122.262C31.92 122.01 31.542 122.388 31.458 122.472C31.164 122.724 30.912 122.934 30.618 123.144C29.862 123.732 29.022 124.236 28.098 124.572C27.678 124.74 27.216 124.824 26.754 124.824C26.67 124.824 26.502 124.824 26.46 124.824C26.502 124.824 26.166 124.74 26.334 124.782C26.292 124.782 26.25 124.74 26.208 124.74C26.04 124.656 26.334 124.824 26.166 124.74C25.998 124.656 26.124 124.74 25.998 124.614C25.368 124.026 25.284 123.354 25.914 122.724C26.208 122.472 26.502 122.22 26.838 122.052C26.964 122.01 27.132 121.926 27.258 121.884C27.384 121.842 27.174 121.926 27.3 121.884C28.182 121.59 27.174 120.708 26.796 120.498C26.754 120.498 26.628 120.414 26.838 120.498C27.048 120.624 26.796 120.456 26.754 120.456C26.502 120.33 26.25 120.162 26.04 119.994C25.872 119.91 25.746 119.784 25.62 119.658C25.41 119.49 25.788 119.826 25.578 119.616L25.326 119.406C25.158 119.28 24.99 119.112 24.864 118.986C24.738 118.86 24.612 118.776 24.528 118.608C23.982 118.062 23.688 117.348 23.604 116.592C23.562 115.458 24.318 114.492 25.158 113.778C25.788 113.274 24.696 112.518 24.234 112.392L24.024 112.35C23.772 112.266 24.15 112.392 24.024 112.35L23.688 112.224C23.394 112.098 23.142 111.972 22.89 111.846L22.68 111.762C22.47 111.636 22.806 111.846 22.638 111.72L22.134 111.426C21.966 111.342 21.798 111.216 21.672 111.09C21.63 111.048 21.42 110.88 21.588 111.006L21.294 110.796C21.126 110.67 21 110.544 20.832 110.376L20.748 110.292C20.664 110.208 20.58 110.082 20.496 109.998C19.95 109.326 19.572 108.486 19.404 107.646C18.984 105.504 19.866 103.278 21.336 101.724C22.68 100.38 24.318 99.3721 26.124 98.784C27.132 98.406 28.182 98.1541 29.232 97.9861C29.442 97.9441 29.61 97.734 29.568 97.524C29.568 97.4401 29.526 97.356 29.484 97.314C29.148 96.7681 28.896 96.1801 28.728 95.5501C28.35 94.3321 28.182 93.0301 28.644 91.8121C29.316 90.0481 31.164 89.1661 32.928 88.7461C33.39 88.6201 33.81 88.5781 34.272 88.5361C34.608 88.5361 34.944 88.5361 35.28 88.6201L35.532 88.704C35.364 88.662 35.532 88.704 35.574 88.704L35.742 88.788C35.994 88.914 35.574 88.6621 35.784 88.8301C35.868 88.8721 36.162 89.124 35.952 88.914C36.078 88.998 36.162 89.082 36.288 89.208C36.078 88.998 36.372 89.2921 36.414 89.3761C36.456 89.4601 36.498 89.46 36.54 89.544C36.414 89.334 36.54 89.5441 36.582 89.5861C36.666 89.7541 36.792 89.9641 36.876 90.1321C36.792 89.9221 36.918 90.3 36.96 90.384C37.002 90.468 37.002 90.5101 37.002 90.5521C37.254 91.2661 37.968 91.6441 38.682 91.4761C38.514 91.5181 38.808 91.4341 38.682 91.4761L39.018 91.3501C39.354 91.2661 39.648 91.182 39.984 91.098C40.404 91.014 40.824 90.972 41.244 91.014C41.412 91.014 41.58 91.0561 41.748 91.0561C41.874 91.0981 42 91.1401 42.084 91.1821C42.168 91.2241 42.168 91.2241 42.084 91.1821C42.126 91.2241 42.168 91.266 42.21 91.308C42.294 91.434 42.126 91.1821 42.294 91.3921C42.462 91.6441 42.546 91.8961 42.63 92.1901C42.714 92.7361 42.63 93.2821 42.462 93.7861C42.21 94.4161 41.874 94.9621 41.412 95.4661C41.37 95.5501 41.328 95.6761 41.37 95.8021C42.462 98.7841 42.294 102.984 38.766 104.16C38.64 104.202 38.43 104.286 38.43 104.496L38.136 114.744C38.136 114.912 38.136 115.08 38.136 115.248C38.178 115.668 38.43 116.046 38.85 116.256C38.976 116.34 39.144 116.508 38.934 116.34C39.06 116.466 39.228 116.592 39.354 116.718L39.606 116.928C39.648 116.97 39.732 117.054 39.606 116.928L39.732 117.054C39.942 117.306 40.11 117.516 40.32 117.768C41.076 118.902 41.454 120.288 41.286 121.674C41.118 122.682 40.488 123.564 39.606 124.026C38.556 124.614 37.338 124.824 36.162 124.656C35.574 124.572 35.07 124.362 34.566 124.068C34.398 123.942 34.23 123.816 34.062 123.648C33.852 123.396 33.642 123.102 33.516 122.808C33.264 122.346 32.802 122.052 32.256 122.01C32.004 121.968 31.794 122.094 31.71 122.346C31.668 122.472 31.71 122.598 31.794 122.682C33.306 125.748 37.212 126.966 40.278 125.79C41.622 125.328 42.63 124.278 43.008 122.934C43.428 121.254 42.798 119.238 41.874 117.852C41.202 116.802 40.362 115.92 39.312 115.248L39.984 116.13L40.236 106.68L40.278 105.336L39.942 105.672C41.79 105.126 43.218 103.614 43.638 101.724C43.932 100.254 43.848 98.7421 43.47 97.314C43.386 96.9781 43.302 96.642 43.176 96.348L43.134 96.684C43.764 96.012 44.184 95.172 44.394 94.248C44.73 92.736 44.1 91.1401 42.798 90.3001C41.118 89.1661 38.892 89.4181 37.086 90.0901L38.766 91.014C38.346 88.452 35.658 86.8561 33.222 86.9401C31.122 87.0241 28.602 87.8641 27.342 89.6701C26.418 90.9721 26.334 92.6941 26.67 94.2061C26.88 95.2141 27.258 96.1801 27.762 97.0621L28.014 96.3901C25.074 96.8101 21.924 98.1121 19.782 100.254C18.06 101.934 17.22 104.286 17.472 106.68C17.724 108.906 19.194 110.67 20.916 111.972C22.008 112.77 23.226 113.4 24.528 113.778L23.604 112.392C22.722 113.064 22.092 113.946 21.798 114.996C21.63 115.836 21.756 116.676 22.134 117.432C22.848 118.944 24.192 120.078 25.536 121.002C25.914 121.254 26.292 121.506 26.712 121.716L26.208 120.33C25.536 120.54 24.948 120.876 24.402 121.296C23.394 122.178 23.436 123.354 24.192 124.404C25.074 125.706 26.586 126.378 28.182 126.252C29.4 126.084 30.534 125.622 31.542 124.908C32.256 124.446 32.886 123.942 33.474 123.354C33.81 123.06 33.138 122.43 32.928 122.304C32.508 122.136 32.004 121.968 31.668 122.262Z" fill="#191A23"/>
<path d="M40.74 105.84C40.74 105.84 37.506 101.808 34.818 104.496C32.13 107.184 36.456 117.81 41.958 114.366" fill="white"/>
<path d="M41.454 105.588C40.488 104.37 39.144 103.446 37.632 102.984C35.742 102.522 33.684 103.362 33.18 105.378C32.76 106.974 33.138 108.696 33.684 110.208C34.314 111.972 35.406 113.484 36.876 114.618C38.598 115.962 40.95 116.088 42.798 114.954C43.218 114.702 42.756 114.114 42.504 113.904C42.126 113.568 41.58 113.526 41.16 113.736C40.866 113.904 40.53 114.072 40.152 114.156C40.068 114.198 39.942 114.198 39.858 114.24C39.774 114.24 39.69 114.24 39.606 114.282C39.522 114.324 39.228 114.282 39.438 114.282C39.27 114.282 39.102 114.24 38.934 114.24C39.144 114.282 38.766 114.198 38.724 114.156C38.682 114.114 38.43 114.03 38.682 114.156L38.472 114.072L38.262 113.946L38.136 113.862L37.8 113.61C37.59 113.442 37.926 113.736 37.716 113.568L37.506 113.4C37.296 113.19 37.086 112.938 36.876 112.686C36.456 112.098 36.078 111.468 35.784 110.796C35.238 109.536 34.986 108.15 35.07 106.806C35.112 106.26 35.28 105.756 35.574 105.336C35.7 105.168 35.49 105.42 35.616 105.294C35.658 105.21 35.742 105.168 35.784 105.126C35.952 104.958 36.12 104.832 36.288 104.748C36.624 104.58 37.002 104.454 37.338 104.496C37.506 104.496 37.632 104.538 37.8 104.58C37.8 104.58 38.136 104.706 37.926 104.622C38.052 104.664 38.178 104.748 38.304 104.79C38.304 104.79 38.598 104.958 38.43 104.832L38.682 105C38.85 105.126 39.018 105.252 39.186 105.378C39.354 105.504 39.06 105.252 39.27 105.42L39.522 105.63C39.606 105.714 39.69 105.798 39.816 105.924C39.9 106.008 40.026 106.134 40.11 106.26C40.446 106.638 40.992 106.806 41.496 106.68C41.916 106.302 41.706 105.84 41.454 105.588Z" fill="#191A23"/>
<path d="M52.668 108.654C53.928 110.334 55.86 111.342 57.96 111.426C58.926 111.384 59.892 111.132 60.774 110.628C61.11 110.46 60.816 110.082 60.606 109.956C60.27 109.788 59.85 109.788 59.514 109.956C59.136 110.166 58.758 110.334 58.338 110.418C58.17 110.46 58.002 110.46 57.792 110.46C57.666 110.46 57.498 110.46 57.372 110.46C57.078 110.418 56.742 110.334 56.49 110.208C56.322 110.166 56.532 110.25 56.406 110.166L56.154 110.04C55.986 109.956 55.86 109.872 55.734 109.788C55.692 109.788 55.65 109.746 55.608 109.704L55.44 109.578C55.314 109.494 55.23 109.41 55.104 109.326C54.936 109.158 54.726 108.99 54.558 108.822C54.474 108.738 54.642 108.906 54.516 108.78L54.432 108.696L54.264 108.528L54.138 108.36C53.886 108.066 53.466 107.94 53.088 108.024C52.794 108.15 52.458 108.36 52.668 108.654Z" fill="#191A23"/>
<path d="M49.014 100.464C48.678 100.212 48.342 100.044 47.922 99.96C47.418 99.876 46.872 100.002 46.452 100.296C45.738 100.716 45.066 101.766 45.654 102.522C45.99 102.858 46.368 103.152 46.788 103.32C47.04 103.404 47.292 103.32 47.46 103.152C47.544 103.068 47.754 102.732 47.544 102.606C47.334 102.522 47.124 102.396 46.914 102.27C46.746 102.186 46.62 102.06 46.536 101.934C46.494 101.892 46.494 101.85 46.452 101.808C46.452 101.808 46.41 101.682 46.41 101.724C46.41 101.682 46.368 101.64 46.368 101.598C46.368 101.598 46.368 101.472 46.368 101.556C46.368 101.472 46.368 101.346 46.41 101.262C46.41 101.262 46.494 101.094 46.452 101.178L46.536 101.052L46.578 101.01C46.536 101.052 46.536 101.052 46.578 101.01C46.62 100.968 46.662 100.926 46.704 100.884C46.62 100.926 46.662 100.926 46.704 100.884L46.746 100.842L46.83 100.8L46.788 100.842L46.914 100.8C46.956 100.758 46.998 100.758 46.914 100.8L46.998 100.758H47.082C47.04 100.758 47.04 100.758 47.082 100.758H47.208H47.292L47.46 100.8C47.544 100.842 47.628 100.842 47.712 100.884C47.922 100.968 48.09 101.094 48.258 101.178C48.468 101.304 48.762 101.136 48.93 101.01C49.098 100.884 49.182 100.59 49.014 100.464Z" fill="#191A23"/>
<path d="M70.56 186.018C70.56 186.018 65.142 148.596 48.3 128.226C48.3 128.226 36.666 119.574 30.156 141.708C23.646 163.842 21.924 189.882 21.924 189.882" fill="white"/>
<path d="M71.568 185.724C71.316 184.044 71.022 182.406 70.686 180.726C69.888 176.526 68.922 172.326 67.788 168.168C66.318 162.582 64.554 157.08 62.454 151.704C60.27 145.866 57.54 140.28 54.306 134.946C53.508 133.644 52.668 132.384 51.786 131.166C51.366 130.536 50.904 129.948 50.442 129.36C50.064 128.814 49.644 128.268 49.182 127.806C48.846 127.554 48.468 127.344 48.09 127.176C45.78 126.042 43.176 125.79 40.698 126.504C36.204 127.722 33.348 131.586 31.458 135.618C29.862 139.062 28.854 142.758 27.888 146.412C26.88 150.192 26.04 154.014 25.284 157.878C23.94 164.682 22.89 171.528 22.05 178.374C21.588 182.112 21.21 185.892 20.916 189.63L20.874 190.134C20.874 190.428 22.848 190.176 22.89 189.546C23.058 186.984 23.31 184.422 23.604 181.86C24.276 175.686 25.116 169.554 26.166 163.422C27.426 155.82 29.106 148.26 31.29 140.868C32.214 137.76 33.432 134.694 35.196 131.964C36.246 130.242 37.716 128.772 39.438 127.68L39.564 127.596L39.816 127.47L40.068 127.344C40.11 127.344 40.236 127.26 40.026 127.344L40.194 127.26C40.32 127.218 40.782 127.05 40.488 127.134C40.656 127.092 40.866 127.05 41.034 126.966C41.202 126.882 40.824 127.008 40.95 126.966L41.076 126.924L41.286 126.882L41.538 126.84C41.244 126.882 41.58 126.84 41.622 126.84C41.79 126.84 41.916 126.798 42.084 126.798C42.252 126.798 41.958 126.798 42.168 126.798H42.42C42.588 126.798 42.714 126.798 42.882 126.798H43.092H43.218H43.26C43.554 126.84 43.806 126.882 44.1 126.966C44.352 127.008 44.604 127.092 44.856 127.176L45.192 127.302L45.444 127.386C46.032 127.596 46.62 127.89 47.166 128.268C47.502 128.562 47.754 128.898 48.006 129.234C48.93 130.41 49.812 131.628 50.652 132.846C54.012 137.928 56.868 143.304 59.136 148.974C61.362 154.35 63.252 159.852 64.848 165.438C66.108 169.848 67.2 174.342 68.166 178.836C68.628 181.146 69.09 183.456 69.426 185.766L69.468 186.102C69.51 186.522 71.568 186.06 71.484 185.514L71.568 185.724Z" fill="#191A23"/>
<path d="M43.05 126.84L71.106 128.142L75.516 151.536C75.516 151.536 58.38 155.442 52.668 155.442" fill="white"/>
<path d="M43.05 127.05L52.542 127.47L67.662 128.184L71.106 128.352L70.056 128.142L71.568 136.08L73.92 148.638L74.466 151.536L74.634 151.452C68.88 152.754 63.084 153.972 57.246 154.812C56.322 154.938 55.356 155.064 54.432 155.148C54.096 155.19 53.676 155.232 53.298 155.232L52.752 155.274C53.004 155.274 52.752 155.274 52.71 155.274H52.416C52.29 155.274 51.576 155.232 51.66 155.484C51.744 155.736 52.794 155.652 52.962 155.652C56.532 155.652 60.102 154.938 63.588 154.308C67.158 153.678 70.686 152.964 74.214 152.166C74.97 151.998 75.684 151.83 76.44 151.662C76.482 151.662 76.566 151.62 76.608 151.578L75.096 143.64L72.744 131.082L72.198 128.184C72.156 127.974 71.274 127.974 71.148 127.974L61.656 127.554L46.536 126.84L43.092 126.672C42.966 126.672 42.042 126.63 42.042 126.84C42.042 127.05 42.966 127.05 43.05 127.05Z" fill="#191A23"/>
<path d="M13.02 148.218L19.488 151.494L22.638 153.09C23.604 153.636 24.654 154.056 25.746 154.266C26.208 154.308 26.712 154.308 27.174 154.266C27.258 154.266 27.93 154.14 27.552 154.098C26.46 153.93 25.452 153.384 24.486 152.88L21.336 151.284L15.078 148.092C14.742 147.924 14.154 148.05 13.776 148.05C13.65 148.05 12.894 148.176 13.02 148.218Z" fill="#191A23"/>
<path d="M57.498 128.142C60.27 134.19 62.37 140.49 63.798 146.958C64.176 148.806 64.554 150.654 64.806 152.502C64.848 152.838 66.948 152.544 66.906 152.25C65.898 145.698 64.176 139.272 61.824 133.056C61.152 131.292 60.396 129.57 59.64 127.848C59.43 127.428 57.498 127.974 57.498 128.142Z" fill="#191A23"/>
<path d="M44.436 127.596C44.058 131.46 45.99 134.946 47.754 138.222L53.718 149.142L57.12 155.358C57.666 156.366 59.514 155.358 58.968 154.35L53.172 143.724L50.274 138.39C49.35 136.71 48.426 135.072 47.67 133.35C46.83 131.502 46.284 129.528 46.494 127.47C46.578 126.21 44.562 126.462 44.436 127.596Z" fill="#191A23"/>
<path d="M24.822 164.85C30.534 165.942 36.372 166.572 42.21 166.698C47.208 166.782 52.29 166.572 57.078 165.186C59.808 164.43 62.412 163.212 64.764 161.616C65.142 161.364 65.31 160.86 65.058 160.482C65.058 160.44 65.016 160.44 65.016 160.398C64.638 160.02 64.008 160.146 63.588 160.398C59.724 163.044 55.062 164.262 50.484 164.682C45.36 165.186 40.11 164.976 34.986 164.472C31.878 164.178 28.77 163.716 25.704 163.128C25.158 163.044 24.612 163.296 24.36 163.8C24.15 164.136 24.276 164.598 24.654 164.808C24.696 164.808 24.738 164.85 24.822 164.85Z" fill="#191A23"/>
<path d="M66.234 173.712C56.28 178.248 45.738 183.036 34.566 182.7C31.206 182.574 27.888 182.028 24.612 181.44C24.318 181.398 23.688 181.314 23.688 181.776C23.688 182.238 24.444 182.49 24.78 182.574C27.804 183.162 30.87 183.582 33.936 183.834C36.834 184.002 39.732 183.918 42.588 183.498C48.216 182.7 53.634 180.894 58.884 178.752C61.908 177.534 64.848 176.19 67.788 174.846C68.586 174.468 66.822 173.46 66.234 173.712Z" fill="#191A23"/>
<path d="M30.744 140.616C32.97 140.238 35.07 139.104 37.002 138.012C39.27 136.71 41.454 135.24 43.554 133.644C44.52 132.93 45.444 132.132 46.326 131.334C46.62 131.082 46.494 130.956 46.158 131.082C45.696 131.25 45.276 131.544 44.898 131.88C43.05 133.56 41.034 135.114 38.892 136.416C36.876 137.718 34.608 139.062 32.172 139.482C31.71 139.608 31.248 139.86 30.912 140.196C30.786 140.238 30.324 140.7 30.744 140.616Z" fill="#191A23"/>
<path d="M28.896 153.846C32.172 154.182 35.448 153.846 38.598 152.796C41.748 151.704 44.688 150.024 47.166 147.798C48.636 146.538 50.022 145.152 51.366 143.766C51.87 143.262 50.526 141.666 50.022 142.128C47.67 144.522 45.276 146.916 42.42 148.722C38.136 151.41 33.096 152.586 28.098 152.082C27.174 151.998 28.224 153.762 28.896 153.846Z" fill="#191A23"/>
<path d="M115.248 164.85C115.248 164.85 121.086 155.526 120.246 155.274C119.406 155.022 85.26 161.112 86.394 163.926C87.528 166.74 101.514 179.298 103.026 178.5C104.538 177.702 107.814 173.88 107.814 173.88C107.814 173.88 118.944 178.374 119.574 177.744C120.204 177.114 115.248 164.85 115.248 164.85Z" fill="white"/>
<path d="M115.92 165.102C117.264 162.918 118.608 160.692 119.826 158.424C120.162 157.794 120.498 157.206 120.75 156.534C120.96 156.156 121.086 155.736 121.128 155.316C121.128 154.518 120.246 154.602 119.7 154.644C117.684 154.854 115.71 155.232 113.736 155.61C110.544 156.156 107.352 156.786 104.16 157.458C100.842 158.13 97.566 158.886 94.29 159.768C91.938 160.398 89.544 161.028 87.36 162.078C86.772 162.372 86.016 162.75 85.722 163.422C85.428 164.094 86.016 164.808 86.436 165.312C88.368 167.874 90.888 170.142 93.24 172.284C95.592 174.426 98.07 176.652 100.8 178.332C101.556 178.794 102.522 179.424 103.404 178.962C104.16 178.5 104.874 177.954 105.462 177.282C106.176 176.568 106.89 175.854 107.562 175.098C107.856 174.762 108.15 174.426 108.444 174.09L107.394 174.426C108.822 174.972 110.25 175.56 111.678 176.106C113.82 176.988 116.004 177.702 118.272 178.29C118.902 178.458 119.91 178.626 120.288 177.912C120.54 177.408 120.288 176.652 120.162 176.106C119.574 173.88 118.734 171.696 117.936 169.512C117.348 167.874 116.718 166.236 116.046 164.64C115.752 163.884 114.24 164.346 114.534 165.102C115.878 168.504 117.222 171.906 118.272 175.392C118.398 175.812 118.524 176.232 118.65 176.652C118.692 176.82 118.734 176.988 118.776 177.156C118.776 177.24 118.86 177.66 118.818 177.45C118.818 177.534 118.818 177.618 118.818 177.702C118.776 177.576 119.112 177.324 119.28 177.24C119.448 177.156 119.532 177.24 119.364 177.198C119.196 177.156 119.07 177.156 118.944 177.114C118.104 176.904 117.264 176.652 116.424 176.358C115.29 175.98 114.156 175.56 113.022 175.14C111.426 174.552 109.83 173.922 108.234 173.292C107.856 173.166 107.436 173.292 107.184 173.628C106.302 174.678 105.336 175.686 104.37 176.652C104.076 176.946 103.74 177.24 103.446 177.492C103.278 177.618 103.152 177.744 102.984 177.87C102.942 177.912 102.522 178.038 102.9 177.954C102.942 177.954 103.026 177.954 103.152 177.954C103.11 177.954 103.026 177.954 102.984 177.912C103.236 177.996 102.984 177.912 102.9 177.87L102.648 177.786C102.48 177.702 102.312 177.618 102.186 177.534C101.934 177.408 101.724 177.24 101.514 177.114C100.968 176.736 100.422 176.358 99.876 175.938C98.574 174.93 97.314 173.88 96.096 172.83C93.576 170.688 91.14 168.378 88.914 165.9C88.536 165.48 88.2 165.06 87.864 164.598C87.738 164.43 87.612 164.22 87.486 164.052L87.36 163.842C87.318 163.758 87.36 163.716 87.318 163.716C87.276 163.716 87.444 163.422 87.318 163.758C87.318 163.716 87.318 163.716 87.318 163.674C87.318 163.716 87.318 163.884 87.318 163.716C87.234 163.884 87.318 163.758 87.318 163.716C87.402 163.548 87.192 163.842 87.276 163.716C87.318 163.674 87.36 163.632 87.402 163.59C87.444 163.548 87.486 163.506 87.57 163.464C87.36 163.632 87.57 163.464 87.612 163.422C87.948 163.254 88.242 163.044 88.62 162.918L88.914 162.792L89.04 162.75L89.796 162.456C90.93 162.036 92.106 161.7 93.24 161.364C96.222 160.524 99.288 159.81 102.312 159.138C107.73 157.962 113.064 156.87 118.524 156.072C119.07 155.988 119.616 155.946 120.162 155.862C120.372 155.82 120.078 155.862 120.12 155.862C119.952 155.82 119.784 155.694 119.7 155.526C119.616 155.358 119.742 155.442 119.7 155.526C119.658 155.61 119.742 155.442 119.658 155.61C119.616 155.694 119.616 155.82 119.574 155.904C119.49 156.156 119.364 156.408 119.238 156.618C117.978 159.138 116.592 161.616 115.038 163.968L114.702 164.514C114.072 165.438 115.5 165.774 115.92 165.102Z" fill="#191A23"/>
<path d="M93.786 165.396C93.786 165.396 112.182 167.958 112.896 168.42C113.61 168.882 119.532 177.744 119.532 177.744" fill="white"/>
<path d="M93.744 166.068C97.86 166.656 101.976 167.244 106.05 167.874C108.15 168.21 110.208 168.504 112.308 168.924C112.098 168.882 112.392 168.966 112.308 168.924L112.434 168.966C112.602 169.008 112.644 169.05 112.434 168.966C112.224 168.882 112.392 168.924 112.476 169.05C112.56 169.176 112.686 169.302 112.812 169.47L112.896 169.596L113.106 169.89L113.652 170.646C114.03 171.192 114.45 171.738 114.828 172.284C116.172 174.174 117.474 176.106 118.776 178.08C118.986 178.416 119.448 178.584 119.826 178.458C120.12 178.332 120.288 178.038 120.204 177.702C120.204 177.66 120.162 177.618 120.162 177.576C119.028 175.854 117.894 174.174 116.718 172.494C115.962 171.402 115.206 170.352 114.408 169.302C113.988 168.756 113.568 168.042 112.896 167.832C112.224 167.622 111.51 167.496 110.796 167.412C109.62 167.202 108.486 167.034 107.31 166.824C104.496 166.404 101.724 165.984 98.91 165.564C97.188 165.312 95.466 165.06 93.702 164.808C93.324 164.724 92.988 164.976 92.946 165.312V165.354C92.988 165.774 93.408 166.068 93.744 166.068Z" fill="#191A23"/>
<path d="M104.622 176.946L112.224 169.428L113.316 168.378C113.484 168.21 113.652 168 113.358 167.958C113.064 167.916 112.602 168.294 112.392 168.462L104.832 175.98L103.74 177.03C103.572 177.198 103.362 177.408 103.698 177.45C104.034 177.492 104.454 177.114 104.622 176.946Z" fill="#191A23"/>
<path d="M93.366 165.816L100.17 165.438L111.048 164.85L113.568 164.724C113.946 164.682 114.282 164.514 114.576 164.22C114.786 164.01 114.702 163.884 114.408 163.884L107.604 164.262L96.726 164.85L94.206 164.976C93.828 165.018 93.492 165.186 93.198 165.48C92.988 165.69 93.072 165.858 93.366 165.816Z" fill="#191A23"/>
<path d="M36.036 74.382C35.616 70.14 35.49 65.478 37.842 61.698C38.766 60.144 40.194 58.884 41.874 58.17C43.428 57.54 45.15 57.54 46.704 58.128C47.502 58.422 48.174 58.968 48.678 59.64C49.056 60.186 49.392 61.068 48.93 61.698C48.594 62.118 48.006 62.244 47.502 62.076C46.83 61.782 46.284 61.194 46.116 60.48C45.528 58.674 46.074 56.574 46.914 54.936C47.88 53.13 49.098 51.534 50.568 50.148C53.718 47.04 57.708 44.898 62.034 43.932C62.538 43.848 62.874 43.386 62.79 42.882V42.84C62.58 42.336 62.034 42.084 61.488 42.21C56.91 43.218 52.668 45.486 49.266 48.762C47.46 50.4 45.99 52.374 44.898 54.558C43.932 56.616 43.302 59.178 44.226 61.362C44.604 62.37 45.36 63.21 46.368 63.714C47.418 64.176 48.552 64.176 49.602 63.714C50.61 63.252 51.24 62.286 51.282 61.152C51.24 60.018 50.778 58.926 49.98 58.128C46.788 54.726 41.076 55.65 37.968 58.59C33.684 62.664 33.474 68.922 34.02 74.466C34.062 75.012 34.524 75.39 35.07 75.348C35.448 75.306 36.078 74.928 36.036 74.382Z" fill="#B9FF66"/>
<path d="M127.176 175.392C131.67 175.896 136.416 176.358 140.742 174.72C144.774 173.166 148.05 170.142 150.024 166.32C151.074 164.304 151.41 161.952 150.99 159.726C150.864 159.096 148.848 158.718 148.974 159.348C149.814 163.296 147.714 167.118 144.984 169.806C143.514 171.318 141.792 172.536 139.902 173.418C137.928 174.258 135.786 174.72 133.644 174.762C131.208 174.804 128.772 174.678 126.378 174.342C126.084 174.3 125.622 174.426 125.832 174.804C126.042 175.182 126.756 175.35 127.176 175.392Z" fill="#B9FF66"/>
<path d="M149.73 149.52C149.1 146.37 145.53 144.984 142.632 145.572C142.59 145.572 142.296 145.614 142.296 145.74C142.38 146.286 143.094 146.328 143.514 146.37C144.06 146.454 144.606 146.37 145.068 146.076C145.824 145.488 145.698 144.144 145.53 143.304C145.11 141.204 143.64 139.482 141.624 138.81C141.162 138.642 140.658 138.6 140.154 138.684C139.818 138.768 139.734 138.936 140.112 139.062C141.54 139.608 142.674 140.742 143.178 142.17C143.43 142.842 143.556 143.598 143.556 144.312C143.556 144.69 143.514 145.026 143.388 145.404C143.304 145.53 143.22 145.656 143.094 145.782C143.052 145.824 142.968 145.866 142.926 145.866C144.018 146.496 144.48 146.496 144.396 145.95L144.06 146.118C144.816 145.95 145.53 146.412 146.118 146.874C146.916 147.504 147.42 148.386 147.63 149.394C147.756 149.856 149.814 149.772 149.73 149.52Z" fill="#B9FF66"/>
<path d="M123.018 65.73C123.564 62.916 125.958 60.48 127.722 58.674C129.486 56.868 131.208 53.928 128.478 53.844C125.748 53.76 123.438 56.406 123.438 56.406C123.438 56.406 123.9 42.966 121.8 42.798C119.49 42.63 119.49 49.35 119.49 49.35C119.49 49.35 117.978 40.95 115.92 41.538C113.862 42.126 114.87 48.762 114.87 48.762C114.87 48.762 112.56 42 111.174 47.334C109.788 52.752 111.384 59.43 112.056 64.176C112.098 64.386 112.056 64.554 112.014 64.764C111.258 67.578 112.476 96.096 117.726 99.204C123.354 102.522 149.058 100.044 149.058 100.044L154.98 82.74L126.084 84.378L123.018 65.73Z" fill="white"/>
<path d="M123.606 66.108C123.984 64.218 125.118 62.622 126.378 61.194C127.47 59.934 128.772 58.842 129.654 57.456C130.326 56.406 130.956 54.852 129.948 53.802C128.856 52.668 126.882 53.172 125.664 53.76C124.614 54.264 123.648 55.02 122.892 55.902L124.068 56.7C124.194 53.676 124.11 50.652 123.858 47.586C123.732 46.074 123.648 44.142 122.724 42.84C122.346 42.252 121.632 41.958 120.96 42.21C120.162 42.504 119.742 43.386 119.49 44.142C119.028 45.78 118.776 47.46 118.818 49.14L120.078 49.434C119.658 47.082 119.07 44.52 117.894 42.42C117.348 41.496 116.256 40.236 115.122 41.076C113.988 41.916 113.988 43.806 113.946 45.024C113.946 46.242 114.03 47.502 114.198 48.72L115.374 48.636C115.038 47.67 114.618 46.746 114.072 45.906C113.736 45.36 113.232 44.898 112.644 44.646C111.972 44.436 111.426 44.814 111.09 45.402C110.502 46.452 110.292 47.754 110.124 48.972C109.956 50.358 109.914 51.786 109.956 53.172C110.124 56.028 110.502 58.842 111.006 61.656C111.174 62.58 111.468 63.588 111.3 64.512C111.258 64.848 111.216 65.226 111.174 65.562C111.09 66.612 111.09 67.662 111.132 68.67C111.174 71.904 111.342 75.138 111.636 78.33C111.93 82.068 112.392 85.764 113.064 89.46C113.61 92.274 114.282 95.298 115.752 97.818C116.214 98.7 116.886 99.414 117.768 99.918C118.902 100.464 120.12 100.842 121.338 101.01C124.698 101.598 128.184 101.64 131.586 101.64C137.382 101.64 143.22 101.304 149.016 100.758L149.31 100.716C149.478 100.716 149.562 100.548 149.604 100.422L151.62 94.584L154.812 85.218L155.526 83.076C155.652 82.656 155.232 81.942 154.77 81.942L144.942 82.488L129.402 83.37L125.832 83.58L126.63 84.378L125.58 78.078L123.9 68.082L123.522 65.772C123.396 65.016 122.136 64.638 122.304 65.646L123.354 71.946L125.034 81.942L125.412 84.252C125.454 84.588 125.832 85.05 126.168 85.05L135.996 84.504L151.536 83.622L155.106 83.412L154.308 82.278L152.292 88.116L149.1 97.44L148.344 99.582L148.638 99.288C143.976 99.75 139.272 100.002 134.568 100.128C130.998 100.254 127.47 100.17 123.9 99.918C122.514 99.834 121.128 99.624 119.742 99.288C119.238 99.162 118.734 98.994 118.23 98.784C118.104 98.742 118.02 98.7 117.894 98.616C117.768 98.532 118.02 98.7 117.852 98.616L117.726 98.532L117.516 98.406C117.39 98.28 117.474 98.364 117.516 98.406L117.348 98.28L117.138 98.07C116.97 97.86 117.138 98.112 117.012 97.944C116.886 97.776 116.718 97.566 116.592 97.356C116.55 97.314 116.382 96.978 116.466 97.146C116.424 97.062 116.34 96.936 116.298 96.852C116.172 96.558 116.046 96.264 115.92 96.012C115.416 94.794 114.996 93.534 114.702 92.232C113.904 88.872 113.358 85.47 113.022 82.026C112.644 78.666 112.392 75.306 112.266 71.904C112.14 69.762 112.14 67.578 112.308 65.436C112.308 65.268 112.266 65.562 112.308 65.352L112.35 65.226C112.434 64.764 112.434 64.344 112.392 63.882C112.224 62.664 112.014 61.446 111.804 60.27C111.3 57.498 111.006 54.642 111.006 51.828C111.006 50.484 111.174 49.098 111.51 47.796C111.594 47.334 111.762 46.872 111.972 46.452C112.014 46.326 112.098 46.242 112.182 46.116C112.224 46.074 112.308 46.032 112.392 45.99C112.434 45.948 112.434 45.99 112.476 45.99C112.434 45.99 112.644 46.116 112.518 46.032C112.602 46.116 112.686 46.2 112.728 46.284C112.602 46.158 112.77 46.326 112.77 46.368C112.77 46.41 112.896 46.536 112.938 46.62C113.232 47.082 113.484 47.586 113.694 48.132C113.82 48.384 113.904 48.678 113.988 48.93C114.198 49.602 115.29 49.77 115.164 48.846C115.038 48.048 114.996 47.208 114.954 46.41C114.912 45.276 114.828 43.68 115.458 42.672C115.542 42.504 115.71 42.378 115.878 42.294C115.962 42.252 116.046 42.252 116.13 42.294C116.046 42.252 116.13 42.294 116.214 42.378C116.088 42.252 116.298 42.462 116.34 42.504C116.214 42.378 116.424 42.63 116.466 42.672C116.508 42.714 116.55 42.798 116.592 42.882C116.634 42.966 116.718 43.092 116.634 42.966C117.222 44.142 117.684 45.36 117.936 46.662C118.146 47.544 118.356 48.426 118.524 49.35C118.608 49.938 119.784 50.568 119.784 49.644C119.784 48.384 119.91 47.166 120.162 45.948C120.33 45.234 120.498 44.352 121.044 43.848C121.254 43.638 121.464 43.68 121.632 43.596C121.632 43.596 121.464 43.554 121.59 43.596C121.506 43.554 121.422 43.512 121.548 43.596C121.548 43.596 121.674 43.806 121.59 43.68C121.506 43.554 121.632 43.722 121.632 43.764C121.674 43.89 121.716 44.016 121.8 44.142C121.758 44.016 121.8 44.184 121.842 44.226C121.884 44.268 121.884 44.394 121.926 44.478C121.968 44.646 122.01 44.814 122.052 44.982C122.22 45.78 122.304 46.62 122.388 47.418C122.556 49.266 122.598 51.156 122.598 53.004C122.598 54.096 122.598 55.188 122.556 56.28C122.556 56.784 123.27 57.582 123.732 57.078C124.236 56.532 124.824 56.028 125.496 55.608C126.084 55.23 126.756 54.936 127.428 54.768C127.764 54.684 128.1 54.642 128.436 54.684C128.646 54.726 128.856 54.768 129.066 54.852C128.94 54.81 129.024 54.642 128.982 54.894C128.94 55.146 128.898 55.356 128.772 55.608C128.52 56.196 128.184 56.7 127.806 57.204C126.882 58.38 125.706 59.388 124.74 60.564C123.522 61.992 122.472 63.63 122.094 65.478C122.052 65.856 122.22 66.276 122.556 66.486C123.102 66.486 123.522 66.486 123.606 66.108Z" fill="#191A23"/>
<path d="M120.918 53.802C120.918 53.424 120.876 53.046 120.834 52.668C120.666 51.24 120.456 49.77 120.204 48.342C120.162 47.964 119.742 47.754 119.406 47.712C119.196 47.67 118.65 47.712 118.692 48.09C118.944 49.518 119.154 50.946 119.322 52.416C119.364 52.794 119.406 53.172 119.406 53.55C119.406 54.096 120.918 54.474 120.918 53.802Z" fill="#191A23"/>
<path d="M114.282 48.3C114.702 50.106 115.08 51.912 115.374 53.76C115.458 54.012 115.668 54.222 115.92 54.264C116.13 54.306 116.382 54.222 116.34 53.97C116.046 52.164 115.668 50.316 115.248 48.51C115.164 48.258 114.954 48.048 114.702 48.006C114.534 47.964 114.24 48.048 114.282 48.3Z" fill="#191A23"/>
<path d="M121.422 60.3121C121.464 60.2701 121.464 60.1861 121.506 60.1441L121.59 60.0181C121.59 60.0601 121.632 59.9341 121.59 60.0181L121.632 59.9341C121.8 59.6401 122.01 59.3461 122.22 59.0941C122.766 58.3381 123.354 57.6661 123.984 56.9941C124.194 56.7421 123.9 56.3221 123.732 56.1541C123.564 55.9861 123.144 55.6081 122.892 55.8601C122.22 56.5321 121.632 57.2461 121.086 58.0021C120.75 58.4221 120.456 58.8841 120.204 59.3881C120.162 59.5141 120.204 59.6821 120.288 59.8081C120.372 59.9761 120.498 60.1441 120.666 60.2701C120.834 60.3961 121.254 60.6061 121.422 60.3121Z" fill="#191A23"/>
<path d="M168.504 67.956C168.126 51.324 157.122 48.384 149.772 48.888C142.422 49.392 137.97 52.878 137.046 56.112C136.374 58.548 143.724 71.148 143.724 71.148L157.962 80.598C157.92 80.598 168.798 80.64 168.504 67.956Z" fill="#191A23"/>
<path d="M140.196 124.992C140.196 124.992 132.342 95.13 150.066 83.118C173.796 67.074 180.726 124.068 180.726 124.068" fill="white"/>
<path d="M141.12 124.53C141.204 124.908 141.12 124.488 141.078 124.32C140.994 123.942 140.91 123.564 140.826 123.186C140.532 121.842 140.322 120.498 140.112 119.112C139.482 114.828 139.314 110.502 139.566 106.176C139.902 101.178 141.036 96.1381 143.43 91.7281C144.648 89.4601 146.244 87.4021 148.134 85.6381C149.1 84.7561 150.15 83.9581 151.242 83.2861L151.578 83.0761C151.62 83.0341 151.914 82.8661 151.746 82.9921C151.956 82.8661 152.208 82.7401 152.46 82.6141C152.88 82.4041 153.3 82.1941 153.72 82.0261C153.93 81.9421 154.098 81.8581 154.308 81.7741L154.602 81.6481C154.728 81.6061 154.392 81.6901 154.56 81.6481L154.728 81.6061C155.148 81.4801 155.526 81.3541 155.946 81.2701C156.114 81.2281 156.324 81.1861 156.492 81.1861L156.786 81.1441C156.534 81.1861 156.828 81.1441 156.912 81.1441C157.29 81.1021 157.668 81.1021 158.046 81.1021C158.214 81.1021 158.382 81.1021 158.592 81.1441H158.844C158.592 81.1021 158.928 81.1441 159.012 81.1861C159.348 81.2281 159.726 81.3121 160.062 81.3961C160.23 81.4381 160.398 81.4801 160.566 81.5221L160.818 81.6061C160.902 81.6481 161.154 81.7321 160.944 81.6481C161.28 81.7741 161.616 81.9001 161.952 82.0681C162.624 82.4041 163.254 82.7821 163.842 83.2441L163.968 83.3281L164.178 83.4961C164.346 83.6221 164.514 83.7481 164.64 83.8741C164.934 84.1261 165.228 84.3781 165.48 84.6721C166.068 85.2601 166.656 85.8481 167.16 86.4781C167.664 87.1501 168.21 87.8641 168.588 88.4521C170.646 91.6441 172.326 95.0881 173.628 98.7001C174.3 100.548 174.93 102.438 175.518 104.328C175.812 105.252 176.064 106.218 176.316 107.142C176.568 108.108 176.778 108.864 176.988 109.746C177.744 112.854 178.416 116.004 178.962 119.154C179.256 120.792 179.508 122.472 179.718 124.11C179.718 124.194 179.718 124.278 179.76 124.32C179.886 125.454 181.902 124.866 181.776 123.858C181.65 122.64 181.44 121.464 181.23 120.288C180.726 117.306 180.18 114.366 179.508 111.426C178.626 107.562 177.576 103.782 176.316 100.044C175.098 96.2641 173.502 92.6521 171.528 89.2081C169.764 86.2261 167.622 83.3701 164.724 81.4801C162.036 79.6741 158.718 79.0861 155.526 79.8421C150.948 80.9341 146.79 84.1681 143.934 87.8641C140.658 92.1481 138.81 97.3141 138.012 102.606C137.34 107.352 137.256 112.14 137.76 116.928C138.012 119.616 138.432 122.304 139.062 124.95C139.104 125.16 139.146 125.328 139.188 125.538C139.314 126.042 140.112 126 140.49 125.832C140.994 125.538 141.288 125.034 141.12 124.53Z" fill="#191A23"/>
<path d="M137.676 79.002C132.468 74.424 137.802 58.758 137.802 58.758C140.406 58.044 144.648 55.146 144.648 55.146C143.934 63.378 153.72 64.848 153.72 64.848C155.316 60.27 160.566 61.446 160.608 65.772C160.65 70.098 156.618 70.896 156.618 70.896C156.618 70.896 159.642 81.312 159.39 83.076C159.39 83.076 152.838 88.536 147.924 82.74C147.882 82.74 141.204 82.11 137.676 79.002Z" fill="white"/>
<path d="M137.256 78.2041C137.172 78.1201 137.046 78.0361 136.962 77.9101C136.878 77.7841 136.962 77.9101 136.92 77.8681C136.962 77.9941 136.836 77.6581 136.878 77.7841C136.836 77.6581 136.794 77.5741 136.71 77.4481C136.626 77.2381 136.542 77.0281 136.5 76.8181C136.206 75.8521 136.038 74.8441 136.038 73.8361C135.954 71.6101 136.122 69.3421 136.542 67.1581C136.878 65.3101 137.298 63.4621 137.802 61.6141C137.97 61.0681 138.096 60.5641 138.264 60.0181C138.264 59.8921 138.306 59.8081 138.348 59.6821C138.474 59.5141 138.936 59.4301 139.146 59.3881C141.288 58.5061 143.304 57.3721 145.194 56.0281L144.018 54.3481C143.766 57.4561 145.194 60.3541 147.42 62.4961C148.974 63.9241 150.864 64.9321 152.88 65.4361C153.3 65.5621 153.762 65.6461 154.224 65.7301H154.266C154.686 64.5121 155.526 63.3781 156.786 62.9581C157.794 62.6221 158.928 62.8741 159.726 63.5881C159.768 63.6301 159.81 63.7141 159.81 63.6721C159.81 63.7141 159.6 63.2941 159.642 63.4621C159.726 63.7561 159.852 64.0501 159.894 64.3441C159.978 65.1001 159.936 65.8561 159.726 66.6121C159.39 67.7461 158.634 68.7121 157.626 69.3421C157.122 69.6781 156.534 69.9301 155.904 70.0561C155.862 70.0981 155.862 70.1821 155.904 70.2241C156.408 71.9461 156.87 73.6681 157.332 75.3901C157.668 76.6921 158.004 78.0361 158.298 79.3381C158.466 80.2201 158.76 81.1861 158.718 82.1101C158.718 82.2781 158.634 82.2781 158.466 82.4461C158.13 82.6981 157.794 82.9081 157.458 83.1181C156.366 83.7901 155.19 84.2101 153.93 84.4621C152.334 84.7561 150.696 84.4621 149.31 83.6641C148.89 83.4121 148.512 83.1181 148.176 82.7821C147.924 82.5301 147.63 82.0261 147.294 81.9001C147.042 81.8581 146.832 81.8161 146.58 81.8161C143.388 81.3121 139.776 80.3881 137.256 78.2041C136.92 77.9101 137.214 78.5821 137.256 78.6241C137.466 79.0441 137.76 79.4641 138.096 79.8001C139.902 81.3961 142.254 82.2781 144.564 82.8661C145.824 83.2021 147.126 83.4541 148.428 83.5801L148.05 83.2441C148.932 84.3781 150.108 85.2601 151.452 85.8481C152.544 86.2261 153.678 86.3521 154.812 86.2261C156.534 85.9741 158.172 85.3021 159.558 84.2521C159.894 84.0001 159.978 83.9581 159.978 83.5381C159.936 82.8241 159.81 82.1101 159.684 81.4381C159.306 79.4641 158.802 77.4901 158.256 75.5161C157.92 74.2141 157.542 72.9121 157.164 71.6521V71.8201C158.928 71.4421 160.314 70.1821 160.944 68.5021C161.406 67.0321 161.238 65.4361 160.482 64.0921C159.81 62.8741 158.802 61.5301 157.374 61.2361C156.198 60.9841 155.022 61.3621 154.182 62.2441C153.93 62.4961 153.72 62.7901 153.552 63.0841C153.468 63.2521 153.384 63.3781 153.3 63.5461C153.258 63.5881 153.132 64.0921 153.132 64.0501C153.132 64.0081 152.88 64.0081 152.796 64.0081C151.2 63.6721 149.688 63.1261 148.302 62.2861C147.798 61.9921 147.294 61.6141 146.832 61.1941C146.622 60.9841 146.412 60.7741 146.202 60.5641L146.076 60.3961C146.034 60.3541 145.992 60.3121 145.95 60.2281C146.076 60.3961 145.866 60.1021 145.992 60.2701C145.866 60.0601 145.74 59.8081 145.656 59.5981C145.53 59.2621 145.404 58.9261 145.362 58.5481C145.194 57.7081 145.152 56.8681 145.236 56.0281C145.236 55.7761 144.312 54.1801 144.06 54.3481C142.296 55.6081 140.406 56.6581 138.432 57.5401C138.138 57.6661 137.844 57.7921 137.55 57.8761C137.466 57.9181 137.298 57.9181 137.214 58.0021C137.172 58.1281 137.13 58.2121 137.088 58.3381C136.92 58.8841 136.752 59.3881 136.626 59.9341C135.45 64.0921 134.484 68.5861 134.904 72.9121C135.156 75.5161 136.164 78.0781 138.138 79.8841C138.474 80.1781 138.18 79.5061 138.138 79.4221C137.844 78.9181 137.592 78.5401 137.256 78.2041Z" fill="#191A23"/>
<path d="M150.402 70.98C150.57 71.4 150.654 71.862 150.696 72.324C150.78 72.996 150.78 73.836 150.276 74.34C150.108 74.466 149.94 74.55 149.73 74.634C149.772 74.634 149.562 74.676 149.646 74.634C149.73 74.592 149.604 74.634 149.604 74.634C149.73 74.634 149.898 74.634 150.024 74.634H150.192C150.066 74.634 150.318 74.676 150.192 74.634L150.024 74.592C149.688 74.55 149.31 74.508 148.932 74.55C148.848 74.55 148.344 74.592 148.638 74.676C149.184 74.76 149.73 74.802 150.276 74.802C150.654 74.802 151.032 74.76 151.41 74.634C151.788 74.508 152.082 74.214 152.208 73.836C152.418 73.08 152.418 72.324 152.166 71.568C152.124 71.358 152.082 71.19 151.998 70.98C151.998 70.938 151.788 70.938 151.788 70.938C151.62 70.938 151.41 70.896 151.242 70.896C150.906 70.896 150.654 70.938 150.402 70.98Z" fill="#191A23"/>
<path d="M141.246 66.864C139.818 68.166 138.222 69.258 136.5 70.098C130.704 73.038 130.662 75.39 132.93 75.978C135.198 76.566 143.22 73.08 143.22 73.08" fill="white"/>
<path d="M140.49 66.108C138.936 67.662 136.92 68.628 135.03 69.678C133.812 70.308 132.72 71.064 131.754 71.988C131.124 72.534 130.746 73.29 130.662 74.088C130.578 75.81 132.468 76.902 133.98 76.902C135.87 76.902 137.844 76.146 139.608 75.516C141.036 75.012 142.422 74.466 143.808 73.878C144.732 73.458 143.43 71.82 142.632 72.198C141.624 72.618 140.616 73.038 139.65 73.416C137.928 74.13 136.164 74.676 134.316 75.054C133.938 75.138 133.602 75.138 133.224 75.18C133.014 75.18 132.846 75.18 132.636 75.096C132.678 75.138 132.426 75.012 132.3 74.928C132.426 75.012 132.426 75.012 132.3 74.928C132.174 74.844 132.468 75.096 132.3 74.928C132.132 74.76 132.384 75.012 132.342 74.97C132.216 74.802 132.384 75.054 132.342 75.012C132.258 74.844 132.342 75.18 132.342 75.012C132.342 74.844 132.342 75.012 132.342 74.97C132.342 74.928 132.342 74.844 132.342 74.802C132.342 74.676 132.342 74.802 132.342 74.76C132.384 74.592 132.426 74.466 132.51 74.298C132.678 74.004 132.888 73.71 133.14 73.5C134.022 72.618 135.03 71.904 136.164 71.358C138.18 70.266 140.28 69.216 141.918 67.578C142.632 66.948 141.12 65.478 140.49 66.108Z" fill="#191A23"/>
<path d="M163.086 72.3241C163.842 73.7941 164.766 75.1801 165.858 76.3981C167.412 78.1201 170.268 79.9681 172.452 78.2041C174.258 76.7341 175.476 73.5421 173.754 71.5681C172.536 70.1821 169.68 69.3421 168.252 70.8961C166.362 72.9541 168.462 76.3981 169.806 78.1201C171.654 80.5141 174.468 82.6141 177.45 83.2441C178.5 83.4961 179.76 83.5801 180.726 82.9501C181.692 82.3201 181.776 81.1441 181.65 80.1781C181.356 78.0781 179.298 76.7761 177.408 76.3141C175.812 75.9361 173.544 75.9361 172.326 77.2801C170.772 79.0441 172.452 81.4801 173.67 82.8661C174.342 83.5801 175.014 84.2521 175.77 84.8821C176.148 85.2181 176.652 85.3441 177.156 85.2601C177.618 85.0921 177.324 84.7141 177.072 84.5041C175.98 83.5801 175.014 82.5301 174.258 81.3121C173.838 80.6821 173.67 79.8841 173.754 79.1281C173.88 78.5401 174.258 78.0361 174.804 77.7841C175.35 77.4901 175.98 77.3641 176.61 77.3641H176.736C176.694 77.3641 176.568 77.3641 176.694 77.3641H176.946L177.198 77.4061L177.324 77.4481C177.198 77.4061 177.492 77.4901 177.324 77.4481L177.87 77.5741C177.66 77.5321 177.828 77.5741 177.912 77.6161L178.206 77.7421C178.332 77.7841 177.996 77.6581 178.122 77.7001L178.248 77.7421L178.458 77.8681C178.668 77.9941 178.332 77.7421 178.5 77.9101L178.752 78.0781C178.836 78.1621 178.668 77.9941 178.836 78.1201L179.046 78.3301C179.088 78.3721 179.088 78.3721 179.13 78.4141C179.088 78.3301 179.214 78.4981 179.13 78.4141C179.172 78.4981 179.256 78.5821 179.298 78.6661C179.718 79.3801 179.802 80.2201 179.592 81.0181C179.508 81.3541 179.34 81.6901 179.046 81.9001C178.92 81.9841 178.794 82.0681 178.668 82.1521C178.542 82.1941 178.374 82.2361 178.206 82.2781C178.122 82.2781 177.996 82.2781 177.912 82.2781C177.828 82.2781 178.038 82.2781 177.912 82.2781H177.744C177.618 82.2781 177.534 82.2361 177.408 82.2361C177.282 82.2361 177.576 82.2781 177.408 82.2361L177.198 82.1941L176.82 82.1101C176.61 82.0681 176.778 82.1101 176.82 82.1101L176.61 82.0261L176.232 81.8581C176.19 81.8581 175.812 81.6901 175.98 81.7321C174.846 81.1861 173.796 80.4721 172.914 79.5901C171.906 78.6661 171.066 77.5321 170.394 76.3141C169.89 75.3481 169.386 74.1301 169.554 73.0381C169.596 72.6601 169.722 72.3241 169.932 72.0301C170.142 71.7781 170.352 71.6101 170.646 71.4421C170.73 71.4001 170.814 71.4001 170.856 71.3581C170.898 71.3161 171.108 71.3161 170.94 71.3161L171.192 71.2741H171.276C171.15 71.2741 171.444 71.2741 171.276 71.2741L171.528 71.3161C171.486 71.3161 171.402 71.2741 171.57 71.3161C171.738 71.3581 171.36 71.2321 171.612 71.3161L171.654 71.3581C171.696 71.3581 171.738 71.4001 171.78 71.4001C171.906 71.4421 171.612 71.2741 171.738 71.3581C171.864 71.4421 171.864 71.4421 171.948 71.5261C172.032 71.6101 171.822 71.4001 171.906 71.5261C171.948 71.5681 171.948 71.5681 171.99 71.6101C172.032 71.6521 172.2 71.8621 172.116 71.7361C172.326 72.0301 172.494 72.4081 172.536 72.7861C172.704 73.9201 172.2 75.0541 171.612 76.0201C171.318 76.5241 170.94 76.9861 170.436 77.3221C170.268 77.4481 170.1 77.5321 169.932 77.6161C169.764 77.7001 169.596 77.7421 169.386 77.7001C169.26 77.7001 169.512 77.7001 169.386 77.7001C169.344 77.7001 169.302 77.7001 169.218 77.7001C169.092 77.7001 169.386 77.7421 169.26 77.7001C169.218 77.7001 169.176 77.6581 169.134 77.6581C169.008 77.6161 169.344 77.7421 169.176 77.6581L169.05 77.6161C168.84 77.5741 169.134 77.7001 168.924 77.5741L168.63 77.4061C168.798 77.5321 168.546 77.3641 168.504 77.3221L168.252 77.1121L168.126 76.9861C167.958 76.8601 168.168 77.0281 168.042 76.9021C166.824 75.7261 165.858 74.3401 165.102 72.8281L164.934 72.5341C164.64 72.1141 164.178 71.8621 163.674 71.8201C163.38 71.7781 162.918 71.9041 163.086 72.3241Z" fill="#191A23"/>
<path d="M147.588 66.78C147.588 66.486 147.504 66.192 147.42 65.898C147.252 65.478 147.042 65.1 146.79 64.722C146.706 64.554 146.538 64.428 146.412 64.302C145.95 64.008 145.11 63.924 144.816 64.512C144.732 64.848 144.732 65.226 144.816 65.562C144.9 65.856 145.026 66.192 145.194 66.444C145.278 66.57 145.362 66.696 145.446 66.822C145.446 66.822 145.572 66.948 145.53 66.864C145.446 66.57 145.446 66.276 145.488 65.982V66.024C145.656 65.436 146.37 65.352 146.874 65.562H146.832C146.958 65.604 147.042 65.688 147.126 65.73L147.168 65.772L147.21 65.814L147.126 65.73C147 65.52 146.874 65.31 146.79 65.1C146.748 65.016 146.748 64.974 146.748 65.016C146.748 65.058 146.748 65.016 146.748 64.974C146.748 65.016 146.748 65.016 146.748 65.058C146.748 65.016 146.748 65.1 146.748 65.058C146.748 65.1 146.748 65.142 146.748 65.184C146.748 65.226 146.748 65.394 146.748 65.478C146.79 65.604 146.832 65.73 146.874 65.814C146.958 65.982 147.042 66.192 147.126 66.36C147.21 66.486 147.294 66.654 147.378 66.738C147.504 66.78 147.63 66.864 147.588 66.78Z" fill="#191A23"/>
<path d="M139.944 66.822C139.986 66.57 139.944 66.276 139.902 66.024C139.776 65.646 139.65 65.31 139.44 64.974C139.314 64.722 139.146 64.47 138.936 64.302C138.558 63.966 137.802 63.798 137.55 64.344C137.508 64.47 137.466 64.554 137.466 64.68C137.466 64.89 137.466 65.1 137.466 65.31C137.508 65.436 137.55 65.562 137.592 65.646C137.676 65.814 137.76 66.024 137.844 66.192C137.928 66.318 138.012 66.486 138.096 66.57C138.096 66.612 138.18 66.696 138.18 66.612C138.138 66.36 138.18 66.108 138.222 65.856V65.898C138.264 65.73 138.39 65.562 138.558 65.436C138.81 65.31 139.104 65.31 139.356 65.436H139.314C139.44 65.478 139.524 65.562 139.65 65.646L139.692 65.688C139.692 65.73 139.776 65.772 139.692 65.688C139.524 65.436 139.398 65.142 139.272 64.848C139.272 64.89 139.272 64.89 139.272 64.848C139.272 64.806 139.272 64.848 139.272 64.89V64.974C139.272 65.016 139.272 65.1 139.272 65.142C139.272 65.184 139.272 65.352 139.272 65.478C139.272 65.604 139.314 65.73 139.398 65.814C139.482 65.982 139.566 66.192 139.65 66.36C139.734 66.486 139.818 66.654 139.902 66.738C139.902 66.822 139.986 66.906 139.944 66.822Z" fill="#191A23"/>
<path d="M163.884 121.926C163.506 121.758 155.316 118.398 150.78 118.356C146.244 118.314 138.81 123.27 140.238 124.992C141.666 126.714 146.118 122.766 150.15 123.438C150.15 123.438 145.11 126.672 143.22 128.226C141.12 129.948 142.59 132.048 144.816 130.956C146.874 129.99 149.016 129.234 151.242 128.73C151.242 128.73 147.798 131.208 145.824 132.3C143.85 133.392 144.564 136.374 148.344 135.198C152.124 134.022 154.476 134.064 154.476 134.064C154.476 134.064 166.614 137.172 169.47 133.602C169.47 133.602 182.238 135.324 187.488 130.662C191.604 126.966 176.568 101.892 169.932 91.266C166.95 86.478 159.558 89.208 160.398 94.794L160.44 95.13C161.322 100.548 169.428 122.64 169.428 122.64L163.884 121.926Z" fill="white"/>
<path d="M164.556 121.212C162.708 120.414 160.818 119.7 158.844 119.154C157.29 118.65 155.694 118.272 154.098 117.936C152.754 117.642 151.368 117.558 149.982 117.684C147 118.062 143.976 119.49 141.624 121.338C140.7 122.052 139.692 122.892 139.188 124.026C138.81 124.74 139.104 125.58 139.776 125.958C139.86 126 139.944 126.042 140.028 126.042C141.456 126.546 143.22 125.622 144.564 125.118C146.16 124.488 147.882 123.858 149.646 124.152L149.604 123.018C147.504 124.362 145.404 125.748 143.388 127.218C142.254 128.058 140.28 129.78 141.54 131.292C142.926 132.93 145.404 131.25 146.916 130.662C148.302 130.116 149.73 129.696 151.2 129.36L150.696 128.268C149.772 128.94 148.848 129.57 147.924 130.2C147.21 130.662 146.496 131.124 145.782 131.586C145.488 131.754 145.236 131.922 144.942 132.09C144.606 132.342 144.354 132.594 144.144 132.93C143.514 133.854 143.598 135.156 144.606 135.786C146.244 136.794 148.302 135.828 149.982 135.45C151.284 135.114 152.628 134.904 153.972 134.82C154.308 134.82 153.51 134.736 153.846 134.82L154.602 134.988C156.954 135.534 159.348 135.87 161.742 136.038C164.598 136.206 168.252 136.122 170.226 133.728L168.882 134.358C171.654 134.694 174.468 134.778 177.282 134.568C179.55 134.442 181.776 134.022 183.918 133.308C185.01 132.93 186.018 132.426 186.984 131.796C187.614 131.418 188.16 130.914 188.58 130.284C189.126 129.318 189.084 128.184 188.958 127.134C188.706 125.58 188.328 124.068 187.782 122.64C186.354 118.608 184.422 114.744 182.448 110.922C180.264 106.722 177.87 102.564 175.476 98.49C174.426 96.726 173.334 94.92 172.242 93.156C171.234 91.518 170.352 89.67 168.546 88.746C164.766 86.772 159.6 89.586 159.264 93.828C159.138 95.256 159.642 96.81 160.02 98.196C160.482 99.876 160.986 101.556 161.532 103.236C162.792 107.184 164.136 111.132 165.522 115.038C166.404 117.6 167.328 120.162 168.294 122.766C168.336 122.892 168.378 123.018 168.42 123.144L169.848 121.968L164.304 121.296C163.758 121.254 163.254 121.506 162.96 121.926C162.792 122.136 162.834 122.472 163.044 122.598C163.128 122.682 163.254 122.682 163.38 122.682L168.924 123.354C169.47 123.438 170.604 122.892 170.352 122.178C169.302 119.322 168.294 116.466 167.286 113.61C165.564 108.696 163.842 103.782 162.414 98.826C162.162 97.902 161.868 96.978 161.658 96.054C161.574 95.718 161.532 95.508 161.448 95.13C161.322 94.542 161.28 93.912 161.28 93.282C161.364 92.19 161.868 91.14 162.666 90.426C163.38 89.796 164.304 89.502 165.228 89.544C166.404 89.586 167.538 90.09 168.336 91.014C169.134 91.854 169.68 92.988 170.268 93.954C171.696 96.264 173.082 98.574 174.468 100.884C177.534 106.134 180.558 111.468 183.162 116.97C184.296 119.28 185.304 121.674 186.144 124.152C186.69 125.748 187.236 127.47 187.11 129.192C187.11 129.276 187.11 129.36 187.11 129.402C187.11 129.444 187.068 129.654 187.11 129.57C187.152 129.486 187.068 129.696 187.068 129.738C187.068 129.78 187.026 129.864 187.026 129.948C187.026 130.032 186.816 130.368 186.942 130.158C186.9 130.284 186.648 130.536 186.858 130.326C186.522 130.662 186.186 130.914 185.766 131.166C185.682 131.25 185.556 131.292 185.472 131.334C185.346 131.418 185.22 131.46 185.052 131.544C184.716 131.712 184.38 131.838 184.044 132.006L183.75 132.09C183.582 132.132 183.456 132.174 183.288 132.258C182.952 132.384 182.574 132.468 182.238 132.552C181.566 132.72 180.936 132.846 180.222 132.93C178.836 133.14 177.408 133.224 176.022 133.266C174.09 133.308 172.2 133.224 170.268 133.014C170.142 133.014 170.016 132.972 169.848 132.972C169.428 132.93 169.05 133.098 168.756 133.35C168.756 133.35 168.378 133.728 168.546 133.56C168.63 133.476 168.504 133.602 168.504 133.602L168.378 133.728C168.21 133.896 168.378 133.728 168.336 133.77L168.084 133.938C167.874 134.064 168.21 133.896 167.916 134.022L167.622 134.148C167.412 134.232 167.58 134.148 167.622 134.148C167.538 134.19 167.454 134.19 167.37 134.232C166.908 134.4 166.404 134.484 165.9 134.526C163.422 134.82 160.86 134.526 158.424 134.106C157.92 134.022 157.374 133.938 156.87 133.812L156.24 133.686L155.988 133.644L155.862 133.602C155.778 133.602 156.03 133.644 155.82 133.602C155.4 133.476 154.98 133.392 154.56 133.392C153.51 133.434 152.46 133.56 151.452 133.77C150.444 133.98 149.436 134.232 148.428 134.526C147.798 134.736 147.084 134.946 146.454 134.736C146.076 134.652 145.74 134.316 145.656 133.938C145.614 133.644 145.698 133.308 145.866 133.056C145.95 132.972 146.076 132.888 146.16 132.846C146.538 132.636 146.916 132.426 147.252 132.174C147.924 131.754 148.596 131.334 149.226 130.872C150.024 130.326 150.822 129.78 151.578 129.234C151.83 129.066 152.166 128.688 151.998 128.352C151.83 128.016 151.326 128.058 151.032 128.142C149.982 128.394 148.974 128.688 147.966 129.024C147.042 129.318 146.118 129.696 145.194 130.074C144.69 130.284 143.934 130.872 143.346 130.494C142.926 130.158 142.842 129.57 143.136 129.15C143.136 129.15 143.136 129.108 143.178 129.108C143.556 128.646 144.018 128.268 144.522 127.932C145.698 127.092 146.874 126.294 148.05 125.496C148.806 124.992 149.604 124.446 150.402 123.984C150.906 123.648 151.116 122.934 150.36 122.808C148.764 122.64 147.126 122.85 145.656 123.396C144.312 123.816 143.136 124.446 141.792 124.74C141.918 124.698 141.624 124.782 141.582 124.782H141.54C141.582 124.782 141.708 124.782 141.54 124.782C141.414 124.782 141.288 124.74 141.204 124.698C141.036 124.572 141.036 124.614 140.952 124.404C140.91 124.32 140.952 124.53 140.952 124.362C140.952 124.32 140.952 124.11 140.952 124.236C140.952 124.152 140.994 124.068 141.036 124.026C141.036 123.984 141.078 123.942 141.078 123.9C140.994 124.026 141.078 123.942 141.078 123.9C141.162 123.732 141.288 123.564 141.414 123.396C141.33 123.522 141.54 123.27 141.54 123.228L141.792 122.976C141.96 122.808 142.254 122.556 142.296 122.514C144.27 120.876 146.664 119.742 149.184 119.28C150.402 119.154 151.62 119.196 152.796 119.49C154.224 119.742 155.61 120.12 156.996 120.54C159.054 121.128 161.112 121.842 163.086 122.724C163.884 122.934 165.522 121.674 164.556 121.212Z" fill="#191A23"/>
<path d="M175.056 122.43C173.754 122.43 172.452 122.304 171.192 122.052C169.89 121.842 168.588 121.632 167.286 121.464C166.95 121.422 167.622 122.178 167.622 122.178C167.916 122.514 168.294 122.724 168.756 122.85C170.058 122.976 171.318 123.228 172.62 123.438C173.922 123.69 175.224 123.816 176.526 123.816C176.862 123.816 176.232 123.144 176.19 123.102C175.896 122.85 175.434 122.43 175.056 122.43Z" fill="#191A23"/>
<path d="M146.454 97.7761H146.37L146.496 97.8181L146.412 97.7761L146.58 97.9021C146.496 97.8601 146.454 97.8181 146.412 97.7341L146.538 97.9021C146.454 97.7761 146.412 97.6501 146.37 97.5241L146.454 97.7341C146.37 97.4821 146.328 97.1881 146.37 96.9361V97.1461C146.37 97.1041 146.37 97.0201 146.37 96.9781C146.37 96.8941 146.454 96.7261 146.37 96.9781C146.412 96.8521 146.286 97.0621 146.286 97.0621C146.202 97.1461 146.118 97.2301 145.992 97.3141L145.572 97.4401C145.488 97.4401 145.404 97.4401 145.32 97.3981C145.152 97.3561 145.278 97.3981 145.32 97.3981L145.152 97.2721C145.194 97.3141 145.278 97.3561 145.32 97.4401L145.194 97.2721C145.362 97.5661 145.488 97.8601 145.572 98.1541L145.95 99.2041C146.076 99.4981 146.454 99.5821 146.748 99.5821C147.126 99.5401 147.462 99.3721 147.672 99.0781C147.798 98.8681 147.924 98.6581 148.05 98.4481C148.092 98.3641 148.134 98.2801 148.176 98.1961L148.218 98.0701C148.26 97.9861 148.344 97.9441 148.176 98.1121L148.218 98.0281C148.26 97.9441 148.386 97.9021 148.176 98.0701L148.26 97.9861C148.386 97.8601 148.05 98.1121 148.176 98.0701C148.302 98.0281 147.924 98.1541 148.05 98.1121C147.882 98.1541 147.84 98.1541 147.882 98.1541C147.924 98.1541 147.924 98.1541 147.84 98.1541C147.756 98.1541 147.714 98.1541 147.798 98.1541L147.672 98.1121C147.672 98.1121 147.756 98.1541 147.798 98.1541L147.63 98.0281C147.672 98.0701 147.714 98.1121 147.756 98.1121L147.63 97.9441C147.672 97.9861 147.672 98.0281 147.714 98.0701L147.63 97.8601C147.63 97.9021 147.63 97.9441 147.63 97.9861V97.8601C147.63 97.9861 147.714 97.6921 147.63 97.8181C147.672 97.6921 147.756 97.6081 147.84 97.5661C147.798 97.6081 147.756 97.6081 147.756 97.6501C147.756 97.6081 148.008 97.4821 147.84 97.5661C147.672 97.6501 147.462 97.7761 147.294 97.8601L146.118 98.4901C145.866 98.6161 145.698 98.8261 145.572 99.0361C145.488 99.2461 145.488 99.4561 145.572 99.6661C145.866 100.044 146.454 100.17 146.874 99.8761L148.47 98.9941C148.89 98.7841 149.226 98.4901 149.478 98.1121C149.688 97.7761 149.688 97.3561 149.478 97.0201C149.268 96.6841 148.932 96.4741 148.554 96.4321C148.05 96.3901 147.504 96.5581 147.126 96.8941C146.832 97.1461 146.622 97.4401 146.454 97.7761C146.412 97.9021 146.328 97.9861 146.286 98.1121C146.244 98.1541 146.202 98.2381 146.202 98.2801C146.286 98.1541 146.286 98.1121 146.244 98.1961L146.202 98.2801L147.924 98.1541L147.588 97.2301C147.504 96.9361 147.378 96.6421 147.252 96.3901C147.084 96.0121 146.706 95.7601 146.328 95.6761C145.656 95.5921 144.984 95.9281 144.69 96.5581C144.564 96.8521 144.48 97.2301 144.522 97.5661C144.522 97.7761 144.564 97.9861 144.606 98.1961C144.69 98.4901 144.816 98.7841 145.026 99.0361C145.236 99.2881 145.53 99.4141 145.866 99.4561C146.118 99.4981 146.412 99.4141 146.622 99.2881C146.874 99.1621 147.042 98.9521 147.168 98.7421C147.252 98.5321 147.252 98.3221 147.168 98.1121C146.874 97.9441 146.664 97.8181 146.454 97.7761Z" fill="#191A23"/>
<path d="M156.912 113.358L156.66 113.274L156.534 113.232C156.66 113.274 156.66 113.274 156.576 113.232C156.408 113.148 156.24 113.106 156.072 113.022C155.778 112.854 155.442 112.686 155.148 112.518C154.854 112.35 154.56 112.14 154.308 111.93L154.182 111.846L154.014 111.72C153.972 111.678 153.888 111.594 153.804 111.552C153.72 111.51 153.762 111.51 153.804 111.594C153.762 111.51 153.762 111.51 153.804 111.636C153.804 111.552 153.804 111.552 153.804 111.72C153.804 111.804 153.762 111.888 153.678 111.972C153.762 111.888 153.72 111.93 153.594 112.056C153.678 112.014 153.636 112.014 153.51 112.098C153.678 112.014 153.258 112.14 153.468 112.098C153.552 112.098 153.552 112.098 153.384 112.098H153.51C153.594 112.098 153.594 112.098 153.468 112.098L153.594 112.14C153.636 112.14 153.678 112.182 153.72 112.182C153.594 112.14 153.594 112.14 153.678 112.182C153.762 112.224 153.804 112.224 153.846 112.266L153.93 112.35C153.846 112.266 153.846 112.266 153.888 112.35C154.014 112.476 154.14 112.602 154.224 112.728C154.266 112.812 154.266 112.812 154.224 112.686L154.308 112.812C154.35 112.854 154.35 112.938 154.392 112.98C154.56 113.316 154.686 113.652 154.812 113.988C155.022 114.366 155.442 114.534 155.862 114.408C156.282 114.324 156.66 113.988 156.786 113.568L157.206 112.266C157.206 112.224 157.248 112.14 157.248 112.056C157.29 111.888 157.248 112.098 157.248 112.098L157.29 112.014C157.248 112.098 157.206 112.14 157.122 112.182C156.954 112.35 156.744 112.35 156.45 112.182C155.694 112.14 155.82 111.972 155.946 112.35C155.946 112.392 155.988 112.434 155.988 112.476C155.988 112.392 156.03 112.644 155.988 112.476C156.03 112.644 156.072 112.854 156.072 113.022C156.072 113.106 156.072 113.232 156.072 113.316C156.072 113.4 156.072 113.148 156.072 113.274C156.072 113.316 156.072 113.4 156.072 113.442C156.03 113.652 155.988 113.82 155.946 113.988C155.904 114.114 156.03 113.82 155.946 113.988C155.946 114.03 155.904 114.072 155.904 114.114C155.862 114.198 155.82 114.324 155.736 114.408C155.526 114.786 155.652 115.248 156.03 115.458C156.072 115.5 156.156 115.5 156.198 115.542C156.744 115.668 157.29 115.416 157.542 114.912C158.13 113.82 158.214 112.476 157.752 111.342C157.542 110.838 156.996 110.586 156.45 110.712C155.946 110.838 155.568 111.174 155.358 111.594C155.232 111.93 155.106 112.266 155.022 112.602L154.728 113.526L156.702 113.106C156.492 112.434 156.156 111.762 155.694 111.216C155.106 110.586 154.224 110.25 153.384 110.376C152.334 110.544 151.326 111.72 152.124 112.686C152.376 112.98 152.67 113.19 152.964 113.4C153.258 113.61 153.51 113.82 153.804 113.988C154.518 114.408 155.274 114.744 156.072 115.038C156.618 115.164 157.164 114.912 157.416 114.408C157.626 114.03 157.458 113.568 157.08 113.358C157.038 113.358 156.954 113.358 156.912 113.358Z" fill="#191A23"/>
<path d="M156.03 90.6361C155.82 90.5101 155.568 90.3421 155.358 90.1741C155.232 90.0901 155.148 90.0061 155.022 89.9221C154.896 89.8381 155.19 90.0901 155.022 89.9221L154.854 89.7961C154.644 89.6281 154.476 89.4181 154.308 89.2501C154.182 89.1241 154.434 89.4181 154.35 89.2921C154.308 89.2501 154.308 89.1661 154.266 89.1241C154.308 89.2501 154.308 89.2501 154.308 89.2081C154.308 89.2081 154.266 89.1661 154.266 89.1241C154.266 89.0821 154.224 88.9981 154.224 88.9561L154.266 89.1241C154.266 89.0401 154.266 88.9981 154.266 88.9141L154.224 89.0821C154.224 89.0401 154.266 88.9981 154.308 88.9561L154.182 89.0821C154.224 89.0401 154.266 88.9981 154.308 88.9561L154.14 89.0401C154.224 88.9981 154.182 88.9981 154.056 89.0401C154.14 89.0401 154.098 89.0401 153.972 89.0401C153.846 89.0401 153.762 88.9981 153.846 89.0401L153.678 88.9981C153.51 88.9141 153.468 88.8721 153.552 88.9141C153.426 88.7881 153.384 88.7881 153.468 88.8721C153.3 88.6621 153.426 88.7881 153.468 88.8301L153.552 88.9981C153.636 89.1241 153.678 89.2921 153.762 89.4601C154.014 90.0481 154.266 90.5941 154.518 91.1821C154.686 91.5601 155.022 91.8541 155.442 91.9801C155.778 92.0641 156.24 92.0641 156.408 91.7281L157.5 89.8381L155.61 88.9141L154.98 91.3081C154.938 91.4761 154.938 91.6861 155.064 91.8541C155.358 92.2741 155.862 92.5261 156.408 92.4841C156.576 92.4421 156.828 92.4001 156.87 92.1901L157.542 89.7961C157.626 89.6281 157.584 89.4181 157.458 89.2501C157.332 89.0401 157.122 88.8721 156.87 88.7461C156.492 88.5781 155.904 88.4521 155.652 88.8721L154.56 90.7621L156.45 91.3081C156.198 90.7201 155.946 90.1321 155.694 89.5441C155.568 89.2501 155.442 88.9561 155.274 88.6621C155.022 88.2841 154.686 87.9481 154.266 87.7801C153.804 87.5281 153.258 87.5281 152.754 87.7381C152.46 87.9061 152.292 88.2001 152.292 88.5361C152.334 89.2081 152.796 89.7541 153.258 90.2161C153.762 90.7201 154.35 91.1821 154.938 91.5601C155.148 91.7281 155.442 91.8121 155.694 91.8541C155.904 91.8961 156.114 91.8541 156.282 91.7281C156.66 91.3501 156.366 90.8461 156.03 90.6361Z" fill="#191A23"/>
<path d="M157.458 101.43C157.584 101.43 157.878 101.472 157.458 101.43C157.332 101.43 157.542 101.43 157.542 101.472C157.542 101.43 157.5 101.43 157.458 101.43L157.248 101.346C157.5 101.43 157.374 101.388 157.29 101.346L157.206 101.304L157.038 101.178C156.954 101.136 157.164 101.304 157.08 101.22L156.996 101.136C156.87 101.01 156.786 100.884 156.66 100.758L156.744 100.884C156.702 100.8 156.66 100.758 156.66 100.674L156.702 100.842C156.702 100.8 156.702 100.758 156.702 100.716L156.66 100.884C156.66 100.842 156.702 100.842 156.702 100.8L156.576 100.926C156.702 100.8 156.408 101.01 156.534 100.968C156.408 101.01 156.282 101.052 156.156 101.052C156.282 101.052 156.198 101.052 155.946 101.052C155.82 101.052 155.652 101.01 155.526 100.968C155.61 101.01 155.568 100.968 155.4 100.926C155.19 100.8 155.316 100.842 155.358 100.926L155.274 100.8C155.358 100.926 155.4 101.052 155.442 101.22L155.4 101.052C155.442 101.304 155.484 101.556 155.526 101.766C155.61 102.06 155.82 102.27 156.072 102.438C156.324 102.606 156.66 102.648 156.954 102.648C157.08 102.648 157.206 102.648 157.332 102.606C157.458 102.564 157.626 102.522 157.71 102.438L158.466 101.598L156.576 101.346C156.66 101.514 156.744 101.682 156.786 101.892L156.744 101.724C156.786 102.018 156.786 102.312 156.702 102.606L156.744 102.438C156.66 102.648 156.534 102.858 156.408 103.068L156.534 102.942C156.492 102.984 156.45 103.026 156.408 103.068C156.282 103.152 156.24 103.32 156.282 103.488C156.366 103.656 156.534 103.782 156.744 103.866C156.996 103.95 157.29 103.992 157.542 103.95C157.794 103.95 158.004 103.866 158.172 103.74C158.55 103.404 158.76 102.942 158.844 102.438C158.928 101.976 158.802 101.514 158.592 101.136C158.382 100.884 158.088 100.716 157.752 100.674C157.584 100.632 157.374 100.632 157.206 100.674C157.038 100.674 156.828 100.758 156.702 100.884L155.946 101.724H157.584C157.458 101.64 157.668 101.85 157.626 101.766L157.584 101.682L157.668 101.808C157.584 101.682 157.542 101.556 157.5 101.388L157.542 101.556C157.5 101.304 157.458 101.052 157.374 100.8C157.248 100.464 156.996 100.212 156.618 100.086C156.198 99.918 155.694 99.876 155.232 100.002C154.854 100.044 154.56 100.338 154.476 100.674C154.476 100.968 154.602 101.262 154.854 101.472C155.022 101.682 155.232 101.85 155.484 102.018C156.03 102.396 156.702 102.606 157.374 102.648C157.626 102.69 157.878 102.648 158.13 102.522C158.256 102.48 158.466 102.312 158.466 102.144C158.466 101.598 157.794 101.472 157.458 101.43Z" fill="#191A23"/>
<path d="M144.984 111.972C144.942 111.3 144.942 110.586 145.026 109.914C145.068 109.536 145.152 109.2 145.236 108.822C145.278 108.654 145.32 108.486 145.362 108.318C145.362 108.192 145.446 108.066 145.53 107.982C145.53 107.982 145.614 107.94 145.572 107.94H145.614C145.572 107.94 145.488 107.898 145.446 107.856C145.278 107.73 145.152 107.562 145.068 107.394C145.152 107.562 145.026 107.268 145.068 107.436C145.11 107.604 145.068 107.31 145.068 107.52C145.068 107.604 145.068 107.688 145.068 107.73C145.068 107.856 145.026 107.982 144.984 108.108C144.732 108.696 144.312 109.242 143.808 109.62C143.556 109.872 143.892 110.418 144.018 110.628C144.228 110.922 144.606 111.3 145.026 111.258L146.076 111.174L146.58 111.132C146.664 111.132 146.748 111.132 146.832 111.132H146.79C147 111.174 146.874 111.09 146.454 110.88L146.076 110.46L146.118 110.502L145.908 110.082C145.824 109.872 145.95 109.872 145.866 109.956C145.824 109.998 145.782 110.04 145.782 110.04C145.698 110.124 145.572 110.208 145.488 110.292C145.278 110.418 145.11 110.544 144.858 110.628C144.396 110.796 143.934 110.88 143.43 110.838C142.968 110.796 143.01 111.258 143.178 111.552C143.304 111.804 143.472 112.014 143.682 112.182C143.85 112.35 144.018 112.476 144.27 112.518C145.404 112.644 146.538 112.266 147.294 111.468C147.63 111.09 147.462 110.628 147.21 110.25C146.916 109.788 146.454 109.494 145.95 109.41C145.614 109.41 145.32 109.41 144.984 109.452L143.934 109.536L145.194 111.174C145.698 110.754 146.16 110.208 146.454 109.62C146.748 108.948 146.706 108.15 146.37 107.52C146.076 106.974 145.656 106.554 145.152 106.302C144.858 106.092 144.438 106.134 144.144 106.344C143.934 106.596 143.808 106.932 143.766 107.268C143.682 107.604 143.598 107.982 143.556 108.318C143.43 109.158 143.388 109.998 143.43 110.838C143.514 111.342 143.808 111.762 144.228 112.056C144.438 112.308 144.984 112.518 144.984 111.972Z" fill="#191A23"/>
</svg>
