<svg width="210" height="210" viewBox="0 0 210 210" fill="none" xmlns="http://www.w3.org/2000/svg">
<path d="M58.338 173.922L59.346 35.448C59.388 27.846 65.604 21.714 73.248 21.756L131.712 22.176C139.314 22.218 145.446 28.434 145.404 36.078L144.396 174.552C144.354 182.154 138.138 188.286 130.494 188.244L72.03 187.824C64.428 187.782 58.296 181.566 58.338 173.922Z" fill="white"/>
<path d="M72.282 187.95L90.216 188.076L120.708 188.286L129.654 188.328C130.494 188.328 131.334 188.328 132.132 188.286C135.576 188.076 138.81 186.648 141.288 184.254C144.102 181.482 145.362 177.828 145.404 173.922L145.446 169.344L145.572 149.478L145.782 120.456L145.992 88.41L146.202 59.808L146.328 40.53L146.37 36.414C146.454 31.92 144.438 27.678 140.91 24.948C138.138 22.848 134.778 22.05 131.376 22.008H129.906L120.288 21.924L89.628 21.714L77.364 21.63C75.348 21.63 73.332 21.504 71.316 21.63C64.092 22.176 58.464 28.098 58.296 35.364C58.296 36.162 58.296 37.002 58.296 37.8L58.17 54.558L58.002 81.858L57.792 113.736L57.582 143.724L57.414 165.858L57.372 171.99C57.288 173.502 57.372 175.056 57.624 176.568C58.254 179.844 60.06 182.742 62.664 184.8C65.394 187.026 68.796 187.866 72.282 187.95C72.45 187.95 73.038 187.992 73.038 187.824C73.038 187.656 71.82 187.698 71.736 187.698C68.208 187.656 64.638 185.472 62.454 182.784C60.438 180.306 59.346 177.156 59.346 173.964C59.346 173.124 59.346 172.242 59.346 171.402L59.472 154.77L59.682 127.806L59.892 96.348L60.102 66.486L60.27 44.226C60.27 41.328 60.27 38.388 60.312 35.49C60.438 28.476 66.192 21.966 73.458 21.924C75.264 21.924 77.07 21.966 78.876 21.966L107.1 22.176L130.662 22.344C131.208 22.344 131.754 22.344 132.3 22.344C135.87 22.596 139.314 24.78 141.456 27.552C143.514 30.24 144.312 33.432 144.27 36.792L144.186 50.064L144.018 75.096L143.808 105.966L143.598 136.71L143.43 161.448L143.346 173.964C143.304 177.912 141.96 181.608 139.062 184.38C136.668 186.69 133.518 188.034 130.2 188.118C129.654 188.118 129.15 188.118 128.604 188.118L104.37 187.95L76.482 187.782L71.778 187.74C71.61 187.74 71.022 187.698 71.022 187.866C71.022 188.034 72.24 187.95 72.282 187.95Z" fill="#191A23"/>
<path d="M66.3364 39.9525L65.4766 160.115L138.515 160.637L139.374 40.4752L66.3364 39.9525Z" fill="white"/>
<path d="M66.108 160.944L73.416 160.986L90.846 161.112L111.972 161.28L130.2 161.406L136.206 161.448H138.096C138.432 161.49 138.726 161.49 139.062 161.448C139.104 161.448 139.146 161.448 139.188 161.448V161.406V158.172L139.23 149.394L139.314 136.458L139.44 120.708L139.566 103.404L139.692 86.0159L139.818 69.7199L139.902 55.9439L139.986 46.0739C139.986 44.5199 140.07 42.9659 140.028 41.4119C140.028 41.3279 140.028 41.2859 140.028 41.2019C140.028 40.8659 139.608 40.4459 139.44 40.1939C139.272 39.9419 139.02 39.5639 138.768 39.5639H131.46L114.03 39.4379L92.904 39.2699L74.676 39.1439L68.67 39.1019H66.78C66.444 39.0599 66.15 39.0599 65.814 39.1019C65.772 39.1019 65.73 39.1019 65.688 39.1019V39.1439V42.3779L65.646 51.1139L65.52 64.0499L65.394 79.7579L65.268 97.0619L65.142 114.45L65.016 130.746L64.932 144.522L64.848 154.392C64.848 155.946 64.764 157.5 64.806 159.054V159.264C64.806 159.642 65.268 160.104 65.478 160.356C65.52 160.44 66.066 161.028 66.066 160.818V158.718L66.108 152.88L66.15 143.976L66.234 132.762L66.318 119.826L66.402 106.008L66.486 91.8539L66.57 78.2039L66.654 65.6459L66.738 54.9779L66.78 46.7879L66.822 41.8319C66.78 41.4959 66.78 41.1179 66.822 40.7819C66.864 40.6559 66.822 40.6979 66.822 40.6979C66.864 40.6559 67.032 40.6979 67.074 40.6979L72.03 40.7399L81.942 40.8239L94.794 40.9079L108.864 40.9919L122.136 41.0759L132.846 41.1599L139.02 41.2019H139.86L138.6 39.5639V41.6639L138.558 47.5019L138.516 56.4059L138.432 67.6199L138.348 80.5559L138.264 94.3739L138.18 108.528L138.096 122.178L138.012 134.736L137.928 145.404L137.844 153.594L137.802 158.55C137.844 158.886 137.844 159.264 137.802 159.6C137.76 159.726 137.802 159.684 137.802 159.684C137.76 159.726 137.592 159.684 137.55 159.684L132.636 159.642L122.724 159.558L109.872 159.474L95.802 159.39L82.53 159.306L71.82 159.222L65.646 159.18H64.806C64.722 159.18 65.226 160.062 65.268 160.146C65.478 160.398 65.814 160.944 66.108 160.944Z" fill="#191A23"/>
<path d="M101.976 179.508C105.015 179.508 107.478 177.045 107.478 174.006C107.478 170.967 105.015 168.504 101.976 168.504C98.9373 168.504 96.474 170.967 96.474 174.006C96.474 177.045 98.9373 179.508 101.976 179.508Z" fill="white"/>
<path d="M95.508 174.342C95.55 176.904 97.188 179.172 99.624 179.97C102.228 180.81 105.21 179.802 106.932 177.702C109.158 175.182 108.906 171.402 106.386 169.176C104.874 167.832 102.816 167.37 100.842 167.874C97.86 168.546 95.634 171.192 95.508 174.342C95.508 174.846 96.264 174.762 96.558 174.636C97.02 174.468 97.356 174.09 97.44 173.586C97.482 171.78 98.574 170.016 100.296 169.428C102.228 168.882 104.286 169.596 105.504 171.234C106.764 172.872 106.89 175.098 105.84 176.862C104.832 178.416 102.9 179.13 101.136 178.584C98.91 177.954 97.398 175.896 97.44 173.586C97.44 173.082 96.684 173.166 96.39 173.292C95.928 173.418 95.592 173.838 95.508 174.342Z" fill="#191A23"/>
<path d="M113.442 33.4739C114.416 33.4739 115.206 32.6842 115.206 31.7099C115.206 30.7357 114.416 29.9459 113.442 29.9459C112.468 29.9459 111.678 30.7357 111.678 31.7099C111.678 32.6842 112.468 33.4739 113.442 33.4739Z" fill="white"/>
<path d="M114.282 31.6259C114.282 31.5839 114.282 31.3739 114.282 31.5419V31.6259C114.282 31.6679 114.282 31.7099 114.282 31.7519C114.24 31.9199 114.282 31.7939 114.282 31.7519C114.324 31.5839 114.24 31.7939 114.24 31.8359C114.198 31.9199 114.156 31.9619 114.114 32.0459L114.24 31.8359C114.156 32.0039 114.03 32.1299 113.862 32.2559L114.03 32.0879C113.904 32.2139 113.736 32.2979 113.568 32.3819L113.82 32.3399C113.652 32.3819 113.484 32.4239 113.316 32.4659H113.568C113.484 32.4659 113.4 32.4659 113.316 32.4659C113.274 32.4659 113.022 32.4239 113.19 32.4659C113.358 32.5079 113.148 32.4659 113.064 32.4239C113.022 32.4239 112.98 32.3819 112.938 32.3819C112.854 32.3399 113.148 32.5079 113.022 32.4239L112.812 32.2979C112.686 32.2139 112.77 32.2979 112.812 32.2979C112.854 32.3399 112.938 32.3819 112.812 32.2979L112.686 32.1299C112.602 32.0459 112.854 32.3819 112.77 32.2139L112.728 32.1299L112.686 32.0459C112.602 31.8779 112.728 32.1299 112.728 32.1719C112.728 32.2139 112.686 32.0039 112.644 31.9619C112.602 31.9199 112.602 31.8779 112.602 31.8359C112.602 31.7939 112.644 32.0879 112.644 31.9619C112.644 31.8779 112.644 31.7939 112.644 31.7099C112.644 31.7099 112.644 31.9619 112.644 31.8359V31.7099C112.644 31.6259 112.686 31.5839 112.686 31.4999C112.644 31.7939 112.686 31.5419 112.728 31.4579C112.77 31.3739 112.812 31.3319 112.854 31.2479L112.728 31.4579C112.812 31.2899 112.938 31.1639 113.106 31.0379L112.938 31.2059C113.064 31.0799 113.232 30.9959 113.4 30.9119L113.19 30.9959C113.358 30.9539 113.526 30.9119 113.694 30.8699H113.4C113.526 30.8699 113.61 30.8699 113.736 30.8699C113.568 30.8279 113.988 30.9119 113.736 30.8699L113.862 30.9119C113.946 30.9539 114.114 31.0379 113.862 30.9119C113.904 30.9539 113.946 30.9539 113.988 30.9959C114.03 31.0379 114.072 31.0799 114.114 31.0799C114.156 31.0799 113.904 30.8699 114.072 31.0379L114.156 31.1219C114.324 31.2899 114.03 30.9119 114.114 31.0799L114.198 31.2059L114.24 31.2899C114.282 31.3739 114.282 31.3319 114.198 31.1639C114.24 31.2479 114.324 31.4159 114.282 31.4999L114.24 31.3319C114.24 31.3739 114.24 31.3739 114.24 31.4159C114.282 31.4999 114.282 31.5839 114.282 31.6259C114.324 32.1719 114.744 32.6339 115.29 32.6759C115.752 32.6759 116.13 32.2979 116.13 31.8359C116.13 31.7939 116.13 31.7519 116.13 31.7099C116.088 30.5339 115.332 29.4839 114.24 29.0639C113.232 28.6859 112.098 28.9799 111.384 29.7779C110.418 31.0379 110.628 32.8019 111.888 33.8099C112.518 34.2719 113.316 34.4819 114.072 34.3979C114.618 34.2719 115.164 33.9779 115.542 33.5579C115.962 33.0539 116.172 32.4239 116.172 31.7519C116.13 31.4579 116.046 31.2059 115.836 30.9959C115.668 30.8279 115.416 30.7019 115.164 30.6599C114.912 30.6599 114.702 30.7439 114.534 30.9119C114.324 31.1639 114.282 31.4159 114.282 31.6259Z" fill="#191A23"/>
<path d="M94.542 32.3819L103.446 32.5919L104.706 32.6339C104.832 32.6339 104.328 31.7099 104.286 31.6679C104.16 31.4579 103.866 30.8699 103.572 30.8699L94.668 30.6599L93.408 30.6179C93.282 30.6179 93.786 31.5419 93.828 31.5839C93.954 31.7939 94.248 32.3399 94.542 32.3819Z" fill="#191A23"/>
<path d="M100.926 45.402H69.51V84.462H100.926V45.402Z" fill="#B9FF66"/>
<path d="M100.632 83.538H69.216L70.266 84.798V47.334C70.308 46.83 70.308 46.326 70.266 45.822C70.266 45.78 70.266 45.78 70.266 45.738L69.72 46.326H101.136L100.086 45.066V79.338C100.086 80.892 100.002 82.488 100.086 84.084C100.086 84.126 100.086 84.126 100.086 84.168C100.128 84.714 100.464 85.176 100.926 85.386C101.346 85.554 101.682 85.344 101.682 84.882V50.61C101.682 49.056 101.766 47.46 101.682 45.864V45.78C101.682 45.318 101.178 44.52 100.632 44.52H69.258C68.88 44.52 68.712 44.73 68.712 45.108V79.38C68.712 80.934 68.628 82.53 68.712 84.126V84.21C68.712 84.672 69.216 85.47 69.762 85.47H101.178C102.27 85.386 101.472 83.538 100.632 83.538Z" fill="#B9FF66"/>
<path d="M71.358 83.874C71.358 83.874 79.716 70.182 86.142 71.022C92.568 71.862 94.332 83.832 94.332 83.832" fill="#191A23"/>
<path d="M71.946 84.756C72.744 83.412 73.668 82.152 74.592 80.892C76.398 78.456 78.414 76.104 80.766 74.256C82.74 72.66 85.344 71.232 87.906 72.24C88.494 72.492 89.04 72.786 89.544 73.206C89.754 73.374 89.964 73.584 90.174 73.794L90.426 74.088C90.636 74.34 90.384 74.004 90.468 74.172C90.51 74.214 90.72 74.466 90.594 74.34C90.72 74.508 90.846 74.718 90.972 74.886C91.14 75.18 91.308 75.474 91.434 75.768C91.728 76.356 91.98 76.986 92.232 77.616C92.904 79.38 93.408 81.228 93.702 83.076C93.828 83.496 94.038 83.874 94.332 84.21C94.374 84.294 94.92 84.84 94.92 84.714C94.668 83.034 94.248 81.396 93.66 79.8C92.652 76.86 91.056 73.668 88.62 71.652C87.612 70.77 86.31 70.266 84.924 70.224C83.622 70.308 82.362 70.728 81.27 71.442C78.54 73.08 76.356 75.558 74.382 78.036C73.08 79.674 71.862 81.354 70.77 83.118C70.644 83.328 71.148 83.916 71.232 84.084C71.274 84.042 71.904 84.84 71.946 84.756Z" fill="#191A23"/>
<path d="M76.062 78.498C78.666 80.094 81.564 81.06 84.63 81.27C87.612 81.48 90.552 80.682 93.03 79.086C93.324 78.876 93.618 78.54 93.198 78.288C92.778 78.036 92.106 78.246 91.77 78.456C87.402 81.438 81.9 80.01 77.658 77.532C77.238 77.28 76.566 77.49 76.23 77.7C75.936 77.868 75.642 78.246 76.062 78.498Z" fill="white"/>
<path d="M96.474 47.0399L98.49 49.0139L98.784 49.3079C98.952 49.4339 99.162 49.5599 99.372 49.6019C99.456 49.6439 99.582 49.6439 99.666 49.6859C99.708 49.6859 99.792 49.6859 99.75 49.6439L97.734 47.6699L97.44 47.3759C97.272 47.2499 97.062 47.1239 96.852 47.0819C96.768 47.0399 96.642 47.0399 96.558 46.9979C96.516 46.9979 96.432 46.9979 96.474 47.0399Z" fill="white"/>
<path d="M97.062 49.476L99.582 47.334L99.96 47.04C100.128 46.872 99.792 46.83 99.708 46.83C99.456 46.83 99.246 46.914 99.036 47.082L96.516 49.224L96.138 49.518C95.97 49.686 96.306 49.728 96.39 49.728C96.642 49.728 96.852 49.644 97.062 49.476Z" fill="white"/>
<path d="M93.114 65.058C93.114 65.058 95.634 57.96 89.712 55.272C83.79 52.584 75.894 57.162 75.432 65.058C74.97 72.954 84.546 74.004 84.546 74.004L93.114 65.058Z" fill="white"/>
<path d="M94.122 65.268C94.542 64.05 94.752 62.748 94.71 61.446C94.71 58.926 93.408 56.616 91.224 55.314C86.1 52.29 79.338 54.39 76.188 59.22C74.634 61.614 73.878 64.764 74.55 67.578C75.096 69.762 76.692 71.484 78.582 72.576C80.094 73.458 81.732 74.046 83.412 74.382C83.832 74.508 84.294 74.55 84.714 74.55C85.344 74.508 85.638 74.088 86.016 73.668L93.744 65.646L93.954 65.436C94.668 64.68 92.694 64.176 92.19 64.68L84.672 72.492L83.622 73.584L84.546 73.374C84.504 73.374 84.462 73.374 84.462 73.374H84.336C84.042 73.332 84.504 73.416 84.378 73.374C84 73.29 83.664 73.248 83.286 73.122C83.034 73.08 82.824 72.996 82.572 72.912C82.53 72.912 82.152 72.786 82.404 72.87L81.942 72.702C81.396 72.492 80.85 72.24 80.346 71.988C79.17 71.358 78.162 70.476 77.406 69.342C76.524 67.83 76.23 66.108 76.482 64.386C76.902 60.564 79.38 57.246 82.908 55.692C83.664 55.398 84.42 55.188 85.218 55.062C85.974 54.978 86.772 54.978 87.528 55.146C89.208 55.44 90.72 56.406 91.644 57.834C92.442 59.22 92.778 60.858 92.568 62.454C92.526 63.042 92.4 63.63 92.274 64.218C92.232 64.386 92.19 64.554 92.148 64.722C92.106 64.806 92.022 65.058 92.148 64.806C91.98 65.226 92.442 65.478 92.82 65.562C93.114 65.646 93.996 65.688 94.122 65.268Z" fill="#191A23"/>
<path d="M92.904 71.484C95.13 68.754 93.156 58.968 93.156 58.968C91.56 56.448 83.244 58.002 83.244 58.002C84.378 60.522 84 64.638 84 64.638C83.034 62.37 80.388 63.336 80.514 65.562C80.64 67.788 83.244 68.418 83.244 68.418C83.244 68.418 82.488 73.08 82.698 73.962C82.908 74.844 87.024 76.104 89.166 73.626C89.208 73.626 90.93 73.878 92.904 71.484Z" fill="white"/>
<path d="M93.828 71.9039C94.962 70.4759 95.004 68.2919 95.004 66.6119C94.962 64.6379 94.794 62.6639 94.458 60.6899C94.374 60.1859 94.29 59.6399 94.206 59.1359C94.038 58.5059 93.576 58.0019 93.03 57.7079C91.308 56.6579 89.04 56.6579 87.108 56.7419C85.68 56.7839 84.294 56.9519 82.908 57.2039C82.488 57.2879 82.068 57.6239 82.278 58.0859C82.782 59.3879 83.034 60.7739 83.034 62.1599C83.076 62.7059 83.034 63.2519 83.034 63.7979V64.0499C83.034 64.2599 83.034 64.0499 83.034 64.1339C83.034 64.2179 83.034 64.2599 83.034 64.3439L85.008 64.4699C84.462 63.1679 83.118 62.4119 81.732 62.5799C80.556 62.7899 79.674 63.7559 79.548 64.9319C79.338 67.0319 81.228 68.6279 83.076 69.0899L82.236 68.1239C81.942 69.8039 81.732 71.4839 81.648 73.1639C81.48 74.0039 81.984 74.8439 82.782 75.0959C83.748 75.5999 84.84 75.8519 85.932 75.8099C87.528 75.8519 89.04 75.1799 90.09 74.0459L89.25 74.3819C91.098 74.6339 92.82 73.2059 93.828 71.9039C94.542 71.1059 92.61 70.3079 91.98 71.0219C91.476 71.6939 90.804 72.2399 90.048 72.6179C89.922 72.6599 89.796 72.7019 89.67 72.7859L89.502 72.8279C89.544 72.8279 89.67 72.7859 89.502 72.8279L89.25 72.8699C89.082 72.8699 89.082 72.9119 89.25 72.8699C89.166 72.8699 89.082 72.8699 88.998 72.8699C88.452 72.9119 88.242 73.2899 87.822 73.6259C87.276 74.0039 86.646 74.2559 86.016 74.2979C85.47 74.3399 84.966 74.2979 84.462 74.1719C84.336 74.1299 84.252 74.1299 84.126 74.0879C84.336 74.1719 84.042 74.0459 83.958 74.0039C83.874 73.9619 83.664 73.8359 83.832 73.9619L83.706 73.8779C83.58 73.7939 83.622 73.7519 83.706 73.8779C83.706 73.6679 83.706 73.4579 83.706 73.2479C83.706 72.7439 83.79 72.1559 83.874 71.6099C84 70.6439 84.126 69.6779 84.294 68.7119C84.378 68.2079 83.916 67.8299 83.454 67.7459C83.286 67.7039 83.118 67.6199 83.37 67.7039C83.286 67.6619 83.16 67.6199 83.034 67.5779C82.908 67.5359 82.614 67.3679 82.74 67.4519C82.152 67.1579 81.732 66.6119 81.606 65.9819C81.48 65.3099 81.648 64.5539 82.278 64.2179C82.362 64.1759 82.404 64.1759 82.488 64.1759C82.32 64.1759 82.53 64.1759 82.572 64.1759C82.614 64.1759 82.53 64.0919 82.614 64.2179C82.53 64.1339 82.656 64.2599 82.698 64.3019C82.824 64.4699 82.95 64.6379 83.034 64.8479C83.244 65.2259 83.664 65.4779 84.084 65.4779C84.378 65.4779 84.966 65.3519 85.008 64.9739C85.218 62.6639 85.176 60.0599 84.21 57.9179L83.538 58.7999C84.882 58.5479 86.268 58.4219 87.612 58.3379H87.906H88.242C88.536 58.3379 88.83 58.3379 89.124 58.3379C89.418 58.3379 89.628 58.3799 89.88 58.3799L90.3 58.4219L90.51 58.4639C90.384 58.4639 90.426 58.4639 90.552 58.4639C90.762 58.5059 90.972 58.5479 91.224 58.6319C91.266 58.6319 91.644 58.7999 91.392 58.6739C91.518 58.7159 91.602 58.7579 91.728 58.7999L91.938 58.9259C91.728 58.7999 91.98 58.9679 92.022 59.0099C92.064 59.0519 92.106 59.0519 92.022 59.0099C92.064 59.0519 92.106 59.0939 92.106 59.0939C92.148 59.1779 92.232 59.2619 92.274 59.3459L92.106 58.9679C92.358 60.1019 92.484 61.2359 92.652 62.3699C92.946 64.4279 93.03 66.4859 92.82 68.5439C92.778 69.4679 92.484 70.3499 91.98 71.1059C91.308 71.8619 93.24 72.6599 93.828 71.9039Z" fill="#191A23"/>
<path d="M90.384 67.116C90.384 67.116 95.634 67.662 96.432 64.89C97.23 62.118 93.45 61.026 90.636 63.378" fill="white"/>
<path d="M89.838 67.41C90.552 67.494 91.266 67.494 91.98 67.452C93.282 67.452 94.542 67.2 95.718 66.696C96.726 66.234 97.566 65.394 97.566 64.218C97.608 62.958 96.474 62.202 95.34 61.95C93.282 61.53 91.182 62.076 89.544 63.378C89.292 63.588 90.216 63.714 90.3 63.714C90.762 63.798 91.182 63.672 91.602 63.462C92.106 63.042 92.694 62.706 93.324 62.496C93.576 62.412 93.156 62.538 93.408 62.454L93.66 62.412C93.408 62.454 93.66 62.412 93.702 62.412C93.45 62.412 93.954 62.37 93.702 62.412C93.744 62.412 93.786 62.412 93.828 62.412C94.08 62.412 93.618 62.37 93.87 62.412L93.996 62.454C93.912 62.412 93.87 62.412 93.954 62.454L94.122 62.496C94.332 62.538 93.996 62.454 94.206 62.538L94.5 62.664C94.71 62.79 94.878 62.916 95.004 63.084C95.298 63.42 95.424 63.84 95.382 64.302C95.34 65.226 94.794 66.024 93.954 66.402L93.786 66.486C93.618 66.57 93.912 66.444 93.744 66.528L93.45 66.612L93.114 66.696C93.324 66.654 93.114 66.696 93.072 66.696L92.82 66.738C92.736 66.78 92.61 66.78 92.526 66.78C92.862 66.738 92.442 66.78 92.358 66.78L92.022 66.822C91.896 66.822 91.854 66.78 92.064 66.822C92.022 66.822 91.938 66.822 91.896 66.822C91.644 66.822 91.434 66.822 91.224 66.822C91.056 66.822 91.392 66.822 91.392 66.822H91.224H91.14H90.804C90.552 66.822 91.056 66.822 90.888 66.822C90.426 66.738 89.922 66.78 89.46 66.99C89.04 67.2 89.67 67.368 89.838 67.41Z" fill="#191A23"/>
<path d="M85.47 67.6199C85.47 67.7879 85.512 67.9559 85.554 68.0819C85.68 68.4599 85.848 68.7539 86.1 69.0479C86.31 69.2579 86.52 69.4259 86.772 69.5519C86.94 69.6359 87.066 69.6779 87.234 69.6779C87.444 69.7199 87.654 69.7199 87.822 69.6779C87.948 69.6779 88.116 69.6359 88.2 69.5519C88.284 69.4679 88.2 69.3839 88.116 69.3839C87.99 69.3419 87.864 69.2579 87.738 69.1739L87.822 69.2159C87.528 68.9639 87.276 68.6699 87.108 68.2919L87.15 68.3339C87.066 68.1239 86.982 67.9139 86.982 67.6619C86.982 67.5779 86.814 67.4939 86.772 67.4939C86.604 67.4519 86.394 67.4099 86.226 67.4099C86.058 67.4099 85.848 67.4099 85.68 67.4519C85.638 67.4939 85.428 67.5359 85.47 67.6199Z" fill="#191A23"/>
<path d="M90.384 61.782C90.174 61.824 90.006 62.034 90.048 62.286C90.048 62.328 90.048 62.37 90.09 62.37C90.3 62.832 90.846 62.58 90.804 62.16C90.804 61.95 90.636 61.782 90.426 61.782C90.426 61.782 90.426 61.782 90.384 61.782Z" fill="#191A23"/>
<path d="M87.192 62.0339C86.982 62.0759 86.814 62.3279 86.856 62.5379C86.856 62.5799 86.856 62.6219 86.898 62.6219C87.066 63.0419 87.654 62.8319 87.57 62.4119C87.57 62.2019 87.402 62.0339 87.192 62.0339Z" fill="#191A23"/>
<path d="M107.562 100.926C109.326 98.742 113.82 96.054 116.172 95.298C118.524 94.542 121.38 92.778 119.07 91.476C116.76 90.174 113.526 91.392 113.526 91.392C113.526 91.392 121.548 83.748 120.708 81.648C119.868 79.548 117.054 82.32 117.054 82.32C117.054 82.32 120.414 78.162 118.314 77.742C116.214 77.322 114.45 79.254 114.45 79.254C114.45 79.254 115.752 75.012 112.182 77.406C108.612 79.8 104.244 83.328 99.666 93.66C99.666 93.66 86.268 115.542 87.36 126C88.536 137.004 123.144 139.44 123.144 139.44L131.586 118.944C131.586 118.944 102.438 119.364 101.598 118.86C100.758 118.356 107.562 100.926 107.562 100.926Z" fill="white"/>
<path d="M108.318 100.968C109.452 99.708 110.796 98.616 112.266 97.734C113.61 96.852 115.038 96.138 116.508 95.592C117.39 95.34 118.188 94.962 118.986 94.5C119.574 94.122 120.288 93.66 120.582 92.988C121.254 91.35 118.482 90.636 117.348 90.51C115.878 90.342 114.408 90.552 113.022 91.056L114.114 91.476C115.752 89.922 117.264 88.326 118.692 86.604C119.658 85.554 120.456 84.378 121.128 83.118C121.338 82.698 121.464 82.236 121.464 81.774C121.338 81.144 120.834 80.64 120.204 80.514C118.734 80.22 117.306 81.186 116.298 82.152L117.768 82.362C118.188 81.858 118.566 81.312 118.902 80.724C119.322 80.052 119.952 79.002 119.7 78.162C119.364 76.902 117.18 77.196 116.298 77.49C115.332 77.784 114.45 78.33 113.736 79.086L115.206 79.296C115.458 78.54 115.794 77.196 115.038 76.608C114.282 76.02 113.106 76.356 112.308 76.734C111.51 77.154 110.754 77.658 110.04 78.246C106.386 80.934 103.614 84.588 101.388 88.494C100.548 90.006 99.75 91.602 99.036 93.198C98.91 93.45 98.826 93.66 98.7 93.87C98.196 94.71 97.692 95.592 97.188 96.432C95.256 99.834 93.45 103.362 91.77 106.932C89.838 111.09 88.116 115.374 87.108 119.826C86.436 122.766 85.848 126.294 87.696 128.898C89.46 131.376 92.484 132.888 95.214 134.064C98.784 135.492 102.438 136.584 106.176 137.34C109.662 138.096 113.19 138.642 116.718 139.104C118.65 139.356 120.624 139.566 122.556 139.734H122.85C123.102 139.734 123.69 139.734 123.816 139.44L126.672 132.468L131.208 121.506L132.258 118.944C132.426 118.566 131.67 118.524 131.46 118.524C129.15 118.566 126.798 118.566 124.488 118.608C119.952 118.65 115.416 118.692 110.88 118.692H107.772C106.806 118.692 106.134 118.692 105.252 118.65C104.16 118.65 103.068 118.608 101.976 118.482C102.06 118.482 102.27 118.524 101.976 118.482C101.892 118.482 102.102 118.524 102.06 118.524C102.018 118.524 102.144 118.566 102.186 118.608C102.228 118.65 102.186 118.692 102.228 118.608C102.27 118.524 102.228 118.44 102.228 118.398C102.27 117.852 102.396 117.348 102.564 116.802C103.11 114.87 103.782 112.98 104.454 111.09C105.63 107.73 106.932 104.412 108.192 101.052L108.318 100.968C108.528 100.464 106.974 100.422 106.806 100.842C105.672 103.782 104.538 106.764 103.488 109.704C102.732 111.762 102.018 113.82 101.388 115.92C101.178 116.592 100.968 117.306 100.842 118.02C100.8 118.356 100.632 118.818 100.926 119.07C101.262 119.238 101.64 119.322 102.018 119.322C102.522 119.364 103.068 119.364 103.614 119.406C105.378 119.448 107.184 119.49 108.948 119.49C113.568 119.532 118.188 119.49 122.808 119.448C124.74 119.448 126.63 119.406 128.562 119.406C129.528 119.406 130.536 119.448 131.502 119.364H131.628L130.83 118.944L127.974 125.916L123.438 136.92L122.388 139.482L123.354 139.188C122.052 139.104 120.75 138.978 119.448 138.81C116.34 138.474 113.358 138.012 110.292 137.466C106.638 136.836 103.068 135.954 99.54 134.82C96.516 133.812 93.366 132.552 90.888 130.494C89.922 129.738 89.124 128.73 88.62 127.638C88.032 126.336 88.074 124.866 88.2 123.48C88.536 119.322 90.006 115.248 91.56 111.426C93.198 107.478 95.046 103.614 97.104 99.834C98.196 97.818 99.33 95.886 100.464 93.912C100.926 93.072 101.262 92.148 101.682 91.308C102.354 89.922 103.11 88.536 103.95 87.192C105.168 85.176 106.596 83.244 108.192 81.522C109.41 80.262 110.712 79.17 112.14 78.162C112.476 77.91 112.812 77.7 113.19 77.49C113.4 77.364 113.61 77.238 113.82 77.154L113.988 77.112C113.904 77.112 113.862 77.112 113.778 77.112C113.694 77.112 113.778 77.112 113.82 77.196C113.862 77.28 113.904 77.406 113.946 77.49C113.988 77.742 113.988 78.036 113.946 78.288C113.904 78.624 113.862 78.918 113.736 79.254C113.568 79.8 114.954 79.716 115.206 79.464C115.71 78.918 116.382 78.456 117.096 78.204C117.852 77.952 118.398 78.12 118.23 78.96C118.02 80.178 117.096 81.396 116.34 82.32C116.13 82.572 116.718 82.698 116.802 82.698C117.138 82.782 117.474 82.698 117.768 82.53C118.02 82.278 118.314 82.026 118.608 81.816C118.86 81.648 119.112 81.48 119.364 81.354C119.448 81.312 119.574 81.27 119.616 81.27C119.574 81.27 119.742 81.186 119.658 81.27C119.574 81.354 119.49 81.144 119.574 81.27C119.658 81.396 119.91 81.606 119.952 81.816C119.994 81.984 119.994 82.152 119.952 82.32C119.868 82.782 119.658 83.202 119.406 83.58C118.104 85.848 116.172 87.822 114.366 89.712C113.862 90.216 113.358 90.762 112.812 91.266C112.266 91.77 113.694 91.77 113.904 91.686C114.786 91.35 115.71 91.182 116.634 91.224C117.768 91.266 120.036 92.106 118.692 93.492C117.642 94.584 116.088 94.878 114.744 95.424C113.358 96.012 111.972 96.768 110.712 97.608C109.242 98.49 107.94 99.582 106.806 100.884C106.596 101.136 107.268 101.262 107.394 101.304C107.688 101.346 108.066 101.22 108.318 100.968Z" fill="#191A23"/>
<path d="M112.14 88.116C112.77 87.318 113.442 86.604 114.156 85.89C115.626 84.336 117.222 82.95 118.986 81.732C119.28 81.522 118.986 81.312 118.776 81.186C118.44 81.018 118.062 81.018 117.684 81.144C115.038 82.95 112.686 85.176 110.67 87.654C110.334 88.116 111.804 88.536 112.14 88.116Z" fill="#191A23"/>
<path d="M114.114 78.498C113.4 79.128 112.686 79.758 112.014 80.472C110.544 81.984 109.242 83.664 108.15 85.47C107.898 85.932 109.242 86.73 109.494 86.268C110.586 84.462 111.846 82.824 113.316 81.312C113.946 80.64 114.618 80.01 115.29 79.422C115.752 79.086 114.492 78.204 114.114 78.498Z" fill="#191A23"/>
<path d="M110.334 93.408C110.754 93.114 111.216 92.862 111.678 92.652C112.476 92.232 113.316 91.896 114.198 91.644C114.408 91.602 113.778 91.266 113.736 91.266C113.442 91.14 113.106 91.056 112.77 91.098C111.888 91.35 111.048 91.686 110.25 92.106C109.788 92.316 109.326 92.568 108.906 92.862C108.738 92.988 109.284 93.198 109.368 93.24C109.536 93.324 109.746 93.366 109.956 93.408C110.082 93.408 110.25 93.45 110.334 93.408Z" fill="#191A23"/>
<path d="M91.392 159.432C91.392 159.432 103.53 122.64 123.018 118.734C149.1 113.526 135.072 159.306 135.072 159.306" fill="white"/>
<path d="M92.4 159.726C92.904 158.172 93.492 156.66 94.08 155.148C95.55 151.494 97.146 147.882 98.952 144.396C101.178 139.986 103.782 135.786 106.722 131.838C109.62 128.016 113.022 124.404 117.138 121.842C120.666 119.658 124.95 118.272 129.108 118.734C129.234 118.734 129.318 118.776 129.444 118.776C129.318 118.776 129.57 118.776 129.444 118.776L129.612 118.818L129.906 118.86L130.074 118.902C129.906 118.86 130.2 118.944 130.074 118.902L130.368 118.986L130.494 119.028C130.452 119.028 130.242 118.944 130.452 119.028L130.746 119.112C130.536 119.028 130.704 119.112 130.83 119.154C130.956 119.196 130.998 119.238 131.082 119.238C130.83 119.154 131.124 119.238 131.166 119.28L131.418 119.406L131.586 119.49C131.88 119.658 132.174 119.826 132.426 120.036C133.602 120.876 134.568 121.968 135.282 123.228C136.962 126.126 137.55 129.528 137.76 132.804C137.97 136.542 137.802 140.238 137.256 143.934C136.836 147.21 136.206 150.444 135.492 153.636C135.072 155.358 134.652 157.08 134.148 158.802C134.106 158.886 134.106 158.97 134.064 159.054C133.98 159.348 135.954 159.978 136.08 159.684C136.458 158.424 136.794 157.206 137.088 155.946C137.844 152.922 138.474 149.898 138.936 146.832C139.566 143.094 139.86 139.314 139.818 135.534C139.776 132.09 139.356 128.478 138.012 125.286C136.794 122.304 134.358 119.994 131.292 118.902C127.302 117.474 122.808 117.81 118.902 119.364C114.492 121.086 110.754 124.32 107.604 127.806C104.244 131.628 101.346 135.828 98.868 140.28C96.684 144.144 94.752 148.092 93.072 152.208C92.148 154.392 91.266 156.618 90.51 158.886C90.468 158.97 90.426 159.096 90.426 159.222C90.342 159.516 92.316 160.146 92.442 159.852L92.4 159.726Z" fill="#191A23"/>
<path d="M128.982 99.12C128.982 99.12 132.93 87.318 146.538 94.5C160.146 101.682 151.914 133.644 137.382 126.378C122.85 119.112 128.982 99.12 128.982 99.12Z" fill="#191A23"/>
<path d="M130.032 99.372C130.074 99.246 130.116 99.162 130.158 99.036C130.2 98.952 130.242 98.868 130.242 98.826C130.326 98.658 130.41 98.49 130.494 98.322C130.746 97.902 130.998 97.482 131.25 97.062C131.418 96.81 131.586 96.6 131.754 96.39C131.796 96.348 131.838 96.306 131.88 96.222C131.922 96.138 132.048 96.012 131.964 96.096C131.88 96.18 132.048 96.012 132.048 96.012C132.048 96.012 132.174 95.886 132.258 95.802C132.72 95.298 133.224 94.878 133.812 94.5L134.022 94.374C133.896 94.458 134.106 94.332 134.148 94.29C134.316 94.206 134.484 94.122 134.61 94.038C134.946 93.87 135.324 93.702 135.702 93.576L135.87 93.534L136.08 93.45C136.29 93.408 136.5 93.324 136.71 93.282C136.92 93.24 137.088 93.198 137.298 93.198L137.634 93.156C137.718 93.156 137.76 93.156 137.844 93.156C138.81 93.114 139.776 93.156 140.742 93.324C141.96 93.576 143.094 93.912 144.228 94.416C144.9 94.71 145.53 95.004 146.202 95.382C146.37 95.466 146.538 95.592 146.706 95.676L146.916 95.844L147.084 95.928C147.378 96.138 147.714 96.39 148.008 96.642C148.176 96.768 148.302 96.894 148.428 97.02C148.47 97.062 148.554 97.146 148.596 97.188C148.638 97.23 148.68 97.272 148.722 97.314C149.226 97.902 149.73 98.532 150.108 99.204C150.486 99.834 150.822 100.548 151.116 101.262C151.41 102.018 151.662 102.816 151.872 103.614C152.25 105.252 152.418 106.932 152.418 108.612C152.418 112.098 151.746 115.542 150.402 118.776C150.318 119.028 150.108 119.448 149.94 119.826C149.772 120.204 149.562 120.54 149.394 120.876C149.016 121.548 148.554 122.22 148.092 122.808L147.756 123.228C147.714 123.312 147.63 123.354 147.588 123.438L147.462 123.564C147.21 123.816 146.958 124.068 146.706 124.32C146.454 124.572 146.16 124.782 145.866 124.992C145.74 125.076 145.572 125.202 145.446 125.286C145.404 125.328 145.236 125.412 145.404 125.328L145.152 125.496C144.858 125.664 144.564 125.832 144.27 125.958C144.102 126.042 143.976 126.084 143.808 126.168L143.598 126.252H143.64L143.472 126.294C143.136 126.378 142.842 126.462 142.506 126.504C142.338 126.546 142.17 126.546 142.002 126.546C142.17 126.546 142.044 126.546 141.96 126.546H141.666C141.33 126.546 140.994 126.546 140.616 126.504C140.406 126.504 140.784 126.546 140.532 126.504L140.28 126.462C140.07 126.42 139.902 126.378 139.692 126.336C139.482 126.294 139.314 126.252 139.146 126.168L138.894 126.084H138.852L138.726 126.042C138.306 125.874 137.886 125.664 137.508 125.454C133.896 123.522 131.166 120.288 129.948 116.424C128.814 113.106 128.604 109.494 128.898 105.966L128.94 105.672C128.94 105.798 128.94 105.588 128.94 105.546C128.94 105.336 128.982 105.168 128.982 104.958C129.024 104.58 129.066 104.244 129.108 103.866C129.192 103.236 129.318 102.648 129.402 102.018C129.57 101.22 129.738 100.464 129.948 99.708L130.032 99.414C130.368 98.322 128.352 97.818 127.974 98.91C127.512 100.506 127.176 102.144 127.008 103.824C126.504 107.436 126.588 111.174 127.386 114.744C128.352 118.944 130.578 122.766 134.064 125.37C137.004 127.554 140.742 129.15 144.396 127.974C147.504 126.966 149.814 124.488 151.368 121.716C153.132 118.44 154.224 114.87 154.476 111.132C154.77 107.52 154.434 103.74 152.964 100.422C152.25 98.784 151.284 97.314 150.066 96.054C148.554 94.542 146.664 93.492 144.648 92.736C140.616 91.14 136.122 90.72 132.384 93.24C130.494 94.584 129.024 96.432 128.142 98.616C128.1 98.742 128.058 98.826 128.016 98.952C127.638 99.96 129.654 100.464 130.032 99.372Z" fill="#191A23"/>
<path d="M121.002 112.896C119.238 107.142 130.284 97.986 130.284 97.986C132.552 98.658 137.004 98.406 137.004 98.406C132.762 104.202 139.272 109.704 139.272 109.704C142.506 107.058 145.866 110.292 143.976 113.526C142.086 116.76 138.684 115.5 138.684 115.5C138.684 115.5 136.164 124.572 135.198 125.748C135.198 125.748 127.848 123.522 125.874 119.658C125.832 119.7 122.178 116.802 121.002 112.896Z" fill="white"/>
<path d="M121.59 112.896C121.632 113.106 121.548 112.686 121.548 112.644C121.506 112.56 121.506 112.434 121.506 112.35C121.506 112.098 121.506 111.804 121.506 111.552C121.59 110.922 121.758 110.334 121.968 109.746C122.514 108.402 123.228 107.142 124.11 106.008C125.706 103.824 127.554 101.85 129.57 100.044C129.948 99.708 130.368 99.288 130.788 98.952H130.494C132.678 99.54 135.114 99.54 137.382 99.414L136.416 97.65C134.946 99.666 134.526 102.27 135.282 104.664C135.912 106.512 136.92 108.192 138.264 109.62C138.516 109.914 138.81 110.208 139.146 110.46C139.272 110.586 139.608 110.88 139.818 110.712C140.784 109.914 142.38 109.284 143.472 110.208C143.808 110.46 143.976 110.88 143.892 111.258C143.85 112.014 143.556 112.686 143.052 113.274C141.96 114.618 140.154 115.164 138.516 114.618C138.348 114.534 138.138 114.618 138.054 114.786C138.054 114.828 138.012 114.828 138.012 114.87C137.214 117.726 136.416 120.54 135.366 123.312C135.198 123.9 134.946 124.446 134.568 124.95L134.988 124.866C133.056 124.278 131.25 123.48 129.528 122.43C128.898 122.052 128.31 121.632 127.764 121.17C127.512 120.918 127.218 120.666 127.008 120.414C126.924 120.33 126.84 120.204 126.756 120.12L126.588 119.91C126.588 119.868 126.42 119.616 126.504 119.784C126.336 119.448 126.126 119.154 125.832 118.902L125.748 118.86C125.79 118.902 126 119.07 125.748 118.86C125.328 118.482 124.95 118.146 124.572 117.726C123.228 116.382 122.22 114.786 121.632 112.98C121.506 112.644 121.128 111.972 120.708 112.014C120.288 112.056 120.372 112.686 120.456 112.98C121.38 115.92 123.48 118.65 125.916 120.582L125.412 119.994C126.672 122.346 128.982 123.9 131.292 125.076C132.636 125.748 133.98 126.336 135.408 126.756C135.576 126.84 135.744 126.798 135.828 126.672C136.164 126.21 136.416 125.664 136.584 125.118C136.92 124.278 137.214 123.438 137.466 122.598C138.012 120.876 138.558 119.154 139.062 117.39L139.398 116.214L138.894 116.466C141.33 117.348 144.06 116.13 144.984 113.652C145.194 113.106 145.278 112.56 145.278 111.972C145.194 110.502 144.438 109.158 143.22 108.36C141.75 107.436 140.07 107.814 138.81 108.822L139.482 109.074C139.146 108.78 138.852 108.486 138.6 108.192L138.432 108.024C138.348 107.94 138.348 107.94 138.432 108.024L138.306 107.898C138.18 107.73 138.012 107.562 137.886 107.394C137.592 107.016 137.34 106.638 137.088 106.218C136.584 105.336 136.29 104.328 136.248 103.278C136.248 101.85 136.71 100.464 137.592 99.33C137.97 98.826 137.256 97.524 136.626 97.566C134.778 97.692 132.93 97.608 131.124 97.356C130.62 97.272 130.032 96.936 129.612 97.314C129.276 97.608 128.94 97.902 128.604 98.196C125.874 100.716 123.144 103.53 121.38 106.848C120.372 108.78 119.784 110.838 120.414 112.98C120.498 113.358 120.918 113.988 121.338 113.946C121.758 113.904 121.674 113.19 121.59 112.896Z" fill="#191A23"/>
<path d="M135.282 114.072C135.282 114.072 134.568 117.138 132.048 115.584L135.282 114.072Z" fill="white"/>
<path d="M134.526 113.82C134.442 114.114 134.316 114.408 134.19 114.702C134.106 114.828 134.064 114.954 133.98 115.038C133.896 115.122 133.812 115.248 133.728 115.29C133.602 115.374 133.476 115.458 133.35 115.542C133.266 115.584 133.224 115.584 133.14 115.626C133.224 115.584 133.14 115.626 133.098 115.626L132.972 115.668C132.93 115.668 132.804 115.668 132.888 115.668C132.972 115.668 132.804 115.668 132.804 115.668C132.678 115.668 132.972 115.71 132.804 115.668C132.762 115.668 132.678 115.626 132.888 115.71L132.762 115.668L132.678 115.626C132.72 115.626 132.804 115.71 132.72 115.626L132.51 115.5C132.342 115.416 132.132 115.332 131.922 115.29C131.754 115.248 131.586 115.248 131.46 115.248C131.124 115.332 131.502 115.584 131.628 115.668C132.258 116.046 132.972 116.298 133.728 116.382C134.148 116.424 134.526 116.34 134.904 116.13C135.408 115.794 135.744 115.29 135.954 114.744C135.996 114.618 136.038 114.492 136.08 114.324C136.08 114.24 135.996 114.114 135.912 114.072C135.744 113.946 135.576 113.904 135.408 113.82C135.24 113.736 135.03 113.694 134.862 113.694C134.778 113.736 134.61 113.736 134.526 113.82Z" fill="#191A23"/>
<path d="M129.192 105.546C127.554 105.84 125.874 105.924 124.194 105.756C118.566 105.294 117.474 107.016 118.86 108.486C120.246 109.956 127.806 111.006 127.806 111.006" fill="white"/>
<path d="M128.73 104.58L128.646 104.622C128.394 104.664 128.772 104.622 128.478 104.664C128.058 104.748 127.596 104.79 127.134 104.832C125.706 104.874 124.278 104.874 122.85 104.748C121.716 104.664 120.54 104.79 119.406 105.042C118.734 105.21 118.104 105.588 117.684 106.134C116.802 107.436 117.894 109.032 119.028 109.704C120.456 110.586 122.262 110.922 123.858 111.3C125.16 111.594 126.462 111.804 127.764 112.014C129.066 112.224 128.856 110.25 127.764 110.124C126.798 109.998 125.874 109.83 124.95 109.662C124.11 109.494 123.27 109.326 122.43 109.116C121.716 108.948 121.002 108.738 120.33 108.486C120.078 108.36 119.826 108.234 119.532 108.108C119.238 107.982 119.7 108.234 119.532 108.108C119.49 108.066 119.448 108.024 119.364 107.982C119.28 107.94 119.238 107.772 119.406 108.024C119.364 107.982 119.322 107.94 119.28 107.856L119.154 107.688C119.322 107.94 119.238 107.814 119.196 107.73C119.07 107.478 119.238 107.94 119.196 107.688C119.154 107.52 119.196 107.94 119.196 107.73C119.196 107.688 119.196 107.646 119.196 107.562C119.196 107.562 119.154 107.772 119.196 107.646C119.28 107.436 119.112 107.73 119.196 107.604C119.28 107.478 119.406 107.352 119.238 107.52C119.322 107.436 119.448 107.352 119.532 107.268C119.742 107.142 119.364 107.352 119.574 107.226L119.742 107.142C119.952 107.058 120.162 106.974 120.372 106.932C121.338 106.722 122.346 106.638 123.354 106.722C125.454 106.806 127.512 107.016 129.57 106.512C130.074 106.386 130.116 105.672 129.948 105.294C129.78 104.748 129.234 104.496 128.73 104.58Z" fill="#191A23"/>
<path d="M132.636 105.714C132.258 105.546 131.796 105.756 131.628 106.176C131.628 106.218 131.586 106.26 131.586 106.302C131.376 107.142 132.426 107.352 132.804 106.722C133.014 106.428 133.014 106.05 132.72 105.798C132.678 105.756 132.636 105.714 132.636 105.714Z" fill="#191A23"/>
<path d="M127.764 102.69C127.386 102.522 126.924 102.732 126.756 103.11C126.756 103.152 126.714 103.194 126.714 103.236C126.546 104.076 127.554 104.286 127.932 103.656C128.142 103.362 128.1 102.984 127.848 102.732C127.848 102.732 127.806 102.732 127.764 102.69Z" fill="#191A23"/>
<path d="M154.644 127.386C154.644 127.386 167.874 138.432 163.128 144.186C158.382 149.94 151.242 147 149.73 136.164C148.218 125.328 153.006 126.126 154.644 127.386Z" fill="#191A23"/>
<path d="M154.392 128.142L154.854 128.562L155.064 128.772L155.316 128.982L155.4 129.066L155.568 129.192L155.946 129.57C157.248 130.788 158.424 132.09 159.558 133.434C160.188 134.148 160.734 134.946 161.28 135.744C161.574 136.164 161.826 136.584 162.036 137.004C162.078 137.088 162.162 137.214 162.204 137.34L162.246 137.466C162.372 137.676 162.456 137.928 162.582 138.138C162.75 138.516 162.96 139.062 163.002 139.314C163.086 139.692 163.17 140.112 163.212 140.532C163.212 140.574 163.212 140.616 163.212 140.658C163.212 140.742 163.212 140.868 163.212 140.952C163.212 141.162 163.212 141.372 163.17 141.582C163.128 141.918 163.002 142.254 162.876 142.59C162.246 144.06 160.482 145.488 158.886 145.992C158.13 146.244 157.29 146.286 156.492 146.16C155.736 145.992 155.022 145.698 154.392 145.194C153.678 144.648 153.048 143.934 152.586 143.136C151.914 142.086 151.41 140.952 151.074 139.734C150.612 138.222 150.318 136.668 150.192 135.114C150.024 133.812 150.024 132.51 150.15 131.208C150.192 130.788 150.276 130.368 150.402 129.948C150.486 129.612 150.612 129.318 150.78 129.024C150.948 128.772 151.116 128.52 151.326 128.268C151.326 128.268 151.242 128.31 151.368 128.226L151.494 128.142C151.62 128.058 151.704 128.016 151.83 127.932L151.998 127.848C151.872 127.89 152.124 127.806 151.998 127.848C152.124 127.806 152.25 127.764 152.376 127.764C152.502 127.764 152.586 127.722 152.712 127.722C152.586 127.722 152.88 127.722 152.712 127.722H152.88C153.09 127.764 153.342 127.806 153.552 127.848C153.3 127.764 153.552 127.848 153.678 127.89L153.972 128.016C154.014 128.016 154.056 128.058 154.098 128.1C154.266 128.184 153.93 128.016 154.056 128.058C154.182 128.1 154.224 128.142 154.266 128.226C154.602 128.478 155.106 128.52 155.274 128.058C155.358 127.554 155.148 127.008 154.728 126.714C153.888 126.042 152.796 125.748 151.704 125.832C150.276 126.042 149.352 127.26 148.932 128.562C148.638 129.654 148.47 130.83 148.512 131.964C148.512 133.686 148.68 135.366 148.974 137.046C149.478 139.944 150.528 142.884 152.418 145.194C153.762 146.79 155.652 148.05 157.752 148.092C159.852 148.134 161.784 147.084 163.212 145.53C164.598 144.102 165.144 142.044 164.682 140.112C164.262 138.012 163.128 136.038 161.91 134.316C159.894 131.502 157.542 128.94 154.896 126.756L154.77 126.63C154.56 126.378 154.14 126.378 153.93 126.588C153.846 126.63 153.804 126.714 153.762 126.798C153.678 127.302 154.056 127.848 154.392 128.142Z" fill="#191A23"/>
<path d="M151.914 124.026C150.528 123.984 148.974 124.32 148.008 125.328C147.588 125.748 147.252 126.294 147.084 126.84C147.042 126.924 147.336 127.05 147.378 127.05C147.63 127.134 147.84 127.176 148.092 127.218C148.344 127.26 148.596 127.26 148.848 127.218C148.932 127.218 149.142 127.218 149.184 127.092C149.478 126.21 150.066 125.496 150.864 125.034C150.948 124.992 151.032 124.95 151.116 124.908L151.242 124.866C151.284 124.866 151.242 124.866 151.2 124.866L151.284 124.824C151.452 124.782 151.62 124.698 151.788 124.656L151.998 124.614L152.124 124.572H152.082L152.46 124.53H152.544C152.67 124.53 152.334 124.53 152.418 124.53H152.628C152.754 124.53 152.334 124.53 152.418 124.53C152.502 124.53 153.342 124.572 153.174 124.32C153.09 124.194 152.838 124.152 152.712 124.11C152.46 124.068 152.166 124.026 151.914 124.026Z" fill="#F5F5F5"/>
<path d="M120.834 156.87C120.582 156.576 114.786 150.78 110.88 149.1C106.974 147.42 98.868 148.974 99.456 150.99C100.044 153.006 105.294 151.2 108.528 153.258C108.528 153.258 103.026 154.224 100.884 154.854C98.448 155.568 98.952 157.92 101.262 157.752C103.362 157.668 105.462 157.836 107.562 158.172C107.562 158.172 103.698 159.054 101.64 159.306C99.582 159.558 99.078 162.33 102.732 162.708C106.386 163.086 108.402 163.926 108.402 163.926C108.402 163.926 117.684 170.982 121.422 168.966C121.422 168.966 131.712 175.056 137.886 172.914C142.716 171.234 138.936 144.354 137.046 132.888C136.206 127.722 128.898 127.386 127.638 132.468C127.596 132.552 127.596 132.636 127.554 132.762C126.378 137.718 125.328 159.558 125.328 159.558L120.834 156.87Z" fill="white"/>
<path d="M121.38 156.534C120.036 155.106 118.566 153.762 117.054 152.544C115.92 151.578 114.786 150.696 113.568 149.898C112.434 149.1 111.216 148.47 109.872 148.05C107.184 147.378 104.328 147.42 101.64 148.176C100.674 148.428 99.582 148.764 98.868 149.478C98.154 150.192 98.532 151.2 99.204 151.83C100.296 152.838 101.976 152.838 103.362 152.88C104.916 152.922 106.722 152.88 108.108 153.72L107.898 152.46C105.504 152.88 103.11 153.3 100.8 153.888C99.54 154.224 97.902 154.938 98.364 156.534C98.616 157.29 99.246 157.92 100.002 158.214C100.926 158.634 101.85 158.466 102.816 158.466C104.496 158.466 106.176 158.634 107.856 158.928L106.974 157.374C105.966 157.626 104.958 157.836 103.908 158.004C103.11 158.172 102.354 158.298 101.556 158.424C100.968 158.466 100.422 158.634 99.918 158.886C99.036 159.516 98.826 160.692 99.414 161.574L99.456 161.616C100.506 163.212 102.396 163.338 104.076 163.548C105.462 163.716 106.806 164.052 108.108 164.472L108.192 164.514C108.192 164.556 108.318 164.556 108.192 164.514C108.066 164.472 108.192 164.472 108.192 164.514C108.318 164.556 107.856 164.262 108.024 164.43C108.192 164.556 108.36 164.682 108.528 164.808C110.334 166.11 112.266 167.286 114.24 168.294C115.542 168.966 116.928 169.512 118.398 169.848C119.616 170.1 120.96 170.226 122.094 169.638L121.254 169.554C123.732 170.982 126.336 172.158 129.066 172.998C131.166 173.712 133.35 174.09 135.534 174.09C136.836 174.048 138.6 173.964 139.524 172.872C140.196 172.074 140.448 170.982 140.658 169.974C140.952 168.504 141.078 166.992 141.12 165.48C141.204 161.406 141.036 157.332 140.616 153.3C140.238 148.974 139.692 144.648 139.062 140.364C138.81 138.558 138.516 136.752 138.264 134.946C138.18 134.106 138.012 133.308 137.844 132.468C137.592 131.46 137.046 130.578 136.374 129.822C133.812 127.176 128.772 127.176 127.092 130.83C126.546 132.048 126.378 133.434 126.21 134.736C126 136.374 125.832 137.97 125.706 139.608C125.118 145.908 124.782 152.25 124.446 158.592C124.446 158.718 124.446 158.844 124.446 158.97L125.496 158.76L120.96 156.24C120.624 156.072 120.036 155.988 119.91 156.45C119.784 156.912 120.372 157.374 120.708 157.542L125.244 160.146C125.496 160.272 126.252 160.44 126.294 159.936C126.42 157.122 126.588 154.35 126.756 151.536C127.05 146.748 127.344 141.918 127.89 137.13C127.974 136.248 128.1 135.366 128.226 134.484C128.31 133.644 128.52 132.846 128.856 132.048C129.738 130.158 131.88 129.192 133.896 129.78C133.938 129.78 134.274 129.906 134.106 129.864C134.232 129.906 134.358 129.99 134.484 130.032L134.652 130.116C134.484 130.032 134.61 130.116 134.652 130.116C134.778 130.2 134.904 130.284 135.03 130.368C134.904 130.284 135.156 130.494 135.03 130.368L135.156 130.452C135.156 130.452 135.408 130.746 135.324 130.62C135.492 130.83 135.618 131.04 135.744 131.25C136.206 132.216 136.29 133.35 136.458 134.4C136.836 136.836 137.172 139.23 137.508 141.666C138.264 147.252 138.936 152.88 139.188 158.508C139.314 160.902 139.356 163.296 139.23 165.69C139.146 167.37 138.978 169.134 138.348 170.73C138.348 170.73 138.348 170.73 138.306 170.814C138.264 170.898 138.264 170.94 138.222 171.024C138.138 171.15 138.096 171.276 138.012 171.402C137.928 171.486 137.886 171.612 137.802 171.696L137.676 171.822C137.55 171.948 137.76 171.78 137.634 171.864C136.962 172.368 135.912 172.452 135.03 172.494C132.342 172.662 129.612 171.822 127.092 170.898C125.286 170.226 123.564 169.386 121.884 168.462C121.758 168.42 121.674 168.336 121.548 168.252C120.96 167.958 120.582 168.294 120.12 168.378C119.196 168.546 118.272 168.462 117.39 168.126C116.256 167.79 115.206 167.328 114.156 166.782C113.064 166.236 112.224 165.732 111.3 165.144C110.628 164.724 109.914 164.262 109.242 163.758C108.948 163.548 108.654 163.338 108.36 163.17C107.352 162.75 106.302 162.456 105.21 162.288C104.244 162.078 103.278 161.952 102.312 161.868C101.976 161.826 101.64 161.784 101.346 161.658C101.304 161.658 101.094 161.532 101.136 161.574C101.178 161.616 101.052 161.532 101.052 161.532C100.926 161.448 101.136 161.658 101.01 161.49C100.884 161.322 100.968 161.448 101.01 161.49C100.968 161.364 100.968 161.448 101.01 161.49C100.968 161.322 100.968 161.406 100.968 161.322C100.926 161.196 100.926 161.028 101.01 160.86C101.136 160.524 101.388 160.272 101.682 160.146C102.228 159.978 102.774 159.894 103.362 159.852C104.076 159.726 104.832 159.6 105.546 159.432C106.386 159.264 107.268 159.054 108.108 158.886C108.528 158.802 108.528 158.382 108.36 158.088C108.108 157.668 107.688 157.416 107.226 157.332C106.134 157.164 105 156.996 103.908 156.954C102.9 156.87 101.892 156.87 100.926 156.912C100.758 156.912 100.59 156.912 100.422 156.912C100.38 156.912 100.128 156.828 100.254 156.87C100.17 156.828 100.17 156.87 100.212 156.87C100.128 156.828 100.254 156.87 100.212 156.87C100.212 156.87 100.38 156.996 100.296 156.912C100.212 156.828 100.296 156.996 100.296 156.87C100.338 156.996 100.296 156.702 100.296 156.786C100.296 156.702 100.296 156.618 100.338 156.534C100.464 156.282 100.632 156.072 100.884 155.946C101.388 155.652 101.934 155.484 102.522 155.358C103.824 155.022 105.168 154.77 106.512 154.518C107.394 154.35 108.276 154.182 109.158 154.056C109.914 153.93 109.326 153.006 108.948 152.754C107.604 151.956 106.134 151.536 104.58 151.41C103.32 151.284 102.018 151.368 100.758 151.2C100.632 151.2 100.464 151.116 100.254 151.074C100.338 151.074 100.38 151.116 100.422 151.2C100.422 151.2 100.464 150.99 100.464 151.074C100.464 151.158 100.506 150.99 100.548 150.948C100.758 150.696 101.01 150.486 101.304 150.36C101.724 150.15 102.144 149.982 102.606 149.856C104.958 149.142 107.436 149.016 109.83 149.478C110.88 149.73 111.846 150.192 112.728 150.822C113.862 151.578 114.954 152.376 115.962 153.258C117.516 154.476 118.986 155.82 120.33 157.29C120.582 157.584 121.254 157.92 121.632 157.71C122.01 157.5 121.632 156.828 121.38 156.534Z" fill="#191A23"/>
<path d="M130.956 161.49L130.788 161.448C130.746 161.448 131.04 161.574 130.83 161.448C130.746 161.406 130.62 161.364 130.494 161.28C130.242 161.154 129.99 161.028 129.738 160.86C129.15 160.524 128.562 160.188 127.974 159.81C126.966 159.18 125.958 158.508 124.908 157.962C124.446 157.71 123.858 157.752 123.438 158.088C123.186 158.382 123.228 158.844 123.522 159.096C123.564 159.138 123.648 159.18 123.69 159.222C124.782 159.81 125.79 160.482 126.84 161.112C127.932 161.826 129.066 162.414 130.242 162.918C130.746 163.128 131.292 162.918 131.586 162.498C131.796 162.036 131.334 161.616 130.956 161.49Z" fill="#191A23"/>
<path d="M113.988 130.536C113.526 130.284 113.652 129.57 113.862 129.066C113.946 128.856 114.114 128.604 114.324 128.646C114.618 128.646 114.702 129.066 114.702 129.36L114.66 130.914C114.912 130.746 115.122 130.578 115.332 130.41C115.542 130.2 115.836 130.116 116.088 130.158C116.382 130.2 116.592 130.536 116.424 130.788C116.298 130.956 116.088 131.04 115.878 131.04L114.156 131.208" fill="#191A23"/>
<path d="M114.66 129.906L114.576 129.864L114.744 129.99C114.702 129.948 114.66 129.906 114.66 129.906L114.786 130.032C114.744 129.99 114.702 129.906 114.702 129.864L114.744 130.074C114.702 129.948 114.702 129.822 114.702 129.696V129.906C114.744 129.654 114.786 129.402 114.912 129.192L114.828 129.402C114.87 129.276 114.912 129.192 114.996 129.108L114.87 129.276C114.912 129.234 114.912 129.192 114.954 129.192L114.744 129.36C114.786 129.36 114.786 129.318 114.828 129.318L114.576 129.444H114.618L114.324 129.486H114.072C114.114 129.486 114.114 129.486 114.156 129.486L113.904 129.444H113.946L113.736 129.36C113.736 129.36 113.778 129.36 113.778 129.402L113.61 129.276C113.652 129.276 113.652 129.318 113.694 129.36L113.568 129.192C113.61 129.234 113.652 129.318 113.652 129.36L113.61 129.15C113.652 129.444 113.652 129.696 113.652 129.99L113.61 131.082C113.61 131.208 113.694 131.376 113.82 131.46C113.946 131.586 114.072 131.67 114.24 131.712C114.576 131.796 114.954 131.754 115.29 131.586C115.584 131.376 115.92 131.166 116.172 130.914L115.962 131.082C116.046 130.998 116.172 130.956 116.256 130.914L116.004 130.998C116.046 130.956 116.13 130.956 116.172 130.956L115.878 130.998C115.92 130.998 116.004 130.998 116.046 130.998H115.752H115.878L115.626 130.956L115.71 130.998L115.5 130.914C115.542 130.914 115.584 130.956 115.626 130.998L115.458 130.872C115.5 130.914 115.5 130.914 115.542 130.956L115.416 130.788C115.458 130.83 115.458 130.872 115.5 130.914L115.458 130.704C115.458 130.746 115.458 130.788 115.458 130.872V130.662C115.458 130.704 115.458 130.704 115.458 130.746L115.542 130.536C115.542 130.578 115.5 130.578 115.5 130.62L115.626 130.452L115.542 130.536L115.752 130.368C115.71 130.368 115.71 130.41 115.668 130.41L115.92 130.326C115.878 130.368 115.794 130.368 115.752 130.368L116.004 130.326C115.71 130.368 115.374 130.41 115.08 130.41L114.072 130.494C113.82 130.536 113.568 130.62 113.358 130.788C113.19 130.956 113.106 131.166 113.106 131.376C113.19 131.88 113.778 132.09 114.24 132.048L115.5 131.922C116.004 131.922 116.508 131.796 116.928 131.586C117.222 131.418 117.432 131.124 117.516 130.83C117.558 130.536 117.474 130.242 117.306 130.032C116.844 129.486 116.046 129.276 115.374 129.57C115.038 129.696 114.744 129.864 114.492 130.074C114.324 130.2 114.198 130.326 114.03 130.452L114.24 130.284C114.198 130.326 114.114 130.368 114.072 130.41L115.71 130.914L115.752 129.486C115.794 129.066 115.668 128.646 115.374 128.31C114.702 127.764 113.694 127.89 113.148 128.562C113.106 128.604 113.064 128.646 113.022 128.73C112.812 129.066 112.686 129.444 112.644 129.822C112.602 130.116 112.644 130.41 112.728 130.662C112.854 130.914 113.064 131.166 113.316 131.292C113.568 131.418 113.82 131.46 114.072 131.418C114.324 131.376 114.576 131.292 114.786 131.124C114.954 130.998 115.038 130.746 115.038 130.536C114.996 130.326 114.87 130.116 114.66 130.032V129.906Z" fill="#191A23"/>
<path d="M117.264 147.63C116.382 146.832 115.626 145.866 115.08 144.816C114.996 144.69 114.954 144.48 114.954 144.312C115.038 144.018 115.416 143.934 115.71 144.018C116.214 144.186 116.634 144.648 116.76 145.194C116.886 145.74 116.928 146.286 116.844 146.79L117.894 145.572C118.02 145.446 118.188 145.32 118.314 145.404C118.398 145.488 118.44 145.572 118.398 145.698C118.398 146.622 117.936 147.504 117.222 148.092" fill="#191A23"/>
<path d="M116.844 146.706C116.634 146.496 116.382 146.286 116.214 146.034C116.13 145.95 116.046 145.824 115.962 145.698C115.878 145.572 115.794 145.488 115.71 145.404L115.584 145.236L115.5 145.11C115.542 145.194 115.416 144.984 115.416 144.984C115.416 144.984 115.332 144.858 115.29 144.816C115.458 145.026 115.29 144.816 115.248 144.774L115.29 144.858L115.248 144.732C115.416 145.32 115.458 145.488 115.5 145.278C115.5 145.236 115.5 145.236 115.5 145.194C115.5 145.152 115.542 145.11 115.584 145.068C115.92 144.732 116.508 144.984 116.76 145.278C116.802 145.32 116.802 145.32 116.76 145.278L116.592 145.026C116.466 144.816 116.382 144.648 116.298 144.438C116.298 144.48 116.34 144.522 116.298 144.438C116.34 144.564 116.34 144.69 116.382 144.816C116.424 145.152 116.424 145.488 116.382 145.866C116.382 146.034 116.424 146.202 116.508 146.328C116.592 146.538 116.676 146.748 116.802 146.916C116.844 147 117.264 147.756 117.348 147.672L118.104 146.79C118.23 146.664 118.566 146.118 118.818 146.328L118.524 145.95L118.566 145.992L118.02 144.858C117.936 144.648 117.978 144.774 117.978 144.858V145.068C117.978 145.152 117.936 145.278 117.936 145.362C117.894 145.614 117.81 145.824 117.726 146.034C117.516 146.454 117.222 146.832 116.844 147.126C116.802 147.168 116.886 147.42 116.886 147.462C116.97 147.714 117.054 147.924 117.18 148.134C117.222 148.218 117.684 149.1 117.81 149.016C118.566 148.428 119.028 147.504 119.028 146.538C119.028 146.37 118.986 146.244 118.944 146.076C118.818 145.656 118.608 145.278 118.356 144.9C118.188 144.648 117.978 144.27 117.642 144.48C117.432 144.648 117.264 144.858 117.096 145.11L116.466 145.824L117.432 147.63C117.474 147.294 117.474 146.916 117.432 146.58C117.39 146.16 117.264 145.74 117.096 145.362C116.844 144.732 116.55 144.186 116.13 143.64C115.962 143.388 115.71 143.22 115.416 143.094C115.206 143.01 114.954 143.01 114.702 143.094C114.366 143.304 114.492 143.766 114.618 144.06C114.996 145.026 115.5 145.908 116.088 146.706C116.55 147.378 117.096 147.966 117.684 148.512C117.768 148.596 117.726 148.344 117.726 148.344C117.684 148.134 117.6 147.924 117.516 147.756C117.39 147.42 117.138 147.042 116.844 146.706Z" fill="#191A23"/>
<path d="M124.74 127.47C124.32 126.882 123.942 126.21 123.69 125.496C123.564 125.118 123.522 124.572 123.9 124.446C124.152 124.404 124.404 124.53 124.488 124.74C124.572 124.95 124.614 125.202 124.614 125.412C124.656 126.126 124.656 126.882 124.656 127.596L126.252 126.378L124.824 128.184" fill="#191A23"/>
<path d="M125.748 127.302C125.286 126.672 124.95 126 124.698 125.286L124.74 125.412C124.656 125.202 124.656 124.95 124.698 124.74L124.656 124.866C124.656 124.824 124.656 124.824 124.698 124.782V124.74C124.74 124.698 124.74 124.698 124.698 124.74C124.656 124.782 124.656 124.782 124.698 124.74C124.74 124.698 124.698 124.74 124.656 124.74C124.572 124.782 124.446 124.824 124.32 124.866H123.774H123.816C123.69 124.866 123.564 124.824 123.48 124.782C123.438 124.74 123.438 124.74 123.48 124.782C123.522 124.782 123.522 124.824 123.48 124.782C123.522 124.866 123.606 124.95 123.606 125.034L123.564 124.908C123.648 125.328 123.69 125.79 123.648 126.21C123.648 126.672 123.648 127.134 123.648 127.596C123.648 127.932 124.194 128.058 124.446 128.058C124.866 128.1 125.286 128.016 125.622 127.806L127.218 126.588L125.286 126.252L123.858 128.058C123.774 128.184 123.9 128.352 123.984 128.436C124.152 128.562 124.404 128.646 124.614 128.646C125.076 128.73 125.538 128.562 125.874 128.226L127.302 126.42C127.386 126.294 127.26 126.084 127.176 126.042C127.008 125.958 126.84 125.874 126.672 125.832C126.21 125.748 125.748 125.832 125.37 126.084L123.774 127.302L125.748 127.512C125.748 126.756 125.748 125.958 125.706 125.202C125.706 124.824 125.538 124.446 125.244 124.194C124.656 123.816 123.9 123.774 123.228 124.026C122.892 124.152 122.64 124.446 122.598 124.824C122.556 125.118 122.64 125.412 122.724 125.664C122.976 126.336 123.312 126.966 123.732 127.554C123.984 127.932 124.614 127.932 125.034 127.848C125.286 127.89 126.042 127.68 125.748 127.302Z" fill="#191A23"/>
<path d="M122.472 137.508C121.926 137.172 121.506 136.668 121.38 136.038C121.338 135.954 121.338 135.87 121.38 135.786C121.464 135.534 121.884 135.618 122.01 135.87C122.094 136.122 122.094 136.374 121.968 136.626C121.884 136.878 121.884 137.13 122.01 137.382L122.934 136.92C123.018 137.676 122.598 138.39 121.884 138.684" fill="#191A23"/>
<path d="M123.48 137.382C123.144 137.214 122.892 136.962 122.682 136.626L122.724 136.71C122.64 136.542 122.514 136.374 122.472 136.206C122.388 136.038 122.388 135.828 122.43 135.66L122.388 135.744L122.43 135.702C122.346 135.786 122.22 135.828 122.094 135.828L121.59 135.912H120.96C120.834 135.87 120.834 135.87 120.876 135.912C120.792 135.87 120.918 135.954 120.876 135.912C120.918 135.954 120.96 135.996 120.96 136.038L120.918 135.996C121.002 136.248 121.002 136.584 120.876 136.836C120.792 137.088 120.834 137.382 120.96 137.592C121.002 137.634 121.17 137.676 121.254 137.676C121.464 137.718 121.674 137.718 121.842 137.718C122.178 137.718 122.556 137.676 122.892 137.508L123.816 137.046H121.842C121.884 137.34 121.842 137.676 121.716 137.97L121.758 137.886C121.674 138.054 121.548 138.222 121.422 138.348L121.338 138.432L121.254 138.474C121.296 138.432 121.17 138.516 121.17 138.516C121.17 138.516 120.96 138.6 121.128 138.516C121.086 138.516 120.834 138.6 120.834 138.726C120.834 138.852 121.086 138.894 121.17 138.894C121.422 138.936 121.674 138.936 121.926 138.936C122.178 138.936 122.43 138.894 122.682 138.81C123.102 138.684 123.48 138.39 123.732 138.012C123.942 137.676 124.026 137.256 123.984 136.878C123.984 136.794 123.816 136.752 123.732 136.752C123.564 136.71 123.354 136.71 123.186 136.71C122.766 136.71 122.388 136.752 122.01 136.92L121.086 137.382L123.018 137.298C122.766 136.878 123.186 136.416 123.06 135.954C123.018 135.744 122.85 135.576 122.64 135.492C122.388 135.408 122.136 135.366 121.842 135.408C121.422 135.408 121.044 135.45 120.666 135.576C120.414 135.66 120.246 135.828 120.288 136.122C120.33 136.332 120.414 136.542 120.498 136.752C120.708 137.172 121.044 137.508 121.422 137.718C121.59 137.802 121.758 137.844 121.926 137.844C122.178 137.844 122.472 137.844 122.724 137.802C122.934 137.802 123.144 137.718 123.354 137.634C123.48 137.55 123.648 137.466 123.48 137.382Z" fill="#191A23"/>
<path d="M107.73 140.868C108.108 139.734 108.696 138.684 109.452 137.76C109.536 137.634 109.704 137.508 109.872 137.466C110.166 137.424 110.418 137.718 110.46 138.054C110.502 138.6 110.25 139.146 109.83 139.482C109.41 139.818 108.906 140.028 108.402 140.196L109.956 140.658C110.124 140.7 110.292 140.826 110.292 140.994C110.292 141.162 110.166 141.162 110.082 141.204C109.2 141.54 108.234 141.498 107.394 141.078" fill="#191A23"/>
<path d="M108.78 141.078C108.864 140.784 108.99 140.532 109.116 140.238L109.032 140.406C109.284 139.776 109.62 139.188 110.04 138.642C110.124 138.516 110.25 138.39 110.334 138.264C110.418 138.138 110.418 138.138 110.502 138.054C110.544 138.012 110.586 137.97 110.502 138.054C110.586 138.012 110.544 138.012 110.46 138.054C110.292 138.096 110.124 138.096 109.956 138.054C109.578 137.844 109.494 137.802 109.62 137.928C109.494 137.844 109.494 137.802 109.536 137.886C109.452 137.76 109.452 137.76 109.494 137.844C109.536 137.928 109.536 137.886 109.494 137.802C109.494 137.844 109.494 137.886 109.494 137.886C109.494 137.97 109.494 138.054 109.494 138.096V137.886C109.494 138.054 109.452 138.222 109.368 138.39L109.452 138.222C109.452 138.264 109.2 138.726 109.116 138.684C109.032 138.642 109.242 138.6 109.116 138.684L108.99 138.768C108.906 138.81 108.822 138.894 108.738 138.936C108.738 138.936 108.612 138.978 108.612 139.02C108.612 139.062 108.78 138.936 108.654 139.02L108.36 139.146C108.15 139.23 107.982 139.314 107.772 139.356C107.478 139.44 107.31 139.776 107.394 140.07C107.562 140.406 107.856 140.658 108.234 140.7L109.158 140.994L109.62 141.12C109.872 141.204 109.41 141.036 109.578 141.12C109.662 141.162 109.62 141.162 109.494 141.078C109.368 140.994 109.284 140.868 109.242 140.7C109.242 140.742 109.242 140.742 109.242 140.784L109.326 140.616C109.368 140.574 109.41 140.532 109.452 140.532C109.536 140.49 109.536 140.49 109.452 140.532L109.326 140.574C109.284 140.574 109.242 140.616 109.2 140.616L109.284 140.574H109.2C109.074 140.616 108.99 140.616 108.864 140.616C108.696 140.616 108.822 140.616 108.906 140.616C108.864 140.616 108.78 140.616 108.738 140.616C108.654 140.616 108.528 140.574 108.444 140.574C108.696 140.574 108.57 140.574 108.486 140.574L108.318 140.532C108.276 140.532 108.108 140.448 108.276 140.532C108.444 140.616 108.276 140.532 108.234 140.532C108.108 140.49 108.024 140.448 107.898 140.364C107.646 140.238 107.352 140.196 107.1 140.238C106.89 140.28 106.68 140.364 106.512 140.574C106.26 141.036 106.638 141.414 107.016 141.624C108.15 142.212 109.494 142.296 110.712 141.834C111.132 141.75 111.384 141.372 111.384 140.952C111.258 140.532 110.964 140.196 110.544 140.07C110.208 139.944 109.872 139.818 109.536 139.734L108.654 139.44L109.116 140.826C109.746 140.616 110.334 140.322 110.88 139.902C111.426 139.44 111.72 138.726 111.636 138.012C111.426 136.92 109.956 136.29 109.032 136.962C108.78 137.172 108.528 137.466 108.36 137.76C108.15 138.012 107.982 138.306 107.814 138.558C107.436 139.23 107.1 139.902 106.848 140.616C106.806 140.826 106.89 141.036 107.016 141.204C107.184 141.414 107.436 141.54 107.688 141.582C108.15 141.666 108.696 141.582 108.864 141.12L108.78 141.078Z" fill="#191A23"/>
<path d="M101.976 140.868C101.976 140.868 91.224 141.036 94.836 151.872C97.272 159.138 108.024 157.164 108.822 150.066C109.326 145.362 106.68 140.784 101.976 140.868Z" fill="#B9FF66"/>
<path d="M101.22 156.702C98.238 156.786 95.55 154.854 94.626 151.998C93.492 148.638 93.618 145.908 95.004 143.934C97.23 140.826 101.724 140.7 101.934 140.7C103.824 140.616 105.588 141.414 106.848 142.8C108.486 144.606 109.284 147.336 108.99 150.15C108.528 154.182 105.084 156.366 102.06 156.66C101.808 156.702 101.514 156.702 101.22 156.702ZM102.144 141.078H101.976C101.934 141.078 97.44 141.204 95.382 144.144C94.08 145.992 93.954 148.596 95.046 151.83C96.264 155.484 99.456 156.492 102.06 156.24C104.916 155.946 108.192 153.888 108.612 150.066C108.906 147.378 108.15 144.732 106.596 143.052C105.462 141.792 103.824 141.078 102.144 141.078Z" fill="#F5F5F5"/>
<path d="M96.726 150.36C96.726 150.36 99.918 149.016 99.918 148.68C99.876 148.302 99.792 147.966 99.624 147.63C99.624 147.63 101.934 147.168 102.984 147.63C104.034 148.092 103.446 149.184 103.446 149.184L106.638 150.36C106.638 150.36 107.646 148.68 106.974 147.42C106.302 146.16 100.422 145.362 97.86 146.286C95.298 147.21 95.676 149.562 96.726 150.36Z" fill="white"/>
<g opacity="0.49">
<path d="M125.202 140.868C125.202 140.868 114.45 141.036 118.062 151.872C120.498 159.138 131.25 157.164 132.048 150.066C132.594 145.362 129.906 140.784 125.202 140.868Z" fill="#B9FF66"/>
<path d="M124.488 156.702C121.506 156.786 118.818 154.854 117.894 151.998C116.76 148.638 116.886 145.908 118.272 143.934C120.498 140.826 124.992 140.7 125.202 140.7C127.092 140.616 128.856 141.414 130.116 142.8C131.754 144.606 132.552 147.336 132.258 150.15C131.796 154.182 128.352 156.366 125.328 156.66C125.034 156.702 124.74 156.702 124.488 156.702ZM125.37 141.078H125.202C125.16 141.078 120.666 141.204 118.608 144.144C117.306 145.992 117.18 148.596 118.272 151.83C119.49 155.484 122.682 156.492 125.286 156.24C128.142 155.946 131.418 153.888 131.838 150.066C132.132 147.378 131.376 144.732 129.822 143.052C128.688 141.792 127.092 141.078 125.37 141.078Z" fill="#F5F5F5"/>
<path d="M123.102 143.976C123.102 143.976 122.598 148.932 123.438 149.52C124.278 150.108 126.798 150.36 126.966 148.47C127.134 146.58 127.218 143.934 126.126 143.682C125.034 143.43 123.186 143.094 123.102 143.976Z" fill="white"/>
<path d="M120.33 148.134C120.75 148.092 121.128 148.05 121.548 148.008H121.716L121.674 148.176C121.59 148.638 121.59 149.142 121.674 149.604C121.758 150.066 121.926 150.486 122.178 150.822C122.472 151.158 122.85 151.368 123.228 151.494C123.69 151.62 124.11 151.662 124.572 151.662H124.614C125.16 151.704 125.706 151.62 126.252 151.494C126.756 151.368 127.218 151.116 127.596 150.78C127.764 150.612 127.89 150.36 127.974 150.15C128.058 149.856 128.1 149.604 128.184 149.31C128.31 148.722 128.436 148.134 128.562 147.588L128.604 147.462H128.73C129.234 147.504 129.738 147.546 130.242 147.63C129.738 147.672 129.234 147.756 128.73 147.798L128.898 147.672C128.856 148.26 128.814 148.848 128.772 149.436C128.73 149.73 128.688 150.066 128.646 150.36C128.562 150.696 128.436 151.032 128.226 151.284C127.806 151.788 127.218 152.166 126.546 152.292C125.916 152.46 125.286 152.502 124.656 152.46H124.698C124.152 152.46 123.606 152.376 123.102 152.208C122.556 152.04 122.094 151.662 121.758 151.2C121.464 150.738 121.296 150.192 121.254 149.646C121.254 149.1 121.296 148.596 121.464 148.092L121.59 148.26C121.128 148.218 120.708 148.176 120.33 148.134Z" fill="white"/>
<path d="M122.934 153.51C123.186 153.384 123.438 153.3 123.732 153.258C123.984 153.216 124.236 153.174 124.488 153.174C124.74 153.174 124.992 153.174 125.286 153.258C125.58 153.3 125.832 153.426 126.084 153.552C125.832 153.72 125.58 153.846 125.328 153.888C125.076 153.972 124.824 153.972 124.53 153.972C124.278 153.972 123.984 153.93 123.732 153.888C123.438 153.804 123.186 153.678 122.934 153.51Z" fill="white"/>
<path d="M124.614 152.04C124.74 152.124 124.866 152.25 124.95 152.418C124.992 152.544 125.034 152.67 125.034 152.796C125.034 152.922 124.992 153.048 124.95 153.174C124.992 153.342 124.866 153.51 124.698 153.552C124.53 153.594 124.362 153.468 124.32 153.3C124.32 153.258 124.32 153.216 124.32 153.216C124.278 153.09 124.236 152.964 124.236 152.838C124.236 152.712 124.278 152.586 124.32 152.46C124.404 152.25 124.488 152.124 124.614 152.04Z" fill="white"/>
<path d="M78.96 139.65C78.96 139.65 68.208 139.818 71.82 150.654C74.256 157.92 85.008 155.946 85.806 148.848C86.31 144.144 83.664 139.524 78.96 139.65Z" fill="#B9FF66"/>
<path d="M78.204 155.442C75.222 155.526 72.534 153.594 71.61 150.738C70.476 147.378 70.602 144.648 71.988 142.674C74.172 139.566 78.708 139.44 78.918 139.44C80.808 139.356 82.572 140.154 83.832 141.54C85.47 143.346 86.268 146.076 85.974 148.89C85.512 152.922 82.068 155.106 79.044 155.4C78.792 155.442 78.498 155.442 78.204 155.442ZM79.128 139.86H78.96C78.918 139.86 74.424 139.986 72.366 142.926C71.064 144.774 70.938 147.378 72.03 150.612C73.248 154.266 76.44 155.274 79.044 154.98C81.9 154.686 85.176 152.628 85.596 148.806C85.89 146.118 85.134 143.472 83.58 141.792C82.446 140.532 80.808 139.86 79.128 139.86Z" fill="#F5F5F5"/>
<path d="M76.44 145.74C76.44 145.74 74.802 145.866 74.634 146.076C74.466 146.286 74.34 149.898 74.634 150.36C74.928 150.822 81.9 150.486 82.152 150.36C82.404 150.234 82.572 146.37 82.446 146.118C82.32 145.866 80.388 145.362 80.388 145.362C80.388 145.362 80.22 144.312 79.926 144.312C78.876 144.27 77.826 144.27 76.776 144.312C76.65 144.774 76.524 145.236 76.44 145.74Z" fill="white"/>
<path d="M77.868 146.496C77.868 146.496 76.188 147.672 77.28 148.89C78.372 150.108 79.674 149.73 79.926 148.344C80.178 146.958 79.464 145.95 77.868 146.496Z" fill="#B9FF66"/>
<path d="M78.624 149.856C78.036 149.814 77.448 149.52 77.112 149.058C76.818 148.764 76.65 148.302 76.692 147.882C76.776 147 77.7 146.37 77.742 146.328L77.784 146.286C78.75 145.95 79.296 146.202 79.632 146.412C80.094 146.79 80.262 147.462 80.136 148.344C80.094 148.974 79.674 149.562 79.044 149.772C78.876 149.814 78.75 149.856 78.624 149.856ZM77.952 146.664C77.532 146.958 77.238 147.42 77.112 147.882C77.07 148.176 77.196 148.512 77.406 148.722C77.868 149.268 78.414 149.478 78.876 149.352C79.338 149.184 79.632 148.764 79.674 148.26C79.8 147.546 79.674 147 79.338 146.706C79.002 146.412 78.582 146.454 77.952 146.664Z" fill="#F5F5F5"/>
</g>
<path d="M90.636 135.576C90.51 129.36 87.528 123.48 82.824 119.448C80.514 117.432 77.826 115.962 74.886 115.08C71.442 114.072 67.452 113.904 64.134 115.5C61.194 116.886 58.548 119.868 58.548 123.27C58.548 124.824 59.178 126.462 60.69 127.134C62.076 127.806 63.756 127.554 65.058 126.84C68.334 125.076 68.796 121.212 68.418 117.894C67.116 107.058 58.17 98.7419 47.25 98.1959C46.41 98.1539 45.528 98.1539 44.646 98.1959C44.1 98.2379 43.638 98.5319 43.428 99.0359C43.302 99.3299 43.386 99.6659 43.68 99.8339C43.764 99.8759 43.89 99.9179 44.016 99.8759C50.442 99.4979 56.742 102.018 61.11 106.764C64.26 110.25 66.192 114.66 66.57 119.322C66.78 120.834 66.57 122.346 66.066 123.774C65.646 124.866 64.68 125.664 63.504 125.874C62.328 126.042 61.152 125.412 60.732 124.278C59.64 121.59 61.614 118.692 63.84 117.306C66.528 115.668 70.098 115.836 73.038 116.592C75.684 117.264 78.204 118.482 80.346 120.204C84.798 123.564 87.738 128.562 88.536 134.064C88.62 134.736 88.662 135.408 88.704 136.08C88.746 137.172 90.636 136.458 90.636 135.576Z" fill="#B9FF66"/>
<path d="M41.118 85.596C41.118 85.596 49.14 80.64 48.594 80.136C48.048 79.632 19.488 71.316 19.278 73.878C19.068 76.44 25.032 91.476 26.502 91.434C27.972 91.392 31.92 89.712 31.92 89.712C31.92 89.712 38.766 97.44 39.48 97.146C40.194 96.852 41.118 85.596 41.118 85.596Z" fill="#B9FF66"/>
<path d="M41.706 86.4359C43.596 85.2599 45.444 84.0839 47.25 82.8239C47.754 82.4879 48.216 82.1099 48.678 81.7319C48.972 81.5219 49.266 81.2279 49.434 80.8919C49.812 79.9679 48.678 79.3799 47.964 79.1279C46.41 78.5399 44.772 78.1199 43.176 77.6159C40.488 76.8179 37.842 76.1039 35.112 75.3899C32.298 74.6759 29.484 73.9619 26.628 73.3739C24.57 72.9539 22.47 72.4919 20.37 72.4919C19.824 72.4919 19.11 72.4919 18.69 72.8699C18.186 73.2899 18.438 74.2139 18.564 74.8019C19.11 77.5739 20.16 80.2619 21.21 82.8659C22.26 85.4699 23.31 88.1579 24.822 90.5099C25.284 91.2239 25.956 92.2319 26.922 92.2739C27.636 92.2319 28.35 92.0639 29.064 91.8119C29.862 91.5599 30.66 91.2659 31.458 90.9719C31.836 90.8039 32.214 90.6779 32.592 90.5099L31.542 90.0899C32.424 91.0559 33.306 92.0219 34.188 92.9879C35.532 94.4999 36.96 95.9279 38.472 97.2299C38.892 97.5659 39.732 98.2799 40.278 97.8179C40.614 97.5239 40.698 96.8939 40.782 96.4739C41.202 94.4999 41.37 92.4839 41.622 90.4679C41.79 88.9559 41.916 87.4439 42.042 85.9319C42.126 85.1339 40.404 83.9999 40.32 85.0919C40.068 88.1999 39.774 91.3499 39.27 94.4579C39.228 95.0459 39.06 95.6339 38.892 96.1799C38.892 96.2219 38.85 96.2639 38.85 96.3059C38.808 96.4319 38.808 96.3059 38.85 96.3479C38.808 96.3059 38.934 96.2639 38.85 96.3479C38.976 96.2639 39.144 96.2219 39.27 96.2639C39.144 96.2219 39.522 96.3479 39.354 96.3059C39.144 96.1799 38.892 96.2639 38.766 96.4739C38.64 96.6839 38.724 96.9359 38.934 97.0619C39.144 97.1879 39.396 97.1039 39.522 96.8939C39.606 96.7259 39.564 96.4739 39.438 96.3479C39.354 96.2639 39.228 96.2219 39.144 96.1379C39.06 96.0539 38.682 95.7599 38.934 95.9699L38.514 95.5919C38.178 95.2979 37.884 95.0039 37.59 94.6679C36.876 93.9539 36.162 93.1979 35.448 92.4839C34.44 91.4339 33.432 90.3419 32.466 89.2499C32.256 88.9979 31.752 88.7039 31.416 88.8719C30.324 89.3339 29.232 89.7539 28.098 90.1319C27.762 90.2579 27.384 90.3419 27.048 90.4259C26.754 90.4679 26.502 90.5099 26.208 90.5519C26.292 90.5519 26.418 90.5939 26.502 90.6359C26.418 90.5939 26.754 90.8039 26.586 90.6779C26.922 90.9299 26.712 90.8039 26.628 90.7199C26.418 90.5099 26.712 90.8459 26.628 90.7199C26.376 90.3839 26.124 90.0479 25.914 89.6699C26.04 89.8799 25.872 89.5859 25.83 89.5439L25.662 89.2079C25.494 88.9139 25.368 88.6199 25.242 88.3679C24.612 87.1079 24.066 85.8059 23.478 84.5039C22.344 81.9419 21.42 79.2539 20.664 76.5659C20.538 76.1039 20.412 75.5999 20.328 75.1379C20.328 75.0539 20.286 74.9699 20.286 74.8439V74.7599C20.244 74.5919 20.286 74.8859 20.286 74.8019C20.286 74.7179 20.286 74.5079 20.286 74.3819C20.286 74.2559 20.244 74.5919 20.286 74.4659C20.328 74.3399 20.16 74.5919 20.244 74.5079C20.454 74.3819 20.118 74.5079 20.286 74.4659L20.538 74.3819C20.58 74.3819 20.79 74.3399 20.538 74.3819C20.622 74.3819 20.664 74.3819 20.748 74.3399C21.462 74.2979 22.134 74.3399 22.848 74.4239C23.394 74.4659 23.604 74.5079 24.192 74.5919C24.78 74.6759 25.284 74.7599 25.872 74.8859C28.476 75.3899 31.08 75.9779 33.642 76.6079C38.262 77.7419 42.882 79.0019 47.418 80.4719C47.712 80.5559 47.964 80.6399 48.258 80.7659L48.552 80.8919C48.174 80.7659 48.51 80.8919 48.594 80.8919C48.636 80.9339 48.678 80.9339 48.72 80.9339C48.678 80.9759 48.468 80.7659 48.426 80.7239C48.174 80.4719 48.006 80.1779 47.922 79.8419C47.964 79.9679 47.922 79.5899 47.922 79.7159C47.922 79.8419 48.006 79.5899 47.922 79.6739C47.67 79.9679 47.376 80.2199 47.082 80.4299C45.15 81.8999 43.134 83.2859 41.034 84.5459L40.824 84.6719C40.74 84.7139 40.95 84.5879 40.782 84.7139L40.656 84.7979C40.236 85.0499 40.362 85.5119 40.614 85.8899C40.656 86.0999 41.286 86.6879 41.706 86.4359Z" fill="#191A23"/>
<path d="M24.402 77.8679C24.402 77.8679 37.548 86.8559 37.926 87.4859C38.304 88.1159 39.48 97.1879 39.48 97.1879" fill="#B9FF66"/>
<path d="M23.436 78.1619C26.418 80.1779 29.358 82.2359 32.298 84.2939C33.768 85.3019 35.238 86.3099 36.624 87.4439C36.708 87.4859 36.75 87.5699 36.834 87.6119C36.918 87.6539 36.96 87.7379 36.918 87.6539C37.002 87.8639 37.086 88.0739 37.128 88.3259C37.338 89.2919 37.506 90.2999 37.632 91.3079C37.926 93.3239 38.22 95.3399 38.472 97.3559C38.514 97.7339 40.572 97.3559 40.53 96.8939C40.32 95.1719 40.068 93.4499 39.816 91.7279C39.648 90.5939 39.48 89.5019 39.27 88.3679C39.186 87.9059 39.144 87.3599 38.808 87.0239C38.388 86.6459 37.926 86.3099 37.464 85.9739C36.624 85.3859 35.826 84.7559 34.986 84.1679C33.012 82.7819 31.038 81.3959 29.022 80.0099L25.368 77.4899C25.032 77.2799 24.402 77.4899 24.066 77.5739C23.94 77.6579 23.142 77.9519 23.436 78.1619Z" fill="#191A23"/>
<path d="M28.644 91.5179L37.338 88.6619L38.598 88.2419C39.27 88.0319 37.968 86.4359 37.338 86.6459L28.644 89.5019L27.384 89.9219C26.67 90.1319 28.014 91.7279 28.644 91.5179Z" fill="#191A23"/>
<path d="M23.646 78.4979L37.59 84.5039L39.606 85.3859C40.11 85.5959 40.656 85.5119 41.034 85.1339C41.328 84.8819 41.538 84.2519 41.034 84.0419L27.09 78.0359L25.074 77.1539C24.57 76.9439 24.024 77.0279 23.646 77.4059C23.394 77.6999 23.184 78.2879 23.646 78.4979Z" fill="#191A23"/>
<path d="M189.042 57.708L164.724 45.234C163.212 44.436 161.322 45.066 160.566 46.578L153.552 60.228C152.754 61.74 153.384 63.63 154.896 64.386L164.682 69.384C164.724 71.106 164.892 73.416 165.018 74.928C165.06 75.348 165.438 75.684 165.858 75.642C166.026 75.642 166.152 75.558 166.278 75.474L170.31 72.282L179.214 76.86C180.726 77.658 182.616 77.028 183.372 75.516L190.386 61.866C191.142 60.354 190.554 58.506 189.042 57.708Z" fill="white"/>
<path d="M189.798 57.666L180.39 52.836L166.992 45.99C165.312 45.108 163.548 44.142 161.574 44.73C159.684 45.276 158.97 47.544 158.13 49.14L154.35 56.49L152.964 59.262C152.586 59.892 152.292 60.564 152.208 61.32C152.124 62.79 153.048 64.008 154.308 64.638L156.828 65.94L163.464 69.342L163.884 69.552L163.632 69.258C163.674 70.728 163.8 72.156 163.884 73.626C163.926 74.13 163.842 74.928 164.178 75.348C164.64 75.936 165.564 76.146 166.278 76.146C166.992 76.146 167.37 75.768 167.874 75.39L169.89 73.836L171.318 72.702L169.554 72.45L175.434 75.474C177.702 76.65 180.684 78.708 183.246 77.154C184.002 76.692 184.38 75.936 184.8 75.18L186.27 72.282L190.134 64.722C190.554 63.924 190.974 63.126 191.352 62.328C192.234 60.606 191.478 58.674 189.798 57.75C189.378 57.498 188.874 57.372 188.328 57.414C187.95 57.456 187.866 57.666 188.244 57.876C189.672 58.674 190.008 60.438 189.294 61.824C189 62.412 188.706 63 188.412 63.546L184.8 70.56C184.002 72.156 183.204 73.752 182.364 75.306C182.028 75.936 181.482 76.44 180.768 76.734C180.516 76.818 180.264 76.86 180.012 76.86C179.718 76.86 179.928 76.818 179.928 76.818C179.928 76.818 179.886 76.776 179.844 76.776C179.046 76.356 178.206 75.936 177.408 75.516L171.066 72.24C170.688 72.03 169.722 71.694 169.302 71.988L165.9 74.76C165.732 74.886 165.522 75.012 165.354 75.18L165.312 75.222C164.892 75.432 165.228 75.558 166.194 75.558C166.152 75.516 166.11 75.474 166.11 75.432C166.026 75.096 165.984 74.76 165.984 74.424C165.858 72.828 165.774 71.274 165.69 69.678C165.69 69.552 165.564 69.426 165.438 69.384L160.314 66.78L156.954 65.058C156.324 64.806 155.694 64.47 155.148 64.05C154.098 63.084 154.014 61.572 154.644 60.396C154.98 59.766 155.274 59.136 155.61 58.548L159.222 51.492C160.02 49.938 160.776 48.426 161.574 46.872C161.868 46.242 162.414 45.78 163.044 45.528C163.296 45.402 163.59 45.36 163.884 45.318C163.968 45.318 164.094 45.402 163.968 45.36H164.01C164.346 45.528 164.682 45.696 165.018 45.864L177.45 52.248C180.978 54.054 184.548 55.902 188.076 57.708L188.244 57.792C188.706 58.044 189.21 58.17 189.714 58.128C190.05 58.044 190.176 57.834 189.798 57.666Z" fill="#B9FF66"/>
<path d="M167.286 62.79L169.974 58.8C170.352 58.128 170.814 57.498 171.276 56.91C171.486 56.7 171.738 56.532 171.99 56.406H172.032C172.284 56.364 172.116 56.238 171.57 56.07C170.646 55.524 171.024 55.65 171.108 55.86C171.192 56.07 171.276 56.2799 171.36 56.4479C171.99 57.8759 172.62 59.346 173.208 60.816C173.334 61.194 173.502 61.5299 173.628 61.9079C173.754 62.2439 173.88 62.58 174.006 62.916C174.174 63.672 172.83 63.588 172.368 63.63C170.688 63.756 169.008 63.5459 167.412 62.9579C167.034 62.8319 166.95 63.042 167.202 63.294C167.538 63.672 168 63.924 168.462 64.092C170.1 64.68 171.864 64.9319 173.586 64.8479C174.006 64.8479 174.426 64.806 174.804 64.722C175.14 64.68 175.602 64.638 175.728 64.26C175.77 63.924 175.728 63.588 175.56 63.294C175.392 62.832 175.224 62.3699 175.014 61.9079C174.342 60.1859 173.628 58.464 172.83 56.784C172.41 55.902 171.57 55.314 170.646 55.146C169.932 55.062 169.428 55.734 169.05 56.28L165.396 61.6979C165.312 61.9919 167.076 63.168 167.286 62.79Z" fill="#B9FF66"/>
</svg>
