<svg width="210" height="210" viewBox="0 0 210 210" fill="none" xmlns="http://www.w3.org/2000/svg">
<path d="M120.288 103.53L127.386 89.04C125.874 89.082 124.404 88.704 123.018 88.032C118.398 85.638 116.592 79.926 119.028 75.306C121.38 70.77 126.882 68.964 131.502 71.148C132.804 71.778 133.938 72.744 134.778 73.878L142.212 58.674L97.44 36.288L75.012 81.06L88.662 87.822C84.588 91.098 83.916 97.02 87.192 101.094C90.468 105.168 96.39 105.84 100.464 102.564C102.648 100.842 103.95 98.196 103.992 95.424L120.288 103.53Z" fill="white"/>
<path d="M121.212 103.992L127.428 91.308L128.31 89.502C128.604 88.872 127.848 88.368 127.26 88.368C124.74 88.41 122.346 87.276 120.75 85.302C119.448 83.622 118.734 81.564 118.818 79.422C119.028 74.928 122.724 71.064 127.26 70.938C129.864 70.896 132.342 72.156 133.896 74.256C134.19 74.634 135.408 74.97 135.66 74.382L142.17 61.068L143.094 59.22C143.304 58.758 143.01 58.422 142.59 58.212L138.138 55.986L127.47 50.652L114.492 44.1L103.362 38.514C101.556 37.59 99.75 36.624 97.902 35.784L97.818 35.742C97.482 35.574 96.642 35.448 96.432 35.91L94.206 40.362L88.872 51.03L82.404 64.008L76.86 75.096C75.936 76.902 75.012 78.708 74.13 80.556L74.088 80.64C73.878 81.102 74.172 81.438 74.592 81.648L86.52 87.57L88.2 88.41L87.822 87.276C85.638 89.04 84.252 91.602 84.084 94.416C83.958 96.936 84.756 99.414 86.31 101.346C89.67 105.546 96.054 106.554 100.548 103.614C103.236 101.808 104.916 98.784 105 95.55L103.53 96.054L109.032 98.784L117.768 103.11L119.826 104.118C120.204 104.286 120.918 104.37 121.212 103.992C121.464 103.614 121.044 103.152 120.708 102.984L115.206 100.254L106.47 95.928L104.412 94.92C103.908 94.668 102.984 94.71 102.942 95.424C102.774 100.128 98.7 104.202 93.912 103.95C89.46 103.698 86.226 99.834 86.1 95.508C86.058 92.778 87.318 90.174 89.418 88.452C89.922 88.032 89.502 87.528 89.04 87.318L77.112 81.396L75.432 80.556L75.936 81.564L78.162 77.07L83.454 66.402L89.964 53.424L95.55 42.294L97.398 38.598C97.692 38.01 98.07 37.464 98.28 36.834C98.28 36.792 98.322 36.792 98.322 36.75L96.936 36.876L101.43 39.102L112.098 44.436L125.076 50.946L136.206 56.532L139.902 58.38C140.49 58.674 141.078 59.01 141.666 59.262L141.75 59.304L141.246 58.296L134.736 71.652L133.812 73.542L135.576 73.668C132.09 69.174 125.244 68.124 120.708 71.61C118.608 73.206 117.222 75.6 116.844 78.204C116.508 80.724 117.18 83.286 118.65 85.386C120.708 88.2 123.984 89.838 127.47 89.838L126.42 88.62L120.204 101.304L119.322 103.11C119.112 103.572 119.406 103.908 119.826 104.118C120.162 104.244 121.002 104.412 121.212 103.992Z" fill="#191A23"/>
<path d="M181.146 129.906L198.114 129.864V80.094H146.538L146.706 97.02C142.044 94.71 136.374 96.642 134.064 101.304C131.754 105.966 133.686 111.636 138.348 113.946C141.036 115.29 144.228 115.248 146.874 113.862L147.042 129.99L164.766 129.948L181.146 129.906Z" fill="white"/>
<path d="M181.23 130.746L196.098 130.704H198.156C198.618 130.746 199.038 130.41 199.08 129.948C199.08 129.906 199.08 129.864 199.08 129.822V82.1099C199.08 81.4799 199.122 80.8079 199.08 80.1779V80.0939C199.08 79.5479 198.366 79.2539 197.904 79.2539H152.754C150.654 79.2539 148.596 79.1699 146.496 79.2539C146.454 79.2539 146.454 79.2539 146.412 79.2539C145.95 79.2119 145.53 79.5899 145.488 80.0519C145.488 80.0939 145.488 80.0939 145.488 80.1359L145.656 94.9619V97.0199L147.126 96.2639C144.354 94.9199 141.162 94.8359 138.306 96.0119C133.266 98.1119 130.788 103.824 132.678 108.906C133.602 111.342 135.408 113.358 137.718 114.576C140.784 116.13 144.396 116.13 147.462 114.576L145.824 113.862L145.95 127.974V129.99C145.95 130.536 146.664 130.83 147.084 130.83L162.078 130.788L174.09 130.746H181.23C181.692 130.788 182.196 130.41 182.154 129.906C182.028 129.402 181.524 129.024 180.978 129.066L166.11 129.108L153.678 129.15H146.874L148.05 129.99L147.924 115.878V113.862C147.924 113.106 146.79 112.896 146.286 113.148C144.102 114.282 141.54 114.366 139.272 113.442C137.34 112.602 135.786 111.048 134.946 109.116C133.14 105 134.736 100.212 138.6 97.9859C140.994 96.6419 143.892 96.5579 146.328 97.7759C146.958 98.0699 147.798 97.7759 147.798 97.0199L147.63 82.1939V80.0939L146.706 80.9759H196.14C196.812 80.9759 197.484 81.0179 198.156 80.9759H198.24L197.064 80.1359V127.848C197.064 128.478 197.022 129.15 197.064 129.78V129.864L197.988 128.982L183.12 129.024H181.02C180.558 129.024 180.012 129.36 180.096 129.906C180.222 130.41 180.726 130.788 181.23 130.746Z" fill="#191A23"/>
<path d="M164.766 129.948L147.042 129.99L147.21 147.84C148.26 147.462 149.352 147.252 150.486 147.252C155.694 147.252 159.936 151.494 159.936 156.702C159.936 161.91 155.694 166.152 150.486 166.152C149.436 166.152 148.386 165.984 147.378 165.606L147.546 181.734H198.114V129.822L181.146 129.864L164.766 129.948Z" fill="white"/>
<path d="M164.094 129.276L148.554 129.318H146.37C146.244 129.318 146.118 129.36 146.118 129.486L146.286 145.11V147.294C146.286 147.798 147.462 148.596 147.966 148.428C150.192 147.588 152.67 147.672 154.854 148.722C156.534 149.646 157.794 151.116 158.424 152.922C159.936 157.08 158.298 161.742 154.518 164.094C152.208 165.48 149.436 165.774 146.916 164.934C146.79 164.892 146.496 164.85 146.496 165.102L146.622 179.214V181.23C146.622 181.776 147.672 182.406 148.176 182.406H192.528C194.586 182.406 196.644 182.448 198.66 182.406H198.744C198.87 182.406 198.996 182.364 198.996 182.238V132.426C198.996 131.754 199.038 131.082 198.996 130.41C198.996 130.368 198.996 130.368 198.996 130.326C198.996 129.78 197.946 129.15 197.484 129.15L182.826 129.192L171.066 129.234L164.094 129.276C163.632 129.276 163.968 129.738 164.094 129.906C164.43 130.284 164.85 130.536 165.354 130.62L179.97 130.578L191.94 130.536H198.702L197.19 129.402V180.474C197.148 180.726 197.148 180.936 197.19 181.188C197.19 181.23 197.19 181.23 197.19 181.272L197.442 181.104H153.09C151.074 181.104 148.974 180.978 146.958 181.104H146.874L148.386 182.28L148.218 168.168V166.152L147.798 166.32C150.36 167.202 153.174 167.034 155.568 165.816C157.668 164.724 159.264 162.918 160.146 160.734C160.986 158.466 160.986 155.988 160.104 153.72C159.138 151.368 157.416 149.436 155.19 148.176C152.544 146.58 149.31 146.244 146.37 147.294L148.05 148.428L147.882 132.804V130.62L147.63 130.788L163.17 130.746H165.354C165.816 130.746 165.522 130.284 165.354 130.116C165.06 129.612 164.598 129.36 164.094 129.276Z" fill="#191A23"/>
<path d="M150.444 147.21C149.31 147.21 148.218 147.42 147.168 147.798L147 129.948L128.814 129.99C131.04 134.694 128.982 140.322 124.278 142.548C119.574 144.774 113.946 142.716 111.72 138.012C110.544 135.492 110.544 132.594 111.678 130.032L96.432 130.074V181.65H147.504L147.336 165.522C148.344 165.858 149.394 166.068 150.444 166.068C155.652 166.068 159.894 161.826 159.894 156.618C159.894 151.41 155.694 147.21 150.444 147.21Z" fill="white"/>
<path d="M149.688 146.748C148.512 146.748 147.378 146.958 146.286 147.378L148.134 148.302L147.966 132.678V130.494C147.966 129.99 146.622 129.57 146.244 129.57H140.112L130.368 129.612H128.1C128.016 129.612 127.848 129.612 127.932 129.78C130.032 134.358 128.142 139.776 123.69 142.086C121.716 143.094 119.406 143.346 117.264 142.758C115.374 142.17 113.82 140.574 112.896 138.852C111.552 136.29 111.51 133.266 112.686 130.62C112.854 130.2 111.216 129.696 110.964 129.696L97.608 129.738H95.718C95.634 129.738 95.592 129.738 95.55 129.822V179.256C95.55 179.928 95.508 180.642 95.55 181.272C95.55 181.314 95.55 181.314 95.55 181.356C95.55 181.86 96.894 182.28 97.272 182.28H142.044C144.102 182.28 146.16 182.364 148.26 182.28H148.344C148.428 182.28 148.47 182.28 148.554 182.196L148.428 168.084V166.068L147.63 165.984C150.108 166.824 152.754 166.908 155.19 165.858C157.164 164.976 158.802 163.506 159.81 161.616C161.994 157.542 160.86 152.544 157.374 149.604C155.106 147.756 152.418 146.748 149.688 146.748C149.184 146.706 149.73 147.126 149.856 147.21C150.234 147.504 150.738 147.672 151.2 147.714C152.964 147.672 154.644 148.302 155.946 149.478C157.374 150.78 158.382 152.544 158.76 154.476C159.516 158.424 157.668 162.456 154.182 164.472C152.082 165.69 149.562 165.984 147.21 165.27C147.168 165.27 146.412 165.018 146.412 165.186L146.538 179.298V181.314L146.706 181.23H101.976C99.918 181.23 97.818 181.146 95.76 181.23H95.676L97.398 182.154V131.376C97.44 131.124 97.44 130.914 97.398 130.662C97.398 130.62 97.398 130.62 97.398 130.578L97.23 130.662L110.586 130.62H112.476L110.754 129.696C109.578 132.258 109.62 135.198 110.796 137.76C113.274 142.464 118.65 144.858 123.774 143.598C128.814 142.128 131.754 136.878 130.284 131.796C130.158 131.334 129.948 130.83 129.738 130.41L129.57 130.536H135.702L145.446 130.494H147.714L145.992 129.57L146.16 145.194V147.378C146.16 147.84 147.63 148.428 148.008 148.302C149.016 147.924 150.066 147.756 151.158 147.714C151.62 147.714 151.074 147.294 150.948 147.21C150.654 146.958 150.192 146.79 149.688 146.748Z" fill="#191A23"/>
<path d="M111.426 159.726C111.426 159.726 108.318 151.074 115.584 147.756C122.85 144.438 132.426 150.066 133.014 159.684C133.602 169.302 121.884 170.562 121.884 170.562L111.426 159.726Z" fill="#191A23"/>
<path d="M111.678 167.58C108.948 164.262 111.384 152.292 111.384 152.292C113.316 149.226 123.438 151.074 123.438 151.074C122.052 154.098 122.514 159.138 122.514 159.138C123.69 156.366 126.924 157.542 126.756 160.23C126.588 162.918 123.48 163.8 123.48 163.8C123.48 163.8 124.362 169.512 124.152 170.562C123.942 171.612 118.902 173.208 116.256 170.142C116.214 170.184 114.072 170.478 111.678 167.58Z" fill="#191A23"/>
<path d="M114.786 164.724C114.786 164.724 108.402 165.396 107.394 162.036C106.386 158.676 111.048 157.29 114.492 160.23" fill="#191A23"/>
<path d="M104.16 181.062C104.16 181.062 113.106 167.916 119.994 167.916C126.882 167.916 133.392 181.398 133.392 181.398L104.16 181.062Z" fill="#191A23"/>
<path d="M120.162 157.71C120.246 157.542 120.33 157.374 120.456 157.206C120.582 157.038 120.582 157.038 120.456 157.164C120.54 157.08 120.582 157.038 120.666 156.954C120.834 156.828 120.96 156.702 121.128 156.576C120.876 156.744 121.38 156.492 121.422 156.45C121.632 156.408 121.632 156.408 121.422 156.45C121.506 156.45 121.632 156.408 121.716 156.408C121.926 156.408 121.926 156.408 121.674 156.408C121.758 156.408 121.884 156.408 121.968 156.45C121.716 156.366 121.674 156.366 121.884 156.45C122.094 156.534 122.052 156.534 121.8 156.408C121.884 156.45 121.968 156.492 122.052 156.576C121.8 156.366 121.758 156.366 121.968 156.534C122.178 156.702 122.136 156.66 121.926 156.492C121.968 156.576 122.052 156.66 122.094 156.702C121.8 156.366 122.136 156.828 122.178 156.954C122.052 156.66 122.178 157.038 122.22 157.122C122.262 157.29 122.262 157.458 122.22 157.626C122.094 158.508 121.758 159.39 121.338 160.146C120.456 161.826 119.364 162.876 117.978 164.136C117.18 164.808 116.55 165.648 116.214 166.656C115.92 167.748 116.13 168.924 116.802 169.806C117.432 170.688 118.524 171.066 119.532 170.814C120.54 170.436 120.372 169.428 119.91 168.714C120.036 168.882 120.078 169.134 119.994 168.756C119.952 168.588 119.994 168.756 119.994 168.798C119.994 168.714 119.994 168.63 119.994 168.588C119.994 168.252 120.12 167.958 120.33 167.706C120.75 167.16 121.296 166.656 121.842 166.194C123.144 165.06 124.236 163.716 125.034 162.162C125.916 160.482 126.504 158.592 125.874 156.744C125.244 154.896 123.27 153.51 121.38 153.216C119.49 152.922 117.348 153.846 116.55 155.652C116.13 156.576 116.802 157.542 117.642 157.962C118.23 158.34 119.742 158.718 120.162 157.71Z" fill="white"/>
<path d="M121.884 172.83L120.414 172.62C119.7 172.578 118.986 172.746 118.398 173.124C118.104 173.292 117.852 173.502 117.642 173.754C117.474 173.964 117.348 174.174 117.348 174.426C117.306 174.678 117.306 174.972 117.39 175.224C117.39 175.308 117.432 175.392 117.474 175.434C117.558 175.602 117.684 175.728 117.852 175.854C118.02 175.98 118.188 176.064 118.398 176.106C118.734 176.19 119.112 176.232 119.49 176.232C120.204 176.19 120.876 175.938 121.506 175.602C121.716 175.476 121.926 175.35 122.136 175.182C122.43 174.93 122.64 174.678 122.808 174.342C122.892 174.174 122.934 174.006 122.934 173.838C122.934 173.712 122.892 173.544 122.892 173.418C122.892 173.376 122.85 173.334 122.85 173.292C122.766 173.124 122.64 172.998 122.514 172.872C122.346 172.746 122.136 172.662 121.968 172.578C121.758 172.494 121.506 172.452 121.296 172.41C120.876 172.368 120.456 172.41 120.036 172.494C119.742 172.536 119.448 172.62 119.196 172.746C118.986 172.83 118.776 172.956 118.566 173.082C118.524 173.124 118.44 173.124 118.398 173.166C117.81 173.502 117.39 173.964 117.096 174.552C117.012 174.72 116.97 174.888 117.054 175.056C117.054 175.224 117.138 175.392 117.264 175.476C117.39 175.602 117.558 175.686 117.768 175.686C117.978 175.77 118.188 175.77 118.44 175.728C118.986 175.686 119.532 175.518 119.994 175.224C120.414 175.014 120.75 174.678 120.96 174.258C120.96 174.216 121.002 174.174 121.044 174.132L120.834 174.468C120.876 174.426 120.918 174.384 120.96 174.3L120.624 174.636C120.666 174.594 120.708 174.552 120.792 174.51L120.372 174.804C120.456 174.762 120.498 174.72 120.582 174.678L120.078 174.93C120.162 174.888 120.204 174.888 120.288 174.846L119.742 175.014L119.952 174.972L119.448 175.056C119.532 175.056 119.616 175.056 119.7 175.056H119.238C119.322 175.056 119.406 175.056 119.49 175.098L119.112 175.014C119.238 175.056 119.322 175.098 119.406 175.14L119.112 174.972C119.196 175.014 119.28 175.098 119.322 175.182L119.112 174.93C119.154 174.972 119.154 175.056 119.196 175.098L119.154 174.762C119.154 174.804 119.154 174.846 119.154 174.93L119.238 174.594C119.238 174.636 119.196 174.678 119.196 174.678L119.406 174.342C119.364 174.384 119.364 174.426 119.322 174.426L119.658 174.09C119.616 174.132 119.574 174.174 119.532 174.174L119.952 173.88C119.91 173.922 119.868 173.922 119.826 173.964L120.33 173.712C120.288 173.754 120.246 173.754 120.162 173.754L120.708 173.586C120.666 173.628 120.582 173.628 120.498 173.628L121.002 173.544H120.792H121.254C121.212 173.544 121.128 173.544 121.086 173.544L121.464 173.628C121.38 173.628 121.338 173.586 121.254 173.544L121.548 173.712C121.464 173.67 121.422 173.628 121.38 173.544L121.548 173.796C121.506 173.712 121.464 173.628 121.422 173.502L121.464 173.838C121.464 173.67 121.464 173.544 121.464 173.376L118.398 175.182L119.868 175.392C120.12 175.434 120.33 175.434 120.582 175.35C120.834 175.308 121.128 175.266 121.38 175.14C121.632 175.056 121.884 174.93 122.094 174.72C122.304 174.594 122.472 174.426 122.64 174.258C122.85 174.006 123.06 173.586 122.892 173.25L122.682 172.998C122.388 172.914 122.178 172.83 121.884 172.83Z" fill="white"/>
<path d="M166.656 159.6C166.656 159.6 163.548 150.948 170.814 147.63C178.08 144.312 187.656 149.94 188.244 159.558C188.832 169.176 177.114 170.478 177.114 170.478L166.656 159.6Z" fill="#191A23"/>
<path d="M166.95 167.454C164.22 164.136 166.656 152.166 166.656 152.166C168.588 149.1 178.71 150.948 178.71 150.948C177.324 154.014 177.786 159.054 177.786 159.054C178.962 156.282 182.196 157.458 182.028 160.146C181.86 162.834 178.71 163.632 178.71 163.632C178.71 163.632 179.592 169.344 179.382 170.394C179.172 171.444 174.132 173.04 171.486 169.974C171.444 170.1 169.302 170.352 166.95 167.454Z" fill="#191A23"/>
<path d="M170.016 164.64C170.016 164.64 163.632 165.27 162.624 161.952C161.616 158.634 166.236 157.206 169.722 160.104" fill="#191A23"/>
<path d="M159.39 180.978C159.39 180.978 168.336 167.832 175.224 167.832C182.112 167.832 188.622 181.314 188.622 181.314L159.39 180.978Z" fill="#191A23"/>
<path d="M175.392 157.626C175.476 157.458 175.56 157.29 175.686 157.122C175.812 156.954 175.812 156.954 175.686 157.08C175.77 156.996 175.812 156.954 175.896 156.87C176.064 156.744 176.19 156.618 176.358 156.492C176.106 156.66 176.61 156.408 176.694 156.366C176.904 156.324 176.904 156.324 176.694 156.366C176.778 156.366 176.904 156.324 176.988 156.324C177.198 156.324 177.198 156.324 176.946 156.324C177.03 156.324 177.156 156.366 177.24 156.366C176.988 156.282 176.946 156.282 177.156 156.366C177.366 156.45 177.324 156.45 177.072 156.324C177.156 156.366 177.24 156.408 177.324 156.492C177.072 156.324 177.03 156.282 177.24 156.45C177.45 156.618 177.408 156.576 177.198 156.408C177.282 156.492 177.324 156.576 177.366 156.66C177.072 156.324 177.408 156.786 177.45 156.912C177.324 156.618 177.45 156.996 177.492 157.08C177.534 157.248 177.534 157.416 177.492 157.584C177.366 158.466 177.03 159.348 176.61 160.104C175.728 161.784 174.636 162.834 173.25 164.094C172.452 164.766 171.822 165.648 171.444 166.614C171.15 167.706 171.36 168.882 172.032 169.764C172.536 170.562 173.88 171.108 174.762 170.772C175.77 170.394 175.602 169.386 175.14 168.672C175.266 168.84 175.308 169.092 175.224 168.714C175.182 168.546 175.224 168.714 175.224 168.756C175.224 168.672 175.224 168.588 175.224 168.546C175.224 168.21 175.35 167.874 175.56 167.622C176.022 167.076 176.526 166.572 177.072 166.11C178.374 164.976 179.466 163.632 180.264 162.078C181.146 160.398 181.776 158.508 181.104 156.66C180.432 154.812 178.5 153.426 176.61 153.132C174.72 152.838 172.578 153.762 171.78 155.568C171.36 156.492 172.032 157.458 172.872 157.878C173.502 158.214 175.014 158.592 175.392 157.626Z" fill="white"/>
<path d="M177.114 172.746L175.644 172.536C174.93 172.494 174.216 172.662 173.628 173.04C173.334 173.208 173.082 173.418 172.872 173.67C172.704 173.88 172.578 174.09 172.578 174.342C172.536 174.594 172.536 174.888 172.578 175.14C172.578 175.224 172.62 175.308 172.662 175.35C172.746 175.518 172.872 175.644 173.04 175.77C173.208 175.896 173.376 175.98 173.586 176.022C173.922 176.106 174.3 176.148 174.678 176.148C175.392 176.106 176.064 175.854 176.694 175.518C176.904 175.392 177.114 175.266 177.324 175.098C177.618 174.846 177.828 174.594 177.996 174.258C178.08 174.09 178.122 173.922 178.122 173.754C178.122 173.628 178.08 173.46 178.08 173.334C178.08 173.292 178.038 173.25 178.038 173.208C177.954 173.04 177.828 172.914 177.702 172.788C177.534 172.662 177.324 172.578 177.156 172.494C176.946 172.41 176.694 172.368 176.484 172.326C176.064 172.284 175.644 172.326 175.224 172.41C174.93 172.452 174.636 172.536 174.384 172.662C174.174 172.746 173.964 172.872 173.754 172.998L173.586 173.082C172.998 173.418 172.536 173.88 172.284 174.468C172.2 174.636 172.158 174.804 172.2 174.972C172.2 175.14 172.284 175.308 172.41 175.392C172.536 175.518 172.704 175.602 172.914 175.602C173.124 175.686 173.334 175.686 173.586 175.644C174.132 175.602 174.678 175.434 175.14 175.14C175.56 174.93 175.896 174.594 176.106 174.174C176.106 174.132 176.148 174.09 176.148 174.048L175.938 174.384C175.98 174.342 176.022 174.3 176.064 174.216L175.728 174.552C175.77 174.51 175.812 174.468 175.896 174.426L175.476 174.72C175.56 174.678 175.602 174.636 175.686 174.594L175.182 174.846C175.266 174.804 175.308 174.804 175.392 174.762L174.846 174.93C174.93 174.888 175.014 174.888 175.056 174.888L174.552 174.972C174.636 174.972 174.72 174.972 174.762 174.972H174.3C174.384 174.972 174.468 174.972 174.552 175.014L174.174 174.93C174.3 174.972 174.384 175.014 174.468 175.056L174.174 174.888C174.258 174.93 174.342 175.014 174.384 175.098L174.216 174.846C174.258 174.888 174.258 174.972 174.3 175.014L174.258 174.678C174.258 174.72 174.258 174.762 174.258 174.846L174.342 174.51C174.342 174.552 174.3 174.594 174.3 174.594L174.51 174.258C174.468 174.3 174.468 174.342 174.426 174.342L174.762 174.006C174.72 174.048 174.678 174.09 174.636 174.09L175.056 173.796C175.014 173.838 174.972 173.838 174.93 173.88L175.434 173.628L175.266 173.67L175.812 173.502C175.77 173.502 175.686 173.544 175.602 173.544L176.106 173.46C176.064 173.46 175.98 173.46 175.896 173.46H176.358C176.316 173.46 176.232 173.46 176.19 173.46L176.568 173.544C176.484 173.544 176.442 173.502 176.358 173.46L176.652 173.628C176.61 173.586 176.526 173.544 176.484 173.46L176.694 173.712C176.652 173.628 176.61 173.544 176.568 173.46L176.61 173.796C176.61 173.628 176.61 173.502 176.652 173.334L173.586 175.14L175.056 175.35C175.308 175.392 175.518 175.392 175.77 175.308C176.022 175.266 176.316 175.224 176.568 175.098C176.82 175.014 177.072 174.888 177.282 174.678C177.492 174.552 177.66 174.384 177.828 174.216C178.038 173.964 178.248 173.544 178.08 173.208L177.912 172.956C177.618 172.83 177.366 172.746 177.114 172.746Z" fill="white"/>
<path d="M164.304 108.444C164.304 108.444 161.196 99.7919 168.462 96.5159C175.728 93.2399 185.304 98.8259 185.892 108.444C186.48 118.062 174.762 119.322 174.762 119.322L164.304 108.444Z" fill="#191A23"/>
<path d="M164.556 116.298C161.826 112.98 164.262 101.01 164.262 101.01C166.194 97.944 176.316 99.792 176.316 99.792C174.93 102.858 175.392 107.898 175.392 107.898C176.568 105.126 179.802 106.302 179.634 108.99C179.466 111.678 176.316 112.476 176.316 112.476C176.316 112.476 177.198 118.188 176.988 119.238C176.778 120.288 171.738 121.884 169.092 118.818C169.092 118.902 166.95 119.196 164.556 116.298Z" fill="#191A23"/>
<path d="M167.664 113.484C167.664 113.484 161.28 114.114 160.272 110.796C159.264 107.478 163.884 106.05 167.37 108.948" fill="#191A23"/>
<path d="M156.996 129.78C156.996 129.78 165.942 116.634 172.83 116.634C179.718 116.634 186.228 130.116 186.228 130.116L156.996 129.78Z" fill="#191A23"/>
<path d="M173.04 106.47C173.124 106.302 173.208 106.134 173.334 105.966C173.46 105.798 173.46 105.798 173.334 105.924C173.418 105.84 173.46 105.798 173.544 105.714C173.67 105.588 173.838 105.462 174.006 105.336C173.754 105.504 174.258 105.252 174.3 105.21C174.51 105.168 174.51 105.168 174.3 105.21C174.384 105.21 174.51 105.168 174.594 105.168C174.804 105.168 174.804 105.168 174.552 105.168C174.636 105.168 174.762 105.21 174.846 105.21C174.594 105.126 174.552 105.126 174.762 105.21C174.972 105.294 174.93 105.294 174.678 105.168C174.762 105.21 174.846 105.252 174.93 105.336C174.678 105.168 174.636 105.126 174.846 105.294C175.056 105.462 175.014 105.42 174.804 105.21C174.888 105.294 174.93 105.378 174.972 105.462C174.678 105.126 175.014 105.588 175.056 105.714C174.93 105.42 175.056 105.798 175.098 105.882C175.14 106.05 175.14 106.218 175.098 106.386C174.972 107.268 174.636 108.108 174.216 108.906C173.334 110.586 172.242 111.636 170.856 112.896C170.058 113.568 169.428 114.408 169.092 115.416C168.798 116.508 169.008 117.684 169.638 118.566C170.268 119.448 171.36 119.826 172.368 119.574C173.376 119.196 173.208 118.188 172.746 117.474C172.872 117.642 172.914 117.894 172.83 117.516C172.788 117.348 172.83 117.516 172.83 117.558C172.83 117.474 172.83 117.39 172.83 117.348C172.83 117.012 172.956 116.718 173.166 116.466C173.628 115.92 174.132 115.416 174.678 114.996C175.98 113.862 177.072 112.518 177.87 110.964C178.752 109.284 179.34 107.394 178.71 105.546C178.08 103.698 176.106 102.312 174.216 102.018C172.326 101.724 170.184 102.648 169.386 104.454C168.966 105.378 169.638 106.344 170.478 106.764C171.108 107.058 172.62 107.436 173.04 106.47Z" fill="white"/>
<path d="M174.762 121.59L173.292 121.38C172.578 121.338 171.864 121.506 171.276 121.884C170.982 122.052 170.73 122.262 170.52 122.514C170.352 122.724 170.226 122.934 170.226 123.186C170.184 123.438 170.184 123.732 170.268 123.984C170.268 124.068 170.31 124.152 170.352 124.194C170.436 124.362 170.562 124.488 170.73 124.614C170.898 124.74 171.066 124.824 171.276 124.866C171.612 124.992 171.99 125.034 172.368 124.992C173.082 124.95 173.754 124.74 174.384 124.362C174.594 124.236 174.804 124.11 175.014 123.942C175.308 123.69 175.518 123.438 175.686 123.102C175.77 122.934 175.812 122.766 175.812 122.598C175.812 122.472 175.77 122.304 175.77 122.178C175.77 122.136 175.728 122.094 175.728 122.052C175.644 121.884 175.518 121.758 175.392 121.632C175.224 121.506 175.014 121.422 174.804 121.38C174.594 121.296 174.342 121.254 174.132 121.212C173.712 121.17 173.292 121.212 172.872 121.296C172.578 121.338 172.284 121.422 172.032 121.548C171.822 121.632 171.612 121.758 171.402 121.884C171.36 121.926 171.276 121.926 171.234 121.968C170.646 122.304 170.226 122.766 169.932 123.354C169.848 123.522 169.806 123.69 169.848 123.858C169.848 124.026 169.932 124.194 170.058 124.278C170.184 124.404 170.352 124.488 170.562 124.488C170.772 124.572 170.982 124.572 171.234 124.53C171.78 124.488 172.326 124.32 172.788 124.026C173.208 123.816 173.544 123.48 173.754 123.06C173.754 123.018 173.796 122.976 173.838 122.934L173.628 123.27C173.67 123.228 173.712 123.186 173.754 123.102L173.418 123.438C173.46 123.396 173.502 123.354 173.586 123.312L173.166 123.606C173.25 123.564 173.292 123.522 173.376 123.48L172.872 123.732C172.956 123.69 172.998 123.69 173.082 123.648L172.536 123.816C172.62 123.774 172.704 123.774 172.746 123.774L172.242 123.858C172.326 123.858 172.41 123.858 172.494 123.858H172.032C172.116 123.858 172.2 123.858 172.284 123.9L171.906 123.816C172.032 123.858 172.116 123.9 172.2 123.942L171.906 123.774C171.99 123.816 172.074 123.9 172.116 123.984L171.948 123.732C171.99 123.774 171.99 123.858 172.032 123.9L171.99 123.564C171.99 123.606 171.99 123.648 171.99 123.732L172.074 123.396C172.074 123.438 172.074 123.48 172.032 123.48L172.242 123.144C172.2 123.186 172.2 123.228 172.158 123.228L172.494 122.892L172.368 122.976L172.788 122.682C172.746 122.724 172.704 122.724 172.662 122.766L173.166 122.514C173.124 122.556 173.082 122.556 172.998 122.556L173.544 122.388L173.334 122.43L173.838 122.346C173.796 122.346 173.712 122.346 173.628 122.346H174.09C174.048 122.346 173.964 122.346 173.922 122.346L174.3 122.43C174.216 122.43 174.174 122.388 174.09 122.346L174.384 122.514C174.3 122.472 174.258 122.43 174.216 122.346L174.384 122.598C174.342 122.514 174.3 122.43 174.258 122.304L174.3 122.64C174.3 122.472 174.3 122.346 174.3 122.178L171.234 123.984L172.704 124.194C172.956 124.236 173.166 124.236 173.418 124.152C173.67 124.11 173.964 124.068 174.216 123.942C174.468 123.858 174.72 123.732 174.93 123.564C175.14 123.438 175.308 123.27 175.476 123.102C175.686 122.85 175.896 122.43 175.728 122.094L175.56 121.842C175.266 121.716 175.014 121.632 174.762 121.59Z" fill="white"/>
<path d="M137.256 47.7959C140.49 45.7799 144.564 45.6959 148.008 47.2079C151.284 48.6359 153.804 51.6179 155.106 54.8939C155.82 56.5739 156.24 58.3799 156.282 60.1859C156.282 61.6559 155.82 63.4199 154.224 63.7559C153.93 63.7979 153.678 63.8399 153.384 63.7979C153.258 63.7559 153.132 63.7139 153.006 63.6719L152.796 63.5459C152.67 63.4619 152.712 63.5039 152.628 63.3359C152.586 63.2519 152.544 63.1259 152.544 63.0419C152.544 62.7059 152.628 62.4119 152.838 62.1599C153.846 60.7739 155.568 61.1939 156.66 62.2439C158.172 63.6719 159.012 65.7719 159.39 67.7879C159.768 69.9299 159.6 72.1559 158.802 74.2139C158.592 74.7179 158.802 75.3059 159.264 75.5999C159.642 75.8519 160.398 75.8099 160.608 75.3059C162.33 70.8119 161.742 65.3519 158.592 61.5719C157.122 59.8499 154.602 58.5059 152.46 59.8079C150.612 60.8999 149.814 63.5039 151.662 65.0159C153.258 66.2339 155.526 66.0659 156.912 64.6379C158.55 62.8739 158.424 60.2279 158.004 58.0439C157.164 53.5499 154.686 49.3919 150.906 46.7459C146.664 43.8059 140.616 43.3019 136.164 46.0739C135.114 46.6619 136.206 48.4259 137.256 47.7959Z" fill="#191A23"/>
<path d="M77.616 83.8319L57.372 130.158C57.372 130.158 52.122 128.604 51.912 127.302C51.702 126 70.35 83.6219 70.35 83.6219L77.616 83.8319Z" fill="#191A23"/>
<path d="M57.498 130.41L57.33 130.368C56.784 130.2 51.954 128.73 51.744 127.344C51.534 126.042 68.292 87.864 70.182 83.538L70.224 83.412L77.952 83.664L77.826 83.958L57.498 130.41ZM70.476 83.832C63.084 100.716 52.08 126.126 52.122 127.302C52.248 128.1 55.272 129.318 57.246 129.906L77.28 84.042L70.476 83.832Z" fill="#191A23"/>
<path d="M11.928 120.498C11.928 120.498 27.636 104.076 30.156 91.3499C32.676 78.6239 30.114 73.0379 35.7 71.2319C41.286 69.4259 43.218 80.6399 41.496 84.7559C41.496 84.7559 47.418 76.9439 55.188 84.7559C55.188 84.7559 64.764 83.7899 67.662 92.0219C69.72 97.8179 62.874 99.1619 58.884 96.9779C54.516 94.5839 47.166 100.338 50.484 107.478C53.802 114.618 58.59 114.198 61.908 110.544C65.226 106.89 64.554 103.782 69.426 104.412C74.298 105.042 73.71 110.838 69.216 119.448C64.722 128.058 50.19 127.932 46.452 124.068L31.416 141.246" fill="white"/>
<path d="M12.852 120.918C14.994 118.65 17.01 116.256 18.942 113.82C22.722 109.032 26.292 103.95 28.854 98.4059C29.484 97.0199 30.03 95.6339 30.492 94.1639C30.954 92.6099 31.332 90.9719 31.584 89.3759C32.13 86.0999 32.382 82.7819 32.634 79.5059C32.718 78.4139 32.844 77.2799 33.012 76.1879C33.138 75.3479 33.39 74.5499 33.768 73.8359C33.852 73.6679 33.978 73.5419 34.062 73.3739C34.104 73.2899 34.188 73.2479 34.23 73.1639L34.314 73.0799C34.356 73.0379 34.272 73.1219 34.356 73.0379C34.44 72.9539 34.65 72.7859 34.776 72.6599L35.028 72.4919C35.07 72.4499 35.322 72.3239 35.196 72.4079C35.574 72.1979 35.952 72.0299 36.372 71.9039C36.498 71.8619 36.624 71.8619 36.708 71.8199L36.876 71.7779C36.708 71.8199 36.834 71.7779 36.876 71.7779H37.212C37.044 71.7359 37.464 71.7779 37.212 71.7779L37.422 71.8199C37.716 71.8619 37.38 71.7779 37.548 71.8619C37.716 71.9459 37.758 71.9459 37.842 71.9879C37.632 71.9039 37.926 72.0299 37.968 72.0719C38.01 72.1139 38.178 72.2399 38.304 72.3239C38.178 72.1979 38.388 72.4079 38.43 72.4499C38.472 72.4919 38.598 72.6179 38.682 72.7019C38.85 72.8699 38.976 73.0379 39.102 73.2479C39.732 74.2139 40.194 75.2219 40.446 76.3559C41.118 78.6239 41.244 80.9759 40.824 83.2859C40.74 83.7479 40.614 84.1679 40.446 84.6299C40.278 85.0499 40.908 85.4279 41.202 85.5119C41.622 85.6799 42.126 85.5959 42.42 85.2599C42.462 85.2179 42.504 85.1339 42.546 85.0919C42.588 85.0499 42.672 84.9659 42.714 84.8819L42.84 84.7559L42.882 84.7139C43.386 84.2099 43.932 83.7479 44.52 83.3699C46.074 82.2779 48.048 81.8999 49.896 82.3619C51.282 82.7819 52.542 83.5379 53.592 84.5039C54.222 85.0499 54.642 85.6379 55.566 85.5539C55.608 85.5539 55.734 85.5119 55.524 85.5539C55.314 85.5959 55.524 85.5539 55.608 85.5539C56.112 85.5539 56.574 85.5539 57.078 85.5539L57.582 85.5959H57.834H58.002C58.17 85.5959 57.792 85.5539 57.96 85.5959C58.38 85.6379 58.758 85.7219 59.178 85.8059C59.388 85.8479 59.598 85.8899 59.808 85.9319L60.144 86.0159L60.312 86.0579C60.144 86.0159 60.48 86.0999 60.312 86.0579C60.774 86.2259 61.236 86.4359 61.698 86.6459C62.58 87.0239 63.378 87.5699 64.092 88.1579C64.974 88.9139 65.688 89.8379 66.192 90.8879C66.696 91.8959 67.2 93.1139 67.074 94.2899C66.864 96.2639 65.142 97.1459 63.42 97.3139C62.916 97.3559 62.454 97.3559 61.95 97.2719H61.74L61.32 97.1879L60.984 97.1039L60.774 97.0619L60.69 97.0199C59.598 96.6839 58.884 96.0959 57.708 95.8859C55.44 95.5499 53.13 96.2219 51.45 97.8179C49.602 99.4139 48.594 101.808 48.678 104.244C48.804 105.714 49.224 107.142 49.98 108.444C50.652 109.788 51.534 111.006 52.626 112.014C54.432 113.61 56.826 114.324 59.136 113.568C61.446 112.812 63.21 110.88 64.47 108.906C64.974 107.94 65.562 107.016 66.192 106.134C66.696 105.462 67.494 105.084 68.334 105.126C68.88 105.126 69.468 105.168 70.014 105.294C70.182 105.336 69.93 105.252 70.14 105.336L70.434 105.462C70.602 105.546 70.35 105.378 70.56 105.504C70.644 105.546 70.728 105.63 70.812 105.672C70.98 105.798 70.812 105.63 70.896 105.756C70.98 105.882 71.022 105.882 71.106 105.966C71.232 106.092 71.316 106.218 71.358 106.344C71.568 106.68 71.694 107.016 71.736 107.394C72.198 109.788 71.232 112.434 70.392 114.576C69.72 116.214 68.964 117.81 68.124 119.322C67.578 120.288 66.906 121.17 66.108 121.926C64.428 123.396 62.454 124.488 60.312 125.118C58.254 125.706 56.112 125.958 53.97 125.874C53.004 125.832 52.038 125.748 51.114 125.496C50.904 125.454 50.652 125.412 50.442 125.328C50.316 125.286 50.232 125.286 50.106 125.244C49.896 125.202 50.064 125.244 50.106 125.244L49.938 125.202C49.518 125.076 49.14 124.908 48.762 124.74L48.51 124.614C48.678 124.698 48.468 124.614 48.426 124.572C48.258 124.488 48.132 124.404 47.964 124.278L47.754 124.11C47.712 124.068 47.544 123.942 47.628 124.026C47.712 124.11 47.544 123.942 47.502 123.942L47.292 123.732C46.83 123.228 46.032 123.186 45.528 123.69L40.446 129.486L32.34 138.726L30.492 140.868C30.156 141.246 30.702 141.75 31.038 141.876C31.5 142.086 32.046 142.002 32.382 141.666L37.464 135.87L45.57 126.63L47.418 124.488L45.654 124.446C46.746 125.58 48.258 126.21 49.77 126.63C51.576 127.134 53.466 127.386 55.356 127.344C59.472 127.302 63.798 126.21 67.074 123.606C67.872 122.976 68.628 122.22 69.216 121.38C69.972 120.33 70.602 119.154 71.148 117.978C72.324 115.542 73.458 112.896 73.836 110.208C74.088 108.486 74.004 106.554 72.744 105.21C71.358 103.698 68.838 103.362 66.906 103.698C64.848 104.118 63.924 105.756 62.958 107.436C61.908 109.2 60.522 111.09 58.632 111.972C58.254 112.14 57.876 112.266 57.456 112.35C57.33 112.392 57.162 112.392 57.036 112.392H56.7H56.532C56.238 112.392 56.658 112.392 56.49 112.392C56.28 112.35 56.112 112.308 55.902 112.266C55.86 112.266 55.818 112.224 55.734 112.224C55.608 112.182 55.482 112.14 55.356 112.056C54.978 111.888 54.642 111.636 54.306 111.384C53.34 110.544 52.584 109.536 51.996 108.402C51.324 107.268 50.862 105.966 50.694 104.664C50.526 102.606 51.282 100.548 52.752 99.0779C53.424 98.4059 54.222 97.9019 55.062 97.5659C55.44 97.3979 55.86 97.3139 56.238 97.2719C56.406 97.2299 56.574 97.2299 56.742 97.2299H57.036H57.204C57.372 97.2299 56.952 97.1879 57.288 97.2299L57.582 97.2719C57.624 97.2719 57.876 97.3559 57.708 97.3139C57.792 97.3559 57.876 97.3559 58.002 97.3979C58.128 97.4399 58.338 97.5659 58.212 97.4819C58.674 97.7339 59.136 97.9439 59.64 98.1119C60.648 98.4479 61.698 98.6579 62.79 98.6999C64.638 98.7419 66.738 98.2799 68.04 96.8519C69.51 95.2559 69.132 93.0299 68.376 91.2239C67.536 89.2079 66.108 87.5279 64.26 86.3099C61.656 84.7139 58.632 83.9159 55.566 84.0839C55.314 84.0839 55.062 84.1259 54.81 84.1259L56.028 84.5039C53.592 82.1099 50.484 80.3039 46.956 80.7239C44.898 81.0179 43.008 81.9419 41.538 83.4119C41.16 83.7479 40.866 84.0839 40.53 84.4619L42.504 85.0499C43.386 82.9499 43.26 80.3459 42.882 78.1619C42.504 75.8939 41.706 73.2479 39.9 71.6519C38.01 70.0139 35.49 70.1399 33.474 71.4419C31.878 72.4499 31.248 74.1719 30.912 75.9359C30.45 78.6239 30.45 81.3959 30.156 84.0839C29.82 87.6119 29.358 91.2239 28.182 94.5839C26.124 100.548 22.47 105.966 18.69 110.964C17.136 113.022 15.498 115.08 13.776 117.054C12.894 118.062 11.97 119.028 11.088 120.078C11.046 120.12 11.004 120.162 10.962 120.204C10.626 120.582 11.214 121.086 11.508 121.212C11.97 121.338 12.516 121.254 12.852 120.918Z" fill="#191A23"/>
<path d="M43.974 94.5C44.352 94.206 44.688 93.828 44.94 93.408C45.486 92.694 46.074 91.98 46.662 91.266C48.216 89.46 49.938 87.654 51.996 86.436C53.088 85.722 54.348 85.302 55.65 85.176C55.986 85.176 56.406 85.008 56.154 84.63C55.902 84.252 55.188 84.168 54.768 84.168C49.854 84.462 46.2 88.704 43.386 92.274C43.134 92.61 42.882 92.904 42.63 93.198C42.546 93.282 42.462 93.408 42.378 93.492C42.294 93.576 42.084 93.744 42.294 93.576C41.538 94.164 43.47 94.836 43.974 94.5Z" fill="#191A23"/>
<path d="M39.186 89.5859L42 85.2179L42.42 84.5879C42.672 84.2099 42.126 84.2099 41.874 84.2519C41.622 84.2939 41.328 84.3779 41.118 84.5039C40.908 84.5879 40.74 84.7139 40.614 84.8819L37.8 89.2919L37.38 89.8799C37.128 90.2579 37.674 90.2579 37.926 90.2159C38.178 90.1739 38.472 90.0899 38.682 89.9639C38.892 89.8799 39.06 89.7539 39.186 89.5859Z" fill="#191A23"/>
<path d="M84.756 85.932C100.668 85.932 113.568 73.0324 113.568 57.12C113.568 41.2076 100.668 28.308 84.756 28.308C68.8435 28.308 55.944 41.2076 55.944 57.12C55.944 73.0324 68.8435 85.932 84.756 85.932Z" fill="white"/>
<path d="M107.646 66.2339C106.596 68.9219 105.126 71.484 103.32 73.7519L103.614 73.416C100.59 77.1539 96.684 80.0939 92.274 81.984L92.778 81.7739C90.342 82.782 87.822 83.454 85.218 83.79C84.882 83.832 85.89 83.7059 85.512 83.7479H85.302L84.798 83.79C84.462 83.832 84.084 83.832 83.748 83.874C83.076 83.916 82.446 83.916 81.774 83.916H81.354C81.228 83.916 80.556 83.874 81.228 83.916C81.9 83.958 81.27 83.916 81.102 83.916L80.514 83.874C79.842 83.832 79.212 83.748 78.54 83.622L78.246 83.58C78.12 83.58 79.296 83.79 78.876 83.706L78.372 83.622C78.036 83.538 77.7 83.496 77.364 83.412C77.028 83.328 76.692 83.2439 76.356 83.16L76.062 83.076C75.894 83.034 77.196 83.412 76.776 83.286L76.23 83.118C75.936 83.0339 75.642 82.908 75.306 82.824L74.802 82.656C74.592 82.572 73.878 82.278 74.718 82.6139C75.558 82.95 74.886 82.6559 74.676 82.6139L74.214 82.4039C73.92 82.278 73.584 82.11 73.29 81.942L72.828 81.69C72.744 81.648 72.66 81.6059 72.576 81.5639C72.492 81.5219 73.5 82.0679 73.164 81.8579C72.828 81.6479 72.534 81.522 72.24 81.312C71.652 80.976 71.106 80.5979 70.56 80.22C70.14 79.926 71.358 80.766 70.77 80.346L70.434 80.0939C70.14 79.8839 69.888 79.674 69.594 79.422C69.09 79.0019 68.586 78.5819 68.124 78.1199C67.998 77.9939 67.872 77.868 67.704 77.742C67.62 77.7 67.578 77.616 67.494 77.532C67.242 77.2799 67.662 77.7 67.704 77.742C67.452 77.49 67.2 77.1959 66.948 76.9439C66.444 76.3979 65.982 75.81 65.52 75.222C64.638 74.046 63.798 72.8279 63.084 71.5259L63.336 72.0299C61.026 67.7879 59.766 62.9999 59.766 58.1699V58.632C59.766 52.0799 61.992 45.6959 66.066 40.5719L65.772 40.9079C68.796 37.1699 72.702 34.2299 77.112 32.3399L76.608 32.5499C79.044 31.5419 81.564 30.8699 84.168 30.5339C84.504 30.4919 83.496 30.6179 83.874 30.5759L84.084 30.5339L84.546 30.4919C84.882 30.4499 85.26 30.4499 85.596 30.4079C86.268 30.3659 86.898 30.3659 87.57 30.3659H87.99C88.116 30.3659 88.788 30.4079 88.116 30.3659C87.444 30.3239 88.074 30.3659 88.242 30.3659L88.83 30.4079C89.502 30.4919 90.132 30.5339 90.804 30.6599L91.098 30.7019C91.224 30.7019 90.048 30.4919 90.468 30.5759L90.972 30.6599C91.308 30.7439 91.644 30.7859 91.98 30.8699C92.316 30.9539 92.652 31.0379 92.988 31.1219L93.282 31.2059C93.45 31.2479 92.148 30.8699 92.568 30.9959L93.114 31.1639C93.408 31.2479 93.702 31.3739 94.038 31.4999L94.542 31.6679C94.752 31.7519 95.466 32.0459 94.626 31.7099C93.786 31.3739 94.458 31.6259 94.668 31.7099L95.13 31.9199C95.424 32.0459 95.76 32.2139 96.054 32.3399L96.516 32.5919C96.6 32.6339 96.684 32.6759 96.768 32.7179C96.852 32.7599 95.844 32.2139 96.18 32.4239C96.516 32.6339 96.81 32.7599 97.104 32.9699C97.692 33.3059 98.238 33.6839 98.784 34.0619C99.204 34.3559 98.028 33.5159 98.574 33.9359L98.91 34.1879C99.204 34.3979 99.456 34.6079 99.75 34.8599C100.254 35.2799 100.758 35.6999 101.22 36.1619C101.346 36.2879 101.472 36.4139 101.64 36.5399L101.85 36.7499C102.102 37.0019 101.682 36.5819 101.64 36.5399C101.934 36.8339 102.186 37.0859 102.438 37.4219C102.942 37.9679 103.404 38.5559 103.866 39.1439C104.79 40.3199 105.588 41.5379 106.302 42.8399L106.05 42.3359C108.36 46.5779 109.62 51.3659 109.62 56.1959V55.7339C109.662 59.3459 108.99 62.9159 107.646 66.2339C107.478 66.8219 108.15 67.452 108.444 67.7459C110.082 68.9639 112.014 69.6359 114.072 69.7199C114.576 69.6779 115.374 69.6359 115.584 69.0479C117.81 63.2519 118.188 56.9099 116.676 50.9039C115.038 44.8139 111.636 39.3539 106.848 35.2799C100.968 30.2819 93.744 27.2159 86.1 26.4599C79.59 25.7459 73.038 27.0059 67.284 30.1139C56.112 36.2039 50.148 48.8039 52.416 61.2779C53.592 67.4099 56.616 73.0799 61.068 77.4899C66.318 82.7399 73.5 86.0999 80.808 87.444C87.402 88.6619 94.206 87.8639 100.338 85.1339C105.882 82.5719 110.544 78.372 113.61 73.122C114.366 71.82 115.038 70.4339 115.584 69.0479C115.794 68.5019 115.122 67.8719 114.786 67.5779C113.988 66.9479 113.106 66.4439 112.14 66.1499C111.216 65.7719 110.208 65.6039 109.2 65.6039C108.654 65.6039 107.856 65.6459 107.646 66.2339Z" fill="#191A23"/>
<path d="M70.728 83.1599C70.35 83.6219 61.11 105.378 61.11 105.378L69.132 99.8759L70.728 83.1599Z" fill="#191A23"/>
<path d="M60.606 105.924L60.9 105.252C61.824 103.026 70.182 83.4959 70.56 82.9919L70.98 82.4459L69.3 99.9179L60.606 105.924ZM70.392 84.2939C68.796 87.7799 63.882 99.2879 61.572 104.748L68.922 99.7079L70.392 84.2939Z" fill="#191A23"/>
<path d="M72.45 53.7179C72.45 53.7179 68.334 42.1259 77.952 37.6739C87.57 33.2219 100.254 40.7819 101.01 53.7179C101.766 66.6539 86.268 68.3339 86.268 68.3339L72.45 53.7179Z" fill="#191A23"/>
<path d="M73.458 53.3819C72.366 50.3159 72.198 46.5359 73.374 43.4699C74.382 40.8659 76.482 38.8499 79.086 37.8839C80.346 37.3799 81.69 37.1279 83.034 37.0859C84.462 37.0439 85.848 37.2119 87.234 37.5899C93.24 39.1859 97.86 44.2679 99.456 50.1899C100.212 53.1299 100.422 56.4059 99.288 59.2619C98.406 61.4039 96.894 63.2519 94.962 64.5119C94.542 64.8059 94.122 65.0579 93.702 65.3099C93.24 65.5619 92.778 65.8139 92.274 66.0239L91.938 66.1919L91.77 66.2759C91.602 66.3599 92.022 66.1919 91.77 66.2759C91.518 66.3599 91.308 66.4439 91.098 66.5279C90.678 66.6959 90.216 66.8639 89.754 66.9899C89.292 67.1159 88.956 67.1999 88.578 67.3259L88.326 67.4099C88.452 67.3679 88.536 67.3679 88.326 67.4099C88.2 67.4519 87.99 67.4939 87.822 67.5359C87.402 67.6199 86.982 67.7039 86.562 67.7459L86.394 67.7879L87.234 67.9559L82.53 62.9999L75.096 55.1459L73.374 53.3399C72.828 52.7519 70.896 53.6339 71.568 54.3059L75.768 58.7159L82.95 66.2759L85.134 68.5859C85.26 68.7119 85.386 68.8379 85.512 68.9639C85.848 69.1319 86.226 69.1739 86.562 69.0479C88.788 68.7119 90.972 68.0819 93.03 67.1579C96.138 65.8139 98.994 63.6299 100.632 60.6479C102.774 56.6999 102.396 51.7859 100.884 47.7119C99.246 43.4279 96.138 39.8999 92.064 37.7579C88.158 35.6999 83.58 35.2799 79.38 36.5819C77.112 37.2539 75.054 38.5559 73.458 40.3199C72.198 41.7899 71.316 43.5959 70.938 45.5279C70.434 48.2579 70.602 51.0719 71.4 53.7179C71.442 53.8859 71.484 54.0119 71.526 54.1799C71.736 54.8519 73.71 54.2219 73.458 53.3819Z" fill="#191A23"/>
<path d="M72.786 64.26C69.174 59.808 72.408 43.764 72.408 43.764C74.97 39.648 88.368 42.168 88.368 42.168C86.52 46.284 87.15 53.046 87.15 53.046C88.704 49.35 92.946 50.946 92.778 54.516C92.61 58.086 88.368 59.22 88.368 59.22C88.368 59.22 89.544 66.864 89.25 68.334C88.956 69.804 82.32 71.82 78.792 67.788C78.792 67.788 75.978 68.166 72.786 64.26Z" fill="white"/>
<path d="M73.71 64.6799C72.996 63.6719 72.534 62.4959 72.366 61.2359C72.114 59.6819 71.988 58.1279 72.03 56.5739C72.072 53.4659 72.324 50.3999 72.828 47.3339C72.954 46.4519 73.122 45.5279 73.29 44.6459C73.416 44.0159 73.836 43.5119 74.382 43.2179C75.474 42.4619 76.86 42.2099 78.12 42.0419C79.674 41.8739 81.186 41.8319 82.74 41.9159C84.882 41.9999 87.024 42.2519 89.166 42.6299L87.486 41.6639C86.52 43.8479 86.268 46.2839 86.184 48.6779C86.142 49.9799 86.142 51.2819 86.268 52.5839C86.31 52.9199 88.032 53.8019 88.116 53.5499C88.578 52.5419 89.334 51.6179 90.468 51.4919C90.678 51.4499 90.888 51.4499 91.098 51.4919C91.266 51.5339 91.266 51.5759 91.098 51.4919C91.014 51.4499 90.93 51.4079 90.846 51.3659C90.846 51.3659 91.266 51.8279 91.308 51.9119C91.434 52.1219 91.56 52.3739 91.644 52.5839C92.442 54.8099 91.014 56.9939 89.082 58.0859C88.578 58.3799 88.074 58.5899 87.486 58.7579L87.444 58.7999C87.654 60.1439 87.822 61.4879 87.99 62.8319C88.116 63.8399 88.242 64.8479 88.326 65.8559C88.452 66.5279 88.452 67.2419 88.326 67.9139C88.158 68.4599 87.528 68.7959 87.066 69.0059C86.184 69.3839 85.302 69.5939 84.336 69.6779C83.244 69.8039 82.152 69.6779 81.102 69.3419C80.766 69.2159 80.43 69.0059 80.178 68.7539C79.548 68.1659 78.918 67.4519 77.994 67.3679C77.574 67.3679 77.154 67.3259 76.734 67.1999C76.566 67.1579 76.44 67.1159 76.272 67.0319L76.104 66.9479C76.02 66.9059 75.894 66.8219 75.81 66.7379C75.054 66.1079 74.34 65.4359 73.71 64.6799C73.416 64.3859 73.038 64.1339 72.66 63.9659C72.492 63.8399 72.282 63.7979 72.072 63.7559C72.03 63.7559 71.82 63.7139 71.904 63.8399C73.29 65.6039 75.138 66.9479 77.196 67.7879C77.952 68.1659 78.834 68.2919 79.674 68.2499L77.952 67.4099C80.388 70.0559 84.084 71.1899 87.612 70.3079C88.41 70.0979 89.796 69.7199 90.174 68.8799C90.258 68.5019 90.3 68.1239 90.258 67.7459C90.258 67.1159 90.174 66.4859 90.132 65.8559C90.006 64.3859 89.796 62.9579 89.586 61.4879C89.502 61.0259 89.46 60.5219 89.376 60.0599C89.334 59.9339 89.334 59.8499 89.334 59.7239C89.334 59.5979 89.25 59.7239 89.334 59.6819C89.46 59.6399 89.544 59.5979 89.67 59.5559C89.88 59.4719 90.09 59.3879 90.258 59.3039C90.804 59.0519 91.308 58.7579 91.812 58.3799C93.072 57.4559 93.786 55.9859 93.702 54.4319C93.576 52.4159 91.98 51.1559 90.174 50.5679C88.368 49.9799 86.94 50.8619 86.226 52.4999L88.074 53.4659C87.948 52.1639 87.948 50.8619 87.99 49.5599C88.074 47.2079 88.326 44.7299 89.292 42.5459C89.418 42.2099 87.822 41.6219 87.612 41.5799C85.806 41.2439 84 41.0339 82.152 40.9079C80.598 40.7819 79.044 40.7819 77.448 40.8659C76.02 40.9079 74.634 41.2019 73.332 41.7479C72.66 42.0419 71.694 42.5879 71.484 43.3439C71.316 44.0579 71.19 44.7719 71.106 45.4859C70.602 48.4679 70.308 51.4499 70.182 54.4319C70.098 56.2379 70.182 58.0439 70.434 59.8499C70.644 61.2359 70.98 62.6639 71.862 63.7979C72.156 64.1339 72.534 64.3439 72.954 64.5119C73.122 64.6379 73.332 64.6799 73.542 64.7219C73.584 64.7639 73.794 64.8059 73.71 64.6799Z" fill="#191A23"/>
<path d="M76.86 57.12C76.86 57.12 68.418 58.002 67.074 53.508C65.73 49.014 71.862 47.166 76.44 51.072" fill="white"/>
<path d="M76.314 56.3639C76.104 56.3639 76.524 56.3639 76.314 56.3639C76.104 56.3639 76.02 56.4059 75.852 56.4059C75.306 56.4479 74.802 56.4479 74.256 56.4059C73.584 56.3639 72.912 56.3219 72.24 56.2379C71.904 56.1959 71.568 56.1119 71.232 56.0279C71.064 55.9859 70.854 55.9439 70.686 55.8599C70.518 55.8179 70.35 55.7759 70.224 55.6919C70.098 55.6499 69.93 55.5659 69.804 55.5239L69.552 55.3979C69.3 55.2719 69.72 55.5239 69.468 55.3559C69.3 55.2719 69.174 55.1459 69.006 55.0619C68.754 54.8939 69.174 55.2299 68.964 55.0199L68.712 54.7679C68.502 54.5579 68.796 54.8519 68.67 54.7259C68.628 54.6839 68.586 54.5999 68.544 54.5579C68.46 54.4739 68.376 54.3479 68.334 54.2219C68.124 53.8439 68.04 53.4659 67.956 53.0459C67.746 51.5339 68.754 50.3159 70.182 49.8959C72.198 49.3079 74.424 50.0639 75.978 51.4079C76.314 51.6599 76.902 52.0379 77.28 51.7439C77.658 51.4499 77.364 50.9039 77.112 50.6939C75.138 49.0139 72.576 47.9219 69.93 48.1739C68.124 48.3839 66.318 49.4759 66.066 51.4499C65.814 53.4659 67.032 55.3559 68.712 56.4059C70.35 57.3299 72.198 57.8339 74.046 57.9179C75.18 58.0019 76.356 58.0019 77.49 57.8759C77.994 57.8339 77.868 57.2039 77.658 56.9519C77.322 56.4899 76.818 56.2799 76.314 56.3639Z" fill="#191A23"/>
<path d="M83.076 57.456C83.076 57.54 83.076 57.582 83.034 57.666C83.034 57.708 83.034 57.75 82.992 57.75V57.792C82.992 57.708 82.992 57.876 82.992 57.792C82.992 57.876 82.95 58.002 82.908 58.086C82.824 58.338 82.74 58.59 82.614 58.8C82.488 59.052 82.32 59.304 82.11 59.514C81.816 59.808 81.48 60.06 81.102 60.228C81.018 60.27 81.018 60.48 81.018 60.522C81.06 60.69 81.102 60.9 81.228 61.026C81.312 61.194 81.438 61.32 81.564 61.446C81.648 61.488 81.774 61.614 81.858 61.53C82.95 60.942 83.706 59.892 83.916 58.674C83.916 58.59 83.958 58.506 83.958 58.38C83.958 58.002 83.79 57.666 83.538 57.372C83.496 57.372 83.118 57.078 83.076 57.456Z" fill="#191A23"/>
<path d="M76.86 48.3839C77.238 48.5099 77.448 48.8879 77.364 49.2659C77.364 49.3079 77.322 49.3499 77.322 49.3499C77.028 50.0639 76.146 49.6859 76.188 48.9719C76.188 48.6359 76.44 48.3839 76.776 48.3419C76.776 48.3839 76.818 48.3839 76.86 48.3839Z" fill="#191A23"/>
<path d="M82.026 48.804C82.404 48.93 82.614 49.308 82.53 49.686C82.53 49.728 82.488 49.77 82.488 49.77C82.194 50.484 81.312 50.106 81.354 49.392C81.354 49.056 81.606 48.804 81.942 48.762C81.984 48.762 81.984 48.804 82.026 48.804Z" fill="#191A23"/>
<path d="M69.93 78.1619C71.526 74.6339 74.13 71.6939 77.406 69.6359C77.49 69.5939 76.902 69.5099 76.86 69.4679C76.65 69.4259 76.104 69.2999 75.894 69.4259C72.576 71.4839 69.972 74.4659 68.334 77.9939C68.586 78.0779 68.838 78.1199 69.132 78.1619C69.216 78.1619 69.846 78.2879 69.93 78.1619Z" fill="#191A23"/>
<path d="M91.56 69.216C95.088 69.762 98.238 71.82 100.17 74.844C100.38 75.18 100.8 75.306 101.136 75.096C101.472 74.886 101.598 74.466 101.388 74.13C99.204 70.644 95.592 68.292 91.518 67.662C91.098 67.62 90.846 68.04 90.846 68.376C90.846 68.838 91.14 69.174 91.56 69.216Z" fill="#191A23"/>
<path d="M83.37 70.8119C82.32 72.0719 81.312 73.3739 80.346 74.6759L81.102 74.7179C79.296 73.3319 77.364 72.0719 75.348 70.9799C75.096 70.8539 74.676 70.6859 74.508 71.0639C74.34 71.4419 74.676 71.8619 74.97 71.9879C76.986 73.0799 78.918 74.3399 80.724 75.7259C80.892 75.8519 81.312 75.9779 81.48 75.7679C82.446 74.4239 83.454 73.1639 84.504 71.9039C84.924 71.3579 83.79 70.2659 83.37 70.8119Z" fill="#191A23"/>
<path d="M84.63 72.0719L87.15 74.0459C87.906 74.6339 88.704 75.6419 89.712 75.0959C90.132 74.8439 90.51 74.5499 90.846 74.2139L92.064 73.2059L94.584 71.1479C94.794 70.9799 95.046 70.5599 94.752 70.3499C94.458 70.1399 93.954 70.3499 93.744 70.5599L89.544 73.9619L89.292 74.1719C89.754 74.1719 89.838 74.0879 89.628 73.9619C89.544 73.7939 89.208 73.6259 89.082 73.5419L88.116 72.7859L85.89 71.0219C85.344 70.6859 84.084 71.6099 84.63 72.0719Z" fill="#191A23"/>
<path d="M81.228 74.7179L82.026 75.3479L82.404 75.5999C82.488 75.6839 82.656 75.8519 82.74 75.8519C82.824 75.8519 82.824 75.8939 82.74 75.7679L82.656 76.0199C82.614 76.1879 82.53 76.3559 82.488 76.4819C82.404 76.7759 82.278 77.0699 82.194 77.3639C81.858 78.5819 81.648 79.8419 81.564 81.1019C81.564 81.4799 81.942 81.6899 82.278 81.7319C82.614 81.7739 83.118 81.6899 83.118 81.3119C83.16 79.9259 83.412 78.5399 83.874 77.1959C84.042 76.6499 84.588 75.8519 84.084 75.3479C83.58 74.8859 83.034 74.4659 82.446 74.0879C82.152 73.8359 81.69 73.7939 81.354 73.9619C81.144 74.0459 81.018 74.2979 81.102 74.5079C81.102 74.5919 81.186 74.6759 81.228 74.7179Z" fill="#191A23"/>
<path d="M87.192 74.2139L85.68 76.1459C85.638 76.1879 85.68 76.2719 85.722 76.2719C86.94 77.6999 88.032 79.2119 89.04 80.7659C89.292 81.1859 90.72 80.6399 90.594 80.4719C89.544 78.8759 88.41 77.3219 87.192 75.8519L87.234 75.9779L88.746 74.0459C88.914 73.8359 88.2 73.8359 88.158 73.8359C87.78 73.8359 87.444 73.9619 87.192 74.2139Z" fill="#191A23"/>
</svg>
