<svg width="210" height="210" viewBox="0 0 210 210" fill="none" xmlns="http://www.w3.org/2000/svg">
<path d="M89.418 57.7079H185.136C189.546 57.7079 193.158 61.2779 193.158 65.7299V123.9C193.158 128.31 189.588 131.922 185.136 131.922H89.418C85.008 131.922 81.396 128.352 81.396 123.9V65.7299C81.396 61.3199 85.008 57.7079 89.418 57.7079Z" fill="white"/>
<path d="M184.674 131.544H90.3421C89.1661 131.544 87.9901 131.628 86.8561 131.124C84.3361 129.948 82.6981 127.512 82.4881 124.74C82.4461 124.32 82.4461 123.858 82.4461 123.438V66.1499C82.4461 64.6799 82.8241 63.2099 83.5381 61.9079C84.2521 60.7319 85.2181 59.7659 86.4361 59.0519C87.0241 58.7159 87.6541 58.4639 88.3261 58.2959C88.6201 58.2119 88.9561 58.1699 89.2921 58.1279C89.4601 58.1279 89.5861 58.0859 89.7541 58.0859H89.9221H185.43C186.354 58.0439 187.236 58.2539 188.034 58.6739C190.47 59.9759 192.066 62.5379 192.15 65.3099C192.192 66.3599 192.15 67.4519 192.15 68.5019V119.28C192.15 120.708 192.15 122.136 192.15 123.522C192.15 127.806 188.874 131.502 184.506 131.544C184.086 131.544 184.128 131.754 184.422 131.964C184.884 132.174 185.388 132.3 185.892 132.258C190.47 132.258 194.208 128.562 194.25 123.942C194.25 122.514 194.25 121.086 194.25 119.658V68.6279C194.25 67.3259 194.334 65.9399 194.124 64.6379C193.368 60.0599 189.042 57.3719 184.632 57.3719H89.4181C89.1241 57.3719 88.7881 57.3719 88.4941 57.3719C85.7221 57.4559 83.2021 58.8419 81.6481 61.1519C80.8081 62.4959 80.3461 64.0919 80.3461 65.6879V123.144C80.3461 123.858 80.3881 124.53 80.5141 125.244C81.0601 127.932 82.8661 130.2 85.3861 131.292C87.1921 132.132 89.0821 132.3 91.0141 132.3H185.598C185.85 132.3 186.27 132.3 186.06 131.964C185.85 131.628 185.01 131.544 184.674 131.544Z" fill="#191A23"/>
<path d="M35.448 68.418H131.166C135.576 68.418 139.188 71.988 139.188 76.44V134.61C139.188 139.02 135.618 142.632 131.166 142.632H35.448C31.038 142.632 27.426 139.062 27.426 134.61V76.44C27.426 72.03 31.038 68.418 35.448 68.418Z" fill="#191A23"/>
<path d="M130.746 142.128H36.4141C35.1961 142.128 34.0201 142.17 32.8441 141.666C30.4081 140.574 28.7701 138.222 28.5181 135.576C28.4761 135.114 28.4761 134.652 28.4761 134.148V78.4139C28.4761 76.3979 28.4761 74.4659 29.5681 72.7019C30.8701 70.4339 33.3061 69.0479 35.9101 68.9639H131.418C135.114 68.9639 137.97 72.2399 138.18 75.8519C138.222 76.9439 138.18 78.0779 138.18 79.1699V129.948C138.18 131.376 138.18 132.804 138.18 134.232C138.222 135.702 137.844 137.13 137.13 138.39C135.744 140.658 133.35 142.044 130.746 142.128C130.41 142.128 129.99 142.338 130.242 142.716C130.494 143.094 131.208 143.178 131.628 143.178C136.332 143.136 140.238 139.482 140.238 134.736C140.238 133.308 140.238 131.922 140.238 130.494V79.3799C140.28 78.0779 140.28 76.8179 140.154 75.5159C139.734 72.7439 138.012 70.3079 135.534 69.0479C134.022 68.2919 132.384 67.8719 130.662 67.9139H35.4901C32.4241 67.9139 29.4421 69.1319 27.7201 71.8199C26.8381 73.2059 26.4181 74.7599 26.4181 76.3979V133.854C26.4181 134.526 26.4601 135.198 26.5441 135.87C27.0481 138.642 28.8541 140.994 31.4161 142.17C33.2221 143.01 35.1121 143.178 37.0441 143.178H131.628C131.964 143.178 132.384 142.968 132.132 142.59C131.88 142.212 131.124 142.128 130.746 142.128Z" fill="#191A23"/>
<path d="M43.4701 91.2239C42.2101 91.1399 40.9081 91.0979 39.6061 91.0559C36.6661 90.9719 33.7261 90.9299 30.7861 90.9719C27.7201 90.9719 24.6541 91.1819 21.6301 91.5179C20.4121 91.6439 19.2361 91.8959 18.0601 92.1899C17.2621 92.3579 16.5061 92.7359 15.9181 93.2819C14.3221 95.0039 17.1361 96.8939 18.3961 97.6499C18.7321 97.8599 19.0681 98.0279 19.3621 98.1959C19.6561 98.3639 20.3701 98.4899 20.6221 98.0699C20.8741 97.6499 20.3281 97.1459 19.9921 96.9779C19.6561 96.8099 19.3621 96.6419 19.0261 96.4319L18.8161 96.3059C18.8161 96.3059 18.9841 96.3899 18.7741 96.2639C18.5641 96.1379 18.5221 96.0959 18.3961 96.0119C18.1861 95.8439 17.9761 95.7179 17.8081 95.5499C17.6401 95.3819 17.8921 95.6339 17.8501 95.5919C17.8081 95.5499 17.7661 95.5079 17.7241 95.4659C17.6821 95.4239 17.5981 95.2979 17.5141 95.2559C17.4301 95.2139 17.4721 95.2139 17.4301 95.1719C17.3461 95.0879 17.5141 95.3399 17.4721 95.2559C17.4301 95.1719 17.3881 95.1299 17.3461 95.0459C17.2621 94.9619 17.3881 95.2139 17.3461 95.0459C17.3461 95.0039 17.3041 94.7939 17.3041 94.9619C17.3041 95.1299 17.3041 94.9199 17.3041 94.8779C17.3041 94.7519 17.3881 94.7099 17.3041 94.8779C17.3461 94.7519 17.4301 94.6679 17.4721 94.5419C17.3881 94.6679 17.3881 94.6259 17.5141 94.5419C17.6401 94.4579 17.6401 94.4579 17.6821 94.3739L17.8501 94.2479C18.0601 94.1219 17.7661 94.2899 17.9341 94.2059C18.3121 94.0379 18.6901 93.8699 19.0681 93.7439C19.2781 93.6599 19.5301 93.6179 19.7821 93.5339L19.9501 93.4919C19.8241 93.5339 19.8661 93.4919 19.9501 93.4919L20.3701 93.4079C20.9581 93.2819 21.5461 93.1979 22.1341 93.1139C25.0321 92.7779 27.9721 92.5679 30.9121 92.5679C31.6681 92.5679 32.4661 92.5679 33.2221 92.5259H35.3221C36.6661 92.5259 37.9681 92.5679 39.2701 92.6099C40.7401 92.6519 42.2101 92.7359 43.6381 92.7779H43.7221C44.1421 92.7779 44.6041 92.6099 44.4781 92.1059C44.4781 91.6859 44.0161 91.3079 43.4701 91.2239Z" fill="#191A23"/>
<path d="M21.294 105.336C18.438 105.924 15.624 106.89 13.02 108.192C11.424 109.032 9.66003 110.124 8.86203 111.804C8.02203 113.61 8.73603 115.542 10.038 116.928C11.34 118.314 13.146 119.238 14.91 119.91C17.094 120.708 19.404 121.254 21.672 121.632C26.586 122.388 31.5 122.85 36.456 122.892C38.43 122.934 40.362 122.934 42.336 122.934C43.302 122.934 44.268 122.934 45.192 122.892H45.318C45.654 122.892 45.906 122.598 45.906 122.262C45.906 122.178 45.864 122.052 45.822 121.968C45.57 121.506 45.066 121.212 44.52 121.254C42.252 121.338 40.026 121.338 37.758 121.296C33.138 121.254 28.518 120.96 23.94 120.414C22.722 120.246 21.546 120.078 20.328 119.826C19.11 119.574 18.312 119.406 17.22 119.112C16.254 118.86 15.288 118.524 14.364 118.146L14.028 118.02L13.902 117.978C13.692 117.894 13.482 117.768 13.272 117.684C12.894 117.474 12.558 117.264 12.18 117.054C12.432 117.222 12.012 116.928 11.928 116.844C11.844 116.76 11.634 116.592 11.508 116.466C11.382 116.34 11.298 116.256 11.466 116.424L11.298 116.214C11.13 116.004 10.962 115.794 10.794 115.584C10.71 115.458 10.836 115.668 10.794 115.542L10.71 115.416C10.668 115.332 10.626 115.206 10.542 115.122C10.458 115.038 10.458 114.912 10.416 114.828C10.332 114.618 10.416 114.828 10.332 114.618C10.29 114.45 10.248 114.282 10.248 114.114C10.248 113.904 10.248 114.156 10.248 113.988C10.248 113.904 10.248 113.778 10.248 113.694C10.29 113.526 10.29 113.358 10.374 113.19C10.374 113.148 10.416 113.106 10.416 113.064C10.416 113.022 10.5 112.896 10.542 112.77C10.626 112.602 10.71 112.476 10.794 112.308C10.836 112.224 10.92 112.14 10.962 112.056C11.004 111.972 11.088 111.888 11.088 111.888C11.676 111.258 12.348 110.67 13.104 110.25C15.666 108.654 18.9 107.646 21.924 106.932C21.672 106.974 22.092 106.89 21.924 106.932C23.184 106.68 22.092 105.084 21.126 105.294L21.294 105.336Z" fill="#191A23"/>
<path d="M174.384 112.056C175.224 112.182 176.064 112.308 176.904 112.308C178.416 112.392 179.928 112.434 181.44 112.392C184.968 112.308 188.706 112.098 192.024 110.754C193.41 110.208 194.838 109.326 195.51 107.898C195.678 107.478 193.788 106.596 193.62 107.016C193.074 108.234 191.94 108.99 190.806 109.536C189.294 110.166 187.698 110.628 186.06 110.838C182.742 111.3 179.424 111.468 176.064 111.258C175.434 111.216 175.014 111.216 174.384 111.174C174.174 111.174 173.964 111.132 173.796 111.132C173.712 111.132 173.25 111.048 173.67 111.132C173.46 111.09 172.914 110.964 173.166 111.342C173.46 111.72 173.88 111.972 174.384 112.056Z" fill="#191A23"/>
<path d="M195.678 104.328L195.594 104.286L195.972 104.538C196.182 104.664 196.35 104.832 196.518 104.958L196.686 105.084L196.77 105.126C196.896 105.252 196.56 104.958 196.686 105.042L197.022 105.336C197.274 105.546 197.484 105.798 197.736 106.008L197.904 106.176C197.652 105.924 197.904 106.176 197.946 106.26C197.988 106.344 198.156 106.512 198.282 106.68C198.408 106.848 198.492 106.974 198.618 107.1L198.786 107.352C198.786 107.31 198.87 107.478 198.786 107.352L198.87 107.478C199.038 107.814 199.206 108.108 199.374 108.486C199.416 108.57 199.458 108.654 199.458 108.738C199.458 108.822 199.5 108.822 199.5 108.864C199.542 108.99 199.5 108.78 199.5 108.906C199.542 109.074 199.584 109.242 199.626 109.452C199.668 109.83 199.71 110.208 199.668 110.586C199.626 110.964 199.542 111.342 199.416 111.678C199.248 112.098 199.038 112.518 198.744 112.896C197.022 115.332 193.872 116.676 191.184 117.684C185.262 119.91 178.878 121.044 172.62 121.926C171.528 122.094 170.478 122.22 169.386 122.346C168.924 122.388 169.218 122.85 169.428 123.018C169.764 123.396 170.226 123.606 170.73 123.606C177.66 122.724 184.674 121.632 191.31 119.406C194.418 118.356 197.946 117.012 200.172 114.45C201.39 113.148 201.81 111.258 201.306 109.536C200.844 108.024 199.794 106.722 198.66 105.63C197.904 104.874 197.064 104.244 196.182 103.656L196.14 103.614C195.93 103.488 195.216 103.11 195.006 103.446C194.796 103.782 195.51 104.202 195.678 104.328Z" fill="#191A23"/>
<path d="M58.8841 78.078H154.602C159.012 78.078 162.624 81.648 162.624 86.1V144.27C162.624 148.68 159.054 152.292 154.602 152.292H58.8841C54.4741 152.292 50.8621 148.722 50.8621 144.27V86.1C50.8621 81.648 54.4741 78.078 58.8841 78.078Z" fill="white"/>
<path d="M154.266 151.578H59.934C58.632 151.578 57.414 151.62 56.196 151.116C53.802 150.192 52.206 147.798 51.954 145.278C51.912 144.774 51.912 144.27 51.912 143.766V86.478C51.912 85.092 52.248 83.706 52.962 82.446C54.264 80.22 56.658 78.792 59.262 78.792C59.43 78.792 59.598 78.792 59.808 78.792H154.77C155.736 78.792 156.702 78.96 157.584 79.338C159.936 80.472 161.49 82.782 161.658 85.386C161.742 86.52 161.658 87.654 161.658 88.788V143.934C161.616 148.008 158.424 151.536 154.266 151.578C153.846 151.578 153.468 151.83 153.636 152.292C153.804 152.754 154.476 152.964 154.938 152.964C157.794 152.964 160.44 151.578 162.12 149.268C163.128 147.798 163.674 146.076 163.632 144.27C163.632 142.884 163.632 141.456 163.632 140.07V89.04C163.674 87.78 163.674 86.52 163.59 85.26C163.002 80.598 158.76 77.406 154.182 77.406H59.052C58.8 77.406 58.548 77.406 58.254 77.406C53.55 77.49 49.77 81.354 49.854 86.1V143.556C49.854 144.186 49.854 144.816 49.938 145.446C50.442 148.26 52.248 150.696 54.81 151.956C56.574 152.838 58.38 153.006 60.312 153.006H154.896C155.316 153.006 155.694 152.754 155.526 152.292C155.358 151.83 154.728 151.578 154.266 151.578Z" fill="#191A23"/>
<path d="M62.412 140.616C61.026 140.952 61.194 143.304 62.076 144.144C62.37 144.438 73.29 144.69 87.192 144.858L87.36 140.364C73.332 140.49 62.412 140.616 62.412 140.616Z" fill="#191A23"/>
<path d="M62.2441 139.776C61.1101 140.112 60.3541 141.162 60.3961 142.338C60.3961 143.178 60.6061 144.312 61.3201 144.858C61.9081 145.32 63.0421 145.194 63.6721 145.236C67.9141 145.488 72.1561 145.53 76.3981 145.614C79.9681 145.656 83.5381 145.698 87.0661 145.74C87.6121 145.698 88.0741 145.32 88.1581 144.774L88.3261 140.28C88.3681 139.734 87.9481 139.482 87.4441 139.482C79.6321 139.566 71.8201 139.65 64.0081 139.734H62.5381C61.4041 139.734 60.9421 141.54 62.3281 141.498L78.5821 141.33L87.2761 141.246L86.3941 140.448L86.2261 144.942L87.3181 143.976C81.9001 143.934 76.5241 143.85 71.1481 143.724C69.3421 143.682 67.6201 143.64 65.8981 143.556C64.8901 143.514 63.8821 143.514 62.9161 143.346C62.7901 143.304 62.7061 143.304 62.5801 143.304C62.7901 143.22 62.6641 143.514 62.8741 143.472C62.8321 143.472 62.6641 143.136 62.6221 143.052C62.4541 142.716 62.4121 142.338 62.4541 141.96C62.4541 141.792 62.4961 141.624 62.5801 141.456C62.5381 141.54 62.7061 141.414 62.5801 141.456C62.8741 141.33 62.2861 141.54 62.6221 141.456C63.1261 141.33 63.5041 140.826 63.4621 140.322C63.2941 139.818 62.7061 139.65 62.2441 139.776Z" fill="#191A23"/>
<path d="M147.504 140.28C147.084 139.86 112.308 140.112 87.36 140.364L87.192 144.9C112.35 145.152 147.42 145.026 147.714 144.186C148.134 142.884 148.134 140.952 147.504 140.28Z" fill="white"/>
<path d="M148.26 139.692C147.756 139.272 147.168 139.272 146.58 139.23C145.656 139.188 144.774 139.188 143.85 139.146C140.658 139.104 137.424 139.104 134.232 139.104C124.488 139.104 114.702 139.188 104.958 139.272C99.1201 139.314 93.2821 139.356 87.4441 139.44C86.8981 139.398 86.4361 139.776 86.3941 140.28L86.2261 144.774C86.2681 145.32 86.6881 145.782 87.2341 145.824C92.8201 145.866 98.4061 145.908 103.992 145.95C109.62 145.95 115.248 145.95 120.876 145.95C125.706 145.95 130.578 145.908 135.408 145.782C138.726 145.74 142.044 145.656 145.362 145.488C146.118 145.446 146.874 145.404 147.63 145.278C147.966 145.236 148.302 145.11 148.512 144.858C148.848 144.48 148.932 143.85 148.974 143.346C149.1 142.632 149.1 141.96 148.974 141.246C148.89 140.658 148.638 140.112 148.26 139.692C147.42 138.726 145.824 139.86 146.748 140.868C146.832 140.994 146.748 140.826 146.832 140.994C146.832 140.952 146.874 141.162 146.874 141.204C146.958 141.498 146.958 141.75 146.958 142.044C146.916 142.632 146.832 143.22 146.706 143.766C146.664 143.976 146.79 143.64 146.79 143.598C146.79 143.64 146.706 143.682 146.874 143.514C147.21 143.178 146.706 143.682 147.042 143.388C147.126 143.304 147.168 143.346 147.084 143.346C147 143.346 147.42 143.304 147.21 143.304C147.168 143.304 147.126 143.304 147.084 143.346C146.37 143.472 145.614 143.514 144.858 143.556L143.094 143.64H142.842H142.8L142.212 143.682L141.12 143.724C139.314 143.766 137.55 143.808 135.744 143.85C131.124 143.934 126.462 143.976 121.8 144.018C116.382 144.06 110.964 144.06 105.546 144.018C100.128 143.976 94.6681 143.976 89.2081 143.934H87.2341L88.2421 144.984L88.4101 140.49L87.3601 141.414C97.6501 141.33 107.982 141.246 118.272 141.162C126.378 141.12 134.442 141.036 142.548 141.162C143.724 141.162 144.858 141.204 146.034 141.246C146.37 141.246 146.706 141.288 147.042 141.288C147.126 141.288 147.252 141.33 147.336 141.33C147.546 141.33 147.21 141.288 147.168 141.288C147.336 141.33 146.748 141.036 146.748 141.036C147.126 141.414 147.756 141.498 148.218 141.162C148.596 140.826 148.638 140.28 148.344 139.902C148.302 139.734 148.302 139.692 148.26 139.692Z" fill="#191A23"/>
<path d="M60.186 85.0081C60.9283 85.0081 61.53 84.4063 61.53 83.6641C61.53 82.9218 60.9283 82.3201 60.186 82.3201C59.4438 82.3201 58.842 82.9218 58.842 83.6641C58.842 84.4063 59.4438 85.0081 60.186 85.0081Z" fill="#191A23"/>
<path d="M60.4801 83.496C60.4801 83.622 60.4381 83.79 60.3961 83.916L60.4801 83.664C60.4381 83.79 60.3961 83.916 60.3121 84L60.4381 83.79C60.3541 83.874 60.2701 84 60.1861 84.084L60.3961 83.916C60.3121 84 60.2281 84.042 60.1441 84.084L60.3961 84C60.3121 84.042 60.1861 84.084 60.1021 84.084L60.3541 84.042C60.2281 84.042 60.1441 84.084 60.0181 84.084H60.3121C60.2281 84.084 60.1021 84.042 60.0181 84.042L60.2701 84.126C60.1861 84.084 60.0601 84.042 59.9761 84L60.2281 84.126C60.1441 84.084 60.0601 84 59.9761 83.958L60.1441 84.126C60.0601 84.042 59.9761 83.958 59.9341 83.874L60.0601 84.084C60.0181 84 59.9341 83.874 59.8921 83.748L59.9761 84C59.9341 83.874 59.9341 83.706 59.9341 83.58V83.832C59.9341 83.706 59.9761 83.538 60.0181 83.412L59.9341 83.664C59.9761 83.538 60.0181 83.412 60.1021 83.328L59.9761 83.538C60.0601 83.454 60.1441 83.328 60.2281 83.244L60.0181 83.412C60.1021 83.37 60.1861 83.286 60.2701 83.244L60.0181 83.328C60.1021 83.286 60.2281 83.244 60.3121 83.244L60.0601 83.286C60.1861 83.244 60.2701 83.244 60.3961 83.244H60.1021C60.1861 83.244 60.3121 83.286 60.3961 83.286L60.1441 83.202C60.2281 83.244 60.3541 83.286 60.4381 83.328L60.1861 83.202C60.2701 83.244 60.3541 83.328 60.4381 83.37L60.2701 83.202C60.3541 83.286 60.4381 83.37 60.4801 83.454L60.3541 83.244C60.4381 83.328 60.4801 83.454 60.5221 83.58L60.4381 83.328C60.4801 83.454 60.4801 83.622 60.4801 83.748C60.5221 84 60.6481 84.21 60.8581 84.378C61.0681 84.546 61.3621 84.63 61.6561 84.588C61.9081 84.588 62.1601 84.462 62.3281 84.294L62.4541 84.084C62.5381 83.916 62.5381 83.79 62.5381 83.622C62.4961 82.698 61.8661 81.942 61.0261 81.606C60.5221 81.396 59.9341 81.396 59.4301 81.522C59.0101 81.648 58.6321 81.9 58.3381 82.236C57.7501 82.908 57.6241 83.916 58.0861 84.714C58.3381 85.176 58.7161 85.512 59.2201 85.764C60.1861 86.184 61.3201 85.974 62.0341 85.218C62.3701 84.84 62.5801 84.378 62.5801 83.916C62.6221 83.79 62.5801 83.664 62.5381 83.538C62.4961 83.412 62.4541 83.286 62.3701 83.202C62.2021 82.992 61.9501 82.866 61.6981 82.824C61.4461 82.782 61.1521 82.824 60.9001 82.95C60.6901 83.034 60.5221 83.244 60.4801 83.496Z" fill="#191A23"/>
<path d="M66.15 84.966C66.8923 84.966 67.494 84.3642 67.494 83.622C67.494 82.8797 66.8923 82.278 66.15 82.278C65.4078 82.278 64.806 82.8797 64.806 83.622C64.806 84.3642 65.4078 84.966 66.15 84.966Z" fill="#191A23"/>
<path d="M66.4861 83.4541C66.4861 83.6221 66.4441 83.7481 66.4021 83.9161L66.4861 83.7061C66.4441 83.8321 66.3601 84.0001 66.2761 84.0841L66.4021 83.9161C66.3181 84.0001 66.2341 84.0841 66.1081 84.1681L66.2761 84.0421C66.1921 84.0841 66.1081 84.1261 65.9821 84.1681L66.1921 84.0841C66.1081 84.1261 66.0241 84.1261 65.8981 84.1681L66.1501 84.1261C66.0661 84.1261 65.9401 84.1261 65.8561 84.1261L66.1501 84.1681C66.0661 84.1681 65.9821 84.1261 65.8981 84.1261L66.1501 84.2101C66.0661 84.1681 65.9821 84.1681 65.8981 84.1261L66.1501 84.2521C66.0661 84.2101 65.9821 84.1681 65.8981 84.0841L66.1081 84.2521C66.0241 84.1681 65.9401 84.1261 65.8981 84.0421L66.0241 84.2101C65.9401 84.0841 65.8561 83.9581 65.8141 83.8321L65.8981 84.0421C65.8561 83.9161 65.8141 83.7481 65.8141 83.6221V83.8321C65.8141 83.6641 65.8561 83.4961 65.8981 83.3281L65.8141 83.4961C65.8561 83.3701 65.9401 83.2021 66.0241 83.1181L65.8981 83.2861C65.9821 83.2021 66.0661 83.1181 66.1921 83.0341L66.0241 83.1601C66.1081 83.1181 66.1921 83.0761 66.3181 83.0341L66.0661 83.1181C66.1501 83.0761 66.2341 83.0761 66.3601 83.0341L66.1081 83.0761C66.1921 83.0761 66.3181 83.0761 66.4021 83.0761H66.1081C66.1921 83.0761 66.2761 83.1181 66.3601 83.1181L66.1081 83.0341C66.1921 83.0761 66.2761 83.0761 66.3601 83.1181L66.1081 82.9921C66.1921 83.0341 66.2761 83.0761 66.3601 83.1601L66.1921 82.9921C66.2761 83.0761 66.3601 83.1181 66.4021 83.2021L66.2761 83.0341C66.3601 83.1601 66.4021 83.2861 66.4861 83.4541L66.4021 83.2021C66.4441 83.3281 66.4861 83.4961 66.4861 83.6221V83.4541C66.4441 83.5801 66.4861 83.6641 66.5281 83.7901C66.5701 83.9161 66.6121 84.0001 66.6961 84.0421C66.9061 84.2101 67.1161 84.3361 67.4101 84.3781C67.6621 84.4201 67.9561 84.3781 68.1661 84.2941C68.3341 84.2101 68.5441 84.0421 68.5441 83.8321C68.5441 83.4121 68.4601 82.9921 68.2081 82.6561C67.9141 82.2361 67.4941 81.9421 67.0321 81.7321C66.1501 81.3961 64.9741 81.5221 64.3021 82.2781C64.0081 82.5721 63.8401 82.9501 63.7981 83.3701C63.7561 83.7901 63.8401 84.2101 64.0501 84.5881C64.6381 85.4701 65.7301 85.9321 66.7801 85.7221C67.7461 85.5961 68.4601 84.7981 68.5441 83.8321C68.5441 83.6221 68.5021 83.4121 68.3341 83.2441C68.1241 83.0761 67.9141 82.9501 67.6201 82.9081C67.3681 82.8661 67.0741 82.9081 66.8641 82.9921C66.6961 83.0761 66.4861 83.2441 66.4861 83.4541Z" fill="#191A23"/>
<path d="M73.0381 84.756C73.7804 84.756 74.3821 84.1543 74.3821 83.412C74.3821 82.6697 73.7804 82.068 73.0381 82.068C72.2958 82.068 71.6941 82.6697 71.6941 83.412C71.6941 84.1543 72.2958 84.756 73.0381 84.756Z" fill="#191A23"/>
<path d="M73.3741 83.538C73.3741 83.664 73.3741 83.79 73.3321 83.916L73.3741 83.706C73.3321 83.79 73.2901 83.916 73.2481 84L73.3741 83.79C73.3321 83.874 73.2481 83.958 73.2061 84.042L73.3741 83.832C73.2901 83.916 73.2481 83.958 73.1641 84L73.4161 83.832C73.3321 83.874 73.2901 83.916 73.2061 83.958L73.4581 83.832C73.3741 83.874 73.2901 83.916 73.2061 83.916L73.4581 83.874C73.3741 83.874 73.2481 83.916 73.1641 83.916H73.4161C73.2901 83.916 73.2061 83.916 73.0801 83.874L73.2901 83.916C73.1641 83.874 73.0381 83.832 72.9121 83.748L73.0801 83.874C72.9541 83.79 72.8281 83.706 72.7441 83.58L72.8701 83.748C72.7861 83.622 72.7021 83.496 72.6601 83.37L72.7441 83.58C72.7021 83.454 72.6601 83.286 72.6601 83.16V83.37C72.6601 83.244 72.6601 83.076 72.7021 82.95L72.6601 83.16C72.7021 83.076 72.7441 82.95 72.7861 82.866L72.6601 83.076C72.7021 82.992 72.7861 82.908 72.8281 82.824L72.6601 83.034C72.7441 82.95 72.7861 82.908 72.8701 82.866L72.6601 83.034C72.7441 82.992 72.7861 82.95 72.8701 82.908L72.6181 83.034C72.7021 82.992 72.7861 82.95 72.8701 82.95L72.6181 82.992C72.7021 82.992 72.8281 82.95 72.9121 82.95H72.6601C72.7861 82.95 72.8701 82.95 72.9961 82.992L72.7861 82.95C72.9121 82.992 73.0381 83.034 73.1641 83.118L72.9961 82.992C73.1221 83.076 73.2481 83.16 73.3321 83.286L73.2061 83.118C73.2901 83.244 73.3741 83.37 73.4161 83.496L73.3321 83.286C73.3741 83.412 73.4161 83.58 73.4161 83.706L73.3741 83.538C73.3321 83.748 73.4161 83.958 73.5841 84.126C73.7521 84.252 74.0041 84.336 74.2561 84.294C74.5501 84.252 74.8021 84.168 75.0121 83.958C75.2221 83.79 75.3481 83.58 75.3901 83.328C75.4321 82.908 75.3061 82.488 75.0541 82.11C74.8021 81.774 74.4661 81.522 74.0881 81.354C73.0381 81.018 71.9041 81.354 71.2321 82.236C70.4761 83.076 70.5601 84.378 71.4001 85.134C71.9041 85.596 72.5761 85.764 73.2061 85.596C73.8361 85.47 74.4241 85.134 74.8441 84.63C75.1381 84.252 75.3481 83.79 75.3481 83.328C75.3901 83.118 75.3061 82.908 75.1381 82.74C74.9701 82.614 74.7181 82.53 74.4661 82.572C74.1721 82.614 73.9201 82.74 73.7101 82.908C73.5421 83.034 73.4161 83.244 73.3741 83.538Z" fill="#191A23"/>
<path d="M93.5761 104.706C93.6601 102.606 95.4241 100.926 97.5241 101.01C98.1961 101.052 98.8261 101.22 99.4141 101.598C108.108 106.974 123.774 116.844 123.774 117.81C123.774 118.776 107.058 125.748 98.1121 129.36C96.1381 130.158 93.9121 129.192 93.1141 127.26C92.9041 126.756 92.8201 126.21 92.8201 125.706L93.5761 104.706Z" fill="#191A23"/>
<path d="M94.626 104.748C94.668 103.824 95.046 102.984 95.76 102.396C96.306 101.934 97.02 101.724 97.776 101.808C98.616 101.934 99.372 102.564 100.128 103.026L102.564 104.538C106.176 106.806 109.788 109.074 113.4 111.426C116.172 113.232 118.986 114.996 121.59 117.012C121.926 117.264 122.262 117.558 122.598 117.81C122.808 117.978 122.556 117.726 122.64 117.852L122.766 117.978C122.808 118.02 122.808 118.062 122.85 118.062C122.892 118.062 122.808 117.978 122.808 117.894C122.808 117.81 122.85 117.642 122.808 117.684C122.766 117.726 122.934 117.474 122.85 117.6C122.766 117.726 122.892 117.558 122.85 117.6L122.682 117.726C122.346 117.936 122.01 118.146 121.632 118.356C120.498 118.986 119.364 119.49 118.062 120.12C116.34 120.918 114.618 121.674 112.896 122.43C109.032 124.11 105.168 125.706 101.262 127.302L98.7 128.352C97.902 128.688 97.104 129.108 96.306 128.94C94.794 128.688 93.912 127.176 93.954 125.706C93.996 123.984 94.08 122.262 94.122 120.498L94.668 105.084L94.626 104.748C94.626 103.782 92.526 103.698 92.484 104.706L91.98 119.196C91.896 121.296 91.812 123.396 91.77 125.496C91.686 127.05 92.4 128.52 93.618 129.444C94.626 130.158 95.844 130.494 97.104 130.368C98.112 130.284 99.036 129.822 99.96 129.444C103.992 127.806 108.024 126.126 112.014 124.446C115.416 122.976 118.86 121.506 122.178 119.826C122.934 119.448 123.9 119.028 124.488 118.398C125.076 117.768 124.404 117.096 123.858 116.634C122.934 115.878 121.968 115.122 120.96 114.492C119.448 113.442 117.894 112.434 116.382 111.426C112.644 108.99 108.906 106.596 105.126 104.244C103.362 103.152 101.598 101.934 99.75 100.926C97.734 99.834 95.214 100.212 93.618 101.892C92.904 102.69 92.484 103.656 92.442 104.706C92.484 105.672 94.584 105.714 94.626 104.748Z" fill="#191A23"/>
</svg>
