<svg width="20" height="21" viewBox="0 0 20 21" fill="none" xmlns="http://www.w3.org/2000/svg">
<path d="M15.8105 6.62343H10.9906L12.2262 5.38788C12.441 5.48828 12.6801 5.54492 12.9324 5.54492C13.8547 5.54492 14.6055 4.79453 14.6055 3.87187C14.6055 2.9496 13.8551 2.19882 12.9324 2.19882C12.0102 2.19882 11.2594 2.94921 11.2594 3.87187C11.2594 4.09453 11.3035 4.30702 11.3828 4.50195L10 5.88515L8.6168 4.50195C8.69609 4.30742 8.74023 4.09492 8.74023 3.87187C8.74023 2.9496 7.98984 2.19882 7.06719 2.19882C6.14453 2.19882 5.39453 2.9496 5.39453 3.87226C5.39453 4.79453 6.14492 5.54531 7.06758 5.54531C7.31992 5.54531 7.55937 5.48867 7.77383 5.38827L9.00938 6.62382H4.18945C3.23477 6.62382 2.46094 7.39765 2.46094 8.35234V17.0723C2.46094 18.0269 3.23477 18.8008 4.18945 18.8008H15.8109C16.7656 18.8008 17.5395 18.0269 17.5395 17.0723V8.35234C17.5395 7.39765 16.7652 6.62343 15.8105 6.62343ZM12.9328 3.42187C13.1812 3.42187 13.3832 3.62382 13.3832 3.87226C13.3832 4.1207 13.1812 4.32265 12.9328 4.32265C12.6844 4.32265 12.4824 4.1207 12.4824 3.87226C12.4824 3.62382 12.6844 3.42187 12.9328 3.42187ZM7.06719 4.32226C6.81875 4.32226 6.6168 4.12031 6.6168 3.87187C6.6168 3.62343 6.81875 3.42148 7.06719 3.42148C7.31562 3.42148 7.51758 3.62343 7.51758 3.87187C7.51758 4.12031 7.31562 4.32226 7.06719 4.32226ZM12.2664 15.9863C12.2664 16.4035 11.9281 16.7414 11.5113 16.7414H5.29961C4.88242 16.7414 4.54453 16.4031 4.54453 15.9863V9.43788C4.54453 9.0207 4.88281 8.68281 5.29961 8.68281H11.5113C11.9285 8.68281 12.2664 9.02109 12.2664 9.43788V15.9863ZM14.9215 15.7887C14.3227 15.7887 13.8371 15.3031 13.8371 14.7043C13.8371 14.1055 14.3227 13.6199 14.9215 13.6199C15.5203 13.6199 16.0059 14.1055 16.0059 14.7043C16.0059 15.3031 15.5207 15.7887 14.9215 15.7887ZM14.9215 11.8047C14.3227 11.8047 13.8371 11.3191 13.8371 10.7203C13.8371 10.1215 14.3227 9.63593 14.9215 9.63593C15.5203 9.63593 16.0059 10.1215 16.0059 10.7203C16.0063 11.3191 15.5207 11.8047 14.9215 11.8047Z" fill="#F5F5F5"/>
</svg>
